<svg preserveAspectRatio="none" width="100%" height="100%" overflow="visible" style="display: block;" viewBox="0 0 250 271.296" fill="none" xmlns="http://www.w3.org/2000/svg">
<g id="Icon">
<g id="Icon_2">
<g id="Fill" filter="url(#filter0_dddddd_6557_109396)">
<rect x="80" y="1.2963" width="90" height="90" rx="20" fill="var(--fill-0, #F2B8EC)"/>
</g>
<g id="Icon_3">
<path d="M131.479 187.654V164.746H115V187.654H118.838V186.295C118.838 184.586 120.009 183.193 121.426 183.193H125.052C126.471 183.193 127.65 184.586 127.65 186.295V187.654H131.479ZM119.55 179.465C119.55 179.586 119.531 179.713 119.492 179.825C119.454 179.937 119.4 180.041 119.329 180.127C119.258 180.213 119.172 180.278 119.079 180.324C118.986 180.371 118.881 180.394 118.78 180.394H116.962C116.862 180.394 116.757 180.371 116.664 180.324C116.571 180.278 116.485 180.213 116.414 180.127C116.343 180.041 116.289 179.937 116.251 179.825C116.212 179.713 116.193 179.586 116.193 179.465V177.292C116.193 177.171 116.212 177.045 116.251 176.932C116.289 176.82 116.343 176.716 116.414 176.63C116.485 176.544 116.571 176.479 116.664 176.432C116.757 176.386 116.862 176.362 116.962 176.362H118.78C118.881 176.362 118.985 176.386 119.079 176.432C119.172 176.479 119.258 176.544 119.329 176.63C119.4 176.716 119.454 176.819 119.492 176.932C119.531 177.044 119.55 177.17 119.55 177.292V179.465ZM119.55 173.04C119.55 173.162 119.531 173.288 119.492 173.401C119.454 173.513 119.4 173.617 119.329 173.702C119.258 173.789 119.172 173.853 119.079 173.9C118.986 173.946 118.881 173.97 118.78 173.97H116.962C116.862 173.97 116.757 173.947 116.664 173.9C116.571 173.853 116.485 173.788 116.414 173.702C116.343 173.617 116.289 173.513 116.251 173.401C116.212 173.288 116.193 173.162 116.193 173.04V170.856C116.193 170.735 116.212 170.62 116.251 170.508C116.289 170.396 116.343 170.292 116.414 170.206C116.485 170.12 116.571 170.043 116.664 169.996C116.757 169.95 116.862 169.926 116.962 169.926H118.78C118.881 169.926 118.985 169.949 119.079 169.996C119.172 170.043 119.258 170.119 119.329 170.206C119.4 170.291 119.454 170.395 119.492 170.508C119.531 170.62 119.55 170.735 119.55 170.856V173.04ZM121.561 170.752C121.561 170.63 121.58 170.504 121.619 170.392C121.657 170.28 121.711 170.176 121.782 170.09C121.853 170.004 121.939 169.939 122.032 169.892C122.125 169.846 122.23 169.823 122.331 169.823H123.956C124.057 169.823 124.161 169.846 124.255 169.892C124.347 169.939 124.433 170.004 124.505 170.09C124.576 170.175 124.63 170.279 124.668 170.392C124.707 170.504 124.726 170.63 124.726 170.752V172.704C124.726 172.825 124.707 172.94 124.668 173.052C124.63 173.164 124.576 173.268 124.505 173.354C124.434 173.44 124.348 173.517 124.255 173.563C124.162 173.609 124.057 173.633 123.956 173.633H122.331C122.23 173.633 122.125 173.61 122.032 173.563C121.939 173.517 121.853 173.44 121.782 173.354C121.711 173.268 121.657 173.165 121.619 173.052C121.58 172.94 121.561 172.825 121.561 172.704V170.752ZM124.774 179.186C124.774 179.307 124.754 179.422 124.716 179.534C124.677 179.647 124.623 179.75 124.552 179.836C124.481 179.923 124.395 179.999 124.302 180.046C124.209 180.092 124.105 180.115 124.004 180.115H122.33C122.229 180.115 122.125 180.092 122.032 180.046C121.939 179.999 121.853 179.923 121.781 179.836C121.71 179.75 121.656 179.647 121.618 179.534C121.58 179.422 121.56 179.308 121.56 179.186V177.176C121.56 177.055 121.579 176.929 121.618 176.816C121.656 176.704 121.71 176.6 121.781 176.514C121.853 176.428 121.938 176.363 122.032 176.317C122.125 176.27 122.229 176.247 122.33 176.247H124.004C124.105 176.247 124.209 176.27 124.302 176.317C124.395 176.363 124.481 176.428 124.552 176.514C124.624 176.6 124.677 176.704 124.716 176.816C124.754 176.929 124.774 177.055 124.774 177.176V179.186ZM126.928 170.856C126.928 170.735 126.947 170.62 126.986 170.508C127.025 170.396 127.079 170.292 127.15 170.206C127.221 170.12 127.307 170.043 127.4 169.996C127.493 169.95 127.597 169.926 127.698 169.926H129.516C129.617 169.926 129.721 169.949 129.814 169.996C129.907 170.043 129.993 170.119 130.064 170.206C130.136 170.291 130.189 170.395 130.228 170.508C130.266 170.62 130.285 170.735 130.285 170.856V173.04C130.285 173.162 130.266 173.288 130.228 173.401C130.189 173.513 130.136 173.617 130.064 173.702C129.993 173.789 129.907 173.853 129.814 173.9C129.721 173.946 129.617 173.97 129.516 173.97H127.698C127.597 173.97 127.493 173.947 127.4 173.9C127.307 173.853 127.221 173.788 127.15 173.702C127.078 173.617 127.025 173.513 126.986 173.401C126.948 173.288 126.928 173.162 126.928 173.04V170.856ZM127.4 180.324C127.307 180.278 127.221 180.212 127.15 180.127C127.079 180.041 127.025 179.937 126.986 179.824C126.948 179.712 126.929 179.586 126.929 179.464V177.292C126.929 177.171 126.948 177.045 126.986 176.932C127.025 176.82 127.079 176.716 127.15 176.63C127.221 176.544 127.307 176.479 127.4 176.432C127.493 176.386 127.598 176.362 127.698 176.362H129.516C129.617 176.362 129.721 176.386 129.815 176.432C129.907 176.479 129.993 176.544 130.065 176.63C130.136 176.716 130.19 176.819 130.228 176.932C130.267 177.044 130.286 177.17 130.286 177.292V179.465C130.286 179.586 130.267 179.713 130.228 179.825C130.19 179.937 130.136 180.041 130.065 180.127C129.994 180.213 129.908 180.278 129.815 180.324C129.722 180.371 129.617 180.394 129.516 180.394H127.698C127.597 180.394 127.493 180.37 127.4 180.324Z" fill="white"/>
<path d="M134.953 159.028H119.081L116.03 162.887H131.89L134.953 159.028Z" fill="white"/>
<path d="M133.017 186.262L136 182.491V160.395L133.017 164.153V186.262Z" fill="white"/>
<path d="M121.424 185.048C120.841 185.048 120.375 185.612 120.375 186.297V187.651H126.106V186.297C126.106 185.612 125.642 185.048 125.054 185.048H121.424Z" fill="white"/>
</g>
</g>
</g>
<defs>
<filter id="filter0_dddddd_6557_109396" x="0" y="0" width="250" height="271.296" filterUnits="userSpaceOnUse" color-interpolation-filters="sRGB">
<feFlood flood-opacity="0" result="BackgroundImageFix"/>
<feColorMatrix in="SourceAlpha" type="matrix" values="0 0 0 0 0 0 0 0 0 0 0 0 0 0 0 0 0 0 127 0" result="hardAlpha"/>
<feOffset dy="1.85185"/>
<feGaussianBlur stdDeviation="1.57407"/>
<feColorMatrix type="matrix" values="0 0 0 0 0.94902 0 0 0 0 0.721569 0 0 0 0 0.92549 0 0 0 0.0168519 0"/>
<feBlend mode="normal" in2="BackgroundImageFix" result="effect1_dropShadow_6557_109396"/>
<feColorMatrix in="SourceAlpha" type="matrix" values="0 0 0 0 0 0 0 0 0 0 0 0 0 0 0 0 0 0 127 0" result="hardAlpha"/>
<feOffset dy="8.14815"/>
<feGaussianBlur stdDeviation="3.25926"/>
<feColorMatrix type="matrix" values="0 0 0 0 0.94902 0 0 0 0 0.721569 0 0 0 0 0.92549 0 0 0 0.0274815 0"/>
<feBlend mode="normal" in2="effect1_dropShadow_6557_109396" result="effect2_dropShadow_6557_109396"/>
<feColorMatrix in="SourceAlpha" type="matrix" values="0 0 0 0 0 0 0 0 0 0 0 0 0 0 0 0 0 0 127 0" result="hardAlpha"/>
<feOffset dy="20"/>
<feGaussianBlur stdDeviation="6.5"/>
<feColorMatrix type="matrix" values="0 0 0 0 0.94902 0 0 0 0 0.721569 0 0 0 0 0.92549 0 0 0 0.035 0"/>
<feBlend mode="normal" in2="effect2_dropShadow_6557_109396" result="effect3_dropShadow_6557_109396"/>
<feColorMatrix in="SourceAlpha" type="matrix" values="0 0 0 0 0 0 0 0 0 0 0 0 0 0 0 0 0 0 127 0" result="hardAlpha"/>
<feOffset dy="38.5185"/>
<feGaussianBlur stdDeviation="12.7407"/>
<feColorMatrix type="matrix" values="0 0 0 0 0.94902 0 0 0 0 0.721569 0 0 0 0 0.92549 0 0 0 0.0425185 0"/>
<feBlend mode="normal" in2="effect3_dropShadow_6557_109396" result="effect4_dropShadow_6557_109396"/>
<feColorMatrix in="SourceAlpha" type="matrix" values="0 0 0 0 0 0 0 0 0 0 0 0 0 0 0 0 0 0 127 0" result="hardAlpha"/>
<feOffset dy="64.8148"/>
<feGaussianBlur stdDeviation="23.4259"/>
<feColorMatrix type="matrix" values="0 0 0 0 0.94902 0 0 0 0 0.721569 0 0 0 0 0.92549 0 0 0 0.0531481 0"/>
<feBlend mode="normal" in2="effect4_dropShadow_6557_109396" result="effect5_dropShadow_6557_109396"/>
<feColorMatrix in="SourceAlpha" type="matrix" values="0 0 0 0 0 0 0 0 0 0 0 0 0 0 0 0 0 0 127 0" result="hardAlpha"/>
<feOffset dy="100"/>
<feGaussianBlur stdDeviation="40"/>
<feColorMatrix type="matrix" values="0 0 0 0 0.94902 0 0 0 0 0.721569 0 0 0 0 0.92549 0 0 0 0.07 0"/>
<feBlend mode="normal" in2="effect5_dropShadow_6557_109396" result="effect6_dropShadow_6557_109396"/>
<feBlend mode="normal" in="SourceGraphic" in2="effect6_dropShadow_6557_109396" result="shape"/>
</filter>
</defs>
</svg>
