<svg preserveAspectRatio="none" width="100%" height="100%" overflow="visible" style="display: block;" viewBox="0 0 20 20" fill="none" xmlns="http://www.w3.org/2000/svg">
<g id="material-symbols-light:account-balance-outline-rounded">
<path id="Vector" d="M5.23305 13.2823V7.64683C5.23305 7.53251 5.2717 7.43697 5.34898 7.36023C5.42627 7.28348 5.52207 7.24483 5.63639 7.2443C5.75071 7.24376 5.84624 7.2824 5.92299 7.36023C5.99974 7.43805 6.03811 7.53358 6.03811 7.64683V13.2823C6.03811 13.3966 5.99947 13.4921 5.92219 13.5689C5.8449 13.6456 5.7491 13.6843 5.63478 13.6848C5.52046 13.6853 5.42493 13.6467 5.34818 13.5689C5.27143 13.491 5.23305 13.3955 5.23305 13.2823ZM9.25836 13.2823V7.64683C9.25836 7.53251 9.29701 7.43697 9.37429 7.36023C9.45158 7.28348 9.54738 7.24483 9.6617 7.2443C9.77602 7.24376 9.87155 7.2824 9.9483 7.36023C10.025 7.43805 10.0634 7.53358 10.0634 7.64683V13.2823C10.0634 13.3966 10.0248 13.4921 9.9475 13.5689C9.87021 13.6456 9.77441 13.6843 9.66009 13.6848C9.54577 13.6853 9.45023 13.6467 9.37349 13.5689C9.29674 13.491 9.25836 13.3955 9.25836 13.2823ZM3.25179 16.1C3.13748 16.1 3.04167 16.0613 2.96439 15.984C2.8871 15.9068 2.84846 15.811 2.84846 15.6966C2.84846 15.5823 2.8871 15.4868 2.96439 15.41C3.04167 15.3333 3.13721 15.2949 3.25099 15.2949H16.0708C16.1846 15.2949 16.2801 15.3336 16.3574 15.4108C16.4347 15.4881 16.4731 15.5839 16.4725 15.6983C16.472 15.8126 16.4336 15.9081 16.3574 15.9849C16.2812 16.0616 16.1854 16.1 16.07 16.1H3.25179ZM13.2837 13.2823V7.64683C13.2837 7.53251 13.3223 7.43697 13.3996 7.36023C13.4769 7.28348 13.5727 7.24483 13.687 7.2443C13.8013 7.24376 13.8969 7.2824 13.9736 7.36023C14.0504 7.43805 14.0887 7.53358 14.0887 7.64683V13.2823C14.0887 13.3966 14.0501 13.4921 13.9728 13.5689C13.8955 13.6456 13.7997 13.6843 13.6854 13.6848C13.5711 13.6853 13.4755 13.6467 13.3988 13.5689C13.322 13.491 13.2837 13.3955 13.2837 13.2823ZM16.1328 5.63417H3.15438C3.06958 5.63417 2.99713 5.60465 2.93702 5.54562C2.87798 5.48658 2.84846 5.41466 2.84846 5.32986V5.14308C2.84846 5.08083 2.86402 5.02742 2.89515 4.98288C2.92628 4.93887 2.96734 4.90291 3.01833 4.875L9.10621 1.97034C9.2801 1.88393 9.46419 1.84072 9.65848 1.84072C9.85277 1.84072 10.0379 1.88393 10.214 1.97034L16.2769 4.85487C16.3316 4.89083 16.3778 4.93457 16.4154 4.9861C16.4529 5.03762 16.4717 5.09639 16.4717 5.16241V5.29685C16.4717 5.39883 16.4411 5.48014 16.3799 5.54079C16.3188 5.60251 16.2361 5.63337 16.132 5.63337M4.97543 4.82911H14.3447L9.87665 2.70777C9.80473 2.67718 9.73254 2.66188 9.66009 2.66188C9.58763 2.66188 9.51518 2.67718 9.44272 2.70777L4.97543 4.82911Z" fill="var(--fill-0, black)"/>
</g>
</svg>
