<svg preserveAspectRatio="none" width="100%" height="100%" overflow="visible" style="display: block;" viewBox="0 0 85 17" fill="none" xmlns="http://www.w3.org/2000/svg">
<g id="Frame 1000005496">
<g id="logos:mastercard" clip-path="url(#clip0_6259_109095)">
<path id="Vector" d="M3.897 16.5815V15.4786C3.897 15.0558 3.6396 14.7801 3.1984 14.7801C2.97784 14.7801 2.73886 14.8536 2.5734 15.0926C2.44479 14.8904 2.26099 14.7801 1.98525 14.7801C1.80137 14.7801 1.61765 14.8352 1.47053 15.0374V14.8169H1.08451V16.5815H1.47053V15.6073C1.47053 15.2948 1.63599 15.1477 1.89339 15.1477C2.15063 15.1477 2.27941 15.3132 2.27941 15.6073V16.5815H2.66543V15.6073C2.66543 15.2948 2.84914 15.1477 3.08812 15.1477C3.34552 15.1477 3.47414 15.3132 3.47414 15.6073V16.5815H3.897ZM9.61366 14.8169H8.98874V14.2838H8.60273V14.8169H8.25347V15.1661H8.60264V15.9749C8.60264 16.3794 8.7681 16.6183 9.2093 16.6183C9.37476 16.6183 9.55848 16.5632 9.68726 16.4897L9.5769 16.1587C9.46662 16.2323 9.338 16.2507 9.24606 16.2507C9.06226 16.2507 8.98874 16.1404 8.98874 15.9565V15.1661H9.61366V14.8169ZM12.8857 14.78C12.6651 14.78 12.5181 14.8904 12.4261 15.0374V14.8169H12.0401V16.5815H12.4261V15.5889C12.4261 15.2948 12.5548 15.1294 12.7937 15.1294C12.8673 15.1294 12.9592 15.1478 13.0327 15.1661L13.143 14.7986C13.0695 14.7801 12.9592 14.7801 12.8857 14.7801M7.94097 14.964C7.75709 14.8353 7.49977 14.7802 7.22403 14.7802C6.78292 14.7802 6.48884 15.0008 6.48884 15.35C6.48884 15.6442 6.7094 15.8096 7.09542 15.8647L7.27921 15.8832C7.48143 15.9198 7.59171 15.975 7.59171 16.067C7.59171 16.1956 7.44468 16.2875 7.18727 16.2875C6.92987 16.2875 6.72774 16.1956 6.59904 16.1037L6.41524 16.3978C6.61746 16.5448 6.8932 16.6184 7.16885 16.6184C7.68357 16.6184 7.97773 16.3795 7.97773 16.0485C7.97773 15.736 7.73875 15.5706 7.37107 15.5155L7.18727 15.4971C7.02181 15.4786 6.8932 15.442 6.8932 15.3317C6.8932 15.203 7.02181 15.1295 7.22403 15.1295C7.44467 15.1295 7.66523 15.2213 7.77551 15.2765L7.94097 14.964ZM18.1981 14.7802C17.9774 14.7802 17.8304 14.8905 17.7384 15.0375V14.817H17.3524V16.5816H17.7384V15.589C17.7384 15.2949 17.8671 15.1295 18.106 15.1295C18.1796 15.1295 18.2716 15.1479 18.3451 15.1662L18.4554 14.7986C18.3819 14.7802 18.2716 14.7802 18.1981 14.7802ZM13.2717 15.6993C13.2717 16.2323 13.6393 16.6184 14.2092 16.6184C14.4665 16.6184 14.6503 16.5633 14.8341 16.4162L14.6503 16.1037C14.5033 16.214 14.3562 16.2691 14.1908 16.2691C13.8783 16.2691 13.6577 16.0485 13.6577 15.6993C13.6577 15.3685 13.8783 15.1478 14.1908 15.1295C14.3562 15.1295 14.5033 15.1846 14.6503 15.2949L14.8341 14.9824C14.6503 14.8353 14.4665 14.7802 14.2092 14.7802C13.6393 14.7802 13.2717 15.1662 13.2717 15.6993ZM16.8378 15.6993V14.817H16.4518V15.0375C16.3231 14.8722 16.1393 14.7802 15.9003 14.7802C15.404 14.7802 15.018 15.1662 15.018 15.6993C15.018 16.2323 15.404 16.6184 15.9003 16.6184C16.1576 16.6184 16.3415 16.5265 16.4518 16.361V16.5816H16.8378V15.6993ZM15.4223 15.6993C15.4223 15.3868 15.6246 15.1295 15.9554 15.1295C16.2679 15.1295 16.4885 15.3685 16.4885 15.6993C16.4885 16.0118 16.2679 16.2691 15.9554 16.2691C15.6246 16.2507 15.4223 16.0118 15.4223 15.6993ZM10.8086 14.7802C10.2938 14.7802 9.92616 15.1478 9.92616 15.6993C9.92616 16.2508 10.2938 16.6184 10.8269 16.6184C11.0842 16.6184 11.3416 16.5448 11.5438 16.3795L11.3599 16.1037C11.2129 16.214 11.0291 16.2875 10.8453 16.2875C10.6063 16.2875 10.3674 16.1772 10.3122 15.8647H11.6173V15.7177C11.6358 15.1478 11.3049 14.7802 10.8086 14.7802ZM10.8085 15.111C11.0474 15.111 11.2129 15.2582 11.2496 15.5339H10.3305C10.3673 15.2949 10.5327 15.111 10.8085 15.111ZM20.3854 15.6993V14.1185H19.9994V15.0375C19.8707 14.8722 19.6869 14.7802 19.4479 14.7802C18.9516 14.7802 18.5656 15.1662 18.5656 15.6993C18.5656 16.2323 18.9516 16.6184 19.4479 16.6184C19.7053 16.6184 19.8891 16.5265 19.9994 16.361V16.5816H20.3854V15.6993ZM18.97 15.6993C18.97 15.3868 19.1722 15.1295 19.5031 15.1295C19.8156 15.1295 20.0361 15.3685 20.0361 15.6993C20.0361 16.0118 19.8156 16.2691 19.5031 16.2691C19.1722 16.2507 18.97 16.0118 18.97 15.6993ZM6.0659 15.6993V14.817H5.67988V15.0375C5.55118 14.8722 5.36738 14.7802 5.1284 14.7802C4.63211 14.7802 4.24609 15.1662 4.24609 15.6993C4.24609 16.2323 4.63211 16.6184 5.1284 16.6184C5.3858 16.6184 5.5696 16.5265 5.67988 16.361V16.5816H6.0659V15.6993ZM4.63211 15.6993C4.63211 15.3868 4.83433 15.1295 5.16516 15.1295C5.47766 15.1295 5.6983 15.3685 5.6983 15.6993C5.6983 16.0118 5.47766 16.2691 5.16516 16.2691C4.83433 16.2507 4.63211 16.0118 4.63211 15.6993Z" fill="var(--fill-0, black)"/>
<path id="Vector_2" d="M7.81396 1.41551H13.6042V11.8196H7.81396V1.41551Z" fill="var(--fill-0, #FF5F00)"/>
<path id="Vector_3" d="M8.18044 6.61762C8.18044 4.50373 9.17303 2.62874 10.6987 1.41551C9.57747 0.533193 8.1621 0.000137329 6.61803 0.000137329C2.95991 0.000137329 0.000469208 2.95958 0.000469208 6.61762C0.000469208 10.2757 2.95991 13.2351 6.61795 13.2351C8.16202 13.2351 9.57739 12.702 10.6987 11.8196C9.17303 10.6248 8.18044 8.7315 8.18044 6.61762Z" fill="var(--fill-0, #EB001B)"/>
<path id="Vector_4" d="M21.4169 6.61762C21.4169 10.2756 18.4575 13.2351 14.7994 13.2351C13.2553 13.2351 11.84 12.702 10.7187 11.8196C12.2628 10.6065 13.237 8.7315 13.237 6.61762C13.237 4.50373 12.2443 2.62874 10.7187 1.41551C11.8399 0.533193 13.2553 0.000137329 14.7994 0.000137329C18.4575 0.000137329 21.4169 2.978 21.4169 6.61762Z" fill="var(--fill-0, #F79E1B)"/>
</g>
<g id="logos:visaelectron" clip-path="url(#clip1_6259_109095)">
<path id="Vector_5" d="M38.1382 1.56593L34.0556 11.3054H31.3922L29.3831 3.53239C29.2613 3.05478 29.1554 2.87902 28.7848 2.67706C28.1789 2.34794 27.1784 2.04013 26.2989 1.84865L26.3582 1.56593H30.6463C31.192 1.56593 31.6834 1.92929 31.8084 2.55842L32.8699 8.1948L35.4907 1.56593H38.1382ZM41.7388 1.56593L39.6556 11.3054H37.1356L39.2191 1.56593H41.7388ZM48.5742 8.1255C48.5846 5.55549 45.0206 5.41285 45.0438 4.26457C45.0524 3.91547 45.3849 3.54384 46.1128 3.44883C46.4734 3.40218 47.4695 3.36503 48.5978 3.8849L49.0392 1.81832C48.433 1.59907 47.6528 1.3881 46.6824 1.3881C44.1914 1.3881 42.4392 2.71117 42.4252 4.60722C42.4089 6.00971 43.6768 6.79134 44.6303 7.25847C45.6124 7.73547 45.9418 8.04206 45.9373 8.46838C45.9302 9.12188 45.1529 9.41117 44.4302 9.42189C43.1629 9.44199 42.4283 9.07937 41.8423 8.8064L41.3849 10.9414C41.9744 11.2116 43.0609 11.4463 44.1863 11.4583C46.8344 11.4583 48.5664 10.1503 48.5742 8.1255ZM55.1518 11.3055H57.4816L55.4462 1.56593H53.2966C52.8118 1.56593 52.4044 1.84731 52.2236 2.27985L48.4427 11.3054H51.0888L51.6136 9.85053H54.8464L55.1518 11.3055ZM52.3392 7.85484L53.666 4.19734L54.4281 7.85484H52.3392ZM44.9638 13.9864H43.9399V14.9393H45.0851V15.2258H43.5949V12.5822H45.0264V12.8687H43.9399V13.7039H44.9637L44.9638 13.9864ZM45.6141 12.4411H45.9591V15.2256H45.6141V12.4411ZM46.8295 14.3392C46.8373 14.8061 47.1316 14.9982 47.4805 14.9982C47.7277 14.9982 47.8806 14.9551 48.0063 14.9003L48.0689 15.1474C47.9474 15.2023 47.7357 15.2689 47.4334 15.2689C46.8493 15.2689 46.5003 14.8807 46.5003 14.3079C46.5003 13.7354 46.8373 13.2882 47.3904 13.2882C48.0141 13.2882 48.1749 13.8296 48.1749 14.1786C48.1749 14.2491 48.1709 14.3 48.1629 14.3394L46.8295 14.3392ZM47.8414 14.0922C47.8454 13.8766 47.7512 13.5353 47.3629 13.5353C47.0099 13.5353 46.8608 13.853 46.8333 14.0922H47.8414ZM50.0527 15.159C49.9625 15.2023 49.7624 15.269 49.5076 15.269C48.935 15.269 48.5624 14.8807 48.5624 14.3001C48.5624 13.7157 48.9622 13.2883 49.582 13.2883C49.7859 13.2883 49.9663 13.3391 50.0605 13.3902L49.9823 13.653C49.8996 13.6099 49.7702 13.5626 49.582 13.5626C49.1465 13.5626 48.9115 13.8882 48.9115 14.2807C48.9115 14.7198 49.1938 14.9904 49.5703 14.9904C49.7664 14.9904 49.8958 14.9434 49.9938 14.9003L50.0527 15.159ZM51.0208 12.8724V13.3274H51.5148V13.59H51.0208V14.6138C51.0208 14.8494 51.0875 14.9825 51.2796 14.9825C51.3737 14.9825 51.4287 14.9748 51.4798 14.9589L51.4955 15.222C51.4287 15.2454 51.3229 15.2689 51.1895 15.2689C51.0286 15.2689 50.8991 15.2139 50.8169 15.1239C50.7227 15.0178 50.6835 14.8494 50.6835 14.6257V13.59H50.3892V13.3274H50.6835V12.9744L51.0208 12.8724ZM51.9968 13.9197C51.9968 13.6961 51.9927 13.504 51.9811 13.3274H52.2832L52.299 13.7038H52.3105C52.397 13.4491 52.6085 13.2882 52.8399 13.2882C52.8753 13.2882 52.9028 13.2922 52.9343 13.296V13.6217C52.8989 13.6136 52.8637 13.6136 52.8164 13.6136C52.5735 13.6136 52.4006 13.794 52.3537 14.0531C52.3456 14.1063 52.3417 14.1601 52.3419 14.2139V15.2259H51.9968V13.9197ZM55.0555 14.2608C55.0555 14.9629 54.5651 15.2689 54.1103 15.2689C53.6003 15.2689 53.2004 14.8923 53.2004 14.2924C53.2004 13.6608 53.62 13.2883 54.1417 13.2883C54.6868 13.2883 55.0555 13.684 55.0555 14.2608ZM53.5533 14.2807C53.5533 14.6964 53.7886 15.0103 54.1259 15.0103C54.4555 15.0103 54.7024 14.7002 54.7024 14.2727C54.7024 13.9512 54.5416 13.547 54.1337 13.547C53.7299 13.547 53.5533 13.9238 53.5533 14.2807ZM55.5844 13.8413C55.5844 13.6414 55.5803 13.4844 55.5686 13.3276H55.8746L55.8942 13.6414H55.902C55.9961 13.4648 56.2157 13.2884 56.5295 13.2884C56.7921 13.2884 57.2002 13.4453 57.2002 14.0961V15.2259H56.8551V14.1316C56.8551 13.8258 56.7413 13.5706 56.4159 13.5706C56.1922 13.5706 56.0156 13.7316 55.9531 13.9236C55.9373 13.9669 55.9295 14.0256 55.9295 14.0845V15.2259H55.5844V13.8413Z" fill="var(--fill-0, #1A1F71)"/>
</g>
<path id="Vector_6" d="M64.7497 0.303757C63.4291 0.303757 62.3413 1.39153 62.3413 2.71211V13.9511C62.3413 15.2717 63.4291 16.3595 64.7497 16.3595H82.4109C83.7315 16.3595 84.8193 15.2717 84.8193 13.9511V2.71211C84.8193 1.39153 83.7315 0.303757 82.4109 0.303757H64.7497ZM64.7497 1.90933H82.4109C82.8653 1.90933 83.2137 2.25774 83.2137 2.71211V13.9511C83.2137 14.4055 82.8653 14.7539 82.4109 14.7539H64.7497C64.2953 14.7539 63.9469 14.4055 63.9469 13.9511V2.71211C63.9469 2.25774 64.2953 1.90933 64.7497 1.90933ZM69.5648 4.31769C69.1915 4.31769 68.7652 4.53042 68.489 4.8411C68.2755 5.0988 68.0435 5.50822 68.1238 5.91683C68.5067 5.96179 68.9249 5.72176 69.165 5.41108C69.4315 5.12609 69.5824 4.7263 69.5648 4.31769ZM71.1719 5.92326V10.74H71.9201V9.09025H72.9613C73.9046 9.09025 74.5709 8.44159 74.5709 7.50715C74.5709 6.56388 73.9126 5.92326 72.9782 5.92326H71.1719ZM67.028 6.34311C66.1931 6.34311 65.5524 7.07365 65.5524 8.12128C65.5524 9.48602 66.511 10.74 67.1098 10.74C67.4711 10.74 67.6028 10.4967 68.0828 10.4967C68.5252 10.4967 68.6648 10.74 69.0413 10.74C69.7558 10.74 70.3467 9.28693 70.3691 9.19862C70.2511 9.13922 69.564 8.81569 69.5648 8.03378C69.5648 7.27434 70.1917 6.93396 70.2214 6.91871C69.8746 6.40252 69.3287 6.34311 69.1224 6.34311C68.6432 6.34311 68.2241 6.60241 67.9953 6.60241C67.7593 6.60241 67.4117 6.34311 67.028 6.34311ZM71.9201 6.55505H72.7823C73.4318 6.55505 73.8059 6.90185 73.8059 7.50715C73.8059 8.11245 73.4318 8.46809 72.7823 8.46809H71.9201V6.55505ZM76.3338 7.15232C75.5423 7.15232 74.9539 7.6067 74.937 8.22966H75.6121C75.6659 7.93584 75.9413 7.73996 76.3146 7.73996C76.777 7.73996 77.0283 7.9543 77.0283 8.34606V8.61259L76.0938 8.67521C75.2308 8.72899 74.758 9.08463 74.758 9.69876C74.758 10.3217 75.2388 10.74 75.9325 10.74C76.4037 10.74 76.8412 10.4991 77.0363 10.125H77.0531V10.7038H77.7476V8.30191C77.7476 7.6075 77.188 7.15232 76.3338 7.15232ZM78.055 7.19808L79.3186 10.7135L79.256 10.9262C79.1404 11.2827 78.9533 11.4255 78.6242 11.4255C78.5624 11.4255 78.4476 11.4159 78.4034 11.4159V11.9939C78.4484 12.0028 78.633 12.0116 78.6868 12.0116C79.4173 12.0116 79.7641 11.7274 80.0676 10.8909L81.3745 7.19808H80.6175L79.7377 10.0456H79.7184L78.8393 7.19808H78.055ZM77.0275 9.11834V9.38647H77.0266C77.0266 9.84005 76.6445 10.1596 76.138 10.1596C75.7366 10.1596 75.4885 9.97411 75.4885 9.68029C75.4885 9.37764 75.7285 9.19862 76.2006 9.17213L77.0275 9.11834Z" fill="var(--fill-0, black)"/>
</g>
<defs>
<clipPath id="clip0_6259_109095">
<rect width="21.4383" height="16.6632" fill="white"/>
</clipPath>
<clipPath id="clip1_6259_109095">
<rect width="31.1828" height="13.886" fill="white" transform="translate(26.2984 1.3886)"/>
</clipPath>
</defs>
</svg>
