<svg preserveAspectRatio="none" width="100%" height="100%" overflow="visible" style="display: block;" viewBox="0 0 27 27" fill="none" xmlns="http://www.w3.org/2000/svg">
<g id="mdi:naira">
<path id="Vector" d="M4.38896 9.88192H6.58493V3.29401H8.78089L12.536 9.88192H17.5648V3.29401H19.7607V9.88192H21.9567V12.0779H19.7607V14.2739H21.9567V16.4698H19.7607V23.0577H17.5648L13.7987 16.4698H8.78089V23.0577H6.58493V16.4698H4.38896V14.2739H6.58493V12.0779H4.38896V9.88192ZM8.78089 9.88192H10.0216L8.78089 7.71889V9.88192ZM8.78089 12.0779V14.2739H12.536L11.2843 12.0779H8.78089ZM17.5648 18.6658V16.4698H16.3021L17.5648 18.6658ZM13.7877 12.0779L15.0504 14.2739H17.5648V12.0779H13.7877Z" fill="var(--fill-0, black)"/>
</g>
</svg>
