<svg preserveAspectRatio="none" width="100%" height="100%" overflow="visible" style="display: block;" viewBox="0 0 22 17" fill="none" xmlns="http://www.w3.org/2000/svg">
<g id="logos:mastercard" clip-path="url(#clip0_6259_109066)">
<path id="Vector" d="M3.89628 16.5814V15.4785C3.89628 15.0556 3.63888 14.78 3.19768 14.78C2.97712 14.78 2.73814 14.8535 2.57268 15.0925C2.44407 14.8903 2.26027 14.78 1.98453 14.78C1.80065 14.78 1.61693 14.8351 1.46981 15.0373V14.8167H1.08379V16.5814H1.46981V15.6071C1.46981 15.2947 1.63527 15.1476 1.89267 15.1476C2.1499 15.1476 2.27869 15.313 2.27869 15.6071V16.5814H2.66471V15.6071C2.66471 15.2947 2.84842 15.1476 3.0874 15.1476C3.3448 15.1476 3.47342 15.313 3.47342 15.6071V16.5814H3.89628ZM9.61294 14.8167H8.98802V14.2837H8.60201V14.8167H8.25275V15.1659H8.60192V15.9748C8.60192 16.3792 8.76738 16.6181 9.20858 16.6181C9.37404 16.6181 9.55776 16.563 9.68654 16.4895L9.57618 16.1586C9.4659 16.2321 9.33728 16.2505 9.24534 16.2505C9.06154 16.2505 8.98802 16.1402 8.98802 15.9564V15.1659H9.61294V14.8167ZM12.885 14.7799C12.6644 14.7799 12.5174 14.8903 12.4254 15.0373V14.8167H12.0394V16.5814H12.4254V15.5888C12.4254 15.2947 12.554 15.1292 12.793 15.1292C12.8665 15.1292 12.9585 15.1477 13.032 15.166L13.1423 14.7984C13.0688 14.78 12.9585 14.78 12.885 14.78M7.94025 14.9639C7.75637 14.8352 7.49905 14.7801 7.22331 14.7801C6.7822 14.7801 6.48812 15.0006 6.48812 15.3499C6.48812 15.644 6.70868 15.8094 7.0947 15.8646L7.27849 15.883C7.48071 15.9197 7.59099 15.9749 7.59099 16.0668C7.59099 16.1954 7.44395 16.2874 7.18655 16.2874C6.92915 16.2874 6.72702 16.1954 6.59832 16.1036L6.41452 16.3976C6.61674 16.5447 6.89248 16.6182 7.16813 16.6182C7.68285 16.6182 7.97701 16.3793 7.97701 16.0484C7.97701 15.7359 7.73803 15.5704 7.37035 15.5153L7.18655 15.4969C7.02109 15.4785 6.89248 15.4418 6.89248 15.3315C6.89248 15.2028 7.02109 15.1293 7.22331 15.1293C7.44395 15.1293 7.66451 15.2212 7.77479 15.2764L7.94025 14.9639ZM18.1973 14.7801C17.9767 14.7801 17.8297 14.8903 17.7377 15.0374V14.8168H17.3517V16.5814H17.7377V15.5889C17.7377 15.2948 17.8664 15.1293 18.1053 15.1293C18.1789 15.1293 18.2709 15.1477 18.3444 15.1661L18.4547 14.7985C18.3811 14.7801 18.2709 14.7801 18.1973 14.7801ZM13.271 15.6991C13.271 16.2322 13.6386 16.6182 14.2085 16.6182C14.4658 16.6182 14.6496 16.5631 14.8334 16.4161L14.6496 16.1036C14.5025 16.2138 14.3555 16.2689 14.19 16.2689C13.8776 16.2689 13.657 16.0484 13.657 15.6991C13.657 15.3683 13.8776 15.1477 14.19 15.1293C14.3555 15.1293 14.5025 15.1844 14.6496 15.2948L14.8334 14.9823C14.6496 14.8352 14.4658 14.7801 14.2085 14.7801C13.6386 14.7801 13.271 15.1661 13.271 15.6991ZM16.8371 15.6991V14.8168H16.4511V15.0374C16.3224 14.872 16.1386 14.7801 15.8996 14.7801C15.4033 14.7801 15.0173 15.1661 15.0173 15.6991C15.0173 16.2322 15.4033 16.6182 15.8996 16.6182C16.1569 16.6182 16.3408 16.5263 16.4511 16.3609V16.5814H16.8371V15.6991ZM15.4216 15.6991C15.4216 15.3866 15.6238 15.1293 15.9547 15.1293C16.2672 15.1293 16.4878 15.3683 16.4878 15.6991C16.4878 16.0116 16.2672 16.2689 15.9547 16.2689C15.6238 16.2505 15.4216 16.0116 15.4216 15.6991ZM10.8078 14.7801C10.2931 14.7801 9.92544 15.1477 9.92544 15.6991C9.92544 16.2506 10.293 16.6182 10.8262 16.6182C11.0835 16.6182 11.3409 16.5447 11.5431 16.3793L11.3592 16.1036C11.2122 16.2138 11.0284 16.2874 10.8446 16.2874C10.6056 16.2874 10.3666 16.1771 10.3115 15.8645H11.6166V15.7176C11.635 15.1477 11.3042 14.7801 10.8078 14.7801ZM10.8077 15.1109C11.0466 15.1109 11.2122 15.258 11.2489 15.5338H10.3298C10.3665 15.2948 10.532 15.1109 10.8077 15.1109ZM20.3847 15.6991V14.1183H19.9986V15.0374C19.8699 14.872 19.6861 14.7801 19.4472 14.7801C18.9509 14.7801 18.5649 15.1661 18.5649 15.6991C18.5649 16.2322 18.9509 16.6182 19.4472 16.6182C19.7046 16.6182 19.8884 16.5263 19.9986 16.3609V16.5814H20.3847V15.6991ZM18.9693 15.6991C18.9693 15.3866 19.1714 15.1293 19.5024 15.1293C19.8148 15.1293 20.0354 15.3683 20.0354 15.6991C20.0354 16.0116 19.8148 16.2689 19.5024 16.2689C19.1714 16.2505 18.9693 16.0116 18.9693 15.6991ZM6.06518 15.6991V14.8168H5.67916V15.0374C5.55046 14.872 5.36666 14.7801 5.12768 14.7801C4.63139 14.7801 4.24537 15.1661 4.24537 15.6991C4.24537 16.2322 4.63139 16.6182 5.12768 16.6182C5.38508 16.6182 5.56888 16.5263 5.67916 16.3609V16.5814H6.06518V15.6991ZM4.63139 15.6991C4.63139 15.3866 4.83361 15.1293 5.16444 15.1293C5.47694 15.1293 5.69758 15.3683 5.69758 15.6991C5.69758 16.0116 5.47694 16.2689 5.16444 16.2689C4.83361 16.2505 4.63139 16.0116 4.63139 15.6991Z" fill="var(--fill-0, black)"/>
<path id="Vector_2" d="M7.81324 1.41535H13.6035V11.8195H7.81324V1.41535Z" fill="var(--fill-0, #FF5F00)"/>
<path id="Vector_3" d="M8.17972 6.61746C8.17972 4.50357 9.17231 2.62858 10.698 1.41535C9.57675 0.533037 8.16138 -1.86265e-05 6.61731 -1.86265e-05C2.95919 -1.86265e-05 -0.00025177 2.95942 -0.00025177 6.61746C-0.00025177 10.2755 2.95919 13.2349 6.61723 13.2349C8.1613 13.2349 9.57667 12.7019 10.698 11.8195C9.17231 10.6247 8.17972 8.73134 8.17972 6.61746Z" fill="var(--fill-0, #EB001B)"/>
<path id="Vector_4" d="M21.4162 6.61746C21.4162 10.2754 18.4567 13.2349 14.7987 13.2349C13.2546 13.2349 11.8393 12.7019 10.718 11.8195C12.262 10.6063 13.2363 8.73134 13.2363 6.61746C13.2363 4.50357 12.2436 2.62858 10.718 1.41535C11.8392 0.533037 13.2546 -1.86265e-05 14.7987 -1.86265e-05C18.4567 -1.86265e-05 21.4162 2.97784 21.4162 6.61746Z" fill="var(--fill-0, #F79E1B)"/>
</g>
<defs>
<clipPath id="clip0_6259_109066">
<rect width="21.4383" height="16.6632" fill="white"/>
</clipPath>
</defs>
</svg>
