<svg preserveAspectRatio="none" width="100%" height="100%" overflow="visible" style="display: block;" viewBox="0 0 27 27" fill="none" xmlns="http://www.w3.org/2000/svg">
<g id="uil:atm-card">
<path id="Vector" d="M7.68506 16.4693H10.979C11.2702 16.4693 11.5495 16.3536 11.7554 16.1477C11.9613 15.9418 12.077 15.6625 12.077 15.3713C12.077 15.0801 11.9613 14.8008 11.7554 14.5949C11.5495 14.389 11.2702 14.2733 10.979 14.2733H7.68506C7.39385 14.2733 7.11458 14.389 6.90866 14.5949C6.70275 14.8008 6.58707 15.0801 6.58707 15.3713C6.58707 15.6625 6.70275 15.9418 6.90866 16.1477C7.11458 16.3536 7.39385 16.4693 7.68506 16.4693ZM20.8609 5.48945H5.48909C4.61548 5.48945 3.77765 5.83649 3.15991 6.45422C2.54217 7.07196 2.19513 7.90979 2.19513 8.7834V18.6653C2.19513 19.5389 2.54217 20.3767 3.15991 20.9944C3.77765 21.6122 4.61548 21.9592 5.48909 21.9592H20.8609C21.7345 21.9592 22.5723 21.6122 23.19 20.9944C23.8078 20.3767 24.1548 19.5389 24.1548 18.6653V8.7834C24.1548 7.90979 23.8078 7.07196 23.19 6.45422C22.5723 5.83649 21.7345 5.48945 20.8609 5.48945ZM21.9589 18.6653C21.9589 18.9565 21.8432 19.2357 21.6373 19.4417C21.4313 19.6476 21.1521 19.7632 20.8609 19.7632H5.48909C5.19788 19.7632 4.91861 19.6476 4.71269 19.4417C4.50678 19.2357 4.3911 18.9565 4.3911 18.6653V12.0774H21.9589V18.6653ZM21.9589 9.88138H4.3911V8.7834C4.3911 8.4922 4.50678 8.21292 4.71269 8.00701C4.91861 7.8011 5.19788 7.68542 5.48909 7.68542H20.8609C21.1521 7.68542 21.4313 7.8011 21.6373 8.00701C21.8432 8.21292 21.9589 8.4922 21.9589 8.7834V9.88138Z" fill="var(--fill-0, black)"/>
</g>
</svg>
