<svg preserveAspectRatio="none" width="100%" height="100%" overflow="visible" style="display: block;" viewBox="0 0 24 24" fill="none" xmlns="http://www.w3.org/2000/svg">
<g id="Group">
<g id="Vector">
</g>
<path id="Vector_2" d="M20 14C20.2549 14.0003 20.5 14.0979 20.6854 14.2728C20.8707 14.4478 20.9822 14.687 20.9972 14.9414C21.0121 15.1958 20.9293 15.4464 20.7657 15.6418C20.6021 15.8373 20.3701 15.9629 20.117 15.993L20 16H6.414L8.707 18.293C8.88635 18.473 8.99047 18.7144 8.99823 18.9684C9.00598 19.2223 8.91679 19.4697 8.74875 19.6603C8.58072 19.8508 8.34645 19.9703 8.09353 19.9944C7.8406 20.0185 7.58799 19.9454 7.387 19.79L7.293 19.707L3.463 15.877C2.798 15.213 3.224 14.094 4.126 14.006L4.241 14H20ZM15.293 4.293C15.4652 4.12082 15.6943 4.01739 15.9373 4.00211C16.1803 3.98683 16.4206 4.06075 16.613 4.21L16.707 4.293L20.537 8.123C21.202 8.787 20.776 9.906 19.874 9.994L19.759 10H4C3.74512 9.99972 3.49997 9.90212 3.31463 9.72715C3.1293 9.55218 3.01777 9.31305 3.00283 9.05861C2.98789 8.80416 3.07067 8.55362 3.23426 8.35817C3.39786 8.16271 3.6299 8.0371 3.883 8.007L4 8H17.586L15.293 5.707C15.1055 5.51947 15.0002 5.26516 15.0002 5C15.0002 4.73484 15.1055 4.48053 15.293 4.293Z" fill="var(--fill-0, black)"/>
</g>
</svg>
