<svg preserveAspectRatio="none" width="100%" height="100%" overflow="visible" style="display: block;" viewBox="0 0 22 17" fill="none" xmlns="http://www.w3.org/2000/svg">
<g id="logos:mastercard" clip-path="url(#clip0_6265_109125)">
<path id="Vector" d="M3.89628 16.5812V15.4783C3.89628 15.0555 3.63888 14.7798 3.19768 14.7798C2.97712 14.7798 2.73814 14.8534 2.57268 15.0923C2.44407 14.8901 2.26027 14.7798 1.98453 14.7798C1.80065 14.7798 1.61693 14.8349 1.46981 15.0372V14.8166H1.08379V16.5812H1.46981V15.607C1.46981 15.2946 1.63527 15.1474 1.89267 15.1474C2.1499 15.1474 2.27869 15.3129 2.27869 15.607V16.5812H2.66471V15.607C2.66471 15.2946 2.84842 15.1474 3.0874 15.1474C3.3448 15.1474 3.47342 15.3129 3.47342 15.607V16.5812H3.89628ZM9.61294 14.8166H8.98802V14.2835H8.60201V14.8166H8.25275V15.1658H8.60192V15.9746C8.60192 16.3791 8.76738 16.618 9.20858 16.618C9.37404 16.618 9.55776 16.5629 9.68654 16.4894L9.57618 16.1584C9.4659 16.232 9.33728 16.2504 9.24534 16.2504C9.06154 16.2504 8.98802 16.1401 8.98802 15.9562V15.1658H9.61294V14.8166ZM12.885 14.7797C12.6644 14.7797 12.5174 14.8901 12.4254 15.0372V14.8166H12.0394V16.5812H12.4254V15.5886C12.4254 15.2946 12.554 15.1291 12.793 15.1291C12.8665 15.1291 12.9585 15.1475 13.032 15.1659L13.1423 14.7983C13.0688 14.7798 12.9585 14.7798 12.885 14.7798M7.94025 14.9637C7.75637 14.835 7.49905 14.7799 7.22331 14.7799C6.7822 14.7799 6.48812 15.0005 6.48812 15.3497C6.48812 15.6439 6.70868 15.8093 7.0947 15.8645L7.27849 15.8829C7.48071 15.9195 7.59099 15.9747 7.59099 16.0667C7.59099 16.1953 7.44395 16.2872 7.18655 16.2872C6.92915 16.2872 6.72702 16.1953 6.59832 16.1034L6.41452 16.3975C6.61674 16.5445 6.89248 16.6181 7.16813 16.6181C7.68285 16.6181 7.97701 16.3792 7.97701 16.0482C7.97701 15.7357 7.73803 15.5703 7.37035 15.5152L7.18655 15.4968C7.02109 15.4783 6.89248 15.4417 6.89248 15.3314C6.89248 15.2027 7.02109 15.1292 7.22331 15.1292C7.44395 15.1292 7.66451 15.221 7.77479 15.2762L7.94025 14.9637ZM18.1973 14.7799C17.9767 14.7799 17.8297 14.8902 17.7377 15.0372V14.8167H17.3517V16.5813H17.7377V15.5887C17.7377 15.2946 17.8664 15.1292 18.1053 15.1292C18.1789 15.1292 18.2709 15.1476 18.3444 15.1659L18.4547 14.7983C18.3811 14.7799 18.2709 14.7799 18.1973 14.7799ZM13.271 15.699C13.271 16.232 13.6386 16.6181 14.2085 16.6181C14.4658 16.6181 14.6496 16.563 14.8334 16.4159L14.6496 16.1034C14.5025 16.2137 14.3555 16.2688 14.19 16.2688C13.8776 16.2688 13.657 16.0482 13.657 15.699C13.657 15.3682 13.8776 15.1475 14.19 15.1292C14.3555 15.1292 14.5025 15.1843 14.6496 15.2946L14.8334 14.9821C14.6496 14.835 14.4658 14.7799 14.2085 14.7799C13.6386 14.7799 13.271 15.1659 13.271 15.699ZM16.8371 15.699V14.8167H16.4511V15.0372C16.3224 14.8719 16.1386 14.7799 15.8996 14.7799C15.4033 14.7799 15.0173 15.1659 15.0173 15.699C15.0173 16.232 15.4033 16.6181 15.8996 16.6181C16.1569 16.6181 16.3408 16.5262 16.4511 16.3607V16.5813H16.8371V15.699ZM15.4216 15.699C15.4216 15.3865 15.6238 15.1292 15.9547 15.1292C16.2672 15.1292 16.4878 15.3682 16.4878 15.699C16.4878 16.0115 16.2672 16.2688 15.9547 16.2688C15.6238 16.2504 15.4216 16.0115 15.4216 15.699ZM10.8078 14.7799C10.2931 14.7799 9.92544 15.1475 9.92544 15.699C9.92544 16.2505 10.293 16.6181 10.8262 16.6181C11.0835 16.6181 11.3409 16.5445 11.5431 16.3792L11.3592 16.1034C11.2122 16.2137 11.0284 16.2872 10.8446 16.2872C10.6056 16.2872 10.3666 16.1769 10.3115 15.8644H11.6166V15.7174C11.635 15.1475 11.3042 14.7799 10.8078 14.7799ZM10.8077 15.1108C11.0466 15.1108 11.2122 15.2579 11.2489 15.5336H10.3298C10.3665 15.2946 10.532 15.1108 10.8077 15.1108ZM20.3847 15.699V14.1182H19.9986V15.0372C19.8699 14.8719 19.6861 14.7799 19.4472 14.7799C18.9509 14.7799 18.5649 15.1659 18.5649 15.699C18.5649 16.232 18.9509 16.6181 19.4472 16.6181C19.7046 16.6181 19.8884 16.5262 19.9986 16.3607V16.5813H20.3847V15.699ZM18.9693 15.699C18.9693 15.3865 19.1714 15.1292 19.5024 15.1292C19.8148 15.1292 20.0354 15.3682 20.0354 15.699C20.0354 16.0115 19.8148 16.2688 19.5024 16.2688C19.1714 16.2504 18.9693 16.0115 18.9693 15.699ZM6.06518 15.699V14.8167H5.67916V15.0372C5.55046 14.8719 5.36666 14.7799 5.12768 14.7799C4.63139 14.7799 4.24537 15.1659 4.24537 15.699C4.24537 16.232 4.63139 16.6181 5.12768 16.6181C5.38508 16.6181 5.56888 16.5262 5.67916 16.3607V16.5813H6.06518V15.699ZM4.63139 15.699C4.63139 15.3865 4.83361 15.1292 5.16444 15.1292C5.47694 15.1292 5.69758 15.3682 5.69758 15.699C5.69758 16.0115 5.47694 16.2688 5.16444 16.2688C4.83361 16.2504 4.63139 16.0115 4.63139 15.699Z" fill="var(--fill-0, black)"/>
<path id="Vector_2" d="M7.81324 1.41521H13.6035V11.8193H7.81324V1.41521Z" fill="var(--fill-0, #FF5F00)"/>
<path id="Vector_3" d="M8.17972 6.61732C8.17972 4.50343 9.17231 2.62844 10.698 1.41521C9.57675 0.532896 8.16138 -0.00015977 6.61731 -0.00015977C2.95919 -0.00015977 -0.00025177 2.95928 -0.00025177 6.61732C-0.00025177 10.2754 2.95919 13.2348 6.61723 13.2348C8.1613 13.2348 9.57667 12.7017 10.698 11.8193C9.17231 10.6245 8.17972 8.7312 8.17972 6.61732Z" fill="var(--fill-0, #EB001B)"/>
<path id="Vector_4" d="M21.4162 6.61732C21.4162 10.2753 18.4567 13.2348 14.7987 13.2348C13.2546 13.2348 11.8393 12.7017 10.718 11.8193C12.262 10.6062 13.2363 8.7312 13.2363 6.61732C13.2363 4.50343 12.2436 2.62844 10.718 1.41521C11.8392 0.532896 13.2546 -0.00015977 14.7987 -0.00015977C18.4567 -0.00015977 21.4162 2.9777 21.4162 6.61732Z" fill="var(--fill-0, #F79E1B)"/>
</g>
<defs>
<clipPath id="clip0_6265_109125">
<rect width="21.4383" height="16.6632" fill="white"/>
</clipPath>
</defs>
</svg>
