<svg preserveAspectRatio="none" width="100%" height="100%" overflow="visible" style="display: block;" viewBox="0 0 22 17" fill="none" xmlns="http://www.w3.org/2000/svg">
<g id="logos:mastercard" clip-path="url(#clip0_6265_109182)">
<path id="Vector" d="M3.89468 16.5812V15.4783C3.89468 15.0555 3.63728 14.7798 3.19608 14.7798C2.97553 14.7798 2.73655 14.8534 2.57109 15.0923C2.44247 14.8901 2.25867 14.7798 1.98293 14.7798C1.79905 14.7798 1.61534 14.8349 1.46822 15.0372V14.8166H1.0822V16.5812H1.46822V15.607C1.46822 15.2946 1.63368 15.1474 1.89108 15.1474C2.14831 15.1474 2.27709 15.3129 2.27709 15.607V16.5812H2.66311V15.607C2.66311 15.2946 2.84683 15.1474 3.08581 15.1474C3.34321 15.1474 3.47182 15.3129 3.47182 15.607V16.5812H3.89468ZM9.61134 14.8166H8.98643V14.2835H8.60041V14.8166H8.25115V15.1658H8.60033V15.9746C8.60033 16.3791 8.76579 16.618 9.20699 16.618C9.37245 16.618 9.55616 16.5629 9.68495 16.4894L9.57458 16.1584C9.4643 16.232 9.33569 16.2504 9.24375 16.2504C9.05995 16.2504 8.98643 16.1401 8.98643 15.9562V15.1658H9.61134V14.8166ZM12.8834 14.7797C12.6628 14.7797 12.5158 14.8901 12.4238 15.0372V14.8166H12.0378V16.5812H12.4238V15.5886C12.4238 15.2946 12.5524 15.1291 12.7914 15.1291C12.8649 15.1291 12.9569 15.1475 13.0304 15.1659L13.1407 14.7983C13.0672 14.7798 12.9569 14.7798 12.8834 14.7798M7.93866 14.9637C7.75477 14.835 7.49746 14.7799 7.22172 14.7799C6.7806 14.7799 6.48653 15.0005 6.48653 15.3497C6.48653 15.6439 6.70708 15.8093 7.0931 15.8645L7.2769 15.8829C7.47912 15.9195 7.5894 15.9747 7.5894 16.0667C7.5894 16.1953 7.44236 16.2872 7.18496 16.2872C6.92756 16.2872 6.72542 16.1953 6.59672 16.1034L6.41292 16.3975C6.61514 16.5445 6.89088 16.6181 7.16654 16.6181C7.68126 16.6181 7.97542 16.3792 7.97542 16.0482C7.97542 15.7357 7.73644 15.5703 7.36876 15.5152L7.18496 15.4968C7.0195 15.4783 6.89088 15.4417 6.89088 15.3314C6.89088 15.2027 7.0195 15.1292 7.22172 15.1292C7.44236 15.1292 7.66292 15.221 7.7732 15.2762L7.93866 14.9637ZM18.1958 14.7799C17.9751 14.7799 17.8281 14.8902 17.7361 15.0372V14.8167H17.3501V16.5813H17.7361V15.5887C17.7361 15.2946 17.8648 15.1292 18.1037 15.1292C18.1773 15.1292 18.2693 15.1476 18.3428 15.1659L18.4531 14.7983C18.3795 14.7799 18.2693 14.7799 18.1958 14.7799ZM13.2694 15.699C13.2694 16.232 13.637 16.6181 14.2069 16.6181C14.4642 16.6181 14.648 16.563 14.8318 16.4159L14.648 16.1034C14.501 16.2137 14.3539 16.2688 14.1885 16.2688C13.876 16.2688 13.6554 16.0482 13.6554 15.699C13.6554 15.3682 13.876 15.1475 14.1885 15.1292C14.3539 15.1292 14.501 15.1843 14.648 15.2946L14.8318 14.9821C14.648 14.835 14.4642 14.7799 14.2069 14.7799C13.637 14.7799 13.2694 15.1659 13.2694 15.699ZM16.8355 15.699V14.8167H16.4495V15.0372C16.3208 14.8719 16.137 14.7799 15.898 14.7799C15.4017 14.7799 15.0157 15.1659 15.0157 15.699C15.0157 16.232 15.4017 16.6181 15.898 16.6181C16.1553 16.6181 16.3392 16.5262 16.4495 16.3607V16.5813H16.8355V15.699ZM15.42 15.699C15.42 15.3865 15.6222 15.1292 15.9531 15.1292C16.2656 15.1292 16.4862 15.3682 16.4862 15.699C16.4862 16.0115 16.2656 16.2688 15.9531 16.2688C15.6222 16.2504 15.42 16.0115 15.42 15.699ZM10.8062 14.7799C10.2915 14.7799 9.92384 15.1475 9.92384 15.699C9.92384 16.2505 10.2914 16.6181 10.8246 16.6181C11.0819 16.6181 11.3393 16.5445 11.5415 16.3792L11.3576 16.1034C11.2106 16.2137 11.0268 16.2872 10.843 16.2872C10.604 16.2872 10.365 16.1769 10.3099 15.8644H11.615V15.7174C11.6335 15.1475 11.3026 14.7799 10.8062 14.7799ZM10.8062 15.1108C11.045 15.1108 11.2106 15.2579 11.2473 15.5336H10.3282C10.365 15.2946 10.5304 15.1108 10.8062 15.1108ZM20.3831 15.699V14.1182H19.9971V15.0372C19.8684 14.8719 19.6846 14.7799 19.4456 14.7799C18.9493 14.7799 18.5633 15.1659 18.5633 15.699C18.5633 16.232 18.9493 16.6181 19.4456 16.6181C19.703 16.6181 19.8868 16.5262 19.9971 16.3607V16.5813H20.3831V15.699ZM18.9677 15.699C18.9677 15.3865 19.1698 15.1292 19.5008 15.1292C19.8133 15.1292 20.0338 15.3682 20.0338 15.699C20.0338 16.0115 19.8133 16.2688 19.5008 16.2688C19.1698 16.2504 18.9677 16.0115 18.9677 15.699ZM6.06358 15.699V14.8167H5.67756V15.0372C5.54886 14.8719 5.36507 14.7799 5.12609 14.7799C4.62979 14.7799 4.24377 15.1659 4.24377 15.699C4.24377 16.232 4.62979 16.6181 5.12609 16.6181C5.38349 16.6181 5.56729 16.5262 5.67756 16.3607V16.5813H6.06358V15.699ZM4.62979 15.699C4.62979 15.3865 4.83201 15.1292 5.16285 15.1292C5.47535 15.1292 5.69599 15.3682 5.69599 15.699C5.69599 16.0115 5.47535 16.2688 5.16285 16.2688C4.83201 16.2504 4.62979 16.0115 4.62979 15.699Z" fill="var(--fill-0, black)"/>
<path id="Vector_2" d="M7.81164 1.41521H13.6019V11.8193H7.81164V1.41521Z" fill="var(--fill-0, #FF5F00)"/>
<path id="Vector_3" d="M8.17812 6.61732C8.17812 4.50343 9.17072 2.62844 10.6964 1.41521C9.57515 0.532896 8.15978 -0.00015977 6.61572 -0.00015977C2.95759 -0.00015977 -0.00184631 2.95928 -0.00184631 6.61732C-0.00184631 10.2754 2.95759 13.2348 6.61563 13.2348C8.1597 13.2348 9.57507 12.7017 10.6964 11.8193C9.17072 10.6245 8.17812 8.7312 8.17812 6.61732Z" fill="var(--fill-0, #EB001B)"/>
<path id="Vector_4" d="M21.4146 6.61732C21.4146 10.2753 18.4551 13.2348 14.7971 13.2348C13.253 13.2348 11.8377 12.7017 10.7164 11.8193C12.2604 10.6062 13.2347 8.7312 13.2347 6.61732C13.2347 4.50343 12.242 2.62844 10.7164 1.41521C11.8376 0.532896 13.253 -0.00015977 14.7971 -0.00015977C18.4551 -0.00015977 21.4146 2.9777 21.4146 6.61732Z" fill="var(--fill-0, #F79E1B)"/>
</g>
<defs>
<clipPath id="clip0_6265_109182">
<rect width="21.4383" height="16.6632" fill="white"/>
</clipPath>
</defs>
</svg>
