<svg preserveAspectRatio="none" width="100%" height="100%" overflow="visible" style="display: block;" viewBox="0 0 85 17" fill="none" xmlns="http://www.w3.org/2000/svg">
<g id="Frame 1000005496">
<g id="logos:mastercard" clip-path="url(#clip0_6265_109167)">
<path id="Vector" d="M3.897 16.5814V15.4785C3.897 15.0556 3.6396 14.78 3.1984 14.78C2.97784 14.78 2.73886 14.8535 2.5734 15.0925C2.44479 14.8903 2.26099 14.78 1.98525 14.78C1.80137 14.78 1.61765 14.8351 1.47053 15.0373V14.8167H1.08451V16.5814H1.47053V15.6071C1.47053 15.2947 1.63599 15.1476 1.89339 15.1476C2.15063 15.1476 2.27941 15.313 2.27941 15.6071V16.5814H2.66543V15.6071C2.66543 15.2947 2.84914 15.1476 3.08812 15.1476C3.34552 15.1476 3.47414 15.313 3.47414 15.6071V16.5814H3.897ZM9.61366 14.8167H8.98874V14.2837H8.60273V14.8167H8.25347V15.1659H8.60264V15.9748C8.60264 16.3792 8.7681 16.6181 9.2093 16.6181C9.37476 16.6181 9.55848 16.563 9.68726 16.4895L9.5769 16.1586C9.46662 16.2321 9.338 16.2505 9.24606 16.2505C9.06226 16.2505 8.98874 16.1403 8.98874 15.9564V15.1659H9.61366V14.8167ZM12.8857 14.7799C12.6651 14.7799 12.5181 14.8903 12.4261 15.0373V14.8167H12.0401V16.5814H12.4261V15.5888C12.4261 15.2947 12.5548 15.1292 12.7937 15.1292C12.8673 15.1292 12.9592 15.1477 13.0327 15.166L13.143 14.7984C13.0695 14.78 12.9592 14.78 12.8857 14.78M7.94097 14.9639C7.75709 14.8352 7.49977 14.7801 7.22403 14.7801C6.78292 14.7801 6.48884 15.0006 6.48884 15.3499C6.48884 15.644 6.7094 15.8094 7.09542 15.8646L7.27921 15.883C7.48143 15.9197 7.59171 15.9749 7.59171 16.0668C7.59171 16.1954 7.44468 16.2874 7.18727 16.2874C6.92987 16.2874 6.72774 16.1954 6.59904 16.1036L6.41524 16.3977C6.61746 16.5447 6.8932 16.6182 7.16885 16.6182C7.68357 16.6182 7.97773 16.3793 7.97773 16.0484C7.97773 15.7359 7.73875 15.5704 7.37107 15.5153L7.18727 15.4969C7.02181 15.4785 6.8932 15.4418 6.8932 15.3316C6.8932 15.2029 7.02181 15.1293 7.22403 15.1293C7.44467 15.1293 7.66523 15.2212 7.77551 15.2764L7.94097 14.9639ZM18.1981 14.7801C17.9774 14.7801 17.8304 14.8904 17.7384 15.0374V14.8168H17.3524V16.5815H17.7384V15.5889C17.7384 15.2948 17.8671 15.1293 18.106 15.1293C18.1796 15.1293 18.2716 15.1478 18.3451 15.1661L18.4554 14.7985C18.3819 14.7801 18.2716 14.7801 18.1981 14.7801ZM13.2717 15.6991C13.2717 16.2322 13.6393 16.6182 14.2092 16.6182C14.4665 16.6182 14.6503 16.5631 14.8341 16.4161L14.6503 16.1036C14.5033 16.2139 14.3562 16.269 14.1908 16.269C13.8783 16.269 13.6577 16.0484 13.6577 15.6991C13.6577 15.3683 13.8783 15.1477 14.1908 15.1293C14.3562 15.1293 14.5033 15.1844 14.6503 15.2948L14.8341 14.9823C14.6503 14.8352 14.4665 14.7801 14.2092 14.7801C13.6393 14.7801 13.2717 15.1661 13.2717 15.6991ZM16.8378 15.6991V14.8168H16.4518V15.0374C16.3231 14.872 16.1393 14.7801 15.9003 14.7801C15.404 14.7801 15.018 15.1661 15.018 15.6991C15.018 16.2322 15.404 16.6182 15.9003 16.6182C16.1576 16.6182 16.3415 16.5264 16.4518 16.3609V16.5815H16.8378V15.6991ZM15.4223 15.6991C15.4223 15.3866 15.6246 15.1293 15.9554 15.1293C16.2679 15.1293 16.4885 15.3683 16.4885 15.6991C16.4885 16.0116 16.2679 16.269 15.9554 16.269C15.6246 16.2505 15.4223 16.0116 15.4223 15.6991ZM10.8086 14.7801C10.2938 14.7801 9.92616 15.1477 9.92616 15.6991C9.92616 16.2506 10.2938 16.6182 10.8269 16.6182C11.0842 16.6182 11.3416 16.5447 11.5438 16.3793L11.3599 16.1036C11.2129 16.2139 11.0291 16.2874 10.8453 16.2874C10.6063 16.2874 10.3674 16.1771 10.3122 15.8645H11.6173V15.7176C11.6358 15.1477 11.3049 14.7801 10.8086 14.7801ZM10.8085 15.1109C11.0474 15.1109 11.2129 15.258 11.2496 15.5338H10.3305C10.3673 15.2948 10.5327 15.1109 10.8085 15.1109ZM20.3854 15.6991V14.1183H19.9994V15.0374C19.8707 14.872 19.6869 14.7801 19.4479 14.7801C18.9516 14.7801 18.5656 15.1661 18.5656 15.6991C18.5656 16.2322 18.9516 16.6182 19.4479 16.6182C19.7053 16.6182 19.8891 16.5264 19.9994 16.3609V16.5815H20.3854V15.6991ZM18.97 15.6991C18.97 15.3866 19.1722 15.1293 19.5031 15.1293C19.8156 15.1293 20.0361 15.3683 20.0361 15.6991C20.0361 16.0116 19.8156 16.269 19.5031 16.269C19.1722 16.2505 18.97 16.0116 18.97 15.6991ZM6.0659 15.6991V14.8168H5.67988V15.0374C5.55118 14.872 5.36738 14.7801 5.1284 14.7801C4.63211 14.7801 4.24609 15.1661 4.24609 15.6991C4.24609 16.2322 4.63211 16.6182 5.1284 16.6182C5.3858 16.6182 5.5696 16.5264 5.67988 16.3609V16.5815H6.0659V15.6991ZM4.63211 15.6991C4.63211 15.3866 4.83433 15.1293 5.16516 15.1293C5.47766 15.1293 5.6983 15.3683 5.6983 15.6991C5.6983 16.0116 5.47766 16.269 5.16516 16.269C4.83433 16.2505 4.63211 16.0116 4.63211 15.6991Z" fill="var(--fill-0, black)"/>
<path id="Vector_2" d="M7.81396 1.41537H13.6042V11.8195H7.81396V1.41537Z" fill="var(--fill-0, #FF5F00)"/>
<path id="Vector_3" d="M8.18044 6.61747C8.18044 4.50359 9.17303 2.6286 10.6987 1.41537C9.57747 0.533052 8.1621 -3.8147e-06 6.61803 -3.8147e-06C2.95991 -3.8147e-06 0.000469208 2.95944 0.000469208 6.61747C0.000469208 10.2755 2.95991 13.235 6.61795 13.235C8.16202 13.235 9.57739 12.7019 10.6987 11.8195C9.17303 10.6247 8.18044 8.73136 8.18044 6.61747Z" fill="var(--fill-0, #EB001B)"/>
<path id="Vector_4" d="M21.4169 6.61747C21.4169 10.2754 18.4575 13.235 14.7994 13.235C13.2553 13.235 11.84 12.7019 10.7187 11.8195C12.2628 10.6063 13.237 8.73136 13.237 6.61747C13.237 4.50359 12.2443 2.6286 10.7187 1.41537C11.8399 0.533052 13.2553 -3.8147e-06 14.7994 -3.8147e-06C18.4575 -3.8147e-06 21.4169 2.97786 21.4169 6.61747Z" fill="var(--fill-0, #F79E1B)"/>
</g>
<g id="logos:visaelectron" clip-path="url(#clip1_6265_109167)">
<path id="Vector_5" d="M38.1382 1.56579L34.0556 11.3053H31.3922L29.3831 3.53225C29.2613 3.05464 29.1554 2.87887 28.7848 2.67692C28.1789 2.3478 27.1784 2.03999 26.2989 1.84851L26.3582 1.56579H30.6463C31.192 1.56579 31.6834 1.92914 31.8084 2.55828L32.8699 8.19466L35.4907 1.56579H38.1382ZM41.7388 1.56579L39.6556 11.3053H37.1356L39.2191 1.56579H41.7388ZM48.5742 8.12536C48.5846 5.55534 45.0206 5.41271 45.0438 4.26443C45.0524 3.91533 45.3849 3.5437 46.1128 3.44869C46.4734 3.40204 47.4695 3.36489 48.5978 3.88476L49.0392 1.81818C48.433 1.59892 47.6528 1.38795 46.6824 1.38795C44.1914 1.38795 42.4392 2.71102 42.4252 4.60708C42.4089 6.00956 43.6768 6.7912 44.6303 7.25833C45.6124 7.73533 45.9418 8.04192 45.9373 8.46824C45.9302 9.12174 45.1529 9.41103 44.4302 9.42175C43.1629 9.44185 42.4283 9.07923 41.8423 8.80626L41.3849 10.9413C41.9744 11.2115 43.0609 11.4462 44.1863 11.4581C46.8344 11.4581 48.5664 10.1502 48.5742 8.12536ZM55.1518 11.3054H57.4816L55.4462 1.56579H53.2966C52.8118 1.56579 52.4044 1.84717 52.2236 2.27971L48.4427 11.3053H51.0888L51.6136 9.85039H54.8464L55.1518 11.3054ZM52.3392 7.8547L53.666 4.19719L54.4281 7.8547H52.3392ZM44.9638 13.9862H43.9399V14.9391H45.0851V15.2256H43.5949V12.582H45.0264V12.8685H43.9399V13.7038H44.9637L44.9638 13.9862ZM45.6141 12.441H45.9591V15.2255H45.6141V12.441ZM46.8295 14.3391C46.8373 14.806 47.1316 14.9981 47.4805 14.9981C47.7277 14.9981 47.8806 14.955 48.0063 14.9002L48.0689 15.1473C47.9474 15.2021 47.7357 15.2687 47.4334 15.2687C46.8493 15.2687 46.5003 14.8805 46.5003 14.3078C46.5003 13.7353 46.8373 13.288 47.3904 13.288C48.0141 13.288 48.1749 13.8295 48.1749 14.1784C48.1749 14.249 48.1709 14.2999 48.1629 14.3392L46.8295 14.3391ZM47.8414 14.0921C47.8454 13.8765 47.7512 13.5352 47.3629 13.5352C47.0099 13.5352 46.8608 13.8529 46.8333 14.0921H47.8414ZM50.0527 15.1589C49.9625 15.2021 49.7624 15.2689 49.5076 15.2689C48.935 15.2689 48.5624 14.8805 48.5624 14.3C48.5624 13.7156 48.9622 13.2882 49.582 13.2882C49.7859 13.2882 49.9663 13.3389 50.0605 13.3901L49.9823 13.6528C49.8996 13.6097 49.7702 13.5625 49.582 13.5625C49.1465 13.5625 48.9115 13.8881 48.9115 14.2805C48.9115 14.7196 49.1938 14.9903 49.5703 14.9903C49.7664 14.9903 49.8958 14.9433 49.9938 14.9002L50.0527 15.1589ZM51.0208 12.8723V13.3273H51.5148V13.5899H51.0208V14.6137C51.0208 14.8492 51.0875 14.9824 51.2796 14.9824C51.3737 14.9824 51.4287 14.9747 51.4798 14.9587L51.4955 15.2218C51.4287 15.2452 51.3229 15.2687 51.1895 15.2687C51.0286 15.2687 50.8991 15.2138 50.8169 15.1238C50.7227 15.0177 50.6835 14.8492 50.6835 14.6256V13.5899H50.3892V13.3273H50.6835V12.9743L51.0208 12.8723ZM51.9968 13.9196C51.9968 13.696 51.9927 13.5039 51.9811 13.3273H52.2832L52.299 13.7036H52.3105C52.397 13.4489 52.6085 13.288 52.8399 13.288C52.8753 13.288 52.9028 13.2921 52.9343 13.2958V13.6215C52.8989 13.6135 52.8637 13.6135 52.8164 13.6135C52.5735 13.6135 52.4006 13.7939 52.3537 14.053C52.3456 14.1062 52.3417 14.1599 52.3419 14.2138V15.2257H51.9968V13.9196ZM55.0555 14.2607C55.0555 14.9628 54.5651 15.2687 54.1103 15.2687C53.6003 15.2687 53.2004 14.8921 53.2004 14.2922C53.2004 13.6606 53.62 13.2882 54.1417 13.2882C54.6868 13.2882 55.0555 13.6839 55.0555 14.2607ZM53.5533 14.2805C53.5533 14.6962 53.7886 15.0101 54.1259 15.0101C54.4555 15.0101 54.7024 14.7 54.7024 14.2726C54.7024 13.951 54.5416 13.5469 54.1337 13.5469C53.7299 13.5469 53.5533 13.9236 53.5533 14.2805ZM55.5844 13.8412C55.5844 13.6413 55.5803 13.4843 55.5686 13.3275H55.8746L55.8942 13.6413H55.902C55.9961 13.4647 56.2157 13.2883 56.5295 13.2883C56.7921 13.2883 57.2002 13.4452 57.2002 14.096V15.2257H56.8551V14.1314C56.8551 13.8257 56.7413 13.5705 56.4159 13.5705C56.1922 13.5705 56.0156 13.7314 55.9531 13.9235C55.9373 13.9667 55.9295 14.0255 55.9295 14.0844V15.2257H55.5844V13.8412Z" fill="var(--fill-0, #1A1F71)"/>
</g>
<path id="Vector_6" d="M64.7495 0.303979C63.4289 0.303979 62.3411 1.39175 62.3411 2.71234V13.9513C62.3411 15.2719 63.4289 16.3597 64.7495 16.3597H82.4107C83.7313 16.3597 84.8191 15.2719 84.8191 13.9513V2.71234C84.8191 1.39175 83.7313 0.303979 82.4107 0.303979H64.7495ZM64.7495 1.90955H82.4107C82.8651 1.90955 83.2135 2.25796 83.2135 2.71234V13.9513C83.2135 14.4057 82.8651 14.7541 82.4107 14.7541H64.7495C64.2951 14.7541 63.9467 14.4057 63.9467 13.9513V2.71234C63.9467 2.25796 64.2951 1.90955 64.7495 1.90955ZM69.5646 4.31791C69.1913 4.31791 68.765 4.53065 68.4888 4.84132C68.2753 5.09902 68.0433 5.50844 68.1236 5.91706C68.5065 5.96201 68.9247 5.72198 69.1648 5.4113C69.4313 5.12631 69.5822 4.72653 69.5646 4.31791ZM71.1717 5.92348V10.7402H71.9199V9.09047H72.9612C73.9044 9.09047 74.5707 8.44182 74.5707 7.50737C74.5707 6.5641 73.9125 5.92348 72.978 5.92348H71.1717ZM67.0278 6.34334C66.1929 6.34334 65.5522 7.07387 65.5522 8.12151C65.5522 9.48624 66.5108 10.7402 67.1096 10.7402C67.4709 10.7402 67.6026 10.4969 68.0826 10.4969C68.525 10.4969 68.6646 10.7402 69.0412 10.7402C69.7556 10.7402 70.3465 9.28715 70.369 9.19884C70.2509 9.13944 69.5638 8.81592 69.5646 8.034C69.5646 7.27457 70.1915 6.93419 70.2212 6.91893C69.8744 6.40274 69.3285 6.34334 69.1222 6.34334C68.643 6.34334 68.2239 6.60264 67.9951 6.60264C67.7591 6.60264 67.4115 6.34334 67.0278 6.34334ZM71.9199 6.55527H72.7821C73.4316 6.55527 73.8057 6.90207 73.8057 7.50737C73.8057 8.11268 73.4316 8.46831 72.7821 8.46831H71.9199V6.55527ZM76.3337 7.15254C75.5421 7.15254 74.9537 7.60692 74.9368 8.22988H75.612C75.6657 7.93606 75.9411 7.74018 76.3144 7.74018C76.7768 7.74018 77.0281 7.95453 77.0281 8.34629V8.61281L76.0936 8.67543C75.2306 8.72921 74.7578 9.08485 74.7578 9.69898C74.7578 10.3219 75.2387 10.7402 75.9323 10.7402C76.4035 10.7402 76.841 10.4994 77.0361 10.1253H77.053V10.7041H77.7474V8.30213C77.7474 7.60772 77.1878 7.15254 76.3337 7.15254ZM78.0548 7.1983L79.3184 10.7137L79.2558 10.9264C79.1402 11.2829 78.9531 11.4258 78.624 11.4258C78.5622 11.4258 78.4474 11.4161 78.4032 11.4161V11.9941C78.4482 12.003 78.6328 12.0118 78.6866 12.0118C79.4172 12.0118 79.764 11.7276 80.0674 10.8911L81.3743 7.1983H80.6173L79.7375 10.0458H79.7182L78.8391 7.1983H78.0548ZM77.0273 9.11857V9.3867H77.0265C77.0265 9.84027 76.6443 10.1598 76.1378 10.1598C75.7364 10.1598 75.4883 9.97434 75.4883 9.68052C75.4883 9.37787 75.7284 9.19885 76.2004 9.17235L77.0273 9.11857Z" fill="var(--fill-0, black)"/>
</g>
<defs>
<clipPath id="clip0_6265_109167">
<rect width="21.4383" height="16.6632" fill="white"/>
</clipPath>
<clipPath id="clip1_6265_109167">
<rect width="31.1828" height="13.886" fill="white" transform="translate(26.2984 1.3886)"/>
</clipPath>
</defs>
</svg>
