<svg preserveAspectRatio="none" width="100%" height="100%" overflow="visible" style="display: block;" viewBox="0 0 20 20" fill="none" xmlns="http://www.w3.org/2000/svg">
<g id="ant-design:number-outlined">
<path id="Vector" d="M16.4537 7.43464C16.5367 7.43464 16.6046 7.36671 16.6046 7.28369V6.15157C16.6046 6.06855 16.5367 6.00062 16.4537 6.00062H13.3592V2.86843C13.3592 2.78541 13.2913 2.71748 13.2083 2.71748H12.0007C11.9177 2.71748 11.8497 2.78541 11.8497 2.86843V6.00062H7.54769V2.86843C7.54769 2.78541 7.47977 2.71748 7.39674 2.71748H6.18915C6.10613 2.71748 6.0382 2.78541 6.0382 2.86843V6.00062H2.86827C2.78525 6.00062 2.71732 6.06855 2.71732 6.15157V7.28369C2.71732 7.36671 2.78525 7.43464 2.86827 7.43464H6.0382V11.8876H2.86827C2.78525 11.8876 2.71732 11.9556 2.71732 12.0386V13.1707C2.71732 13.2537 2.78525 13.3217 2.86827 13.3217H6.0382V16.4538C6.0382 16.5369 6.10613 16.6048 6.18915 16.6048H7.39674C7.47977 16.6048 7.54769 16.5369 7.54769 16.4538V13.3217H11.8497V16.4538C11.8497 16.5369 11.9177 16.6048 12.0007 16.6048H13.2083C13.2913 16.6048 13.3592 16.5369 13.3592 16.4538V13.3217H16.4537C16.5367 13.3217 16.6046 13.2537 16.6046 13.1707V12.0386C16.6046 11.9556 16.5367 11.8876 16.4537 11.8876H13.3592V7.43464H16.4537ZM11.8497 11.8876H7.54769V7.43464H11.8497V11.8876Z" fill="var(--fill-0, black)" fill-opacity="0.7"/>
</g>
</svg>
