<svg preserveAspectRatio="none" width="100%" height="100%" overflow="visible" style="display: block;" viewBox="0 0 22 17" fill="none" xmlns="http://www.w3.org/2000/svg">
<g id="logos:mastercard" clip-path="url(#clip0_6259_109089)">
<path id="Vector" d="M3.89468 16.5814V15.4785C3.89468 15.0556 3.63728 14.78 3.19608 14.78C2.97553 14.78 2.73655 14.8535 2.57109 15.0925C2.44247 14.8903 2.25867 14.78 1.98293 14.78C1.79905 14.78 1.61534 14.8351 1.46822 15.0373V14.8167H1.0822V16.5814H1.46822V15.6071C1.46822 15.2947 1.63368 15.1476 1.89108 15.1476C2.14831 15.1476 2.27709 15.313 2.27709 15.6071V16.5814H2.66311V15.6071C2.66311 15.2947 2.84683 15.1476 3.08581 15.1476C3.34321 15.1476 3.47182 15.313 3.47182 15.6071V16.5814H3.89468ZM9.61134 14.8167H8.98643V14.2837H8.60041V14.8167H8.25115V15.1659H8.60033V15.9748C8.60033 16.3792 8.76579 16.6181 9.20699 16.6181C9.37245 16.6181 9.55616 16.563 9.68495 16.4895L9.57458 16.1586C9.4643 16.2321 9.33569 16.2505 9.24375 16.2505C9.05995 16.2505 8.98643 16.1402 8.98643 15.9564V15.1659H9.61134V14.8167ZM12.8834 14.7799C12.6628 14.7799 12.5158 14.8903 12.4238 15.0373V14.8167H12.0378V16.5814H12.4238V15.5888C12.4238 15.2947 12.5524 15.1292 12.7914 15.1292C12.8649 15.1292 12.9569 15.1477 13.0304 15.166L13.1407 14.7984C13.0672 14.78 12.9569 14.78 12.8834 14.78M7.93866 14.9639C7.75477 14.8352 7.49746 14.7801 7.22172 14.7801C6.7806 14.7801 6.48653 15.0006 6.48653 15.3499C6.48653 15.644 6.70708 15.8094 7.0931 15.8646L7.2769 15.883C7.47912 15.9197 7.5894 15.9749 7.5894 16.0668C7.5894 16.1954 7.44236 16.2874 7.18496 16.2874C6.92756 16.2874 6.72542 16.1954 6.59672 16.1036L6.41292 16.3976C6.61514 16.5447 6.89088 16.6182 7.16654 16.6182C7.68126 16.6182 7.97542 16.3793 7.97542 16.0484C7.97542 15.7359 7.73644 15.5704 7.36876 15.5153L7.18496 15.4969C7.0195 15.4785 6.89088 15.4418 6.89088 15.3315C6.89088 15.2028 7.0195 15.1293 7.22172 15.1293C7.44236 15.1293 7.66292 15.2212 7.7732 15.2764L7.93866 14.9639ZM18.1958 14.7801C17.9751 14.7801 17.8281 14.8903 17.7361 15.0374V14.8168H17.3501V16.5814H17.7361V15.5889C17.7361 15.2948 17.8648 15.1293 18.1037 15.1293C18.1773 15.1293 18.2693 15.1477 18.3428 15.1661L18.4531 14.7985C18.3795 14.7801 18.2693 14.7801 18.1958 14.7801ZM13.2694 15.6991C13.2694 16.2322 13.637 16.6182 14.2069 16.6182C14.4642 16.6182 14.648 16.5631 14.8318 16.4161L14.648 16.1036C14.501 16.2138 14.3539 16.2689 14.1885 16.2689C13.876 16.2689 13.6554 16.0484 13.6554 15.6991C13.6554 15.3683 13.876 15.1477 14.1885 15.1293C14.3539 15.1293 14.501 15.1844 14.648 15.2948L14.8318 14.9823C14.648 14.8352 14.4642 14.7801 14.2069 14.7801C13.637 14.7801 13.2694 15.1661 13.2694 15.6991ZM16.8355 15.6991V14.8168H16.4495V15.0374C16.3208 14.872 16.137 14.7801 15.898 14.7801C15.4017 14.7801 15.0157 15.1661 15.0157 15.6991C15.0157 16.2322 15.4017 16.6182 15.898 16.6182C16.1553 16.6182 16.3392 16.5263 16.4495 16.3609V16.5814H16.8355V15.6991ZM15.42 15.6991C15.42 15.3866 15.6222 15.1293 15.9531 15.1293C16.2656 15.1293 16.4862 15.3683 16.4862 15.6991C16.4862 16.0116 16.2656 16.2689 15.9531 16.2689C15.6222 16.2505 15.42 16.0116 15.42 15.6991ZM10.8062 14.7801C10.2915 14.7801 9.92384 15.1477 9.92384 15.6991C9.92384 16.2506 10.2914 16.6182 10.8246 16.6182C11.0819 16.6182 11.3393 16.5447 11.5415 16.3793L11.3576 16.1036C11.2106 16.2138 11.0268 16.2874 10.843 16.2874C10.604 16.2874 10.365 16.1771 10.3099 15.8645H11.615V15.7176C11.6335 15.1477 11.3026 14.7801 10.8062 14.7801ZM10.8062 15.1109C11.045 15.1109 11.2106 15.258 11.2473 15.5338H10.3282C10.365 15.2948 10.5304 15.1109 10.8062 15.1109ZM20.3831 15.6991V14.1183H19.9971V15.0374C19.8684 14.872 19.6846 14.7801 19.4456 14.7801C18.9493 14.7801 18.5633 15.1661 18.5633 15.6991C18.5633 16.2322 18.9493 16.6182 19.4456 16.6182C19.703 16.6182 19.8868 16.5263 19.9971 16.3609V16.5814H20.3831V15.6991ZM18.9677 15.6991C18.9677 15.3866 19.1698 15.1293 19.5008 15.1293C19.8133 15.1293 20.0338 15.3683 20.0338 15.6991C20.0338 16.0116 19.8133 16.2689 19.5008 16.2689C19.1698 16.2505 18.9677 16.0116 18.9677 15.6991ZM6.06358 15.6991V14.8168H5.67756V15.0374C5.54886 14.872 5.36507 14.7801 5.12609 14.7801C4.62979 14.7801 4.24377 15.1661 4.24377 15.6991C4.24377 16.2322 4.62979 16.6182 5.12609 16.6182C5.38349 16.6182 5.56729 16.5263 5.67756 16.3609V16.5814H6.06358V15.6991ZM4.62979 15.6991C4.62979 15.3866 4.83201 15.1293 5.16285 15.1293C5.47535 15.1293 5.69599 15.3683 5.69599 15.6991C5.69599 16.0116 5.47535 16.2689 5.16285 16.2689C4.83201 16.2505 4.62979 16.0116 4.62979 15.6991Z" fill="var(--fill-0, black)"/>
<path id="Vector_2" d="M7.81164 1.41535H13.6019V11.8195H7.81164V1.41535Z" fill="var(--fill-0, #FF5F00)"/>
<path id="Vector_3" d="M8.17812 6.61746C8.17812 4.50357 9.17072 2.62858 10.6964 1.41535C9.57515 0.533037 8.15978 -1.86265e-05 6.61572 -1.86265e-05C2.95759 -1.86265e-05 -0.00184631 2.95942 -0.00184631 6.61746C-0.00184631 10.2755 2.95759 13.2349 6.61563 13.2349C8.1597 13.2349 9.57507 12.7019 10.6964 11.8195C9.17072 10.6247 8.17812 8.73134 8.17812 6.61746Z" fill="var(--fill-0, #EB001B)"/>
<path id="Vector_4" d="M21.4146 6.61746C21.4146 10.2754 18.4551 13.2349 14.7971 13.2349C13.253 13.2349 11.8377 12.7019 10.7164 11.8195C12.2604 10.6063 13.2347 8.73134 13.2347 6.61746C13.2347 4.50357 12.242 2.62858 10.7164 1.41535C11.8376 0.533037 13.253 -1.86265e-05 14.7971 -1.86265e-05C18.4551 -1.86265e-05 21.4146 2.97784 21.4146 6.61746Z" fill="var(--fill-0, #F79E1B)"/>
</g>
<defs>
<clipPath id="clip0_6259_109089">
<rect width="21.4383" height="16.6632" fill="white"/>
</clipPath>
</defs>
</svg>
