<svg preserveAspectRatio="none" width="100%" height="100%" overflow="visible" style="display: block;" viewBox="0 0 19.619 19.619" fill="none" xmlns="http://www.w3.org/2000/svg">
<g id="clarity:language-line" clip-path="url(#clip0_6548_108776)">
<path id="Vector" d="M16.3488 1.63444H7.6292V4.3593H8.71914V2.72438H16.3488C16.6757 2.72438 16.8937 2.94237 16.8937 3.26935V9.26406C16.8937 9.59104 16.6757 9.80903 16.3488 9.80903H9.26412V13.6238H6.37576L4.35936 15.2043V13.6238H2.72444C2.39746 13.6238 2.17947 13.4059 2.17947 13.0789V7.08416C2.17947 6.75718 2.39746 6.53919 2.72444 6.53919H9.80909V5.44925H2.72444C1.79799 5.44925 1.08952 6.15771 1.08952 7.08416V13.0789C1.08952 14.0053 1.79799 14.7138 2.72444 14.7138H3.26942V17.4931L6.70275 14.7138H10.3541V10.899H16.3488C17.2752 10.899 17.9837 10.1905 17.9837 9.26406V3.26935C17.9837 2.3429 17.2752 1.63444 16.3488 1.63444Z" fill="var(--fill-0, #6B7280)"/>
<path id="Vector_2" d="M3.37905 12.4791H4.68698L5.01397 11.6072H6.70338L7.03037 12.4791H8.3383L6.48539 7.62887H5.17746L3.37905 12.4791ZM5.83143 8.9913L6.3764 10.6807H5.28645L5.83143 8.9913Z" fill="var(--fill-0, #6B7280)"/>
<path id="Vector_3" d="M10.899 9.26406C11.4985 9.26406 12.316 9.10056 13.0789 8.71908C13.8419 9.10056 14.7138 9.26406 15.2588 9.26406V8.17411C15.2588 8.17411 14.7138 8.17411 14.1144 7.95612C14.7683 7.30215 15.2588 6.3212 15.2588 4.90427V4.3593H13.6239V3.26935H12.534V4.3593H10.899V5.44925H14.1144C14.0054 6.4302 13.5694 7.02967 13.0789 7.41115C12.7519 7.13866 12.425 6.75718 12.207 6.26671H11.0625C11.2805 6.97517 11.6075 7.52014 12.0435 7.95612C11.4985 8.17411 11.008 8.17411 10.899 8.17411V9.26406Z" fill="var(--fill-0, #6B7280)"/>
<g id="Vector_4">
</g>
</g>
<defs>
<clipPath id="clip0_6548_108776">
<rect width="19.619" height="19.619" fill="white"/>
</clipPath>
</defs>
</svg>
