<svg preserveAspectRatio="none" width="100%" height="100%" overflow="visible" style="display: block;" viewBox="0 0 24.1992 24.1992" fill="none" xmlns="http://www.w3.org/2000/svg">
<g id="stash:location-light">
<path id="Vector" d="M14.6202 15.9885C14.6202 14.0959 16.2234 12.6036 18.1493 12.6036C20.0751 12.6036 21.6783 14.0959 21.6783 15.9885C21.6783 17.5997 20.8374 19.0073 20.054 19.9783C19.6169 20.5157 19.1305 21.0109 18.601 21.4575L18.4961 21.5422L18.4669 21.5654L18.4588 21.5724L18.4558 21.5744L18.1493 21.1741L17.869 21.5936L17.868 21.5926L17.865 21.5906L17.8549 21.5845L17.8246 21.5644L17.7187 21.4867C17.1791 21.0791 16.6866 20.6123 16.2507 20.0953C15.4541 19.1455 14.6202 17.7379 14.6202 15.9885ZM18.1493 21.1741L17.869 21.5936L18.1684 21.7932L18.4548 21.5744L18.1493 21.1741ZM18.1322 20.5319L18.2804 20.3978C18.5506 20.1497 18.9106 19.7898 19.2685 19.3451C19.9975 18.4427 20.67 17.2579 20.67 15.9885C20.67 14.6988 19.5649 13.6119 18.1493 13.6119C16.7336 13.6119 15.6285 14.6988 15.6285 15.9885C15.6285 17.4092 16.3071 18.5939 17.023 19.4459C17.357 19.8427 17.7284 20.2064 18.1322 20.5319ZM17.141 16.1327C17.141 15.8652 17.2472 15.6088 17.4363 15.4197C17.6254 15.2306 17.8819 15.1244 18.1493 15.1244C18.4167 15.1244 18.6732 15.2306 18.8623 15.4197C19.0514 15.6088 19.1576 15.8652 19.1576 16.1327C19.1576 16.4001 19.0514 16.6565 18.8623 16.8456C18.6732 17.0347 18.4167 17.141 18.1493 17.141C17.8819 17.141 17.6254 17.0347 17.4363 16.8456C17.2472 16.6565 17.141 16.4001 17.141 16.1327ZM10.0829 3.52891C8.63397 3.52891 7.48148 4.66929 7.48148 6.04965C7.48148 7.43002 8.63498 8.5704 10.0829 8.5704C11.5308 8.5704 12.6833 7.43002 12.6833 6.04965C12.6833 4.66929 11.5308 3.52891 10.0819 3.52891M6.47318 6.04965C6.47318 4.08851 8.10159 2.52061 10.0829 2.52061C12.0632 2.52061 13.6916 4.08851 13.6916 6.04965C13.6916 8.0108 12.0632 9.5787 10.0819 9.5787C8.1026 9.5787 6.4752 8.0108 6.4752 6.04965M7.67104 11.8534C7.45123 11.7123 7.23747 11.6719 7.08119 11.7143C6.9333 11.7546 6.78576 11.7983 6.63854 11.8454L5.64638 12.164C5.29164 12.2743 4.96528 12.4608 4.6901 12.7103C4.41493 12.9599 4.19759 13.2666 4.05326 13.6089L4.02503 13.7006L4.02402 13.7047L4.021 13.7147L4.01192 13.747L3.96958 13.9225L3.96151 13.9547L3.95949 13.9648V13.9688C3.94396 14.0451 3.93285 14.1222 3.92622 14.1997L3.54609 17.7923L3.54508 17.8014C3.45433 18.4427 3.79917 18.9861 4.37592 19.1202C5.48203 19.3763 7.33024 19.6617 10.0849 19.6617C10.2186 19.6617 10.3469 19.7148 10.4414 19.8094C10.5359 19.9039 10.5891 20.0321 10.5891 20.1658C10.5891 20.2996 10.5359 20.4278 10.4414 20.5223C10.3469 20.6169 10.2186 20.67 10.0849 20.67C7.26167 20.67 5.33582 20.3776 4.14804 20.1023C2.99152 19.8341 2.39663 18.7462 2.54485 17.6683L2.92296 14.0959C2.93405 13.989 2.94111 13.9225 2.96833 13.7813C3.00636 13.6066 3.05212 13.4337 3.10546 13.263V13.26L3.10647 13.258C3.30429 12.7723 3.60698 12.3364 3.9929 11.9813C4.37881 11.6262 4.83842 11.3608 5.33885 11.2041L6.33101 10.8855C6.491 10.8344 6.65165 10.7866 6.81298 10.7423C7.3373 10.5981 7.84951 10.7685 8.21855 11.0075C8.61582 11.2636 9.27222 11.5812 10.0839 11.5812C10.8956 11.5812 11.553 11.2636 11.9503 11.0065C12.3203 10.7685 12.8315 10.5981 13.3558 10.7423C13.5172 10.7873 13.6778 10.835 13.8378 10.8855L14.831 11.2041C14.8956 11.223 14.9558 11.2546 15.008 11.2971C15.0601 11.3396 15.1033 11.3921 15.1349 11.4515C15.1665 11.5109 15.1858 11.5761 15.1918 11.6431C15.1978 11.7102 15.1903 11.7777 15.1698 11.8418C15.1492 11.9059 15.1161 11.9653 15.0722 12.0163C15.0284 12.0674 14.9748 12.1092 14.9145 12.1392C14.8543 12.1692 14.7887 12.1869 14.7215 12.1912C14.6543 12.1954 14.587 12.1862 14.5234 12.164L13.5303 11.8464C13.3844 11.7993 13.2372 11.7556 13.0886 11.7153C12.9313 11.6719 12.7186 11.7113 12.4978 11.8534C12.0047 12.1731 11.1577 12.5895 10.0849 12.5895C9.01107 12.5895 8.1641 12.1731 7.67104 11.8534Z" fill="var(--fill-0, black)"/>
</g>
</svg>
