<svg preserveAspectRatio="none" width="100%" height="100%" overflow="visible" style="display: block;" viewBox="0 0 25.339 25.339" fill="none" xmlns="http://www.w3.org/2000/svg">
<g id="ion:warning-outline">
<path id="Vector" d="M4.23535 22.0862H21.1046C21.3786 22.0861 21.6479 22.015 21.8861 21.8798C22.1244 21.7445 22.3235 21.5497 22.464 21.3145C22.6045 21.0793 22.6815 20.8116 22.6876 20.5377C22.6937 20.2638 22.6286 19.993 22.4987 19.7517L14.0646 4.08807C13.4663 2.9775 11.8737 2.9775 11.2753 4.08807L2.84121 19.7517C2.71132 19.993 2.64625 20.2638 2.65234 20.5377C2.65843 20.8116 2.73548 21.0793 2.87596 21.3145C3.01643 21.5497 3.21554 21.7445 3.45381 21.8798C3.69208 22.015 3.96136 22.0861 4.23535 22.0862Z" stroke="var(--stroke-0, #FFCC00)" stroke-width="1.58369" stroke-linecap="round" stroke-linejoin="round"/>
<path id="Vector_2" d="M12.3876 9.66943L12.6716 15.7072L12.9552 9.67191C12.957 9.63332 12.9508 9.59479 12.9372 9.55866C12.9235 9.52252 12.9027 9.48956 12.8759 9.46176C12.849 9.43397 12.8168 9.41194 12.7812 9.39701C12.7456 9.38209 12.7073 9.37459 12.6687 9.37496C12.6307 9.37534 12.5932 9.38331 12.5584 9.3984C12.5236 9.4135 12.4922 9.43542 12.466 9.46287C12.4398 9.49032 12.4193 9.52274 12.4059 9.55822C12.3924 9.59369 12.3862 9.63151 12.3876 9.66943Z" stroke="var(--stroke-0, #FFCC00)" stroke-width="1.58369" stroke-linecap="round" stroke-linejoin="round"/>
<path id="Vector_3" d="M12.669 19.6599C12.4732 19.6599 12.2819 19.6018 12.1191 19.4931C11.9563 19.3843 11.8295 19.2297 11.7545 19.0488C11.6796 18.868 11.66 18.669 11.6982 18.477C11.7364 18.285 11.8307 18.1086 11.9691 17.9702C12.1075 17.8317 12.2839 17.7375 12.4759 17.6993C12.6679 17.6611 12.8669 17.6807 13.0478 17.7556C13.2287 17.8305 13.3832 17.9574 13.492 18.1202C13.6008 18.2829 13.6588 18.4743 13.6588 18.6701C13.6588 18.9326 13.5545 19.1843 13.3689 19.37C13.1833 19.5556 12.9315 19.6599 12.669 19.6599Z" fill="var(--fill-0, #FFCC00)"/>
</g>
</svg>
