<svg preserveAspectRatio="none" width="100%" height="100%" overflow="visible" style="display: block;" viewBox="0 0 54 54" fill="none" xmlns="http://www.w3.org/2000/svg">
<g id="Group 1000006873">
<circle id="Ellipse 439" opacity="0.15" cx="26.6472" cy="26.6472" r="26.6472" fill="var(--fill-0, #338078)"/>
<g id="fluent:guardian-28-regular">
<path id="Vector" d="M21.8208 21.8204C22.7904 21.8204 23.7203 21.4352 24.4059 20.7496C25.0915 20.064 25.4766 19.1342 25.4766 18.1646C25.4766 17.195 25.0915 16.2651 24.4059 15.5795C23.7203 14.8939 22.7904 14.5087 21.8208 14.5087C20.8512 14.5087 19.9213 14.8939 19.2357 15.5795C18.5501 16.2651 18.1649 17.195 18.1649 18.1646C18.1649 19.1342 18.5501 20.064 19.2357 20.7496C19.9213 21.4352 20.8512 21.8204 21.8208 21.8204ZM21.8208 20.4495C21.2148 20.4495 20.6336 20.2087 20.2051 19.7802C19.7766 19.3517 19.5359 18.7706 19.5359 18.1646C19.5359 17.5586 19.7766 16.9774 20.2051 16.5489C20.6336 16.1204 21.2148 15.8797 21.8208 15.8797C22.4268 15.8797 23.008 16.1204 23.4365 16.5489C23.865 16.9774 24.1057 17.5586 24.1057 18.1646C24.1057 18.7706 23.865 19.3517 23.4365 19.7802C23.008 20.2087 22.4268 20.4495 21.8208 20.4495ZM31.4174 23.6483C32.2658 23.6483 33.0794 23.3113 33.6793 22.7114C34.2792 22.1115 34.6162 21.2979 34.6162 20.4495C34.6162 19.6011 34.2792 18.7874 33.6793 18.1875C33.0794 17.5876 32.2658 17.2506 31.4174 17.2506C30.569 17.2506 29.7553 17.5876 29.1554 18.1875C28.5555 18.7874 28.2185 19.6011 28.2185 20.4495C28.2185 21.2979 28.5555 22.1115 29.1554 22.7114C29.7553 23.3113 30.569 23.6483 31.4174 23.6483ZM31.4174 22.2774C30.9326 22.2774 30.4676 22.0848 30.1248 21.742C29.782 21.3992 29.5895 20.9343 29.5895 20.4495C29.5895 19.9647 29.782 19.4997 30.1248 19.1569C30.4676 18.8141 30.9326 18.6216 31.4174 18.6216C31.9022 18.6216 32.3671 18.8141 32.7099 19.1569C33.0527 19.4997 33.2453 19.9647 33.2453 20.4495C33.2453 20.9343 33.0527 21.3992 32.7099 21.742C32.3671 22.0848 31.9022 22.2774 31.4174 22.2774ZM27.7615 30.1959C27.4943 30.5268 27.1311 30.7668 26.7219 30.8826C26.3127 30.9985 25.8776 30.9847 25.4766 30.843V35.1871C25.4766 35.6105 25.3528 36.0247 25.1203 36.3786C24.8879 36.7325 24.557 37.0107 24.1685 37.179C23.7799 37.3472 23.3506 37.3982 22.9335 37.3255C22.5164 37.2528 22.1296 37.0598 21.8208 36.7701C21.512 37.0598 21.1252 37.2528 20.7081 37.3255C20.2909 37.3982 19.8617 37.3472 19.4731 37.179C19.0845 37.0107 18.7537 36.7325 18.5212 36.3786C18.2888 36.0247 18.165 35.6105 18.1649 35.1871V30.843C17.8547 30.9527 17.5227 30.9863 17.1968 30.9411C16.8709 30.8959 16.5606 30.7731 16.292 30.5831C16.0233 30.3931 15.8042 30.1414 15.653 29.8491C15.5018 29.5569 15.423 29.2326 15.4231 28.9036V25.2478C15.4231 24.5812 15.6879 23.9419 16.1592 23.4705C16.6306 22.9992 17.2699 22.7344 17.9365 22.7344H25.7051C26.8494 22.7344 27.8145 23.4984 28.118 24.544H34.8447C35.5113 24.544 36.1506 24.8088 36.622 25.2802C37.0933 25.7515 37.3581 26.3908 37.3581 27.0574V29.5013C37.3582 29.8304 37.2794 30.1546 37.1282 30.4469C36.977 30.7391 36.7579 30.9908 36.4892 31.1808C36.2206 31.3708 35.9103 31.4936 35.5844 31.5389C35.2585 31.5841 34.9265 31.5504 34.6162 31.4408V35.3178C34.6162 35.7148 34.5013 36.1032 34.2854 36.4363C34.0694 36.7694 33.7617 37.0329 33.3993 37.195C33.0369 37.357 32.6354 37.4107 32.2432 37.3496C31.8509 37.2885 31.4848 37.1151 31.1889 36.8505C30.893 37.1151 30.5268 37.2885 30.1346 37.3496C29.7424 37.4107 29.3408 37.357 28.9784 37.195C28.6161 37.0329 28.3083 36.7694 28.0924 36.4363C27.8764 36.1032 27.7615 35.7148 27.7615 35.3178V30.1959ZM28.2185 25.915V28.4859C28.3219 28.4494 28.4325 28.4382 28.5412 28.4532C28.6498 28.4683 28.7532 28.5092 28.8427 28.5725C28.9323 28.6358 29.0053 28.7196 29.0557 28.817C29.1061 28.9144 29.1325 29.0224 29.1325 29.1321V35.3178C29.1325 35.4996 29.2047 35.6739 29.3332 35.8025C29.4618 35.931 29.6361 36.0033 29.8179 36.0033C29.9997 36.0033 30.1741 35.931 30.3026 35.8025C30.4312 35.6739 30.5034 35.4996 30.5034 35.3178V32.0001C30.5034 31.8183 30.5756 31.644 30.7042 31.5154C30.8327 31.3869 31.0071 31.3146 31.1889 31.3146C31.3707 31.3146 31.545 31.3869 31.6736 31.5154C31.8021 31.644 31.8744 31.8183 31.8744 32.0001V35.3178C31.8744 35.4996 31.9466 35.6739 32.0751 35.8025C32.2037 35.931 32.378 36.0033 32.5598 36.0033C32.7416 36.0033 32.916 35.931 33.0445 35.8025C33.1731 35.6739 33.2453 35.4996 33.2453 35.3178V28.0509C33.2453 27.8691 33.3175 27.6947 33.4461 27.5662C33.5746 27.4376 33.749 27.3654 33.9308 27.3654C34.1126 27.3654 34.2869 27.4376 34.4155 27.5662C34.544 27.6947 34.6162 27.8691 34.6162 28.0509V29.5013C34.6162 29.6831 34.6885 29.8575 34.817 29.986C34.9456 30.1146 35.1199 30.1868 35.3017 30.1868C35.4835 30.1868 35.6579 30.1146 35.7864 29.986C35.915 29.8575 35.9872 29.6831 35.9872 29.5013V27.0574C35.9872 26.4268 35.4754 25.915 34.8447 25.915H28.2185ZM24.1057 26.1133C24.1057 25.9315 24.1779 25.7571 24.3065 25.6286C24.435 25.5 24.6094 25.4278 24.7912 25.4278C24.973 25.4278 25.1473 25.5 25.2759 25.6286C25.4044 25.7571 25.4766 25.9315 25.4766 26.1133V28.9036C25.4766 29.0854 25.5489 29.2598 25.6774 29.3883C25.806 29.5169 25.9803 29.5891 26.1621 29.5891C26.3439 29.5891 26.5183 29.5169 26.6468 29.3883C26.7754 29.2598 26.8476 29.0854 26.8476 28.9036V25.2478C26.8476 24.6171 26.3358 24.1053 25.7051 24.1053H17.9365C17.3058 24.1053 16.794 24.6171 16.794 25.2478V28.9036C16.794 29.0854 16.8662 29.2598 16.9948 29.3883C17.1233 29.5169 17.2977 29.5891 17.4795 29.5891C17.6613 29.5891 17.8356 29.5169 17.9642 29.3883C18.0927 29.2598 18.1649 29.0854 18.1649 28.9036V26.0228C18.1649 25.841 18.2372 25.6667 18.3657 25.5381C18.4943 25.4096 18.6686 25.3373 18.8504 25.3373C19.0322 25.3373 19.2066 25.4096 19.3351 25.5381C19.4637 25.6667 19.5359 25.841 19.5359 26.0228V35.1871C19.5359 35.3992 19.6201 35.6026 19.7701 35.7526C19.9201 35.9025 20.1235 35.9868 20.3356 35.9868C20.5477 35.9868 20.7511 35.9025 20.9011 35.7526C21.0511 35.6026 21.1353 35.3992 21.1353 35.1871V31.6455C21.1353 31.4637 21.2075 31.2893 21.3361 31.1608C21.4646 31.0322 21.639 30.96 21.8208 30.96C22.0026 30.96 22.1769 31.0322 22.3055 31.1608C22.434 31.2893 22.5063 31.4637 22.5063 31.6455V35.1871C22.5063 35.3992 22.5905 35.6026 22.7405 35.7526C22.8905 35.9025 23.0939 35.9868 23.306 35.9868C23.5181 35.9868 23.7215 35.9025 23.8715 35.7526C24.0214 35.6026 24.1057 35.3992 24.1057 35.1871V26.1133Z" fill="var(--fill-0, #338078)"/>
</g>
</g>
</svg>
