<svg preserveAspectRatio="none" width="100%" height="100%" overflow="visible" style="display: block;" viewBox="0 0 24.1897 24.1897" fill="none" xmlns="http://www.w3.org/2000/svg">
<g id="material-symbols:star-rounded">
<path id="Vector" d="M12.1029 17.4159L7.92006 19.9357C7.73528 20.0532 7.5421 20.1036 7.34052 20.0868C7.13894 20.07 6.96255 20.0029 6.81137 19.8853C6.66018 19.7677 6.54259 19.6209 6.4586 19.4448C6.37461 19.2688 6.35781 19.0712 6.40821 18.8522L7.5169 14.0898L3.81286 10.8897C3.64488 10.7386 3.54005 10.5662 3.49839 10.3727C3.45673 10.1792 3.46916 9.99035 3.53569 9.80624C3.60221 9.62213 3.703 9.47095 3.83806 9.35268C3.97312 9.23442 4.1579 9.15883 4.3924 9.12591L9.28073 8.69755L11.1705 4.21238C11.2545 4.0108 11.3849 3.85962 11.5616 3.75883C11.7383 3.65804 11.9187 3.60764 12.1029 3.60764C12.287 3.60764 12.4674 3.65804 12.6441 3.75883C12.8208 3.85962 12.9512 4.0108 13.0352 4.21238L14.925 8.69755L19.8133 9.12591C20.0485 9.1595 20.2333 9.2351 20.3677 9.35268C20.502 9.47027 20.6028 9.62146 20.67 9.80624C20.7372 9.99102 20.75 10.1802 20.7083 10.3737C20.6667 10.5672 20.5615 10.7392 20.3929 10.8897L16.6888 14.0898L17.7975 18.8522C17.8479 19.0705 17.8311 19.2681 17.7471 19.4448C17.6631 19.6215 17.5455 19.7683 17.3943 19.8853C17.2432 20.0022 17.0668 20.0694 16.8652 20.0868C16.6636 20.1043 16.4704 20.0539 16.2857 19.9357L12.1029 17.4159Z" fill="var(--fill-0, #FFC633)"/>
</g>
</svg>
