<svg preserveAspectRatio="none" width="100%" height="100%" overflow="visible" style="display: block;" viewBox="0 0 1.54825 9.8056" fill="none" xmlns="http://www.w3.org/2000/svg">
<g id="icon">
<path d="M1.54825 0.774126C1.54825 1.20166 1.20166 1.54825 0.774126 1.54825C0.346588 1.54825 0 1.20166 0 0.774126C0 0.346588 0.346588 0 0.774126 0C1.20166 0 1.54825 0.346588 1.54825 0.774126Z" fill="var(--fill-0, black)"/>
<path d="M1.54825 4.9028C1.54825 5.33034 1.20166 5.67692 0.774126 5.67692C0.346588 5.67692 0 5.33034 0 4.9028C0 4.47526 0.346588 4.12867 0.774126 4.12867C1.20166 4.12867 1.54825 4.47526 1.54825 4.9028Z" fill="var(--fill-0, black)"/>
<path d="M0.774126 9.8056C1.20166 9.8056 1.54825 9.45901 1.54825 9.03147C1.54825 8.60393 1.20166 8.25735 0.774126 8.25735C0.346588 8.25735 0 8.60393 0 9.03147C0 9.45901 0.346588 9.8056 0.774126 9.8056Z" fill="var(--fill-0, black)"/>
</g>
</svg>
