<svg preserveAspectRatio="none" width="100%" height="100%" overflow="visible" style="display: block;" viewBox="0 0 14.7809 13.8798" fill="none" xmlns="http://www.w3.org/2000/svg">
<g id="Group">
<path id="Vector" d="M3.69523 13.0874V10.0299H1.58367C1.30366 10.0299 1.03512 9.91868 0.837121 9.72068C0.639124 9.52268 0.52789 9.25414 0.52789 8.97413V1.58367C0.52789 1.30366 0.639124 1.03512 0.837121 0.837121C1.03512 0.639124 1.30366 0.52789 1.58367 0.52789H13.1972C13.4773 0.52789 13.7458 0.639124 13.9438 0.837121C14.1418 1.03512 14.253 1.30366 14.253 1.58367V8.97413C14.253 9.25414 14.1418 9.52268 13.9438 9.72068C13.7458 9.91868 13.4773 10.0299 13.1972 10.0299H7.39046L4.14605 13.2743C4.10913 13.3113 4.06206 13.3365 4.0108 13.3468C3.95954 13.357 3.90639 13.3518 3.8581 13.3317C3.80982 13.3117 3.76856 13.2778 3.73956 13.2343C3.71057 13.1908 3.69514 13.1397 3.69523 13.0874Z" stroke="var(--stroke-0, #007AFF)" stroke-width="1.05578"/>
<path id="Vector_2" d="M3.69616 6.8635H11.0866M3.69616 3.69616H11.0866" stroke="var(--stroke-0, #007AFF)" stroke-width="1.05578" stroke-linecap="round"/>
</g>
</svg>
