<svg preserveAspectRatio="none" width="100%" height="100%" overflow="visible" style="display: block;" viewBox="0 0 34.8144 25.2107" fill="none" xmlns="http://www.w3.org/2000/svg">
<g id="Group 39522">
<path id="Vector" d="M11.1135 0C9.28506 0 7.53154 0.726335 6.23866 2.01922L2.01922 6.23866C0.726335 7.53154 0 9.28506 0 11.1135C0 14.921 3.08658 18.0076 6.89407 18.0076C8.7225 18.0076 10.476 17.2812 11.7689 15.9883L14.6875 13.0697C14.6876 13.0698 14.6875 13.0696 14.6875 13.0697L23.1913 4.56588C23.8088 3.9484 24.6463 3.60151 25.5195 3.60151C26.9815 3.60151 28.221 4.55436 28.6507 5.87291L31.3345 3.18911C30.1101 1.27154 27.9633 0 25.5195 0C23.6911 0 21.9376 0.726335 20.6447 2.01922L9.22227 13.4417C8.60479 14.0592 7.76732 14.406 6.89407 14.406C5.07563 14.406 3.60151 12.9319 3.60151 11.1135C3.60151 10.2402 3.9484 9.40277 4.56588 8.78529L8.78529 4.56588C9.40277 3.9484 10.2402 3.60151 11.1135 3.60151C12.5755 3.60151 13.8149 4.5544 14.2446 5.87299L16.9285 3.18918C15.7042 1.27157 13.5573 0 11.1135 0Z" fill="var(--fill-0, #317B74)"/>
<path id="Vector_2" d="M11.6231 20.6448C11.0056 21.2623 10.1681 21.6091 9.2949 21.6091C7.8331 21.6091 6.59376 20.6565 6.16392 19.3382L3.4802 22.0219C4.70459 23.9393 6.85127 25.2107 9.2949 25.2107C11.1233 25.2107 12.8768 24.4843 14.1697 23.1914L25.5922 11.769C26.2096 11.1515 27.0471 10.8046 27.9204 10.8046C29.7388 10.8046 31.2129 12.2787 31.2129 14.0972C31.2129 14.9704 30.866 15.8079 30.2486 16.4254L26.0291 20.6448C25.4117 21.2623 24.5742 21.6091 23.7009 21.6091C22.239 21.6091 20.9996 20.6564 20.5698 19.3379L17.8861 22.0217C19.1105 23.9392 21.2572 25.2107 23.7009 25.2107C25.5294 25.2107 27.2829 24.4843 28.5758 23.1914L32.7952 18.972C34.0881 17.6791 34.8144 15.9256 34.8144 14.0972C34.8144 10.2897 31.7279 7.20309 27.9204 7.20309C26.0919 7.20309 24.3384 7.92943 23.0455 9.22232L11.6231 20.6448Z" fill="url(#paint0_linear_6548_108782)"/>
</g>
<defs>
<linearGradient id="paint0_linear_6548_108782" x1="19.1473" y1="7.20309" x2="19.1473" y2="25.2107" gradientUnits="userSpaceOnUse">
<stop stop-color="#FBE5B1"/>
<stop offset="1" stop-color="#958869"/>
</linearGradient>
</defs>
</svg>
