<svg preserveAspectRatio="none" width="100%" height="100%" overflow="visible" style="display: block;" viewBox="0 0 16 16" fill="none" xmlns="http://www.w3.org/2000/svg">
<g id="fluent:chat-24-regular">
<path id="Vector" d="M7.50652 1.25178C10.9617 1.25178 13.7624 4.05255 13.7624 7.50769C13.7624 10.9628 10.9617 13.7636 7.50652 13.7636C6.50807 13.765 5.52391 13.5264 4.63693 13.0679L2.24342 13.7354C2.10989 13.7727 1.96884 13.7738 1.83474 13.7386C1.70064 13.7034 1.57831 13.6332 1.48027 13.5352C1.38224 13.4371 1.31203 13.3148 1.27684 13.1807C1.24165 13.0466 1.24275 12.9056 1.28001 12.772L1.94814 10.3804C1.48856 9.49265 1.24931 8.50735 1.25061 7.50769C1.25061 4.05255 4.05138 1.25178 7.50652 1.25178ZM7.50652 2.19017C6.09622 2.19017 4.74369 2.7504 3.74646 3.74763C2.74923 4.74486 2.189 6.09739 2.189 7.50769C2.189 8.42731 2.42234 9.31126 2.86026 10.0958L2.95409 10.2647L2.25844 12.757L4.75267 12.0614L4.92158 12.1552C5.63124 12.5498 6.42183 12.7766 7.23273 12.8182C8.04362 12.8599 8.85329 12.7153 9.59964 12.3955C10.346 12.0757 11.0092 11.5893 11.5384 10.9735C12.0676 10.3577 12.4488 9.62882 12.6527 8.84287C12.8565 8.05691 12.8777 7.23471 12.7146 6.4393C12.5514 5.64389 12.2083 4.8964 11.7115 4.25416C11.2147 3.61191 10.5774 3.09197 9.84853 2.7342C9.11963 2.37642 8.31848 2.19032 7.50652 2.19017ZM5.47335 8.13328H8.28725C8.40613 8.13331 8.52056 8.17847 8.60743 8.25963C8.69429 8.34079 8.74711 8.45189 8.75521 8.57049C8.76331 8.68909 8.7261 8.80635 8.65108 8.89856C8.57606 8.99078 8.46883 9.05108 8.35106 9.06728L8.28725 9.07166H5.47335C5.35447 9.07163 5.24004 9.02647 5.15318 8.94531C5.06631 8.86415 5.01349 8.75305 5.00539 8.63445C4.99729 8.51585 5.03451 8.3986 5.10952 8.30638C5.18454 8.21416 5.29177 8.15386 5.40954 8.13766L5.47335 8.13328ZM5.47335 5.94371H9.54281C9.66164 5.9439 9.77596 5.98917 9.86271 6.07038C9.94945 6.15159 10.0022 6.26268 10.0102 6.38123C10.0182 6.49979 9.98093 6.61697 9.90592 6.70912C9.8309 6.80127 9.72371 6.86152 9.606 6.87772L9.54281 6.8821H5.47335C5.35447 6.88206 5.24004 6.8369 5.15318 6.75574C5.06631 6.67459 5.01349 6.56348 5.00539 6.44488C4.99729 6.32628 5.03451 6.20903 5.10952 6.11681C5.18454 6.0246 5.29177 5.96429 5.40954 5.94809L5.47335 5.94371Z" fill="var(--fill-0, #338078)"/>
</g>
</svg>
