<svg preserveAspectRatio="none" width="100%" height="100%" overflow="visible" style="display: block;" viewBox="0 0 54 54" fill="none" xmlns="http://www.w3.org/2000/svg">
<g id="Group 1000006873">
<circle id="Ellipse 439" opacity="0.15" cx="26.6472" cy="26.6472" r="26.6472" fill="var(--fill-0, #338078)"/>
<g id="ph:student">
<path id="Vector" d="M36.2405 19.234L26.6439 16.0351C26.4798 15.9804 26.3023 15.9804 26.1381 16.0351L16.5415 19.234C16.3823 19.2871 16.2438 19.3889 16.1457 19.5251C16.0475 19.6613 15.9947 19.8249 15.9947 19.9927V27.9899C15.9947 28.202 16.079 28.4054 16.229 28.5554C16.3789 28.7053 16.5824 28.7896 16.7945 28.7896C17.0066 28.7896 17.21 28.7053 17.3599 28.5554C17.5099 28.4054 17.5942 28.202 17.5942 27.9899V21.1023L20.952 22.2209C20.0598 23.6622 19.7762 25.3986 20.1632 27.0489C20.5502 28.6992 21.5763 30.1284 23.0162 31.0228C21.2169 31.7285 19.6614 33.0051 18.5238 34.7505C18.4647 34.8384 18.4236 34.9372 18.4029 35.0412C18.3823 35.1451 18.3825 35.2521 18.4036 35.356C18.4247 35.4599 18.4662 35.5585 18.5258 35.6462C18.5853 35.7339 18.6617 35.8088 18.7505 35.8667C18.8392 35.9246 18.9386 35.9643 19.0429 35.9834C19.1471 36.0026 19.2541 36.0008 19.3577 35.9783C19.4612 35.9557 19.5592 35.9128 19.6461 35.852C19.7329 35.7912 19.8067 35.7137 19.8634 35.6241C21.3698 33.313 23.749 31.9884 26.391 31.9884C29.0331 31.9884 31.4123 33.313 32.9187 35.6241C33.036 35.7985 33.2172 35.9196 33.4231 35.9614C33.629 36.0033 33.8431 35.9623 34.0191 35.8476C34.1951 35.7328 34.3189 35.5533 34.3636 35.348C34.4083 35.1427 34.3705 34.9281 34.2582 34.7505C33.1206 33.0051 31.5592 31.7285 29.7658 31.0228C31.2044 30.1285 32.2295 28.7001 32.6165 27.0511C33.0034 25.402 32.7206 23.6668 31.8301 22.2259L36.2405 20.7564C36.3998 20.7034 36.5383 20.6016 36.6365 20.4654C36.7347 20.3292 36.7875 20.1656 36.7875 19.9977C36.7875 19.8298 36.7347 19.6662 36.6365 19.53C36.5383 19.3939 36.3998 19.292 36.2405 19.239V19.234ZM31.1893 25.5907C31.1895 26.3493 31.0099 27.0971 30.6651 27.7728C30.3204 28.4486 29.8203 29.0329 29.206 29.4779C28.5916 29.923 27.8805 30.216 27.131 30.333C26.3815 30.45 25.615 30.3876 24.8942 30.1509C24.1735 29.9143 23.5191 29.5101 22.9848 28.9716C22.4505 28.4331 22.0515 27.7756 21.8206 27.0531C21.5896 26.3305 21.5332 25.5635 21.6561 24.8149C21.779 24.0663 22.0776 23.3576 22.5274 22.7467L26.1381 23.9463C26.3023 24.001 26.4798 24.001 26.6439 23.9463L30.2547 22.7467C30.8622 23.5705 31.1897 24.5672 31.1893 25.5907ZM26.391 22.3489L19.3236 19.9927L26.391 17.6365L33.4585 19.9927L26.391 22.3489Z" fill="var(--fill-0, #338078)"/>
</g>
</g>
</svg>
