<svg preserveAspectRatio="none" width="100%" height="100%" overflow="visible" style="display: block;" viewBox="0 0 19 19" fill="none" xmlns="http://www.w3.org/2000/svg">
<g id="logos:facebook" clip-path="url(#clip0_6083_108326)">
<path id="Vector" d="M18.9322 9.46612C18.9322 4.23816 14.6941 0 9.46612 0C4.23816 0 0 4.23816 0 9.46612C0 14.1909 3.46164 18.1071 7.98704 18.8172V12.2024H5.58353V9.46612H7.98704V7.38062C7.98704 5.00817 9.4003 3.6977 11.5626 3.6977C12.5982 3.6977 13.6815 3.88259 13.6815 3.88259V6.21214H12.4879C11.3119 6.21214 10.9452 6.94185 10.9452 7.69048V9.46612H13.5706L13.1509 12.2024H10.9452V18.8172C15.4706 18.1071 18.9322 14.191 18.9322 9.46612Z" fill="var(--fill-0, #1877F2)"/>
<path id="Vector_2" d="M13.1511 12.2025L13.5708 9.46619H10.9454V7.69055C10.9454 6.94184 11.3121 6.21221 12.4881 6.21221H13.6817V3.88266C13.6817 3.88266 12.5984 3.69777 11.5627 3.69777C9.4005 3.69777 7.98724 5.00824 7.98724 7.38068V9.46619H5.58374V12.2025H7.98724V18.8173C8.47654 18.894 8.97106 18.9324 9.46632 18.9323C9.96159 18.9324 10.4561 18.894 10.9454 18.8173V12.2025H13.1511Z" fill="var(--fill-0, white)"/>
</g>
<defs>
<clipPath id="clip0_6083_108326">
<rect width="18.9322" height="18.9322" fill="white"/>
</clipPath>
</defs>
</svg>
