<svg preserveAspectRatio="none" width="100%" height="100%" overflow="visible" style="display: block;" viewBox="0 0 24.1897 24.1897" fill="none" xmlns="http://www.w3.org/2000/svg">
<g id="material-symbols:star-rounded">
<path id="Vector" d="M12.0962 17.4159L7.9134 19.9357C7.72861 20.0532 7.53543 20.1036 7.33385 20.0868C7.13227 20.07 6.95589 20.0029 6.8047 19.8853C6.65352 19.7677 6.53593 19.6209 6.45194 19.4448C6.36795 19.2688 6.35115 19.0712 6.40154 18.8522L7.51023 14.0898L3.80619 10.8897C3.63821 10.7386 3.53339 10.5662 3.49173 10.3727C3.45007 10.1792 3.4625 9.99035 3.52902 9.80624C3.59554 9.62213 3.69633 9.47095 3.83139 9.35268C3.96645 9.23442 4.15123 9.15883 4.38574 9.12591L9.27406 8.69755L11.1639 4.21238C11.2479 4.0108 11.3782 3.85962 11.5549 3.75883C11.7317 3.65804 11.9121 3.60764 12.0962 3.60764C12.2803 3.60764 12.4607 3.65804 12.6374 3.75883C12.8142 3.85962 12.9445 4.0108 13.0285 4.21238L14.9183 8.69755L19.8066 9.12591C20.0418 9.1595 20.2266 9.2351 20.361 9.35268C20.4954 9.47027 20.5962 9.62146 20.6634 9.80624C20.7306 9.99102 20.7433 10.1802 20.7017 10.3737C20.66 10.5672 20.5548 10.7392 20.3862 10.8897L16.6821 14.0898L17.7908 18.8522C17.8412 19.0705 17.8244 19.2681 17.7404 19.4448C17.6565 19.6215 17.5389 19.7683 17.3877 19.8853C17.2365 20.0022 17.0601 20.0694 16.8585 20.0868C16.6569 20.1043 16.4638 20.0539 16.279 19.9357L12.0962 17.4159Z" fill="var(--fill-0, #FFC633)"/>
</g>
</svg>
