<svg preserveAspectRatio="none" width="100%" height="100%" overflow="visible" style="display: block;" viewBox="0 0 25.3387 25.3387" fill="none" xmlns="http://www.w3.org/2000/svg">
<g id="fluent:payment-20-regular">
<path id="Vector" d="M17.1024 16.4696C16.9344 16.4696 16.7733 16.5363 16.6545 16.6551C16.5357 16.7739 16.4689 16.935 16.4689 17.103C16.4689 17.271 16.5357 17.4322 16.6545 17.551C16.7733 17.6698 16.9344 17.7365 17.1024 17.7365H19.6363C19.8043 17.7365 19.9654 17.6698 20.0842 17.551C20.203 17.4322 20.2698 17.271 20.2698 17.103C20.2698 16.935 20.203 16.7739 20.0842 16.6551C19.9654 16.5363 19.8043 16.4696 19.6363 16.4696H17.1024ZM2.53265 8.55122C2.53265 7.62719 2.89973 6.741 3.55312 6.08761C4.20651 5.43422 5.09269 5.06715 6.01673 5.06715H19.3196C20.2436 5.06715 21.1298 5.43422 21.7832 6.08761C22.4366 6.741 22.8036 7.62719 22.8036 8.55122V16.7863C22.8036 17.7103 22.4366 18.5965 21.7832 19.2499C21.1298 19.9033 20.2436 20.2704 19.3196 20.2704H6.01673C5.09269 20.2704 4.20651 19.9033 3.55312 19.2499C2.89973 18.5965 2.53265 17.7103 2.53265 16.7863V8.55122ZM6.01673 6.33408C5.42871 6.33408 4.86477 6.56767 4.44898 6.98347C4.03318 7.39926 3.79959 7.9632 3.79959 8.55122V10.1349H21.5367V8.55122C21.5367 7.9632 21.3031 7.39926 20.8873 6.98347C20.4715 6.56767 19.9076 6.33408 19.3196 6.33408H6.01673ZM21.5367 11.4018H3.79959V16.7863C3.79959 18.0102 4.79287 19.0034 6.01673 19.0034H19.3196C19.9076 19.0034 20.4715 18.7699 20.8873 18.3541C21.3031 17.9383 21.5367 17.3743 21.5367 16.7863V11.4018Z" fill="var(--fill-0, #34C759)"/>
</g>
</svg>
