<svg preserveAspectRatio="none" width="100%" height="100%" overflow="visible" style="display: block;" viewBox="0 0 10.9312 10.9312" fill="none" xmlns="http://www.w3.org/2000/svg">
<g id="iconamoon:search-thin" clip-path="url(#clip0_6548_108794)">
<path id="Vector" d="M9.56432 9.5654L7.58623 7.58731M7.58623 7.58731C7.92459 7.24895 8.19299 6.84726 8.37611 6.40517C8.55923 5.96308 8.65348 5.48925 8.65348 5.01074C8.65348 4.53223 8.55923 4.0584 8.37611 3.61631C8.19299 3.17422 7.92459 2.77253 7.58623 2.43417C7.24787 2.09581 6.84618 1.82741 6.40409 1.64429C5.962 1.46117 5.48817 1.36692 5.00966 1.36692C4.53115 1.36692 4.05732 1.46117 3.61523 1.64429C3.17314 1.82741 2.77145 2.09581 2.43309 2.43417C1.74974 3.11752 1.36584 4.04434 1.36584 5.01074C1.36584 5.97714 1.74974 6.90396 2.43309 7.58731C3.11644 8.27066 4.04326 8.65456 5.00966 8.65456C5.97606 8.65456 6.90288 8.27066 7.58623 7.58731Z" stroke="var(--stroke-0, #6B7280)" stroke-width="0.910931" stroke-linecap="round" stroke-linejoin="round"/>
</g>
<defs>
<clipPath id="clip0_6548_108794">
<rect width="10.9312" height="10.9312" fill="white"/>
</clipPath>
</defs>
</svg>
