<svg preserveAspectRatio="none" width="100%" height="100%" overflow="visible" style="display: block;" viewBox="0 0 25.1552 25.1552" fill="none" xmlns="http://www.w3.org/2000/svg">
<g id="fluent:chat-24-regular">
<path id="Vector" d="M12.5747 2.09731C18.3635 2.09731 23.056 6.78981 23.056 12.5787C23.056 18.3675 18.3635 23.06 12.5747 23.06C10.9019 23.0623 9.25297 22.6626 7.7669 21.8945L3.75674 23.0128C3.533 23.0753 3.29669 23.0771 3.07202 23.0182C2.84734 22.9592 2.64238 22.8416 2.47813 22.6773C2.31388 22.5131 2.19625 22.3081 2.13729 22.0834C2.07834 21.8588 2.08017 21.6224 2.14261 21.3987L3.26202 17.3917C2.49201 15.9043 2.09117 14.2535 2.09335 12.5787C2.09335 6.78981 6.78585 2.09731 12.5747 2.09731ZM12.5747 3.66951C10.2118 3.66951 7.94577 4.60815 6.27498 6.27894C4.60419 7.94973 3.66555 10.2158 3.66555 12.5787C3.66555 14.1194 4.0565 15.6004 4.7902 16.9148L4.94742 17.1978L3.78189 21.3736L7.96081 20.208L8.2438 20.3652C9.43279 21.0263 10.7574 21.4063 12.116 21.4761C13.4746 21.5459 14.8311 21.3036 16.0816 20.7678C17.332 20.2321 18.4432 19.4171 19.3299 18.3853C20.2165 17.3536 20.8551 16.1325 21.1967 14.8157C21.5383 13.4988 21.5738 12.1213 21.3005 10.7886C21.0271 9.45598 20.4522 8.20362 19.6199 7.12759C18.7875 6.05155 17.7198 5.18042 16.4986 4.58099C15.2774 3.98157 13.9351 3.66977 12.5747 3.66951ZM9.16826 13.6268H13.8828C14.0819 13.6269 14.2737 13.7025 14.4192 13.8385C14.5647 13.9745 14.6532 14.1606 14.6668 14.3593C14.6804 14.558 14.618 14.7545 14.4923 14.909C14.3666 15.0635 14.187 15.1645 13.9897 15.1917L13.8828 15.199H9.16826C8.96909 15.1989 8.77737 15.1233 8.63183 14.9873C8.4863 14.8513 8.3978 14.6652 8.38423 14.4665C8.37065 14.2678 8.43301 14.0713 8.5587 13.9168C8.68439 13.7623 8.86404 13.6613 9.06135 13.6341L9.16826 13.6268ZM9.16826 9.95832H15.9864C16.1855 9.95864 16.377 10.0345 16.5223 10.1705C16.6677 10.3066 16.756 10.4927 16.7694 10.6914C16.7828 10.89 16.7204 11.0863 16.5947 11.2407C16.469 11.3951 16.2895 11.496 16.0922 11.5232L15.9864 11.5305H9.16826C8.96909 11.5305 8.77737 11.4548 8.63183 11.3188C8.4863 11.1829 8.3978 10.9967 8.38423 10.798C8.37065 10.5993 8.43301 10.4028 8.5587 10.2483C8.68439 10.0938 8.86404 9.9928 9.06135 9.96566L9.16826 9.95832Z" fill="var(--fill-0, #338078)"/>
</g>
</svg>
