<svg preserveAspectRatio="none" width="100%" height="100%" overflow="visible" style="display: block;" viewBox="0 0 19.619 19.619" fill="none" xmlns="http://www.w3.org/2000/svg">
<g id="material-symbols-light:menu-book-outline-rounded">
<path id="Vector" d="M5.3122 13.1107C6.02612 13.1107 6.72014 13.1924 7.39427 13.3559C8.0684 13.5194 8.73681 13.7864 9.3995 14.157V6.13693C8.80929 5.71567 8.15914 5.39958 7.44904 5.18868C6.73785 4.97832 6.02557 4.87314 5.3122 4.87314C4.82173 4.87314 4.39229 4.9023 4.02389 4.96061C3.65549 5.01892 3.24648 5.12791 2.79688 5.28759C2.67154 5.32955 2.58244 5.39005 2.52957 5.46907C2.47726 5.54754 2.4511 5.63392 2.4511 5.7282V13.0976C2.4511 13.2447 2.50341 13.3521 2.60805 13.4197C2.71268 13.4873 2.82795 13.4954 2.95383 13.4442C3.25248 13.3434 3.59772 13.2625 3.98956 13.2014C4.38139 13.1404 4.82227 13.1101 5.3122 13.1107ZM10.217 14.157C10.8796 13.7875 11.5481 13.5205 12.2222 13.3559C12.8963 13.1913 13.5903 13.1096 14.3043 13.1107C14.7947 13.1107 15.2356 13.1409 15.6269 13.2014C16.0182 13.2619 16.3634 13.3426 16.6626 13.4434C16.788 13.4957 16.9032 13.4878 17.0084 13.4197C17.1136 13.3516 17.1659 13.2442 17.1654 13.0976V5.7282C17.1654 5.63392 17.1392 5.55 17.0869 5.47642C17.0346 5.4034 16.9455 5.34073 16.8196 5.28841C16.37 5.12873 15.961 5.01974 15.5926 4.96143C15.2242 4.90311 14.7947 4.87341 14.3043 4.87232C13.5903 4.87232 12.8783 4.9775 12.1682 5.18786C11.4576 5.39877 10.8072 5.71485 10.217 6.13611V14.157ZM9.80823 15.0865C9.68016 15.0865 9.56245 15.0704 9.45509 15.0382C9.34773 15.0061 9.24527 14.9652 9.14772 14.9156C8.5537 14.5914 7.93516 14.3456 7.29209 14.1783C6.64902 14.011 5.98906 13.9279 5.3122 13.929C4.88713 13.929 4.46913 13.9644 4.05822 14.0352C3.64786 14.1066 3.24839 14.2211 2.85983 14.3786C2.56336 14.4968 2.28488 14.4611 2.02438 14.2715C1.76389 14.0818 1.63364 13.8194 1.63364 13.4843V5.58351C1.63364 5.38133 1.68677 5.19358 1.79304 5.02028C1.89931 4.84698 2.04836 4.72654 2.24019 4.65897C2.72031 4.44752 3.21978 4.29411 3.7386 4.19874C4.25741 4.10337 4.78195 4.05568 5.3122 4.05568C6.11331 4.05568 6.89426 4.17094 7.65504 4.40147C8.41691 4.63199 9.13464 4.96715 9.80823 5.40694C10.4824 4.96715 11.2001 4.63199 11.9614 4.40147C12.7227 4.17094 13.5037 4.05568 14.3043 4.05568C14.8345 4.05568 15.359 4.10337 15.8779 4.19874C16.3967 4.29411 16.8961 4.44752 17.3763 4.65897C17.5681 4.72709 17.7171 4.84753 17.8234 5.02028C17.9297 5.19304 17.9828 5.38078 17.9828 5.58351V13.4843C17.9828 13.8189 17.8422 14.0758 17.561 14.2551C17.2793 14.4339 16.9795 14.4641 16.6618 14.3459C16.2841 14.1987 15.8978 14.0924 15.5027 14.027C15.1081 13.9611 14.7086 13.9281 14.3043 13.9281C13.6285 13.9281 12.9688 14.0115 12.3252 14.1783C11.6816 14.345 11.0628 14.5906 10.4687 14.9148C10.3706 14.9655 10.2682 15.0066 10.1614 15.0382C10.054 15.0704 9.9363 15.0865 9.80823 15.0865ZM11.3491 7.31407C11.3491 7.25413 11.3698 7.19363 11.4113 7.1326C11.4527 7.07156 11.5017 7.02578 11.5584 6.99526C11.9742 6.8067 12.4137 6.66229 12.877 6.56201C13.3402 6.46283 13.816 6.41323 14.3043 6.41323C14.5658 6.41323 14.8138 6.42767 15.0481 6.45656C15.2825 6.48544 15.5239 6.52713 15.7724 6.58163C15.8427 6.59798 15.9038 6.63476 15.9555 6.69199C16.0078 6.74866 16.034 6.81869 16.034 6.90207C16.034 7.03941 15.9931 7.13914 15.9114 7.20126C15.8296 7.26339 15.7201 7.27756 15.5828 7.24377C15.3811 7.2029 15.1748 7.17483 14.9639 7.15957C14.7525 7.14431 14.5326 7.13668 14.3043 7.13668C13.8661 7.13668 13.4375 7.17865 13.0184 7.26257C12.5988 7.3465 12.2009 7.46367 11.8249 7.61408C11.6848 7.66803 11.5704 7.66667 11.4816 7.60999C11.3927 7.55332 11.3486 7.45468 11.3491 7.31407ZM11.3491 11.7472C11.3491 11.6872 11.3698 11.6243 11.4113 11.5583C11.4527 11.4913 11.5017 11.4428 11.5584 11.4128C11.9535 11.2243 12.393 11.0826 12.877 10.9877C13.3609 10.8935 13.8367 10.8463 14.3043 10.8463C14.5658 10.8463 14.8138 10.8608 15.0481 10.8896C15.2825 10.9185 15.5239 10.9602 15.7724 11.0147C15.8427 11.0311 15.9038 11.0678 15.9555 11.1251C16.0078 11.1817 16.034 11.2518 16.034 11.3352C16.034 11.4725 15.9931 11.5722 15.9114 11.6343C15.8296 11.6965 15.7201 11.7106 15.5828 11.6769C15.3811 11.636 15.1748 11.6079 14.9639 11.5927C14.7525 11.5774 14.5326 11.5698 14.3043 11.5698C13.877 11.5698 13.4563 11.6134 13.0421 11.7006C12.6279 11.7883 12.2328 11.9128 11.8568 12.0741C11.7162 12.1384 11.5963 12.1376 11.4971 12.0717C11.3979 12.0057 11.3486 11.8976 11.3491 11.7472ZM11.3491 9.54655C11.3491 9.48661 11.3698 9.42611 11.4113 9.36508C11.4527 9.30404 11.5017 9.25826 11.5584 9.22774C11.9742 9.03864 12.4137 8.89422 12.877 8.79449C13.3402 8.69531 13.816 8.64571 14.3043 8.64571C14.5658 8.64571 14.8138 8.66016 15.0481 8.68904C15.2825 8.71792 15.5239 8.75961 15.7724 8.81411C15.8427 8.83046 15.9038 8.86697 15.9555 8.92365C16.0078 8.98033 16.034 9.05063 16.034 9.13455C16.034 9.27189 15.9931 9.37162 15.9114 9.43374C15.8296 9.49587 15.7201 9.50977 15.5828 9.47544C15.3811 9.43456 15.1748 9.40677 14.9639 9.39205C14.7525 9.37679 14.5326 9.36917 14.3043 9.36917C13.8661 9.36917 13.4375 9.41113 13.0184 9.49505C12.5988 9.57844 12.2009 9.6956 11.8249 9.84656C11.6848 9.89997 11.5704 9.89861 11.4816 9.84247C11.3933 9.78525 11.3491 9.68661 11.3491 9.54655Z" fill="var(--fill-0, #6B7280)"/>
</g>
</svg>
