<svg preserveAspectRatio="none" width="100%" height="100%" overflow="visible" style="display: block;" viewBox="0 0 24 24" fill="none" xmlns="http://www.w3.org/2000/svg">
<g id="basil:edit-outline">
<path id="Vector" fill-rule="evenodd" clip-rule="evenodd" d="M21.455 5.416C21.55 5.56021 21.5923 5.73278 21.5749 5.90459C21.5574 6.07639 21.4811 6.2369 21.359 6.359L12.166 15.551C12.072 15.645 11.9546 15.7123 11.826 15.746L7.997 16.746C7.87043 16.779 7.73743 16.7783 7.61119 16.7441C7.48496 16.7098 7.36989 16.6431 7.27739 16.5506C7.1849 16.4581 7.11821 16.343 7.08393 16.2168C7.04965 16.0906 7.04899 15.9576 7.082 15.831L8.082 12.003C8.1119 11.8884 8.16689 11.7818 8.243 11.691L17.47 2.47C17.6106 2.32955 17.8012 2.25066 18 2.25066C18.1988 2.25066 18.3894 2.32955 18.53 2.47L21.359 5.298C21.3939 5.33484 21.426 5.37429 21.455 5.416ZM19.768 5.828L18 4.061L9.482 12.579L8.857 14.972L11.25 14.347L19.768 5.828Z" fill="var(--fill-0, black)"/>
<path id="Vector_2" d="M19.641 17.16C19.9143 14.824 20.0016 12.4699 19.902 10.12C19.8997 10.0646 19.9088 10.0094 19.929 9.95771C19.9491 9.90606 19.9798 9.85917 20.019 9.82L21.003 8.836C21.0299 8.80896 21.064 8.79026 21.1013 8.78214C21.1385 8.77403 21.1773 8.77685 21.213 8.79026C21.2487 8.80368 21.2798 8.82711 21.3025 8.85775C21.3252 8.8884 21.3386 8.92494 21.341 8.963C21.5257 11.7542 21.4554 14.5565 21.131 17.335C20.895 19.357 19.271 20.942 17.258 21.167C13.7633 21.5538 10.2367 21.5538 6.742 21.167C4.73 20.942 3.105 19.357 2.869 17.335C2.45511 13.7904 2.45511 10.2096 2.869 6.665C3.105 4.643 4.729 3.058 6.742 2.833C9.39445 2.54005 12.0667 2.4688 14.731 2.62C14.7691 2.62274 14.8057 2.63635 14.8363 2.65921C14.8669 2.68208 14.8904 2.71324 14.9039 2.74902C14.9173 2.7848 14.9203 2.82368 14.9123 2.86107C14.9044 2.89847 14.8859 2.9328 14.859 2.96L13.866 3.952C13.8272 3.99085 13.7808 4.02128 13.7297 4.04141C13.6786 4.06154 13.6239 4.07093 13.569 4.069C11.3458 3.99285 9.11991 4.07807 6.909 4.324C6.26294 4.39551 5.65985 4.68272 5.19715 5.13925C4.73446 5.59578 4.43917 6.19496 4.359 6.84C3.95786 10.2683 3.95786 13.7317 4.359 17.16C4.43917 17.805 4.73446 18.4042 5.19715 18.8607C5.65985 19.3173 6.26294 19.6045 6.909 19.676C10.264 20.051 13.736 20.051 17.092 19.676C17.7381 19.6045 18.3411 19.3173 18.8038 18.8607C19.2665 18.4042 19.5608 17.805 19.641 17.16Z" fill="var(--fill-0, black)"/>
</g>
</svg>
