<svg preserveAspectRatio="none" width="100%" height="100%" overflow="visible" style="display: block;" viewBox="0 0 13.9033 13.9033" fill="none" xmlns="http://www.w3.org/2000/svg">
<path id="Icon" fill-rule="evenodd" clip-rule="evenodd" d="M6.95165 13.9033C10.7909 13.9033 13.9033 10.7909 13.9033 6.95165C13.9033 3.11236 10.7909 0 6.95165 0C3.11236 0 0 3.11236 0 6.95165C0 10.7909 3.11236 13.9033 6.95165 13.9033ZM10.173 5.82818C10.5123 5.48883 10.5123 4.93864 10.173 4.59929C9.83361 4.25994 9.28342 4.25994 8.94407 4.59929L6.08269 7.46067L4.95922 6.3372C4.61988 5.99785 4.06968 5.99785 3.73033 6.3372C3.39099 6.67655 3.39099 7.22674 3.73033 7.56609L5.46825 9.304C5.80759 9.64335 6.35779 9.64335 6.69714 9.304L10.173 5.82818Z" fill="var(--fill-0, #10AF88)"/>
</svg>
