<svg preserveAspectRatio="none" width="100%" height="100%" overflow="visible" style="display: block;" viewBox="0 0 25.3387 25.3387" fill="none" xmlns="http://www.w3.org/2000/svg">
<g id="ant-design:message-outlined">
<path id="Vector" d="M11.4813 12.6688C11.4813 12.9838 11.6064 13.2859 11.8292 13.5087C12.0519 13.7314 12.354 13.8566 12.669 13.8566C12.9841 13.8566 13.2862 13.7314 13.5089 13.5087C13.7317 13.2859 13.8568 12.9838 13.8568 12.6688C13.8568 12.3538 13.7317 12.0517 13.5089 11.829C13.2862 11.6062 12.9841 11.4811 12.669 11.4811C12.354 11.4811 12.0519 11.6062 11.8292 11.829C11.6064 12.0517 11.4813 12.3538 11.4813 12.6688ZM16.4303 12.6688C16.4303 12.9838 16.5554 13.2859 16.7781 13.5087C17.0009 13.7314 17.303 13.8566 17.618 13.8566C17.933 13.8566 18.2351 13.7314 18.4579 13.5087C18.6806 13.2859 18.8058 12.9838 18.8058 12.6688C18.8058 12.3538 18.6806 12.0517 18.4579 11.829C18.2351 11.6062 17.933 11.4811 17.618 11.4811C17.303 11.4811 17.0009 11.6062 16.7781 11.829C16.5554 12.0517 16.4303 12.3538 16.4303 12.6688ZM6.53232 12.6688C6.53232 12.9838 6.65746 13.2859 6.88021 13.5087C7.10296 13.7314 7.40507 13.8566 7.72008 13.8566C8.03509 13.8566 8.3372 13.7314 8.55994 13.5087C8.78269 13.2859 8.90783 12.9838 8.90783 12.6688C8.90783 12.3538 8.78269 12.0517 8.55994 11.829C8.3372 11.6062 8.03509 11.4811 7.72008 11.4811C7.40507 11.4811 7.10296 11.6062 6.88021 11.829C6.65746 12.0517 6.53232 12.3538 6.53232 12.6688ZM22.8936 8.37312C22.3344 7.04432 21.5326 5.85162 20.5107 4.82718C19.4959 3.8087 18.2911 2.99911 16.9647 2.44425C15.6038 1.87265 14.1587 1.58313 12.669 1.58313H12.6196C11.12 1.59055 9.6675 1.88749 8.30158 2.47147C6.98655 3.03202 5.79313 3.84305 4.78781 4.85935C3.77575 5.88131 2.98144 7.06906 2.4321 8.39291C1.86297 9.76378 1.57593 11.2212 1.58336 12.7208C1.59175 14.4392 1.99831 16.1324 2.77111 17.6673V21.4285C2.77111 21.7304 2.89103 22.0199 3.1045 22.2334C3.31796 22.4468 3.60749 22.5668 3.90937 22.5668H7.67306C9.20797 23.3396 10.9011 23.7461 12.6196 23.7545H12.6715C14.1537 23.7545 15.5914 23.4675 16.945 22.9058C18.2647 22.3575 19.4649 21.5574 20.4785 20.5501C21.5005 19.538 22.3047 18.3552 22.8664 17.0363C23.4504 15.6704 23.7473 14.2178 23.7547 12.7183C23.7622 11.2113 23.4702 9.74893 22.8936 8.37312ZM19.1547 19.2114C17.4201 20.9286 15.1188 21.8739 12.669 21.8739H12.627C11.1349 21.8665 9.65265 21.4953 8.34365 20.7975L8.13579 20.6861H4.65172V17.2021L4.54036 16.9942C3.84256 15.6852 3.47139 14.203 3.46396 12.7109C3.45407 10.2438 4.39684 7.92771 6.12651 6.1832C7.8537 4.43869 10.1624 3.47364 12.6295 3.46374H12.6715C13.9088 3.46374 15.1089 3.70376 16.2397 4.17886C17.3433 4.64159 18.3331 5.30723 19.1844 6.15845C20.0331 7.0072 20.7012 7.99947 21.1639 9.10309C21.644 10.2463 21.884 11.4588 21.8791 12.7109C21.8642 15.1755 20.8967 17.4842 19.1547 19.2114Z" fill="var(--fill-0, #338078)"/>
</g>
</svg>
