<svg preserveAspectRatio="none" width="100%" height="100%" overflow="visible" style="display: block;" viewBox="0 0 24.1897 24.1897" fill="none" xmlns="http://www.w3.org/2000/svg">
<g id="material-symbols:star-rounded">
<path id="Vector" d="M12.0921 17.4159L7.90935 19.9357C7.72457 20.0532 7.53138 20.1036 7.3298 20.0868C7.12822 20.07 6.95184 20.0029 6.80065 19.8853C6.64947 19.7677 6.53188 19.6209 6.44789 19.4448C6.3639 19.2688 6.3471 19.0712 6.39749 18.8522L7.50619 14.0898L3.80215 10.8897C3.63416 10.7386 3.52934 10.5662 3.48768 10.3727C3.44602 10.1792 3.45845 9.99035 3.52497 9.80624C3.59149 9.62213 3.69228 9.47095 3.82734 9.35268C3.9624 9.23442 4.14718 9.15883 4.38169 9.12591L9.27002 8.69755L11.1598 4.21238C11.2438 4.0108 11.3742 3.85962 11.5509 3.75883C11.7276 3.65804 11.908 3.60764 12.0921 3.60764C12.2763 3.60764 12.4567 3.65804 12.6334 3.75883C12.8101 3.85962 12.9405 4.0108 13.0245 4.21238L14.9143 8.69755L19.8026 9.12591C20.0378 9.1595 20.2226 9.2351 20.3569 9.35268C20.4913 9.47027 20.5921 9.62146 20.6593 9.80624C20.7265 9.99102 20.7393 10.1802 20.6976 10.3737C20.656 10.5672 20.5508 10.7392 20.3821 10.8897L16.6781 14.0898L17.7868 18.8522C17.8372 19.0705 17.8204 19.2681 17.7364 19.4448C17.6524 19.6215 17.5348 19.7683 17.3836 19.8853C17.2324 20.0022 17.0561 20.0694 16.8545 20.0868C16.6529 20.1043 16.4597 20.0539 16.2749 19.9357L12.0921 17.4159Z" fill="var(--fill-0, #FFC633)"/>
</g>
</svg>
