<svg preserveAspectRatio="none" width="100%" height="100%" overflow="visible" style="display: block;" viewBox="0 0 21.25 15.25" fill="none" xmlns="http://www.w3.org/2000/svg">
<g id="Group">
<path id="Vector" d="M20.169 6.67C20.473 7.096 20.625 7.31 20.625 7.625C20.625 7.941 20.473 8.154 20.169 8.58C18.803 10.496 15.314 14.625 10.625 14.625C5.935 14.625 2.447 10.495 1.081 8.58C0.777 8.154 0.625 7.94 0.625 7.625C0.625 7.309 0.777 7.096 1.081 6.67C2.447 4.754 5.936 0.625 10.625 0.625C15.315 0.625 18.803 4.755 20.169 6.67Z" stroke="var(--stroke-0, black)" stroke-width="1.25" stroke-linecap="round" stroke-linejoin="round"/>
<path id="Vector_2" d="M13.625 7.625C13.625 6.82935 13.3089 6.06629 12.7463 5.50368C12.1837 4.94107 11.4206 4.625 10.625 4.625C9.82935 4.625 9.06629 4.94107 8.50368 5.50368C7.94107 6.06629 7.625 6.82935 7.625 7.625C7.625 8.42065 7.94107 9.18371 8.50368 9.74632C9.06629 10.3089 9.82935 10.625 10.625 10.625C11.4206 10.625 12.1837 10.3089 12.7463 9.74632C13.3089 9.18371 13.625 8.42065 13.625 7.625Z" stroke="var(--stroke-0, black)" stroke-width="1.25" stroke-linecap="round" stroke-linejoin="round"/>
</g>
</svg>
