<svg preserveAspectRatio="none" width="100%" height="100%" overflow="visible" style="display: block;" viewBox="0 0 24.1897 24.1897" fill="none" xmlns="http://www.w3.org/2000/svg">
<g id="material-symbols:star-rounded">
<path id="Vector" d="M12.0786 17.4159L7.89578 19.9357C7.711 20.0532 7.51782 20.1036 7.31624 20.0868C7.11466 20.07 6.93827 20.0029 6.78709 19.8853C6.6359 19.7677 6.51831 19.6209 6.43432 19.4448C6.35033 19.2688 6.33353 19.0712 6.38393 18.8522L7.49262 14.0898L3.78858 10.8897C3.6206 10.7386 3.51577 10.5662 3.47411 10.3727C3.43245 10.1792 3.44488 9.99035 3.51141 9.80624C3.57793 9.62213 3.67872 9.47095 3.81378 9.35268C3.94884 9.23442 4.13362 9.15883 4.36812 9.12591L9.25645 8.69755L11.1463 4.21238C11.2303 4.0108 11.3606 3.85962 11.5373 3.75883C11.7141 3.65804 11.8945 3.60764 12.0786 3.60764C12.2627 3.60764 12.4431 3.65804 12.6198 3.75883C12.7965 3.85962 12.9269 4.0108 13.0109 4.21238L14.9007 8.69755L19.789 9.12591C20.0242 9.1595 20.209 9.2351 20.3434 9.35268C20.4778 9.47027 20.5786 9.62146 20.6457 9.80624C20.7129 9.99102 20.7257 10.1802 20.684 10.3737C20.6424 10.5672 20.5372 10.7392 20.3686 10.8897L16.6645 14.0898L17.7732 18.8522C17.8236 19.0705 17.8068 19.2681 17.7228 19.4448C17.6388 19.6215 17.5212 19.7683 17.3701 19.8853C17.2189 20.0022 17.0425 20.0694 16.8409 20.0868C16.6393 20.1043 16.4462 20.0539 16.2614 19.9357L12.0786 17.4159Z" fill="var(--fill-0, #FFC633)"/>
</g>
</svg>
