<svg preserveAspectRatio="none" width="100%" height="100%" overflow="visible" style="display: block;" viewBox="0 0 19.619 19.619" fill="none" xmlns="http://www.w3.org/2000/svg">
<g id="openmoji:balance-scale">
<path id="Vector" d="M13.0963 17.1446C13.0963 16.2416 11.5712 15.5097 9.69026 15.5097C7.80928 15.5097 6.28417 16.2416 6.28417 17.1446H13.0963Z" fill="var(--fill-0, #6B7280)"/>
<path id="Vector_2" d="M6.78462 12.7971C6.78462 13.3946 6.1857 13.8794 5.44672 13.8794C4.70773 13.8794 4.10881 13.3946 4.10881 12.7971H6.78462ZM15.7767 12.7859C15.7767 13.3837 15.1778 13.8682 14.4388 13.8682C13.6998 13.8682 13.1009 13.3837 13.1009 12.7859H15.7767Z" fill="var(--fill-0, #6B7280)"/>
<path id="Vector_3" d="M4.35947 6.85825C5.08592 6.85825 6.79932 5.40481 9.8092 5.40481C12.8191 5.40481 13.8058 6.49475 15.2589 6.85825M9.8092 6.51383V14.1434" stroke="var(--stroke-0, #6B7280)" stroke-width="0.544973" stroke-miterlimit="10" stroke-linecap="round" stroke-linejoin="round"/>
<path id="Vector_4" d="M9.80947 4.60331C10.2609 4.60331 10.6269 4.23733 10.6269 3.78585C10.6269 3.33438 10.2609 2.9684 9.80947 2.9684C9.358 2.9684 8.99201 3.33438 8.99201 3.78585C8.99201 4.23733 9.358 4.60331 9.80947 4.60331Z" fill="var(--fill-0, #6B7280)"/>
<path id="Vector_5" d="M13.0796 16.8679C13.0796 15.9651 11.5547 15.2329 9.67349 15.2329C7.79224 15.2329 6.26741 15.9651 6.26741 16.8679M5.44995 7.60333L4.08752 12.5081H6.81238L5.44995 7.60333ZM5.44995 7.60333V12.5081M14.442 7.60333L13.0796 12.5081H15.8044L14.442 7.60333ZM14.442 7.60333V12.5081M7.08487 12.5081C7.08487 12.9417 6.91262 13.3575 6.60601 13.6641C6.29941 13.9708 5.88356 14.143 5.44995 14.143C5.01634 14.143 4.6005 13.9708 4.29389 13.6641C3.98728 13.3575 3.81503 12.9417 3.81503 12.5081H7.08487ZM16.0769 12.5081C16.0769 12.9417 15.9047 13.3575 15.5981 13.6641C15.2915 13.9708 14.8756 14.143 14.442 14.143C14.0084 14.143 13.5925 13.9708 13.2859 13.6641C12.9793 13.3575 12.8071 12.9417 12.8071 12.5081H16.0769Z" stroke="var(--stroke-0, #6B7280)" stroke-width="0.544973" stroke-miterlimit="10" stroke-linecap="round" stroke-linejoin="round"/>
</g>
</svg>
