<svg preserveAspectRatio="none" width="100%" height="100%" overflow="visible" style="display: block;" viewBox="0 0 13.9728 13.9717" fill="none" xmlns="http://www.w3.org/2000/svg">
<g id="Group">
<path id="Vector" d="M9.03536 0.525411C9.23778 0.478888 9.44966 0.496545 9.64158 0.575931C9.83351 0.655318 9.99595 0.792493 10.1064 0.968411L11.1004 2.55541C11.1805 2.68323 11.2885 2.79126 11.4164 2.87141L13.0034 3.86541C13.1797 3.97574 13.3172 4.13829 13.3967 4.33043C13.4763 4.52257 13.494 4.73474 13.4474 4.93741L13.0274 6.76141C12.9935 6.90882 12.9935 7.062 13.0274 7.20941L13.4474 9.03441C13.4936 9.23679 13.4756 9.44852 13.3961 9.64025C13.3165 9.83198 13.1793 9.9942 13.0034 10.1044L11.4164 11.0994C11.2885 11.1796 11.1805 11.2876 11.1004 11.4154L10.1064 13.0024C9.99609 13.1785 9.83371 13.3159 9.64177 13.3955C9.44984 13.475 9.23788 13.4928 9.03536 13.4464L7.21036 13.0264C7.06327 12.9927 6.91045 12.9927 6.76336 13.0264L4.93836 13.4464C4.73584 13.4928 4.52388 13.475 4.33195 13.3955C4.14001 13.3159 3.97763 13.1785 3.86736 13.0024L2.87336 11.4154C2.79293 11.2875 2.68455 11.1794 2.55636 11.0994L0.970361 10.1054C0.794261 9.99514 0.656881 9.83276 0.577311 9.64082C0.497742 9.44889 0.479933 9.23693 0.52636 9.03441L0.945361 7.20941C0.979242 7.062 0.979242 6.90882 0.945361 6.76141L0.52536 4.93741C0.478804 4.73464 0.496651 4.52239 0.576415 4.33024C0.656179 4.13809 0.793889 3.9756 0.970361 3.86541L2.55636 2.87141C2.68455 2.79138 2.79293 2.68334 2.87336 2.55541L3.86736 0.968411C3.97771 0.792683 4.13999 0.655634 4.33171 0.576258C4.52343 0.496883 4.73509 0.479112 4.93736 0.525411L6.76336 0.944411C6.91045 0.978139 7.06327 0.978139 7.21036 0.944411L9.03536 0.525411Z" stroke="var(--stroke-0, #34C759)"/>
<path id="Vector_2" d="M4.50136 7.52141L6.53636 9.47041L9.47136 4.50041" stroke="var(--stroke-0, #34C759)" stroke-linecap="round" stroke-linejoin="round"/>
</g>
</svg>
