<svg preserveAspectRatio="none" width="100%" height="100%" overflow="visible" style="display: block;" viewBox="0 0 80.0002 80.0002" fill="none" xmlns="http://www.w3.org/2000/svg">
<path id="Ellipse 1883" opacity="0.5" d="M71.1106 24.0746C73.5934 22.8036 76.6698 23.7791 77.618 26.4022C80.4722 34.2978 80.7836 42.9379 78.4331 51.0865C75.6134 60.8615 69.1749 69.1948 60.4281 74.3905C51.6813 79.5861 41.2833 81.2536 31.3505 79.0537C21.4176 76.8537 12.6962 70.9516 6.96125 62.5485C1.22628 54.1454 -1.09127 43.8728 0.480224 33.8214C2.05172 23.7699 7.39418 14.6949 15.4203 8.44326C23.4465 2.19165 33.5532 -0.766787 43.6835 0.170047C52.1284 0.951011 60.0607 4.38995 66.373 9.92549C68.4701 11.7645 68.2572 14.9848 66.1688 16.8336V16.8336C64.0804 18.6825 60.9107 18.4475 58.7371 16.6996C54.1891 13.0425 48.6378 10.7718 42.7534 10.2277C35.1811 9.52739 27.6265 11.7388 21.6271 16.4118C15.6276 21.0848 11.6342 27.8682 10.4595 35.3816C9.28485 42.8949 11.0172 50.5735 15.304 56.8547C19.5908 63.136 26.1099 67.5477 33.5346 69.1921C40.9593 70.8366 48.7316 69.5901 55.2698 65.7064C61.8079 61.8228 66.6206 55.5937 68.7282 48.287C70.3661 42.6091 70.2749 36.612 68.5268 31.044C67.6914 28.3829 68.6278 25.3455 71.1106 24.0746V24.0746Z" fill="var(--fill-0, #F3E5C3)"/>
</svg>
