<svg preserveAspectRatio="none" width="100%" height="100%" overflow="visible" style="display: block;" viewBox="0 0 30.1193 29.9141" fill="none" xmlns="http://www.w3.org/2000/svg">
<g id="Group">
<path id="Vector" fill-rule="evenodd" clip-rule="evenodd" d="M16.202 25.7955C15.8043 25.8691 15.4031 25.9225 15 25.9555V23.9955H13V25.9555C10.1595 25.7179 7.49643 24.4769 5.48751 22.4548C3.47859 20.4326 2.25506 17.7615 2.03601 14.9195H4.00001V12.9195H2.04801C2.30084 10.1066 3.53774 7.47295 5.54101 5.48212C7.54428 3.49128 10.1856 2.27082 13 2.0355V3.9955H15V2.0355C17.8278 2.27159 20.4804 3.50212 22.4869 5.50862C24.4934 7.51511 25.7239 10.1677 25.96 12.9955H24V14.9955H25.96C25.927 15.3986 25.8736 15.7998 25.8 16.1975C26.4693 16.3535 27.1027 16.5875 27.7 16.8995C27.896 15.9635 27.996 14.9955 28 13.9955C27.9991 11.1021 27.1017 8.27999 25.4312 5.91746C23.7608 3.55493 21.3993 1.768 18.6718 0.802471C15.9442 -0.163057 12.9844 -0.259752 10.1996 0.525687C7.41484 1.31113 4.94182 2.94011 3.12073 5.18858C1.29963 7.43704 0.219939 10.1945 0.030156 13.0817C-0.159627 15.9689 0.549824 18.844 2.06092 21.3115C3.57202 23.779 5.81054 25.7177 8.46855 26.8609C11.1266 28.0041 14.0735 28.2957 16.904 27.6955C16.5911 27.0944 16.3559 26.4559 16.204 25.7955M17.81 18.9295L11.98 16.0155L7.93401 7.9295L16.018 11.9755L18.936 17.8015C18.5235 18.1384 18.1456 18.5156 17.808 18.9275M16.87 16.8635L14.962 13.0355L11.13 11.1255L13.038 14.9595L16.87 16.8635Z" fill="var(--fill-0, #338078)"/>
<path id="Vector_2" fill-rule="evenodd" clip-rule="evenodd" d="M20.666 19.0075C21.3203 18.547 22.0601 18.222 22.8419 18.0517C23.6236 17.8813 24.4316 17.869 25.2182 18.0156C26.0047 18.1621 26.7541 18.4645 27.4221 18.9049C28.09 19.3453 28.6632 19.9149 29.1078 20.5801C29.5524 21.2453 29.8594 21.9928 30.0109 22.7784C30.1623 23.5641 30.1551 24.3721 29.9896 25.1549C29.8242 25.9377 29.5038 26.6795 29.0474 27.3367C28.591 27.9938 28.0078 28.5531 27.332 28.9815C26.0092 29.8201 24.4109 30.1083 22.8785 29.7844C21.3462 29.4605 20.0012 28.5502 19.1309 27.2481C18.2606 25.9459 17.934 24.355 18.2208 22.8153C18.5076 21.2755 19.3852 19.909 20.666 19.0075ZM24.062 26.6415L27.642 21.8675L26.042 20.6675L23.082 24.6155L21.33 23.2155L20.082 24.7755L22.638 26.8215L24.062 26.6415Z" fill="var(--fill-0, #338078)"/>
</g>
</svg>
