<svg preserveAspectRatio="none" width="100%" height="100%" overflow="visible" style="display: block;" viewBox="0 0 15.9499 15.9499" fill="none" xmlns="http://www.w3.org/2000/svg">
<g id="material-symbols:star-rounded">
<path id="Vector" d="M7.96748 11.484L5.20948 13.1455C5.08764 13.223 4.96026 13.2563 4.82734 13.2452C4.69443 13.2341 4.57812 13.1898 4.47844 13.1123C4.37875 13.0347 4.30122 12.9379 4.24583 12.8218C4.19045 12.7058 4.17938 12.5755 4.21261 12.4311L4.94364 9.29093L2.50131 7.18089C2.39055 7.0812 2.32143 6.96756 2.29396 6.83996C2.26649 6.71236 2.27469 6.58786 2.31855 6.46646C2.36241 6.34507 2.42887 6.24538 2.51793 6.1674C2.60698 6.08942 2.72882 6.03958 2.88345 6.01787L6.10666 5.73542L7.35275 2.77804C7.40813 2.64513 7.49408 2.54544 7.6106 2.47898C7.72713 2.41252 7.84609 2.37929 7.96748 2.37929C8.08888 2.37929 8.20784 2.41252 8.32436 2.47898C8.44089 2.54544 8.52684 2.64513 8.58222 2.77804L9.82831 5.73542L13.0515 6.01787C13.2066 6.04002 13.3284 6.08987 13.417 6.1674C13.5057 6.24494 13.5721 6.34462 13.6164 6.46646C13.6607 6.5883 13.6691 6.71302 13.6417 6.84062C13.6142 6.96822 13.5449 7.08164 13.4337 7.18089L10.9913 9.29093L11.7224 12.4311C11.7556 12.5751 11.7445 12.7053 11.6891 12.8218C11.6338 12.9384 11.5562 13.0352 11.4565 13.1123C11.3568 13.1894 11.2405 13.2337 11.1076 13.2452C10.9747 13.2567 10.8473 13.2235 10.7255 13.1455L7.96748 11.484Z" fill="var(--fill-0, #FFC633)"/>
</g>
</svg>
