<svg preserveAspectRatio="none" width="100%" height="100%" overflow="visible" style="display: block;" viewBox="0 0 15.9499 15.9499" fill="none" xmlns="http://www.w3.org/2000/svg">
<g id="material-symbols:star-rounded">
<path id="Vector" d="M7.97393 11.484L5.21592 13.1455C5.09408 13.223 4.96671 13.2563 4.83379 13.2452C4.70087 13.2341 4.58457 13.1898 4.48489 13.1123C4.3852 13.0347 4.30766 12.9379 4.25228 12.8218C4.1969 12.7058 4.18583 12.5755 4.21905 12.4311L4.95009 9.29093L2.50776 7.18089C2.397 7.0812 2.32788 6.96756 2.30041 6.83996C2.27294 6.71236 2.28114 6.58786 2.325 6.46646C2.36886 6.34507 2.43532 6.24538 2.52437 6.1674C2.61343 6.08942 2.73527 6.03958 2.88989 6.01787L6.11311 5.73542L7.3592 2.77804C7.41458 2.64513 7.50053 2.54544 7.61705 2.47898C7.73358 2.41252 7.85254 2.37929 7.97393 2.37929C8.09533 2.37929 8.21429 2.41252 8.33081 2.47898C8.44734 2.54544 8.53329 2.64513 8.58867 2.77804L9.83476 5.73542L13.058 6.01787C13.213 6.04002 13.3349 6.08987 13.4235 6.1674C13.5121 6.24494 13.5786 6.34462 13.6229 6.46646C13.6672 6.5883 13.6756 6.71302 13.6481 6.84062C13.6206 6.96822 13.5513 7.08164 13.4401 7.18089L10.9978 9.29093L11.7288 12.4311C11.762 12.5751 11.751 12.7053 11.6956 12.8218C11.6402 12.9384 11.5627 13.0352 11.463 13.1123C11.3633 13.1894 11.247 13.2337 11.1141 13.2452C10.9812 13.2567 10.8538 13.2235 10.7319 13.1455L7.97393 11.484Z" fill="var(--fill-0, #FFC633)"/>
</g>
</svg>
