<svg preserveAspectRatio="none" width="100%" height="100%" overflow="visible" style="display: block;" viewBox="0 0 144 144" fill="none" xmlns="http://www.w3.org/2000/svg">
<g id="Container">
<path id="Ellipse" d="M144 72C144 111.765 111.765 144 72 144C32.2355 144 0 111.765 0 72C0 32.2355 32.2355 0 72 0C111.765 0 144 32.2355 144 72ZM14.4 72C14.4 103.812 40.1884 129.6 72 129.6C103.812 129.6 129.6 103.812 129.6 72C129.6 40.1884 103.812 14.4 72 14.4C40.1884 14.4 14.4 40.1884 14.4 72Z" fill="var(--fill-0, #F3F4F6)"/>
<path id="Ellipse_2" d="M72 7.2C72 3.22355 75.2317 -0.0373061 79.1883 0.359674C90.8887 1.53363 102.163 5.56058 112.001 12.1342C123.841 20.0457 133.07 31.2905 138.519 44.4468C143.969 57.6031 145.395 72.0799 142.617 86.0465C139.838 100.013 132.981 112.842 122.912 122.912C112.842 132.981 100.013 139.838 86.0465 142.617C72.0799 145.395 57.6031 143.969 44.4468 138.519C31.2905 133.07 20.0456 123.841 12.1342 112.001C5.56057 102.163 1.53363 90.8887 0.359673 79.1882C-0.0373063 75.2317 3.22355 72 7.2 72V72C11.1764 72 14.3536 75.236 14.8494 79.1814C15.9611 88.0289 19.1169 96.5322 24.1073 104.001C30.4365 113.473 39.4324 120.856 49.9574 125.215C60.4825 129.575 72.0639 130.716 83.2372 128.493C94.4105 126.271 104.674 120.785 112.729 112.729C120.785 104.674 126.271 94.4105 128.493 83.2372C130.716 72.0639 129.575 60.4825 125.215 49.9574C120.856 39.4324 113.473 30.4365 104.001 24.1073C96.5322 19.1169 88.0289 15.9611 79.1814 14.8494C75.236 14.3536 72 11.1764 72 7.2V7.2Z" fill="url(#paint0_linear_6458_108899)"/>
</g>
<defs>
<linearGradient id="paint0_linear_6458_108899" x1="-2.42408e-07" y1="72.6857" x2="144" y2="72.6857" gradientUnits="userSpaceOnUse">
<stop stop-color="#338078"/>
<stop offset="1" stop-color="#F3E5C3"/>
</linearGradient>
</defs>
</svg>
