<svg preserveAspectRatio="none" width="100%" height="100%" overflow="visible" style="display: block;" viewBox="0 0 15.9499 15.9499" fill="none" xmlns="http://www.w3.org/2000/svg">
<g id="material-symbols:star-rounded">
<path id="Vector" d="M7.97646 11.484L5.21845 13.1455C5.09661 13.223 4.96923 13.2563 4.83631 13.2452C4.7034 13.2341 4.5871 13.1898 4.48741 13.1123C4.38772 13.0347 4.31019 12.9379 4.25481 12.8218C4.19942 12.7058 4.18835 12.5755 4.22158 12.4311L4.95262 9.29093L2.51028 7.18089C2.39952 7.0812 2.3304 6.96756 2.30293 6.83996C2.27547 6.71236 2.28366 6.58786 2.32752 6.46646C2.37139 6.34507 2.43784 6.24538 2.5269 6.1674C2.61595 6.08942 2.73779 6.03958 2.89242 6.01787L6.11563 5.73542L7.36172 2.77804C7.4171 2.64513 7.50305 2.54544 7.61958 2.47898C7.7361 2.41252 7.85506 2.37929 7.97646 2.37929C8.09785 2.37929 8.21681 2.41252 8.33334 2.47898C8.44986 2.54544 8.53581 2.64513 8.59119 2.77804L9.83728 5.73542L13.0605 6.01787C13.2156 6.04002 13.3374 6.08987 13.426 6.1674C13.5146 6.24494 13.5811 6.34462 13.6254 6.46646C13.6697 6.5883 13.6781 6.71302 13.6506 6.84062C13.6232 6.96822 13.5538 7.08164 13.4426 7.18089L11.0003 9.29093L11.7313 12.4311C11.7646 12.5751 11.7535 12.7053 11.6981 12.8218C11.6427 12.9384 11.5652 13.0352 11.4655 13.1123C11.3658 13.1894 11.2495 13.2337 11.1166 13.2452C10.9837 13.2567 10.8563 13.2235 10.7345 13.1455L7.97646 11.484Z" fill="var(--fill-0, #FFC633)"/>
</g>
</svg>
