<svg preserveAspectRatio="none" width="100%" height="100%" overflow="visible" style="display: block;" viewBox="0 0 15.9499 15.9499" fill="none" xmlns="http://www.w3.org/2000/svg">
<g id="material-symbols:star-rounded">
<path id="Vector" d="M7.97972 11.484L5.22172 13.1455C5.09988 13.223 4.9725 13.2563 4.83958 13.2452C4.70667 13.2341 4.59036 13.1898 4.49068 13.1123C4.39099 13.0347 4.31346 12.9379 4.25807 12.8218C4.20269 12.7058 4.19162 12.5755 4.22485 12.4311L4.95588 9.29093L2.51355 7.18089C2.40279 7.0812 2.33367 6.96756 2.3062 6.83996C2.27873 6.71236 2.28693 6.58786 2.33079 6.46646C2.37465 6.34507 2.44111 6.24538 2.53017 6.1674C2.61922 6.08942 2.74106 6.03958 2.89569 6.01787L6.1189 5.73542L7.36499 2.77804C7.42037 2.64513 7.50632 2.54544 7.62284 2.47898C7.73937 2.41252 7.85833 2.37929 7.97972 2.37929C8.10112 2.37929 8.22008 2.41252 8.3366 2.47898C8.45313 2.54544 8.53908 2.64513 8.59446 2.77804L9.84055 5.73542L13.0638 6.01787C13.2188 6.04002 13.3407 6.08987 13.4293 6.1674C13.5179 6.24494 13.5843 6.34462 13.6287 6.46646C13.673 6.5883 13.6814 6.71302 13.6539 6.84062C13.6264 6.96822 13.5571 7.08164 13.4459 7.18089L11.0036 9.29093L11.7346 12.4311C11.7678 12.5751 11.7568 12.7053 11.7014 12.8218C11.646 12.9384 11.5685 13.0352 11.4688 13.1123C11.3691 13.1894 11.2528 13.2337 11.1199 13.2452C10.9869 13.2567 10.8596 13.2235 10.7377 13.1455L7.97972 11.484Z" fill="var(--fill-0, #FFC633)"/>
</g>
</svg>
