<svg preserveAspectRatio="none" width="100%" height="100%" overflow="visible" style="display: block;" viewBox="0 0 17.6929 17.6929" fill="none" xmlns="http://www.w3.org/2000/svg">
<g id="material-symbols:star-rounded">
<path id="Vector" d="M8.8492 12.7386L5.7898 14.5817C5.65465 14.6677 5.51335 14.7045 5.36591 14.6922C5.21847 14.68 5.08945 14.6308 4.97887 14.5448C4.86829 14.4588 4.78229 14.3514 4.72085 14.2226C4.65942 14.0939 4.64713 13.9494 4.68399 13.7892L5.49492 10.3059L2.78569 7.96525C2.66282 7.85467 2.58615 7.7286 2.55568 7.58706C2.52521 7.44552 2.5343 7.30741 2.58296 7.17275C2.63161 7.03809 2.70533 6.92751 2.80412 6.84101C2.90291 6.75451 3.03806 6.69922 3.20958 6.67514L6.78503 6.36183L8.16728 3.08126C8.22872 2.93382 8.32406 2.82324 8.45332 2.74952C8.58258 2.6758 8.71454 2.63894 8.8492 2.63894C8.98386 2.63894 9.11582 2.6758 9.24508 2.74952C9.37433 2.82324 9.46968 2.93382 9.53111 3.08126L10.9134 6.36183L14.4888 6.67514C14.6608 6.69971 14.796 6.755 14.8943 6.84101C14.9926 6.92702 15.0663 7.0376 15.1154 7.17275C15.1646 7.30791 15.1739 7.44625 15.1435 7.5878C15.113 7.72934 15.0361 7.85516 14.9127 7.96525L12.2035 10.3059L13.0144 13.7892C13.0513 13.9489 13.039 14.0934 12.9775 14.2226C12.9161 14.3519 12.8301 14.4593 12.7195 14.5448C12.6089 14.6303 12.4799 14.6795 12.3325 14.6922C12.1851 14.705 12.0438 14.6682 11.9086 14.5817L8.8492 12.7386Z" fill="var(--fill-0, #FFC633)"/>
</g>
</svg>
