<svg preserveAspectRatio="none" width="100%" height="100%" overflow="visible" style="display: block;" viewBox="0 0 17.6929 17.6929" fill="none" xmlns="http://www.w3.org/2000/svg">
<g id="material-symbols:star-rounded">
<path id="Vector" d="M8.84291 12.7386L5.78351 14.5817C5.64836 14.6677 5.50706 14.7045 5.35962 14.6922C5.21218 14.68 5.08317 14.6308 4.97259 14.5448C4.86201 14.4588 4.776 14.3514 4.71457 14.2226C4.65313 14.0939 4.64085 13.9494 4.67771 13.7892L5.48863 10.3059L2.7794 7.96525C2.65654 7.85467 2.57987 7.7286 2.5494 7.58706C2.51893 7.44552 2.52802 7.30741 2.57667 7.17275C2.62533 7.03809 2.69905 6.92751 2.79783 6.84101C2.89662 6.75451 3.03177 6.69922 3.2033 6.67514L6.77874 6.36183L8.161 3.08126C8.22243 2.93382 8.31778 2.82324 8.44704 2.74952C8.57629 2.6758 8.70825 2.63894 8.84291 2.63894C8.97758 2.63894 9.10954 2.6758 9.23879 2.74952C9.36805 2.82324 9.46339 2.93382 9.52483 3.08126L10.9071 6.36183L14.4825 6.67514C14.6545 6.69971 14.7897 6.755 14.888 6.84101C14.9863 6.92702 15.06 7.0376 15.1092 7.17275C15.1583 7.30791 15.1676 7.44625 15.1372 7.5878C15.1067 7.72934 15.0298 7.85516 14.9064 7.96525L12.1972 10.3059L13.0081 13.7892C13.045 13.9489 13.0327 14.0934 12.9713 14.2226C12.9098 14.3519 12.8238 14.4593 12.7132 14.5448C12.6027 14.6303 12.4736 14.6795 12.3262 14.6922C12.1788 14.705 12.0375 14.6682 11.9023 14.5817L8.84291 12.7386Z" fill="var(--fill-0, #FFC633)"/>
</g>
</svg>
