<svg preserveAspectRatio="none" width="100%" height="100%" overflow="visible" style="display: block;" viewBox="0 0 17.6929 17.6929" fill="none" xmlns="http://www.w3.org/2000/svg">
<g id="material-symbols:star-rounded">
<path id="Vector" d="M8.83264 12.7386L5.77324 14.5817C5.63809 14.6677 5.49679 14.7045 5.34935 14.6922C5.20191 14.68 5.0729 14.6308 4.96232 14.5448C4.85174 14.4588 4.76573 14.3514 4.7043 14.2226C4.64286 14.0939 4.63057 13.9494 4.66743 13.7892L5.47836 10.3059L2.76913 7.96525C2.64627 7.85467 2.5696 7.7286 2.53912 7.58706C2.50865 7.44552 2.51775 7.30741 2.5664 7.17275C2.61506 7.03809 2.68878 6.92751 2.78756 6.84101C2.88635 6.75451 3.0215 6.69922 3.19303 6.67514L6.76847 6.36183L8.15073 3.08126C8.21216 2.93382 8.30751 2.82324 8.43676 2.74952C8.56602 2.6758 8.69798 2.63894 8.83264 2.63894C8.9673 2.63894 9.09926 2.6758 9.22852 2.74952C9.35778 2.82324 9.45312 2.93382 9.51456 3.08126L10.8968 6.36183L14.4723 6.67514C14.6443 6.69971 14.7794 6.755 14.8777 6.84101C14.976 6.92702 15.0497 7.0376 15.0989 7.17275C15.148 7.30791 15.1574 7.44625 15.1269 7.5878C15.0964 7.72934 15.0195 7.85516 14.8962 7.96525L12.1869 10.3059L12.9978 13.7892C13.0347 13.9489 13.0224 14.0934 12.961 14.2226C12.8996 14.3519 12.8135 14.4593 12.703 14.5448C12.5924 14.6303 12.4634 14.6795 12.3159 14.6922C12.1685 14.705 12.0272 14.6682 11.892 14.5817L8.83264 12.7386Z" fill="var(--fill-0, #FFC633)"/>
</g>
</svg>
