<svg preserveAspectRatio="none" width="100%" height="100%" overflow="visible" style="display: block;" viewBox="0 0 10.9571 10.9571" fill="none" xmlns="http://www.w3.org/2000/svg">
<g id="qlementine-icons:certified-filled-16" clip-path="url(#clip0_6577_75318)">
<path id="Vector" fill-rule="evenodd" clip-rule="evenodd" d="M4.45757 0.488191L3.99395 0.828545C3.91227 0.893708 3.82573 0.952545 3.73509 1.00454C3.67405 1.03699 3.61008 1.06359 3.54403 1.08398C3.46938 1.10658 3.392 1.11822 3.23654 1.14219L2.66815 1.22916C2.21959 1.29764 1.99497 1.33257 1.81897 1.43735C1.66146 1.5298 1.53066 1.66128 1.43753 1.81879C1.33275 1.99684 1.29851 2.22146 1.22934 2.66796L1.14237 3.23636C1.1184 3.39182 1.10676 3.46988 1.08416 3.54453C1.06362 3.61073 1.03714 3.67419 1.00472 3.73491C0.967744 3.80339 0.921862 3.86708 0.828726 3.99377L0.488372 4.45739C0.219924 4.82308 0.0857 5.00593 0.0336539 5.20384C-0.011218 5.38069 -0.011218 5.56594 0.0336539 5.74279C0.0850152 5.94276 0.219924 6.12629 0.488372 6.48924L0.828726 6.95286C0.921862 7.07955 0.968429 7.14324 1.00472 7.21172C1.03668 7.2729 1.06316 7.33682 1.08416 7.40347C1.10676 7.47743 1.1184 7.55482 1.14237 7.71027L1.22934 8.27867C1.29783 8.72722 1.33275 8.95116 1.43753 9.12784C1.52998 9.28535 1.66146 9.41684 1.81897 9.50929C1.99702 9.61406 2.22164 9.6483 2.66815 9.71747L3.23654 9.80444C3.392 9.82841 3.47007 9.84074 3.54403 9.86334C3.61023 9.88342 3.67391 9.9099 3.73509 9.94278C3.80357 9.97907 3.86726 10.025 3.99395 10.1188L4.45757 10.4591C4.82326 10.7276 5.00611 10.8618 5.20402 10.9138C5.38071 10.9597 5.56629 10.9597 5.74297 10.9138C5.94294 10.8618 6.12647 10.7276 6.48942 10.4591L6.95305 10.1188C7.07974 10.0256 7.14342 9.97907 7.21191 9.94278C7.27308 9.9099 7.33677 9.88342 7.40297 9.86334C7.47762 9.84074 7.555 9.8291 7.71045 9.80444L8.27885 9.71747C8.72741 9.64899 8.95134 9.61475 9.12802 9.50929C9.28553 9.41684 9.41702 9.28535 9.50947 9.12784C9.61424 8.94979 9.64849 8.72517 9.71765 8.27867L9.80462 7.71027C9.82859 7.55482 9.84023 7.47743 9.86283 7.40279C9.88338 7.33659 9.90986 7.2729 9.94227 7.21172C9.97925 7.14324 10.0251 7.07955 10.1183 6.95286L10.4586 6.48924C10.7271 6.12355 10.8613 5.94139 10.9133 5.74279C10.9582 5.56594 10.9582 5.38069 10.9133 5.20384C10.862 5.00387 10.7271 4.82034 10.4586 4.45739L10.1183 3.99377C10.0531 3.91208 9.99427 3.82555 9.94227 3.73491C9.90982 3.67387 9.88323 3.6099 9.86283 3.54384C9.83564 3.44298 9.81618 3.34019 9.80462 3.23636L9.71765 2.66796C9.64917 2.21941 9.61424 1.99479 9.50947 1.81879C9.41609 1.66184 9.28497 1.53072 9.12802 1.43735C8.94997 1.33257 8.72535 1.29833 8.27885 1.22916L7.71045 1.14219C7.60663 1.13063 7.50384 1.11117 7.40297 1.08398C7.33677 1.064 7.27276 1.03739 7.21191 1.00454C7.12127 0.952545 7.03473 0.893708 6.95305 0.828545L6.48942 0.488191C6.12373 0.219742 5.94089 0.0855182 5.74297 0.0334721C5.56613 -0.0113998 5.38087 -0.0113998 5.20402 0.0334721C5.00406 0.0855182 4.82053 0.219742 4.45757 0.488191ZM8.10765 4.19305C8.27474 3.98829 8.2405 3.6904 8.03232 3.52672C7.82413 3.36305 7.51939 3.39661 7.35298 3.60068L5.08623 6.38104L3.87411 5.44969C3.77509 5.3691 3.64852 5.33038 3.52136 5.34176C3.39421 5.35315 3.27652 5.41374 3.1934 5.51064C3.15279 5.55816 3.12212 5.61334 3.10319 5.67291C3.08427 5.73249 3.07748 5.79526 3.08323 5.8575C3.08897 5.91975 3.10714 5.98021 3.13665 6.03531C3.16615 6.09042 3.20641 6.13905 3.25503 6.17834L4.84381 7.41785C4.94414 7.49946 5.07268 7.53807 5.20136 7.52524C5.33005 7.51241 5.44844 7.44918 5.53068 7.34937L8.10559 4.18552L8.10765 4.19305Z" fill="var(--fill-0, #338078)"/>
</g>
<defs>
<clipPath id="clip0_6577_75318">
<rect width="10.9571" height="10.9571" fill="white"/>
</clipPath>
</defs>
</svg>
