<svg preserveAspectRatio="none" width="100%" height="100%" overflow="visible" style="display: block;" viewBox="0 0 17.6929 17.6929" fill="none" xmlns="http://www.w3.org/2000/svg">
<g id="material-symbols:star-rounded">
<path id="Vector" d="M8.84583 12.7386L5.78643 14.5817C5.65127 14.6677 5.50998 14.7045 5.36254 14.6922C5.2151 14.68 5.08608 14.6308 4.9755 14.5448C4.86492 14.4588 4.77892 14.3514 4.71748 14.2226C4.65605 14.0939 4.64376 13.9494 4.68062 13.7892L5.49155 10.3059L2.78232 7.96525C2.65945 7.85467 2.58278 7.7286 2.55231 7.58706C2.52184 7.44552 2.53093 7.30741 2.57959 7.17275C2.62824 7.03809 2.70196 6.92751 2.80075 6.84101C2.89953 6.75451 3.03469 6.69922 3.20621 6.67514L6.78166 6.36183L8.16391 3.08126C8.22535 2.93382 8.32069 2.82324 8.44995 2.74952C8.57921 2.6758 8.71117 2.63894 8.84583 2.63894C8.98049 2.63894 9.11245 2.6758 9.24171 2.74952C9.37096 2.82324 9.46631 2.93382 9.52774 3.08126L10.91 6.36183L14.4854 6.67514C14.6575 6.69971 14.7926 6.755 14.8909 6.84101C14.9892 6.92702 15.0629 7.0376 15.1121 7.17275C15.1612 7.30791 15.1706 7.44625 15.1401 7.5878C15.1096 7.72934 15.0327 7.85516 14.9093 7.96525L12.2001 10.3059L13.011 13.7892C13.0479 13.9489 13.0356 14.0934 12.9742 14.2226C12.9127 14.3519 12.8267 14.4593 12.7162 14.5448C12.6056 14.6303 12.4766 14.6795 12.3291 14.6922C12.1817 14.705 12.0404 14.6682 11.9052 14.5817L8.84583 12.7386Z" fill="var(--fill-0, #FFC633)"/>
</g>
</svg>
