<svg preserveAspectRatio="none" width="100%" height="100%" overflow="visible" style="display: block;" viewBox="0 0 17.6999 17.6999" fill="none" xmlns="http://www.w3.org/2000/svg">
<g id="stash:location-light">
<path id="Vector" d="M10.6903 11.6944C10.6903 10.3101 11.863 9.2186 13.2716 9.2186C14.6802 9.2186 15.8528 10.3101 15.8528 11.6944C15.8528 12.8729 15.2377 13.9024 14.6647 14.6126C14.345 15.0057 13.9892 15.3679 13.602 15.6945L13.5253 15.7565L13.5039 15.7735L13.498 15.7786L13.4958 15.7801L13.2716 15.4873L13.0666 15.7941L13.0658 15.7934L13.0636 15.7919L13.0562 15.7875L13.0341 15.7727L12.9567 15.7159C12.5619 15.4178 12.2018 15.0764 11.8829 14.6982C11.3003 14.0035 10.6903 12.9739 10.6903 11.6944ZM13.2716 15.4873L13.0666 15.7941L13.2856 15.9401L13.495 15.7801L13.2716 15.4873ZM13.259 15.0175L13.3675 14.9194C13.5651 14.738 13.8284 14.4747 14.0902 14.1495C14.6234 13.4894 15.1153 12.6229 15.1153 11.6944C15.1153 10.7511 14.307 9.9561 13.2716 9.9561C12.2361 9.9561 11.4278 10.7511 11.4278 11.6944C11.4278 12.7335 11.9242 13.6001 12.4478 14.2232C12.6921 14.5135 12.9637 14.7795 13.259 15.0175ZM12.5341 11.7998C12.5341 11.6042 12.6118 11.4167 12.7501 11.2783C12.8884 11.14 13.076 11.0623 13.2716 11.0623C13.4672 11.0623 13.6548 11.14 13.7931 11.2783C13.9314 11.4167 14.0091 11.6042 14.0091 11.7998C14.0091 11.9954 13.9314 12.183 13.7931 12.3213C13.6548 12.4596 13.4672 12.5373 13.2716 12.5373C13.076 12.5373 12.8884 12.4596 12.7501 12.3213C12.6118 12.183 12.5341 11.9954 12.5341 11.7998ZM7.37162 2.58114C6.31184 2.58114 5.46888 3.41525 5.46888 4.42488C5.46888 5.43451 6.31258 6.26862 7.37162 6.26862C8.43066 6.26862 9.27362 5.43451 9.27362 4.42488C9.27362 3.41525 8.43066 2.58114 7.37088 2.58114M4.73139 4.42488C4.73139 2.99045 5.92244 1.84365 7.37162 1.84365C8.82006 1.84365 10.0111 2.99045 10.0111 4.42488C10.0111 5.85931 8.82006 7.00611 7.37088 7.00611C5.92318 7.00611 4.73286 5.85931 4.73286 4.42488M5.60753 8.6699C5.44676 8.56665 5.29041 8.53715 5.17609 8.56813C5.06793 8.59763 4.96001 8.62959 4.85233 8.664L4.12664 8.89705C3.86718 8.97774 3.62847 9.11412 3.4272 9.29666C3.22593 9.47921 3.06696 9.70351 2.9614 9.95388L2.94075 10.021L2.94001 10.0239L2.9378 10.0313L2.93116 10.0549L2.90018 10.1832L2.89428 10.2068L2.89281 10.2142V10.2172C2.88144 10.2729 2.87332 10.3293 2.86847 10.3861L2.59044 13.0138L2.5897 13.0204C2.52332 13.4894 2.77555 13.8869 3.19739 13.985C4.00643 14.1724 5.35826 14.3811 7.37309 14.3811C7.47089 14.3811 7.56468 14.4199 7.63384 14.4891C7.70299 14.5582 7.74184 14.652 7.74184 14.7498C7.74184 14.8476 7.70299 14.9414 7.63384 15.0106C7.56468 15.0797 7.47089 15.1186 7.37309 15.1186C5.30811 15.1186 3.89949 14.9047 3.03072 14.7034C2.18481 14.5072 1.74969 13.7114 1.8581 12.923L2.13466 10.3101C2.14278 10.2319 2.14794 10.1832 2.16785 10.08C2.19567 9.95222 2.22913 9.82574 2.26815 9.70092V9.69871L2.26889 9.69723C2.41358 9.34201 2.63497 9.02314 2.91724 8.76344C3.19951 8.50374 3.53568 8.30961 3.9017 8.19496L4.6274 7.96191C4.74441 7.92454 4.86192 7.88963 4.97992 7.85718C5.36342 7.75172 5.73807 7.87636 6.00799 8.05114C6.29856 8.23847 6.77867 8.47078 7.37236 8.47078C7.96604 8.47078 8.44689 8.23847 8.73746 8.05041C9.00812 7.87636 9.38203 7.75172 9.76553 7.85718C9.88353 7.89013 10.001 7.92503 10.1181 7.96191L10.8445 8.19496C10.8917 8.20876 10.9358 8.23188 10.9739 8.26296C11.0121 8.29404 11.0437 8.33245 11.0668 8.37593C11.0899 8.4194 11.104 8.46706 11.1084 8.5161C11.1128 8.56513 11.1073 8.61454 11.0923 8.66142C11.0773 8.70831 11.053 8.75171 11.0209 8.78906C10.9889 8.82642 10.9497 8.85698 10.9056 8.87894C10.8616 8.9009 10.8135 8.91382 10.7644 8.91693C10.7153 8.92004 10.666 8.91328 10.6195 8.89705L9.89311 8.66474C9.78642 8.63032 9.67875 8.59837 9.57009 8.56887C9.45504 8.53715 9.29943 8.56592 9.13792 8.6699C8.77728 8.90369 8.15779 9.20828 7.37309 9.20828C6.58766 9.20828 5.96816 8.90369 5.60753 8.6699Z" fill="var(--fill-0, black)"/>
</g>
</svg>
