<svg preserveAspectRatio="none" width="100%" height="100%" overflow="visible" style="display: block;" viewBox="0 0 18 18" fill="none" xmlns="http://www.w3.org/2000/svg">
<g id="mdi:naira">
<path id="Vector" d="M2.89673 6.51757H4.34499V2.17279H5.79325L8.26978 6.51757H11.5863V2.17279H13.0346V6.51757H14.4828V7.96583H13.0346V9.41409H14.4828V10.8623H13.0346V15.2071H11.5863L9.10252 10.8623H5.79325V15.2071H4.34499V10.8623H2.89673V9.41409H4.34499V7.96583H2.89673V6.51757ZM5.79325 6.51757H6.61152L5.79325 5.09103V6.51757ZM5.79325 7.96583V9.41409H8.26978L7.44427 7.96583H5.79325ZM11.5863 12.3106V10.8623H10.7535L11.5863 12.3106ZM9.09528 7.96583L9.92803 9.41409H11.5863V7.96583H9.09528Z" fill="var(--fill-0, black)" fill-opacity="0.75"/>
</g>
</svg>
