<svg preserveAspectRatio="none" width="100%" height="100%" overflow="visible" style="display: block;" viewBox="0 0 1.69875 1.69875" fill="none" xmlns="http://www.w3.org/2000/svg">
<g id="material-symbols:star-rounded" clip-path="url(#clip0_6557_109248)">
<path id="Vector" d="M0.850361 1.22338L0.556619 1.40033C0.543642 1.40859 0.530076 1.41213 0.515919 1.41095C0.501763 1.40977 0.489376 1.40505 0.478759 1.39679C0.468142 1.38853 0.459884 1.37822 0.453986 1.36586C0.448087 1.3535 0.446908 1.33962 0.450447 1.32424L0.528306 0.989799L0.268185 0.765068C0.256388 0.754451 0.249027 0.742347 0.246101 0.728757C0.243175 0.715167 0.244048 0.701908 0.24872 0.688978C0.253391 0.676049 0.260469 0.665432 0.269954 0.657127C0.279439 0.648822 0.292415 0.643513 0.308884 0.641201L0.652173 0.611119L0.784888 0.296142C0.790787 0.281986 0.799941 0.271368 0.812352 0.26429C0.824762 0.257212 0.837432 0.253673 0.850361 0.253673C0.863291 0.253673 0.87596 0.257212 0.888371 0.26429C0.900781 0.271368 0.909936 0.281986 0.915834 0.296142L1.04855 0.611119L1.39184 0.641201C1.40835 0.64356 1.42133 0.648869 1.43077 0.657127C1.44021 0.665385 1.44728 0.676002 1.452 0.688978C1.45672 0.701955 1.45762 0.715238 1.45469 0.728828C1.45177 0.742418 1.44438 0.754498 1.43254 0.765068L1.17242 0.989799L1.25028 1.32424C1.25381 1.33958 1.25264 1.35345 1.24674 1.36586C1.24084 1.37827 1.23258 1.38858 1.22196 1.39679C1.21135 1.405 1.19896 1.40972 1.1848 1.41095C1.17065 1.41217 1.15708 1.40864 1.1441 1.40033L0.850361 1.22338Z" fill="var(--fill-0, #FFC633)"/>
</g>
<defs>
<clipPath id="clip0_6557_109248">
<rect width="1.69875" height="1.69875" fill="white"/>
</clipPath>
</defs>
</svg>
