<svg preserveAspectRatio="none" width="100%" height="100%" overflow="visible" style="display: block;" viewBox="0 0 2.50663 2.50663" fill="none" xmlns="http://www.w3.org/2000/svg">
<g id="stash:location-light" clip-path="url(#clip0_6557_109100)">
<path id="Vector" d="M1.51405 1.65579C1.51405 1.45975 1.68011 1.30517 1.8796 1.30517C2.07908 1.30517 2.24515 1.45975 2.24515 1.65579C2.24515 1.82269 2.15804 1.96849 2.07689 2.06907C2.03162 2.12473 1.98123 2.17602 1.92639 2.22229L1.91553 2.23106L1.9125 2.23346L1.91166 2.23419L1.91135 2.2344L1.8796 2.19294L1.85056 2.23639L1.85046 2.23628L1.85014 2.23607L1.8491 2.23545L1.84597 2.23336L1.835 2.22531C1.7791 2.18309 1.72809 2.13474 1.68293 2.08118C1.60042 1.9828 1.51405 1.837 1.51405 1.65579ZM1.8796 2.19294L1.85056 2.23639L1.88158 2.25707L1.91124 2.2344L1.8796 2.19294ZM1.87782 2.12641L1.89317 2.11252C1.92117 2.08682 1.95845 2.04954 1.99553 2.00348C2.07104 1.91 2.1407 1.78728 2.1407 1.65579C2.1407 1.5222 2.02624 1.40962 1.8796 1.40962C1.73296 1.40962 1.61849 1.5222 1.61849 1.65579C1.61849 1.80295 1.68878 1.92567 1.76293 2.01392C1.79752 2.05502 1.836 2.09269 1.87782 2.12641ZM1.77515 1.67072C1.77515 1.64302 1.78616 1.61646 1.80574 1.59687C1.82533 1.57728 1.8519 1.56628 1.8796 1.56628C1.9073 1.56628 1.93386 1.57728 1.95345 1.59687C1.97304 1.61646 1.98404 1.64302 1.98404 1.67072C1.98404 1.69842 1.97304 1.72499 1.95345 1.74457C1.93386 1.76416 1.9073 1.77517 1.8796 1.77517C1.8519 1.77517 1.82533 1.76416 1.80574 1.74457C1.78616 1.72499 1.77515 1.69842 1.77515 1.67072ZM1.04405 0.365185C0.893969 0.365185 0.77459 0.48331 0.77459 0.626293C0.77459 0.769275 0.894073 0.8874 1.04405 0.8874C1.19403 0.8874 1.31341 0.769275 1.31341 0.626293C1.31341 0.48331 1.19403 0.365185 1.04395 0.365185M0.670147 0.626293C0.670147 0.423151 0.838823 0.260742 1.04405 0.260742C1.24918 0.260742 1.41785 0.423151 1.41785 0.626293C1.41785 0.829434 1.24918 0.991843 1.04395 0.991843C0.838927 0.991843 0.670356 0.829434 0.670356 0.626293M0.794226 1.22747C0.771457 1.21284 0.749315 1.20867 0.733126 1.21305C0.717808 1.21723 0.702525 1.22176 0.687276 1.22663L0.584504 1.25963C0.547759 1.27106 0.513954 1.29038 0.48545 1.31623C0.456947 1.34208 0.434433 1.37384 0.419484 1.4093L0.41656 1.41881L0.416455 1.41922L0.416142 1.42027L0.415202 1.42361L0.410815 1.44178L0.40998 1.44513L0.409771 1.44617V1.44659C0.408161 1.45449 0.407011 1.46247 0.406324 1.47051L0.366949 1.84264L0.366845 1.84358C0.357445 1.91 0.393164 1.9663 0.452906 1.98019C0.56748 2.00672 0.758924 2.03627 1.04426 2.03627C1.05811 2.03627 1.07139 2.04177 1.08119 2.05157C1.09098 2.06136 1.09648 2.07464 1.09648 2.08849C1.09648 2.10234 1.09098 2.11563 1.08119 2.12542C1.07139 2.13521 1.05811 2.14072 1.04426 2.14072C0.751822 2.14072 0.552336 2.11043 0.429302 2.08191C0.309506 2.05413 0.247884 1.94144 0.263237 1.82979L0.302403 1.45975C0.303552 1.44868 0.304283 1.44178 0.307103 1.42716C0.311043 1.40907 0.315782 1.39115 0.321308 1.37348V1.37316L0.321412 1.37296C0.341903 1.32265 0.373256 1.27749 0.413231 1.24071C0.453205 1.20393 0.500813 1.17644 0.552649 1.16021L0.655421 1.1272C0.671992 1.12191 0.688634 1.11697 0.705345 1.11237C0.759655 1.09744 0.812712 1.11509 0.850938 1.13984C0.892089 1.16637 0.960081 1.19927 1.04416 1.19927C1.12823 1.19927 1.19633 1.16637 1.23748 1.13973C1.27581 1.11509 1.32876 1.09744 1.38308 1.11237C1.39979 1.11704 1.41643 1.12198 1.433 1.1272L1.53588 1.16021C1.54257 1.16216 1.5488 1.16543 1.55421 1.16984C1.55961 1.17424 1.56408 1.17968 1.56735 1.18583C1.57062 1.19199 1.57263 1.19874 1.57325 1.20568C1.57387 1.21263 1.57309 1.21963 1.57097 1.22627C1.56884 1.2329 1.56541 1.23905 1.56087 1.24434C1.55632 1.24963 1.55077 1.25396 1.54453 1.25707C1.53829 1.26018 1.53149 1.26201 1.52454 1.26245C1.51758 1.26289 1.5106 1.26193 1.50402 1.25963L1.40114 1.22674C1.38603 1.22186 1.37079 1.21734 1.3554 1.21316C1.3391 1.20867 1.31707 1.21274 1.29419 1.22747C1.24312 1.26057 1.15539 1.30371 1.04426 1.30371C0.93303 1.30371 0.845298 1.26057 0.794226 1.22747Z" fill="var(--fill-0, black)"/>
</g>
<defs>
<clipPath id="clip0_6557_109100">
<rect width="2.50663" height="2.50663" fill="white"/>
</clipPath>
</defs>
</svg>
