<svg preserveAspectRatio="none" width="100%" height="100%" overflow="visible" style="display: block;" viewBox="0 0 3.39884 3.39884" fill="none" xmlns="http://www.w3.org/2000/svg">
<g id="Icon / 01">
<path id="Rectangle" d="M0.930465 0.38968C1.03569 0.38968 1.10945 0.389489 1.16679 0.393587C1.2227 0.397606 1.25523 0.405253 1.28007 0.416048C1.35375 0.448194 1.41297 0.507407 1.44511 0.581087C1.45588 0.60593 1.46357 0.638491 1.46757 0.694368C1.47167 0.751726 1.47148 0.825442 1.47148 0.930696C1.47148 1.03592 1.47167 1.10968 1.46757 1.16702C1.46356 1.2229 1.4559 1.25547 1.44511 1.28031C1.41297 1.35399 1.35375 1.4132 1.28007 1.44534C1.25524 1.45613 1.22267 1.46379 1.16679 1.46781C1.10945 1.4719 1.03569 1.47171 0.930465 1.47171C0.825212 1.47171 0.751496 1.4719 0.694137 1.46781C0.63826 1.4638 0.605699 1.45611 0.580856 1.44534C0.507176 1.4132 0.447963 1.35399 0.415817 1.28031C0.405022 1.25546 0.397375 1.22293 0.393356 1.16702C0.389259 1.10968 0.38945 1.03592 0.38945 0.930696C0.38945 0.825442 0.389258 0.751726 0.393356 0.694368C0.397368 0.638462 0.405039 0.605934 0.415817 0.581087C0.447963 0.507407 0.507176 0.448194 0.580856 0.416048C0.605704 0.405269 0.638231 0.397598 0.694137 0.393587C0.751496 0.389489 0.825211 0.38968 0.930465 0.38968Z" stroke="var(--stroke-0, white)" stroke-width="0.212428"/>
<path id="Rectangle_2" d="M0.930465 1.92729C1.03569 1.92729 1.10945 1.9271 1.16679 1.9312C1.2227 1.93522 1.25523 1.94286 1.28007 1.95366C1.35375 1.98581 1.41297 2.04502 1.44511 2.1187C1.45588 2.14354 1.46357 2.1761 1.46757 2.23198C1.47167 2.28934 1.47148 2.36305 1.47148 2.46831C1.47148 2.57353 1.47167 2.64729 1.46757 2.70464C1.46356 2.76052 1.4559 2.79308 1.44511 2.81792C1.41297 2.8916 1.35375 2.95081 1.28007 2.98296C1.25524 2.99374 1.22267 3.0014 1.16679 3.00542C1.10945 3.00951 1.03569 3.00932 0.930465 3.00932C0.825212 3.00932 0.751496 3.00951 0.694137 3.00542C0.63826 3.00141 0.605699 2.99372 0.580856 2.98296C0.507176 2.95081 0.447963 2.8916 0.415817 2.81792C0.405022 2.79307 0.397375 2.76054 0.393356 2.70464C0.389259 2.64729 0.38945 2.57353 0.38945 2.46831C0.38945 2.36305 0.389258 2.28934 0.393356 2.23198C0.397368 2.17607 0.405039 2.14355 0.415817 2.1187C0.447963 2.04502 0.507176 1.98581 0.580856 1.95366C0.605704 1.94288 0.638231 1.93521 0.694137 1.9312C0.751496 1.9271 0.825211 1.92729 0.930465 1.92729Z" stroke="var(--stroke-0, white)" stroke-width="0.212428"/>
<path id="Rectangle_3" d="M2.46808 0.38968C2.5733 0.38968 2.64706 0.389489 2.70441 0.393587C2.76031 0.397606 2.79284 0.405253 2.81769 0.416048C2.89137 0.448194 2.95058 0.507407 2.98273 0.581087C2.99349 0.60593 3.00118 0.638491 3.00519 0.694368C3.00928 0.751726 3.00909 0.825442 3.00909 0.930696C3.00909 1.03592 3.00928 1.10968 3.00519 1.16702C3.00117 1.2229 2.99351 1.25547 2.98273 1.28031C2.95058 1.35399 2.89137 1.4132 2.81769 1.44534C2.79285 1.45613 2.76029 1.46379 2.70441 1.46781C2.64706 1.4719 2.5733 1.47171 2.46808 1.47171C2.36282 1.47171 2.28911 1.4719 2.23175 1.46781C2.17587 1.4638 2.14331 1.45611 2.11847 1.44534C2.04479 1.4132 1.98557 1.35399 1.95343 1.28031C1.94263 1.25546 1.93499 1.22293 1.93097 1.16702C1.92687 1.10968 1.92706 1.03592 1.92706 0.930696C1.92706 0.825442 1.92687 0.751726 1.93097 0.694368C1.93498 0.638462 1.94265 0.605934 1.95343 0.581087C1.98557 0.507407 2.04479 0.448194 2.11847 0.416048C2.14332 0.405269 2.17584 0.397598 2.23175 0.393587C2.28911 0.389489 2.36282 0.38968 2.46808 0.38968Z" stroke="var(--stroke-0, white)" stroke-width="0.212428"/>
<path id="Rectangle_4" d="M2.46808 1.92729C2.5733 1.92729 2.64706 1.9271 2.70441 1.9312C2.76031 1.93522 2.79284 1.94286 2.81769 1.95366C2.89137 1.98581 2.95058 2.04502 2.98273 2.1187C2.99349 2.14354 3.00118 2.1761 3.00519 2.23198C3.00928 2.28934 3.00909 2.36305 3.00909 2.46831C3.00909 2.57353 3.00928 2.64729 3.00519 2.70464C3.00117 2.76052 2.99351 2.79308 2.98273 2.81792C2.95058 2.8916 2.89137 2.95081 2.81769 2.98296C2.79285 2.99374 2.76029 3.0014 2.70441 3.00542C2.64706 3.00951 2.5733 3.00932 2.46808 3.00932C2.36282 3.00932 2.28911 3.00951 2.23175 3.00542C2.17587 3.00141 2.14331 2.99372 2.11847 2.98296C2.04479 2.95081 1.98557 2.8916 1.95343 2.81792C1.94263 2.79307 1.93499 2.76054 1.93097 2.70464C1.92687 2.64729 1.92706 2.57353 1.92706 2.46831C1.92706 2.36305 1.92687 2.28934 1.93097 2.23198C1.93498 2.17607 1.94265 2.14355 1.95343 2.1187C1.98557 2.04502 2.04479 1.98581 2.11847 1.95366C2.14332 1.94288 2.17584 1.93521 2.23175 1.9312C2.28911 1.9271 2.36282 1.92729 2.46808 1.92729Z" stroke="var(--stroke-0, white)" stroke-width="0.212428"/>
</g>
</svg>
