<svg preserveAspectRatio="none" width="100%" height="100%" overflow="visible" style="display: block;" viewBox="0 0 8.05301 8.05301" fill="none" xmlns="http://www.w3.org/2000/svg">
<g id="material-symbols:star-rounded">
<path id="Vector" d="M4.02944 5.79803L2.63694 6.63688C2.57542 6.67603 2.51111 6.6928 2.444 6.68721C2.3769 6.68162 2.31818 6.65925 2.26784 6.6201C2.21751 6.58096 2.17837 6.53208 2.15041 6.47347C2.12244 6.41486 2.11685 6.3491 2.13363 6.27617L2.50272 4.69074L1.26961 3.62539C1.21368 3.57506 1.17879 3.51768 1.16492 3.45326C1.15105 3.38883 1.15519 3.32598 1.17733 3.26468C1.19948 3.20339 1.23303 3.15306 1.278 3.11369C1.32296 3.07432 1.38447 3.04915 1.46254 3.03819L3.08992 2.89559L3.71906 1.40243C3.74703 1.33532 3.79042 1.28499 3.84925 1.25143C3.90809 1.21788 3.96815 1.2011 4.02944 1.2011C4.09073 1.2011 4.15079 1.21788 4.20963 1.25143C4.26846 1.28499 4.31185 1.33532 4.33982 1.40243L4.96896 2.89559L6.59634 3.03819C6.67463 3.04938 6.73614 3.07454 6.78088 3.11369C6.82562 3.15284 6.85918 3.20317 6.88155 3.26468C6.90392 3.3262 6.90817 3.38917 6.8943 3.45359C6.88043 3.51802 6.84542 3.57528 6.78927 3.62539L5.55616 4.69074L5.92525 6.27617C5.94203 6.34887 5.93644 6.41464 5.90848 6.47347C5.88051 6.5323 5.84137 6.58118 5.79104 6.6201C5.7407 6.65903 5.68198 6.6814 5.61488 6.68721C5.54777 6.69303 5.48345 6.67625 5.42194 6.63688L4.02944 5.79803Z" fill="var(--fill-0, #FFC633)"/>
</g>
</svg>
