<svg preserveAspectRatio="none" width="100%" height="100%" overflow="visible" style="display: block;" viewBox="0 0 3.39884 3.39884" fill="none" xmlns="http://www.w3.org/2000/svg">
<g id="Icon / 03" clip-path="url(#clip0_6557_109313)">
<path id="Subtract" fill-rule="evenodd" clip-rule="evenodd" d="M1.59495 0.481C1.49106 0.436399 1.39362 0.412982 1.29026 0.430218C1.25688 0.43582 1.22333 0.444748 1.19163 0.456586C1.09352 0.493307 1.021 0.562369 0.953346 0.652875C0.91202 0.708184 0.869543 0.775837 0.822518 0.855137C0.876254 0.84131 0.932589 0.833956 0.990641 0.833956H1.08529C1.09834 0.814344 1.11092 0.796352 1.12327 0.779828C1.17863 0.705775 1.22139 0.672525 1.26585 0.655804C1.28487 0.648702 1.30539 0.64354 1.32542 0.640179C1.37233 0.632389 1.42584 0.639782 1.51096 0.676312C1.58804 0.709402 1.68092 0.761342 1.8071 0.833956H2.23157L1.96604 0.681195C1.95705 0.676001 1.94816 0.670866 1.93937 0.665791C1.80221 0.586545 1.69064 0.522082 1.59495 0.481Z" fill="var(--fill-0, white)"/>
<path id="Union" fill-rule="evenodd" clip-rule="evenodd" d="M2.86666 2.39209H2.33987C2.08583 2.39209 1.87918 2.18612 1.87894 1.93213C1.87894 1.67794 2.08568 1.47119 2.33987 1.47119H2.86667C2.84842 1.23367 2.6493 1.0468 2.40709 1.0468H0.991079C0.736938 1.04684 0.531155 1.25262 0.531118 1.50676V2.35637C0.531118 2.61054 0.736916 2.8163 0.991079 2.81633H2.40709C2.64927 2.81633 2.84837 2.62957 2.86666 2.39209ZM3.07901 2.39209C3.06044 2.74701 2.76663 3.02922 2.40709 3.02922H0.991079C0.619595 3.02919 0.318228 2.72786 0.318228 2.35637V1.50676C0.318264 1.1353 0.619618 0.833948 0.991079 0.833911H2.40709C2.76666 0.833911 3.06048 1.11623 3.07902 1.47119H3.08011V2.39209H3.07901ZM2.33987 2.1792C2.20315 2.1792 2.09207 2.0688 2.09183 1.93213C2.09183 1.79526 2.203 1.68408 2.33987 1.68408H2.86722V2.1792H2.33987Z" fill="var(--fill-0, white)"/>
<circle id="Ellipse" cx="2.33675" cy="1.93161" r="0.106214" fill="var(--fill-0, white)"/>
</g>
<defs>
<clipPath id="clip0_6557_109313">
<rect width="3.39884" height="3.39884" fill="white"/>
</clipPath>
</defs>
</svg>
