<svg preserveAspectRatio="none" width="100%" height="100%" overflow="visible" style="display: block;" viewBox="0 0 2.88292 3.0448" fill="none" xmlns="http://www.w3.org/2000/svg">
<g id="Group">
<path id="Vector" fill-rule="evenodd" clip-rule="evenodd" d="M1.44138 0.991319C1.30053 0.991319 1.16545 1.04727 1.06585 1.14687C0.966259 1.24646 0.910308 1.38154 0.910308 1.52239C0.910308 1.66324 0.966259 1.79832 1.06585 1.89791C1.16545 1.99751 1.30053 2.05346 1.44138 2.05346C1.58223 2.05346 1.7173 1.99751 1.8169 1.89791C1.91649 1.79832 1.97245 1.66324 1.97245 1.52239C1.97245 1.38154 1.91649 1.24646 1.8169 1.14687C1.7173 1.04727 1.58223 0.991319 1.44138 0.991319ZM1.12274 1.52239C1.12274 1.43788 1.15631 1.35683 1.21606 1.29707C1.27582 1.23732 1.35687 1.20375 1.44138 1.20375C1.52589 1.20375 1.60693 1.23732 1.66669 1.29707C1.72645 1.35683 1.76002 1.43788 1.76002 1.52239C1.76002 1.6069 1.72645 1.68794 1.66669 1.7477C1.60693 1.80746 1.52589 1.84103 1.44138 1.84103C1.35687 1.84103 1.27582 1.80746 1.21606 1.7477C1.15631 1.68794 1.12274 1.6069 1.12274 1.52239Z" fill="var(--fill-0, white)"/>
<path id="Vector_2" fill-rule="evenodd" clip-rule="evenodd" d="M1.43792 0C1.3749 0 1.32236 -2.63785e-09 1.27931 0.00283237C1.2353 0.00460492 1.19188 0.0136986 1.15086 0.0297399C1.1036 0.0492959 1.06065 0.0779713 1.02446 0.114128C0.988283 0.150286 0.959578 0.193216 0.939991 0.240468C0.919456 0.290035 0.913933 0.342433 0.911667 0.399364C0.911414 0.42018 0.905891 0.440592 0.895614 0.458695C0.885336 0.476798 0.870639 0.492002 0.852895 0.502887C0.834602 0.512846 0.814082 0.518005 0.793253 0.517881C0.772425 0.517757 0.751968 0.512355 0.733794 0.502179C0.683378 0.475555 0.635228 0.45417 0.581979 0.44709C0.531272 0.44042 0.479747 0.443803 0.430348 0.457046C0.380948 0.470289 0.33464 0.493132 0.294069 0.524272C0.259711 0.551813 0.230181 0.584885 0.20669 0.62213C0.182615 0.658101 0.156274 0.703561 0.124835 0.758084L0.121294 0.764315C0.0897133 0.818838 0.0635139 0.864298 0.044537 0.903101C0.0247104 0.943604 0.00913237 0.98354 0.00346763 1.02773C-0.0100427 1.13011 0.0176691 1.23368 0.0805081 1.31564C0.113222 1.35826 0.155849 1.38928 0.203999 1.41958C0.221933 1.43022 0.236875 1.44523 0.247426 1.46321C0.257978 1.48119 0.263793 1.50156 0.264329 1.5224C0.263793 1.54324 0.257978 1.56361 0.247426 1.58159C0.236875 1.59957 0.221933 1.61458 0.203999 1.62521C0.155849 1.65552 0.113364 1.68653 0.0805081 1.72916C0.0493686 1.76973 0.0265252 1.81604 0.0132822 1.86544C3.92903e-05 1.91484 -0.00334383 1.96636 0.00332602 2.01707C0.00913238 2.06126 0.0245688 2.10119 0.0443954 2.1417C0.0635139 2.1805 0.0897133 2.22596 0.121294 2.28048L0.124835 2.28671C0.156274 2.34124 0.182615 2.3867 0.20669 2.42267C0.231757 2.45991 0.258664 2.49348 0.294069 2.52038C0.33463 2.55155 0.380932 2.57442 0.430332 2.58768C0.479733 2.60095 0.531263 2.60436 0.581979 2.59771C0.635228 2.59063 0.683378 2.56938 0.733794 2.54262C0.751951 2.53247 0.772382 2.52708 0.793183 2.52696C0.813984 2.52683 0.834477 2.53198 0.852754 2.54191C0.870642 2.55266 0.885468 2.56783 0.895809 2.58595C0.90615 2.60408 0.91166 2.62456 0.911809 2.64543C0.913933 2.70236 0.919456 2.75476 0.940132 2.80433C0.959688 2.85159 0.988364 2.89454 1.02452 2.93073C1.06068 2.96691 1.10361 2.99561 1.15086 3.0152C1.19193 3.03219 1.23442 3.03885 1.27931 3.04182C1.32236 3.0448 1.3749 3.0448 1.43792 3.0448H1.445C1.50802 3.0448 1.56056 3.0448 1.60361 3.04196C1.64865 3.03885 1.69099 3.03219 1.73206 3.01506C1.77933 2.9955 1.82228 2.96683 1.85846 2.93067C1.89464 2.89451 1.92334 2.85158 1.94293 2.80433C1.96347 2.75476 1.96899 2.70236 1.97126 2.64543C1.97149 2.62459 1.977 2.60415 1.98728 2.58602C1.99755 2.56789 2.01226 2.55267 2.03003 2.54177C2.04833 2.53183 2.06886 2.5267 2.08969 2.52685C2.11052 2.52699 2.13097 2.53242 2.14913 2.54262C2.19955 2.56924 2.2477 2.59063 2.30094 2.59757C2.40333 2.61108 2.5069 2.58336 2.58885 2.52053C2.62426 2.49333 2.65117 2.45991 2.67623 2.42267C2.70031 2.3867 2.72665 2.34124 2.75809 2.28671L2.76163 2.28048C2.79321 2.22596 2.81941 2.1805 2.83839 2.1417C2.85821 2.10119 2.87379 2.06112 2.87946 2.01707C2.89297 1.91468 2.86525 1.81112 2.80242 1.72916C2.7697 1.68653 2.72707 1.65552 2.67892 1.62521C2.66099 1.61458 2.64605 1.59957 2.6355 1.58159C2.62495 1.56361 2.61913 1.54324 2.61859 1.5224C2.61859 1.48303 2.64012 1.44394 2.67892 1.41958C2.72707 1.38928 2.76956 1.35826 2.80242 1.31564C2.83355 1.27506 2.8564 1.22876 2.86964 1.17936C2.88288 1.12996 2.88627 1.07843 2.8796 1.02773C2.87292 0.984191 2.85904 0.942073 2.83853 0.903101C2.81434 0.856052 2.7887 0.809768 2.76163 0.764315L2.75809 0.758084C2.73222 0.711927 2.70492 0.666587 2.67623 0.62213C2.65273 0.584936 2.6232 0.551912 2.58885 0.524413C2.54829 0.493249 2.50199 0.47038 2.45259 0.457113C2.40319 0.443845 2.35166 0.440439 2.30094 0.44709C2.2477 0.45417 2.19955 0.475413 2.14913 0.502179C2.13097 0.51233 2.11054 0.517718 2.08974 0.517842C2.06894 0.517965 2.04845 0.512821 2.03017 0.502887C2.01237 0.492036 1.99762 0.476847 1.98729 0.458741C1.97696 0.440636 1.9714 0.420206 1.97111 0.399364C1.96899 0.342433 1.96347 0.290035 1.94279 0.240468C1.92324 0.193203 1.89456 0.150253 1.8584 0.114072C1.82225 0.0778903 1.77931 0.049186 1.73206 0.0295983C1.69099 0.012604 1.64851 0.00594798 1.60361 0.00297399C1.56056 3.95677e-09 1.50802 0 1.445 0H1.43792ZM1.23215 0.225881C1.24305 0.22135 1.25962 0.217243 1.29375 0.214835C1.32873 0.212428 1.37405 0.212428 1.44146 0.212428C1.50887 0.212428 1.55419 0.212428 1.58917 0.214835C1.6233 0.217243 1.63987 0.22135 1.65077 0.225881C1.69425 0.243867 1.72866 0.27828 1.74665 0.321757C1.75231 0.335353 1.75699 0.356737 1.75883 0.407295C1.76308 0.519457 1.821 0.627511 1.92381 0.68685C2.02663 0.746188 2.14913 0.742364 2.2484 0.689965C2.29316 0.666315 2.31397 0.659659 2.3287 0.657818C2.37523 0.651669 2.4223 0.664251 2.45956 0.692798C2.4689 0.70002 2.4808 0.712341 2.49992 0.740665C2.5196 0.769838 2.54226 0.809066 2.57597 0.867413C2.60967 0.92576 2.63219 0.96513 2.64763 0.996569C2.66278 1.0273 2.66745 1.04373 2.66887 1.05548C2.67502 1.10201 2.66244 1.14908 2.63389 1.18634C2.62483 1.19809 2.60868 1.21282 2.56591 1.23973C2.47074 1.29949 2.40617 1.40372 2.40617 1.5224C2.40617 1.64107 2.47074 1.74531 2.56591 1.80507C2.60868 1.83198 2.62483 1.8467 2.63389 1.85846C2.6625 1.8957 2.67496 1.94272 2.66887 1.98931C2.66745 2.00107 2.66264 2.01764 2.64763 2.04823C2.63219 2.07981 2.60967 2.11904 2.57597 2.17738C2.54226 2.23573 2.51946 2.27496 2.49992 2.30413C2.4808 2.33246 2.4689 2.34478 2.45956 2.352C2.4223 2.38055 2.37523 2.39313 2.3287 2.38698C2.31397 2.38514 2.2933 2.37848 2.2484 2.35483C2.14927 2.30243 2.02663 2.29847 1.92381 2.35781C1.821 2.41714 1.76308 2.52534 1.75883 2.6375C1.75699 2.68806 1.75231 2.70944 1.74665 2.72304C1.73775 2.74454 1.72471 2.76407 1.70825 2.78052C1.6918 2.79697 1.67227 2.81002 1.65077 2.81892C1.63987 2.82345 1.6233 2.82755 1.58917 2.82996C1.55419 2.83237 1.50887 2.83237 1.44146 2.83237C1.37405 2.83237 1.32873 2.83237 1.29375 2.82996C1.25962 2.82755 1.24305 2.82345 1.23215 2.81892C1.21065 2.81002 1.19112 2.79697 1.17467 2.78052C1.15822 2.76407 1.14517 2.74454 1.13627 2.72304C1.13061 2.70944 1.12594 2.68806 1.12409 2.6375C1.11985 2.52534 1.06192 2.41729 0.959109 2.35795C0.856294 2.29861 0.733794 2.30243 0.63452 2.35483C0.589768 2.37848 0.56895 2.38514 0.554222 2.38698C0.507691 2.39313 0.460623 2.38055 0.423366 2.352C0.41402 2.34478 0.402124 2.33246 0.383005 2.30413C0.356364 2.26267 0.331002 2.2204 0.306956 2.17738C0.273251 2.11904 0.250733 2.07967 0.235297 2.04823C0.220144 2.0175 0.21547 2.00107 0.214054 1.98931C0.207906 1.94278 0.220488 1.89572 0.249034 1.85846C0.258098 1.8467 0.274242 1.83198 0.317011 1.80507C0.412179 1.74531 0.476757 1.64107 0.476757 1.5224C0.476757 1.40372 0.412179 1.29949 0.317011 1.23973C0.274242 1.21282 0.258098 1.19809 0.249034 1.18634C0.220488 1.14908 0.207906 1.10201 0.214054 1.05548C0.21547 1.04373 0.220286 1.02716 0.235297 0.996569C0.250733 0.964988 0.273251 0.92576 0.306956 0.867413C0.340661 0.809066 0.363462 0.769838 0.383005 0.740665C0.402124 0.712341 0.41402 0.70002 0.423366 0.692798C0.460623 0.664251 0.507691 0.651669 0.554222 0.657818C0.56895 0.659659 0.589627 0.666315 0.63452 0.689965C0.733653 0.742364 0.856294 0.746329 0.959109 0.68685C1.06192 0.627511 1.11985 0.519457 1.12409 0.407295C1.12594 0.356737 1.13061 0.335353 1.13627 0.321757C1.15426 0.27828 1.18867 0.243867 1.23215 0.225881Z" fill="var(--fill-0, white)"/>
</g>
</svg>
