<svg preserveAspectRatio="none" width="100%" height="100%" overflow="visible" style="display: block;" viewBox="0 0 3.45034 3.45034" fill="none" xmlns="http://www.w3.org/2000/svg">
<g id="tabler:message-user" clip-path="url(#clip0_6557_109254)">
<path id="Vector" d="M1.86942 2.58757L1.1506 3.01886V2.58757H0.86307C0.748684 2.58757 0.638983 2.54213 0.5581 2.46124C0.477217 2.38036 0.431777 2.27066 0.431777 2.15627V1.00616C0.431777 0.891774 0.477217 0.782073 0.5581 0.70119C0.638983 0.620307 0.748684 0.574867 0.86307 0.574867H2.58824C2.70263 0.574867 2.81233 0.620307 2.89321 0.70119C2.97409 0.782073 3.01953 0.891774 3.01953 1.00616V1.6531M3.1633 3.16262C3.1633 3.08637 3.133 3.01323 3.07908 2.95931C3.02516 2.90539 2.95203 2.87509 2.87577 2.87509H2.58824C2.51198 2.87509 2.43885 2.90539 2.38493 2.95931C2.331 3.01323 2.30071 3.08637 2.30071 3.16262M2.44448 2.4438C2.44448 2.52006 2.47477 2.59319 2.52869 2.64712C2.58261 2.70104 2.65575 2.73133 2.732 2.73133C2.80826 2.73133 2.8814 2.70104 2.93532 2.64712C2.98924 2.59319 3.01953 2.52006 3.01953 2.4438C3.01953 2.36754 2.98924 2.29441 2.93532 2.24049C2.8814 2.18657 2.80826 2.15627 2.732 2.15627C2.65575 2.15627 2.58261 2.18657 2.52869 2.24049C2.47477 2.29441 2.44448 2.36754 2.44448 2.4438Z" stroke="var(--stroke-0, black)" stroke-width="0.287528" stroke-linecap="round" stroke-linejoin="round"/>
</g>
<defs>
<clipPath id="clip0_6557_109254">
<rect width="3.45034" height="3.45034" fill="white"/>
</clipPath>
</defs>
</svg>
