<svg preserveAspectRatio="none" width="100%" height="100%" overflow="visible" style="display: block;" viewBox="0 0 4.95665 5.09776" fill="none" xmlns="http://www.w3.org/2000/svg">
<g id="iconoir:bell-notification">
<path id="Vector" d="M3.2762 2.40751C3.35848 3.16871 3.68208 3.39884 3.68208 3.39884H1.13295C1.13295 3.39884 1.5578 3.09677 1.5578 2.03931C1.5578 1.79898 1.64731 1.56842 1.80663 1.39848C1.96595 1.22854 2.18234 1.13295 2.40751 1.13295C2.45538 1.13295 2.50259 1.1372 2.54913 1.14569M2.65251 3.8237C2.62762 3.86662 2.59188 3.90225 2.54888 3.92701C2.50588 3.95178 2.45713 3.96482 2.40751 3.96482C2.35789 3.96482 2.30914 3.95178 2.26615 3.92701C2.22315 3.90225 2.18741 3.86662 2.16251 3.8237M3.39884 1.98266C3.51152 1.98266 3.61959 1.9379 3.69926 1.85822C3.77894 1.77855 3.8237 1.67048 3.8237 1.5578C3.8237 1.44512 3.77894 1.33706 3.69926 1.25739C3.61959 1.17771 3.51152 1.13295 3.39884 1.13295C3.28616 1.13295 3.1781 1.17771 3.09843 1.25739C3.01875 1.33706 2.97399 1.44512 2.97399 1.5578C2.97399 1.67048 3.01875 1.77855 3.09843 1.85822C3.1781 1.9379 3.28616 1.98266 3.39884 1.98266Z" stroke="var(--stroke-0, black)" stroke-width="0.212428" stroke-linecap="round" stroke-linejoin="round"/>
</g>
</svg>
