<svg preserveAspectRatio="none" width="100%" height="100%" overflow="visible" style="display: block;" viewBox="0 0 4.9304 3.5703" fill="none" xmlns="http://www.w3.org/2000/svg">
<g id="Group 39522">
<path id="Vector" d="M1.57387 0C1.31494 0 1.06661 0.102862 0.883509 0.285959L0.285959 0.883509C0.102862 1.06661 0 1.31494 0 1.57387C0 2.11309 0.437117 2.5502 0.976328 2.5502C1.23527 2.5502 1.4836 2.44734 1.66669 2.26424L2.08002 1.85091C2.08003 1.85092 2.08002 1.8509 2.08002 1.85091L3.28432 0.646612C3.37177 0.559167 3.49037 0.510041 3.61404 0.510041C3.82108 0.510041 3.99661 0.644981 4.05747 0.831712L4.43754 0.451638C4.26415 0.180073 3.96013 0 3.61404 0C3.3551 0 3.10677 0.102862 2.92367 0.285959L1.30604 1.90359C1.2186 1.99104 1.1 2.04016 0.976328 2.04016C0.718804 2.04016 0.510041 1.8314 0.510041 1.57387C0.510041 1.45021 0.559167 1.33161 0.646612 1.24416L1.24416 0.646612C1.33161 0.559167 1.45021 0.510041 1.57387 0.510041C1.78093 0.510041 1.95645 0.644987 2.0173 0.831724L2.39739 0.451647C2.224 0.180078 1.91997 0 1.57387 0Z" fill="var(--fill-0, #317B74)"/>
<path id="Vector_2" d="M1.64608 2.92369C1.55864 3.01113 1.44004 3.06026 1.31637 3.06026C1.10935 3.06026 0.933837 2.92535 0.872964 2.73865L0.492899 3.11872C0.666295 3.39025 0.970305 3.5703 1.31637 3.5703C1.57531 3.5703 1.82364 3.46743 2.00673 3.28434L3.62436 1.66671C3.71181 1.57926 3.83041 1.53014 3.95408 1.53014C4.2116 1.53014 4.42036 1.7389 4.42036 1.99642C4.42036 2.12009 4.37124 2.23869 4.28379 2.32614L3.68625 2.92369C3.5988 3.01113 3.4802 3.06026 3.35653 3.06026C3.1495 3.06026 2.97397 2.92533 2.91311 2.73861L2.53304 3.11868C2.70643 3.39024 3.01045 3.5703 3.35653 3.5703C3.61547 3.5703 3.8638 3.46743 4.04689 3.28434L4.64444 2.68679C4.82754 2.50369 4.9304 2.25536 4.9304 1.99642C4.9304 1.45721 4.49329 1.0201 3.95408 1.0201C3.69514 1.0201 3.44681 1.12296 3.26371 1.30605L1.64608 2.92369Z" fill="url(#paint0_linear_6557_109193)"/>
</g>
<defs>
<linearGradient id="paint0_linear_6557_109193" x1="2.71165" y1="1.0201" x2="2.71165" y2="3.5703" gradientUnits="userSpaceOnUse">
<stop stop-color="#FBE5B1"/>
<stop offset="1" stop-color="#958869"/>
</linearGradient>
</defs>
</svg>
