<svg preserveAspectRatio="none" width="100%" height="100%" overflow="visible" style="display: block;" viewBox="0 0 1.69875 1.69875" fill="none" xmlns="http://www.w3.org/2000/svg">
<g id="material-symbols:star-rounded" clip-path="url(#clip0_6557_109206)">
<path id="Vector" d="M0.849043 1.22338L0.555301 1.40033C0.542324 1.40859 0.528758 1.41213 0.514602 1.41095C0.500445 1.40977 0.488059 1.40505 0.477441 1.39679C0.466824 1.38853 0.458566 1.37822 0.452668 1.36586C0.446769 1.3535 0.44559 1.33962 0.449129 1.32424L0.526988 0.989799L0.266867 0.765068C0.25507 0.754451 0.247709 0.742347 0.244783 0.728757C0.241857 0.715167 0.24273 0.701908 0.247402 0.688978C0.252074 0.676049 0.259152 0.665432 0.268636 0.657127C0.278121 0.648822 0.291098 0.643513 0.307566 0.641201L0.650856 0.611119L0.783571 0.296142C0.789469 0.281986 0.798624 0.271368 0.811034 0.26429C0.823444 0.257212 0.836114 0.253673 0.849043 0.253673C0.861973 0.253673 0.874643 0.257212 0.887053 0.26429C0.899463 0.271368 0.908618 0.281986 0.914516 0.296142L1.04723 0.611119L1.39052 0.641201C1.40704 0.64356 1.42001 0.648869 1.42945 0.657127C1.43889 0.665385 1.44597 0.676002 1.45068 0.688978C1.4554 0.701955 1.4563 0.715238 1.45337 0.728828C1.45045 0.742418 1.44306 0.754498 1.43122 0.765068L1.1711 0.989799L1.24896 1.32424C1.2525 1.33958 1.25132 1.35345 1.24542 1.36586C1.23952 1.37827 1.23126 1.38858 1.22065 1.39679C1.21003 1.405 1.19764 1.40972 1.18349 1.41095C1.16933 1.41217 1.15576 1.40864 1.14279 1.40033L0.849043 1.22338Z" fill="var(--fill-0, #FFC633)"/>
</g>
<defs>
<clipPath id="clip0_6557_109206">
<rect width="1.69875" height="1.69875" fill="white"/>
</clipPath>
</defs>
</svg>
