<svg preserveAspectRatio="none" width="100%" height="100%" overflow="visible" style="display: block;" viewBox="0 0 3.39884 3.39884" fill="none" xmlns="http://www.w3.org/2000/svg">
<g id="material-symbols:event-available-outline" clip-path="url(#clip0_6557_109307)">
<path id="Vector" d="M1.55049 2.5986L1.04774 2.09585L1.25309 1.89051L1.55049 2.18791L2.14529 1.59311L2.35063 1.79846L1.55049 2.5986ZM0.70786 3.11551C0.62997 3.11551 0.563315 3.0878 0.507895 3.03238C0.452475 2.97696 0.424717 2.91026 0.424623 2.83227V0.849612C0.424623 0.771722 0.45238 0.705067 0.507895 0.649647C0.563409 0.594227 0.630064 0.566469 0.70786 0.566375H0.849478V0.283138H1.13272V0.566375H2.26566V0.283138H2.5489V0.566375H2.69052C2.76841 0.566375 2.83511 0.594132 2.89063 0.649647C2.94614 0.705161 2.97385 0.771816 2.97376 0.849612V2.83227C2.97376 2.91016 2.94605 2.97686 2.89063 3.03238C2.83521 3.08789 2.7685 3.1156 2.69052 3.11551H0.70786ZM0.70786 2.83227H2.69052V1.41609H0.70786V2.83227ZM0.70786 1.13285H2.69052V0.849612H0.70786V1.13285Z" fill="var(--fill-0, white)"/>
</g>
<defs>
<clipPath id="clip0_6557_109307">
<rect width="3.39884" height="3.39884" fill="white"/>
</clipPath>
</defs>
</svg>
