<svg preserveAspectRatio="none" width="100%" height="100%" overflow="visible" style="display: block;" viewBox="0 0 3.09095 2.51587" fill="none" xmlns="http://www.w3.org/2000/svg">
<g id="Group">
<path id="Vector" d="M0.682662 0.683036H1.25772" stroke="var(--stroke-0, black)" stroke-width="0.215646" stroke-linecap="round" stroke-linejoin="round"/>
<path id="Vector_2" d="M2.98312 1.04266C2.98312 1.03159 2.98312 0.966034 2.98283 0.961434C2.97766 0.889408 2.91598 0.832046 2.83835 0.827302C2.83346 0.827014 2.82757 0.827014 2.81549 0.827014H2.44142C2.18465 0.827014 1.97677 1.02009 1.97677 1.25831C1.97677 1.49652 2.1848 1.6896 2.44113 1.6896H2.81535C2.82742 1.6896 2.83332 1.6896 2.83835 1.68931C2.91598 1.68457 2.9778 1.62721 2.98283 1.55518C2.98312 1.55058 2.98312 1.48502 2.98312 1.47395" stroke="var(--stroke-0, black)" stroke-width="0.215646" stroke-linecap="round"/>
<path id="Vector_3" d="M2.40849 1.40165C2.48789 1.40165 2.55226 1.33729 2.55226 1.25789C2.55226 1.17849 2.48789 1.11412 2.40849 1.11412C2.32909 1.11412 2.26473 1.17849 2.26473 1.25789C2.26473 1.33729 2.32909 1.40165 2.40849 1.40165Z" fill="var(--fill-0, black)"/>
<path id="Vector_4" d="M1.68923 0.107823C2.23136 0.107823 2.5025 0.107823 2.67085 0.276315C2.78716 0.392476 2.82324 0.557518 2.83431 0.826644M1.25794 2.40805H1.68923C2.23136 2.40805 2.5025 2.40805 2.67085 2.23956C2.78716 2.1234 2.82324 1.95836 2.83431 1.68923M1.11417 0.107823C0.666491 0.109261 0.429136 0.12335 0.276315 0.276315C0.107823 0.444663 0.107823 0.715802 0.107823 1.25794C0.107823 1.80007 0.107823 2.07121 0.276315 2.23956C0.370193 2.33358 0.495987 2.37513 0.68288 2.39339" stroke="var(--stroke-0, black)" stroke-width="0.215646" stroke-linecap="round"/>
</g>
</svg>
