<svg preserveAspectRatio="none" width="100%" height="100%" overflow="visible" style="display: block;" viewBox="0 0 250 271.296" fill="none" xmlns="http://www.w3.org/2000/svg">
<g id="Icon">
<g id="Fill" filter="url(#filter0_dddddd_6557_109374)">
<rect x="80" y="1.2963" width="90" height="90" rx="20" fill="var(--fill-0, #4DDFFD)"/>
</g>
<path id="Icon_2" d="M119.937 57.7886L118.419 59.2963L113 54.0539L116.882 50.2274C117.669 49.4468 118.661 48.9022 119.745 48.6562C120.829 48.4103 121.961 48.473 123.01 48.8371L123.863 49.133H129.097C129.319 49.1329 129.538 49.177 129.742 49.2626C129.945 49.3482 130.13 49.4736 130.284 49.6314C130.438 49.7891 130.559 49.976 130.639 50.181C130.719 50.3859 130.756 50.6047 130.749 50.8244C130.724 51.2586 130.531 51.6663 130.21 51.9625C129.889 52.2586 129.466 52.4203 129.028 52.4136H125.888C125.718 52.4136 125.554 52.4808 125.434 52.6004C125.313 52.72 125.246 52.8823 125.246 53.0514C125.246 53.2205 125.313 53.3828 125.434 53.5024C125.554 53.622 125.718 53.6892 125.888 53.6892H129.038C129.806 53.6929 130.547 53.4031 131.106 52.8798C131.665 52.3565 132 51.6397 132.042 50.8779C132.042 50.8652 132.042 50.8524 132.042 50.8371L134.955 47.5795C135.251 47.2385 135.668 47.0238 136.12 46.9801C136.571 46.9364 137.022 47.067 137.378 47.3448C137.555 47.4899 137.7 47.6687 137.806 47.8706C137.912 48.0724 137.976 48.2933 137.994 48.5202C138.013 48.747 137.985 48.9752 137.914 49.1913C137.842 49.4074 137.727 49.6071 137.576 49.7784L131.759 56.4111C131.375 56.848 130.901 57.198 130.369 57.4374C129.837 57.6768 129.26 57.8001 128.676 57.7988L119.937 57.7886ZM131.949 43.3677C131.949 43.0464 131.821 42.7381 131.592 42.5109C131.363 42.2837 131.052 42.156 130.729 42.156H128.93V40.3703C128.916 40.0589 128.781 39.7649 128.554 39.5496C128.327 39.3343 128.025 39.2141 127.711 39.2141C127.397 39.2141 127.095 39.3343 126.868 39.5496C126.641 39.7649 126.506 40.0589 126.492 40.3703V42.156H124.693C124.528 42.1485 124.364 42.1742 124.209 42.2317C124.055 42.2891 123.914 42.3771 123.794 42.4902C123.675 42.6033 123.58 42.7393 123.515 42.8899C123.45 43.0405 123.417 43.2026 123.417 43.3664C123.417 43.5303 123.45 43.6924 123.515 43.843C123.58 43.9936 123.675 44.1296 123.794 44.2427C123.914 44.3558 124.055 44.4438 124.209 44.5012C124.364 44.5587 124.528 44.5844 124.693 44.5769H126.492V46.3626C126.506 46.674 126.641 46.968 126.868 47.1833C127.095 47.3986 127.397 47.5188 127.711 47.5188C128.025 47.5188 128.327 47.3986 128.554 47.1833C128.781 46.968 128.916 46.674 128.93 46.3626V44.5769H130.729C131.052 44.5769 131.362 44.4496 131.591 44.2229C131.82 43.9962 131.949 43.6887 131.949 43.3677V43.3677ZM120.248 36.6534V37.9698H118.925C118.686 37.9698 118.458 38.0638 118.289 38.2313C118.12 38.3987 118.026 38.6258 118.026 38.8626C118.026 39.0994 118.12 39.3265 118.289 39.494C118.458 39.6614 118.686 39.7555 118.925 39.7555H120.251V41.0718C120.251 41.3086 120.346 41.5357 120.514 41.7032C120.683 41.8706 120.912 41.9647 121.15 41.9647C121.389 41.9647 121.617 41.8706 121.786 41.7032C121.955 41.5357 122.049 41.3086 122.049 41.0718V39.7504H123.367C123.606 39.7504 123.835 39.6563 124.003 39.4889C124.172 39.3214 124.267 39.0943 124.267 38.8575C124.267 38.6207 124.172 38.3936 124.003 38.2262C123.835 38.0587 123.606 37.9647 123.367 37.9647H122.042V36.6534C122.042 36.4166 121.947 36.1895 121.778 36.0221C121.61 35.8547 121.381 35.7606 121.142 35.7606C120.904 35.7606 120.675 35.8547 120.506 36.0221C120.338 36.1895 120.243 36.4166 120.243 36.6534H120.248ZM131.592 34.2963C131.388 34.2963 131.192 34.3769 131.047 34.5204C130.902 34.664 130.821 34.8586 130.821 35.0616V36.1943H129.68C129.476 36.1943 129.28 36.2749 129.135 36.4184C128.991 36.5619 128.91 36.7566 128.91 36.9596C128.91 37.1625 128.991 37.3572 129.135 37.5007C129.28 37.6442 129.476 37.7249 129.68 37.7249H130.821V38.8575C130.821 39.0605 130.902 39.2552 131.047 39.3987C131.192 39.5422 131.388 39.6228 131.592 39.6228C131.797 39.6228 131.993 39.5422 132.137 39.3987C132.282 39.2552 132.363 39.0605 132.363 38.8575V37.7249H133.504C133.605 37.7249 133.705 37.7051 133.799 37.6666C133.892 37.6282 133.977 37.5718 134.049 37.5007C134.12 37.4296 134.177 37.3453 134.216 37.2524C134.255 37.1596 134.275 37.0601 134.275 36.9596C134.275 36.8591 134.255 36.7595 134.216 36.6667C134.177 36.5738 134.12 36.4895 134.049 36.4184C133.977 36.3473 133.892 36.291 133.799 36.2525C133.705 36.2141 133.605 36.1943 133.504 36.1943H132.363V35.0616C132.363 34.8586 132.282 34.664 132.137 34.5204C131.993 34.3769 131.797 34.2963 131.592 34.2963V34.2963Z" fill="var(--fill-0, white)"/>
</g>
<defs>
<filter id="filter0_dddddd_6557_109374" x="0" y="0" width="250" height="271.296" filterUnits="userSpaceOnUse" color-interpolation-filters="sRGB">
<feFlood flood-opacity="0" result="BackgroundImageFix"/>
<feColorMatrix in="SourceAlpha" type="matrix" values="0 0 0 0 0 0 0 0 0 0 0 0 0 0 0 0 0 0 127 0" result="hardAlpha"/>
<feOffset dy="1.85185"/>
<feGaussianBlur stdDeviation="1.57407"/>
<feColorMatrix type="matrix" values="0 0 0 0 0.301961 0 0 0 0 0.87451 0 0 0 0 0.992157 0 0 0 0.0168519 0"/>
<feBlend mode="normal" in2="BackgroundImageFix" result="effect1_dropShadow_6557_109374"/>
<feColorMatrix in="SourceAlpha" type="matrix" values="0 0 0 0 0 0 0 0 0 0 0 0 0 0 0 0 0 0 127 0" result="hardAlpha"/>
<feOffset dy="8.14815"/>
<feGaussianBlur stdDeviation="3.25926"/>
<feColorMatrix type="matrix" values="0 0 0 0 0.301961 0 0 0 0 0.87451 0 0 0 0 0.992157 0 0 0 0.0274815 0"/>
<feBlend mode="normal" in2="effect1_dropShadow_6557_109374" result="effect2_dropShadow_6557_109374"/>
<feColorMatrix in="SourceAlpha" type="matrix" values="0 0 0 0 0 0 0 0 0 0 0 0 0 0 0 0 0 0 127 0" result="hardAlpha"/>
<feOffset dy="20"/>
<feGaussianBlur stdDeviation="6.5"/>
<feColorMatrix type="matrix" values="0 0 0 0 0.301961 0 0 0 0 0.87451 0 0 0 0 0.992157 0 0 0 0.035 0"/>
<feBlend mode="normal" in2="effect2_dropShadow_6557_109374" result="effect3_dropShadow_6557_109374"/>
<feColorMatrix in="SourceAlpha" type="matrix" values="0 0 0 0 0 0 0 0 0 0 0 0 0 0 0 0 0 0 127 0" result="hardAlpha"/>
<feOffset dy="38.5185"/>
<feGaussianBlur stdDeviation="12.7407"/>
<feColorMatrix type="matrix" values="0 0 0 0 0.301961 0 0 0 0 0.87451 0 0 0 0 0.992157 0 0 0 0.0425185 0"/>
<feBlend mode="normal" in2="effect3_dropShadow_6557_109374" result="effect4_dropShadow_6557_109374"/>
<feColorMatrix in="SourceAlpha" type="matrix" values="0 0 0 0 0 0 0 0 0 0 0 0 0 0 0 0 0 0 127 0" result="hardAlpha"/>
<feOffset dy="64.8148"/>
<feGaussianBlur stdDeviation="23.4259"/>
<feColorMatrix type="matrix" values="0 0 0 0 0.301961 0 0 0 0 0.87451 0 0 0 0 0.992157 0 0 0 0.0531481 0"/>
<feBlend mode="normal" in2="effect4_dropShadow_6557_109374" result="effect5_dropShadow_6557_109374"/>
<feColorMatrix in="SourceAlpha" type="matrix" values="0 0 0 0 0 0 0 0 0 0 0 0 0 0 0 0 0 0 127 0" result="hardAlpha"/>
<feOffset dy="100"/>
<feGaussianBlur stdDeviation="40"/>
<feColorMatrix type="matrix" values="0 0 0 0 0.301961 0 0 0 0 0.87451 0 0 0 0 0.992157 0 0 0 0.07 0"/>
<feBlend mode="normal" in2="effect5_dropShadow_6557_109374" result="effect6_dropShadow_6557_109374"/>
<feBlend mode="normal" in="SourceGraphic" in2="effect6_dropShadow_6557_109374" result="shape"/>
</filter>
</defs>
</svg>
