<svg preserveAspectRatio="none" width="100%" height="100%" overflow="visible" style="display: block;" viewBox="0 0 8.05301 8.05301" fill="none" xmlns="http://www.w3.org/2000/svg">
<g id="material-symbols:star-rounded">
<path id="Vector" d="M4.02599 5.79803L2.63349 6.63688C2.57198 6.67603 2.50767 6.6928 2.44056 6.68721C2.37345 6.68162 2.31473 6.65925 2.2644 6.6201C2.21407 6.58096 2.17492 6.53208 2.14696 6.47347C2.119 6.41486 2.1134 6.3491 2.13018 6.27617L2.49928 4.69074L1.26616 3.62539C1.21024 3.57506 1.17534 3.51768 1.16147 3.45326C1.1476 3.38883 1.15174 3.32598 1.17389 3.26468C1.19603 3.20339 1.22959 3.15306 1.27455 3.11369C1.31951 3.07432 1.38103 3.04915 1.4591 3.03819L3.08648 2.89559L3.71562 1.40243C3.74358 1.33532 3.78698 1.28499 3.84581 1.25143C3.90464 1.21788 3.9647 1.2011 4.02599 1.2011C4.08729 1.2011 4.14735 1.21788 4.20618 1.25143C4.26501 1.28499 4.30841 1.33532 4.33637 1.40243L4.96551 2.89559L6.59289 3.03819C6.67118 3.04938 6.7327 3.07454 6.77744 3.11369C6.82218 3.15284 6.85573 3.20317 6.8781 3.26468C6.90047 3.3262 6.90472 3.38917 6.89085 3.45359C6.87698 3.51802 6.84197 3.57528 6.78583 3.62539L5.55271 4.69074L5.92181 6.27617C5.93858 6.34887 5.93299 6.41464 5.90503 6.47347C5.87707 6.5323 5.83792 6.58118 5.78759 6.6201C5.73726 6.65903 5.67854 6.6814 5.61143 6.68721C5.54432 6.69303 5.48001 6.67625 5.41849 6.63688L4.02599 5.79803Z" fill="var(--fill-0, #FFC633)"/>
</g>
</svg>
