<svg preserveAspectRatio="none" width="100%" height="100%" overflow="visible" style="display: block;" viewBox="0 0 8.05301 8.05301" fill="none" xmlns="http://www.w3.org/2000/svg">
<g id="material-symbols:star-rounded">
<path id="Vector" d="M4.02107 5.79803L2.62857 6.63688C2.56705 6.67603 2.50274 6.6928 2.43563 6.68721C2.36852 6.68162 2.3098 6.65925 2.25947 6.6201C2.20914 6.58096 2.16999 6.53208 2.14203 6.47347C2.11407 6.41486 2.10848 6.3491 2.12526 6.27617L2.49435 4.69074L1.26124 3.62539C1.20531 3.57506 1.17042 3.51768 1.15655 3.45326C1.14268 3.38883 1.14682 3.32598 1.16896 3.26468C1.19111 3.20339 1.22466 3.15306 1.26962 3.11369C1.31459 3.07432 1.3761 3.04915 1.45417 3.03819L3.08155 2.89559L3.71069 1.40243C3.73865 1.33532 3.78205 1.28499 3.84088 1.25143C3.89971 1.21788 3.95978 1.2011 4.02107 1.2011C4.08236 1.2011 4.14242 1.21788 4.20125 1.25143C4.26009 1.28499 4.30348 1.33532 4.33144 1.40243L4.96059 2.89559L6.58796 3.03819C6.66626 3.04938 6.72777 3.07454 6.77251 3.11369C6.81725 3.15284 6.8508 3.20317 6.87317 3.26468C6.89554 3.3262 6.89979 3.38917 6.88592 3.45359C6.87206 3.51802 6.83705 3.57528 6.7809 3.62539L5.54778 4.69074L5.91688 6.27617C5.93366 6.34887 5.92806 6.41464 5.9001 6.47347C5.87214 6.5323 5.83299 6.58118 5.78266 6.6201C5.73233 6.65903 5.67361 6.6814 5.6065 6.68721C5.5394 6.69303 5.47508 6.67625 5.41357 6.63688L4.02107 5.79803Z" fill="var(--fill-0, #FFC633)"/>
</g>
</svg>
