<svg preserveAspectRatio="none" width="100%" height="100%" overflow="visible" style="display: block;" viewBox="0 0 3.39884 3.39884" fill="none" xmlns="http://www.w3.org/2000/svg">
<g id="carbon:review" clip-path="url(#clip0_6557_109257)">
<path id="Vector" d="M1.69919 0.849465L1.90227 1.24277L2.33647 1.30587L2.01783 1.59296L2.12404 2.01782L1.69919 1.77884L1.27433 2.01782L1.38055 1.59296L1.06191 1.30587L1.508 1.24277L1.69919 0.849465Z" fill="var(--fill-0, white)"/>
<path id="Vector_2" d="M1.88358 3.18617L1.69919 3.07996L2.12404 2.33646H2.76133C2.78924 2.3365 2.81688 2.33103 2.84267 2.32037C2.86846 2.30971 2.8919 2.29407 2.91163 2.27433C2.93136 2.2546 2.94701 2.23116 2.95767 2.20537C2.96833 2.17958 2.9738 2.15194 2.97376 2.12403V0.849465C2.9738 0.821556 2.96833 0.793914 2.95767 0.768122C2.94701 0.742331 2.93136 0.718896 2.91163 0.699162C2.8919 0.679428 2.86846 0.663782 2.84267 0.653122C2.81688 0.642461 2.78924 0.636995 2.76133 0.637037H0.637051C0.609143 0.636995 0.5815 0.642461 0.555709 0.653122C0.529917 0.663782 0.506482 0.679428 0.486748 0.699162C0.467014 0.718896 0.451368 0.742331 0.440708 0.768122C0.430047 0.793914 0.424581 0.821556 0.424623 0.849465V2.12403C0.424581 2.15194 0.430047 2.17958 0.440708 2.20537C0.451368 2.23116 0.467014 2.2546 0.486748 2.27433C0.506482 2.29407 0.529917 2.30971 0.555709 2.32037C0.5815 2.33103 0.609143 2.3365 0.637051 2.33646H1.59298V2.54889H0.637051C0.524372 2.54889 0.416308 2.50412 0.336633 2.42445C0.256957 2.34477 0.212195 2.23671 0.212195 2.12403V0.849465C0.212195 0.736786 0.256957 0.628722 0.336633 0.549046C0.416308 0.469371 0.524372 0.424609 0.637051 0.424609H2.76133C2.87401 0.424609 2.98207 0.469371 3.06175 0.549046C3.14142 0.628722 3.18618 0.736786 3.18618 0.849465V2.12403C3.18618 2.23671 3.14142 2.34477 3.06175 2.42445C2.98207 2.50412 2.87401 2.54889 2.76133 2.54889H2.24778L1.88358 3.18617Z" fill="var(--fill-0, white)"/>
</g>
<defs>
<clipPath id="clip0_6557_109257">
<rect width="3.39884" height="3.39884" fill="white"/>
</clipPath>
</defs>
</svg>
