<svg preserveAspectRatio="none" width="100%" height="100%" overflow="visible" style="display: block;" viewBox="0 0 224.43 48.5313" fill="none" xmlns="http://www.w3.org/2000/svg">
<g id="Group" opacity="0.1">
<path id="Vector" opacity="0.5" d="M1.1398 47.1461C80.7864 45.3082 46.9323 27.9751 58.1679 22.2828C61.3064 20.6927 67.4942 21.2251 70.8336 22.5274C75.3206 24.2772 72.5216 27.7601 65.9309 27.3657C59.2778 26.9677 57.996 22.6282 61.9092 20.8334C63.8507 19.943 66.8581 19.5747 69.7377 19.5626C80.3834 19.5185 88.3796 23.4376 97.2579 25.4019C103.751 26.8387 110.969 27.8406 118.311 27.7498C126.508 27.6486 134.319 26.0301 138.992 23.1736C150.342 16.2371 148.929 2.63868 174.768 1.31522C197.596 0.146457 214.829 10.91 224.405 18.0948" stroke="url(#paint0_linear_6557_108969)" stroke-width="0.083538" stroke-miterlimit="10"/>
<path id="Vector_2" opacity="0.5" d="M224.306 17.7715C218.402 13.4989 209.615 7.9483 198.715 4.6021C194.075 3.18196 189.12 2.16744 183.809 1.76631C180.872 1.54461 177.813 1.51133 174.638 1.70785C169.614 2.01409 165.609 2.78307 162.32 3.86819C156.353 5.83562 152.714 8.87512 149.731 12.0252C147.643 14.2315 145.919 16.4647 144.126 18.5557C142.778 20.1274 141.274 21.6308 139.28 22.9299C137.372 24.1756 134.824 25.2072 131.882 25.9811C128.099 26.9786 123.682 27.5515 119.12 27.6459C111.837 27.8033 104.591 26.8585 98.0562 25.4163C88.9791 23.4156 80.9486 19.7578 70.7133 19.9093C70.0407 19.9192 69.3648 19.9512 68.703 20.0051C66.6636 20.1711 64.7221 20.5403 63.3575 21.1815C59.7044 22.8931 61.0055 26.9745 67.1654 27.3037C68.1915 27.3586 69.1134 27.3158 69.9193 27.194C74.0516 26.5797 75.1895 24.0128 71.4257 22.6345C68.0798 21.4091 61.9973 20.9315 58.8566 22.527C57.6876 23.1206 56.9946 23.8388 56.6024 24.6509C53.2458 31.6167 70.565 45.3766 1.23327 46.4073" stroke="url(#paint1_linear_6557_108969)" stroke-width="0.083538" stroke-miterlimit="10"/>
<path id="Vector_3" opacity="0.5" d="M224.206 17.4478C218.167 13.2314 209.14 7.75679 198.216 4.59902C193.558 3.26027 188.689 2.35639 183.496 2.03935C180.624 1.86487 177.627 1.87476 174.508 2.09916C169.582 2.45352 165.621 3.24229 162.335 4.3337C156.396 6.30338 152.595 9.3078 149.471 12.3127C147.283 14.4173 145.516 16.4688 143.941 18.434C142.745 19.9265 141.421 21.3921 139.567 22.6849C137.796 23.9261 135.347 24.977 132.478 25.7721C128.789 26.8006 124.441 27.4054 119.928 27.5412C112.702 27.7584 105.429 26.8775 98.852 25.4303C89.5751 23.3932 81.508 19.9967 71.6874 20.2561C71.0438 20.2732 70.4024 20.3132 69.7803 20.373C67.871 20.5565 66.0669 20.9208 64.8044 21.5297C61.4113 23.1585 62.7318 26.9804 68.3985 27.2417C69.3645 27.2862 70.2272 27.2413 70.974 27.1181C74.8539 26.4997 75.7951 24.0372 72.0141 22.7416C68.6628 21.5931 62.6834 21.1704 59.5407 22.7713C58.3749 23.3644 57.67 24.0794 57.2574 24.8867C53.7235 31.8084 68.6542 45.2534 1.32314 45.669" stroke="url(#paint2_linear_6557_108969)" stroke-width="0.083538" stroke-miterlimit="10"/>
<path id="Vector_4" opacity="0.5" d="M224.105 17.1244C217.93 12.9643 208.663 7.56566 197.716 4.59676C193.04 3.33986 188.256 2.5457 183.182 2.31365C180.374 2.18639 177.44 2.2381 174.376 2.49218C169.549 2.89241 165.631 3.70367 162.349 4.80093C156.436 6.7733 152.476 9.74175 149.209 12.6018C146.923 14.6048 145.112 16.4742 143.754 18.3134C142.711 19.7264 141.566 21.1546 139.851 22.4416C138.219 23.6788 135.868 24.7481 133.073 25.5648C129.477 26.6238 125.199 27.2633 120.734 27.4382C113.566 27.7193 106.266 26.8981 99.6476 25.4456C90.1719 23.3725 82.063 20.2368 72.6614 20.6037C72.0468 20.6276 71.4398 20.6757 70.8563 20.7413C69.077 20.9428 67.4105 21.3012 66.2501 21.8782C63.117 23.4238 64.4558 26.9858 69.6304 27.1805C70.5372 27.2147 71.3399 27.1675 72.0286 27.0429C75.657 26.4206 76.4027 24.0624 72.6034 22.8495C69.2468 21.7779 63.3706 21.41 60.2267 23.0159C59.0652 23.6086 58.3485 24.3205 57.9145 25.1232C54.2033 32.0009 66.7465 45.1311 1.41501 44.9314" stroke="url(#paint3_linear_6557_108969)" stroke-width="0.083538" stroke-miterlimit="10"/>
<path id="Vector_5" opacity="0.5" d="M224.004 16.8011C217.694 12.6967 208.206 7.36241 197.216 4.59408C192.529 3.41363 187.824 2.73458 182.867 2.58753C180.124 2.50749 177.252 2.60102 174.245 2.88433C169.515 3.33043 165.643 4.16417 162.362 5.26728C156.476 7.2419 152.355 10.1748 148.947 12.8901C146.56 14.7914 144.709 16.4782 143.567 18.192C142.678 19.5258 141.7 20.9145 140.135 22.197C138.632 23.4278 136.384 24.5152 133.668 25.3561C130.16 26.4426 125.956 27.1199 121.54 27.3339C114.43 27.6784 107.104 26.9175 100.442 25.46C90.7678 23.3505 82.6138 20.4751 73.6345 20.9509C73.0489 20.9819 72.4751 21.0377 71.9325 21.1097C70.2822 21.3287 68.7575 21.683 67.6959 22.2267C64.8325 23.6923 66.1767 26.9899 70.8624 27.119C71.709 27.1423 72.4526 27.0933 73.0822 26.9674C76.4592 26.3414 77.0104 24.0876 73.1918 22.957C69.832 21.9627 64.0578 21.6488 60.9107 23.2606C59.7525 23.8528 59.024 24.5615 58.5695 25.3593C54.681 32.1929 64.8357 45.0079 1.50485 44.1935" stroke="url(#paint4_linear_6557_108969)" stroke-width="0.083538" stroke-miterlimit="10"/>
<path id="Vector_6" opacity="0.5" d="M223.904 16.477C217.458 12.4288 207.734 7.16734 196.717 4.59103C192.013 3.49107 187.394 2.92311 182.553 2.8606C179.876 2.82777 177.065 2.96268 174.114 3.27612C169.483 3.76764 165.654 4.62431 162.378 5.73326C156.519 7.71013 152.236 10.6075 148.687 13.1775C146.202 14.9777 144.311 16.481 143.383 18.0702C142.65 19.324 141.846 20.6758 140.422 21.9525C139.056 23.1788 136.907 24.2846 134.266 25.1476C130.849 26.2642 126.718 26.9769 122.35 27.2297C115.296 27.6385 107.944 26.9369 101.241 25.4741C91.3669 23.3286 83.1634 20.7136 74.6117 21.2977C74.0541 21.336 73.5158 21.3994 73.0119 21.4776C71.4893 21.7141 70.1054 22.064 69.1449 22.5753C66.5447 23.959 67.9221 26.8641 72.0964 27.0574C72.8786 27.0939 73.5674 27.0192 74.139 26.892C77.2635 26.2619 77.6235 24.1133 73.7823 23.0646C70.4213 22.1472 64.746 21.8882 61.5979 23.5048C60.4439 24.0966 59.7036 24.8022 59.2276 25.595C55.1618 32.3846 62.928 44.8848 1.59781 43.4552" stroke="url(#paint5_linear_6557_108969)" stroke-width="0.083538" stroke-miterlimit="10"/>
<path id="Vector_7" opacity="0.5" d="M223.803 16.1531C217.222 12.1607 207.261 6.97297 196.218 4.58777C191.496 3.56831 186.962 3.11187 182.24 3.13391C179.627 3.1483 176.88 3.32458 173.984 3.6677C169.451 4.20463 165.666 5.08424 162.393 6.19904C156.56 8.17816 152.116 11.04 148.427 13.4652C145.843 15.1638 143.914 16.4832 143.197 17.9483C142.622 19.122 141.99 20.4369 140.709 21.7073C139.478 22.9291 137.429 24.0534 134.862 24.9384C131.537 26.0851 127.476 26.8329 123.156 27.1248C116.16 27.5974 108.781 26.9557 102.036 25.4879C91.9627 23.306 83.7034 20.9523 75.5847 21.6439C75.055 21.6889 74.5511 21.7604 74.088 21.8449C72.6923 22.0994 71.4502 22.4439 70.5906 22.9228C68.2537 24.2242 69.6344 26.832 73.3284 26.9948C74.0504 27.0268 74.68 26.944 75.1926 26.8154C78.0657 26.1813 78.2354 24.1375 74.3706 23.1715C71.0097 22.331 65.4332 22.1269 62.2829 23.7489C61.1322 24.3403 60.3811 25.0427 59.8836 25.8306C55.6406 32.576 61.0193 44.7615 1.68761 42.7167" stroke="url(#paint6_linear_6557_108969)" stroke-width="0.083538" stroke-miterlimit="10"/>
<path id="Vector_8" opacity="0.5" d="M223.704 15.8293C216.987 11.8931 206.788 6.77866 195.718 4.58504C190.98 3.64607 186.531 3.3007 181.927 3.40773C179.378 3.46934 176.693 3.68699 173.853 4.05979C169.419 4.64215 165.679 5.54425 162.408 6.66534C156.603 8.64715 151.997 11.4735 148.166 13.7535C145.483 15.3503 143.52 16.4845 143.012 17.8273C142.598 18.92 142.133 20.199 140.995 21.4635C139.899 22.6808 137.95 23.8235 135.458 24.7306C132.225 25.9074 128.235 26.6908 123.965 27.0213C117.025 27.5587 109.62 26.9759 102.833 25.5027C92.5615 23.2843 84.2408 21.1924 76.5595 21.9915C76.0577 22.0436 75.5871 22.1228 75.1659 22.2132C73.8949 22.4857 72.7967 22.8248 72.0382 23.2713C69.9655 24.4904 71.3366 26.7956 74.5621 26.9336C75.224 26.962 75.7945 26.8702 76.249 26.7403C78.8707 26.1021 78.8513 24.1635 74.9607 23.2794C71.6009 22.5163 66.1211 22.3665 62.9687 23.994C61.8222 24.5849 61.0583 25.2841 60.5404 26.0671C56.12 32.7685 59.1103 44.6391 1.77918 41.9792" stroke="url(#paint7_linear_6557_108969)" stroke-width="0.083538" stroke-miterlimit="10"/>
<path id="Vector_9" opacity="0.5" d="M223.602 15.5063C216.751 11.6263 206.312 6.58523 195.218 4.58272C190.461 3.72425 186.098 3.48996 181.612 3.68154C179.128 3.79036 176.506 4.04939 173.721 4.45232C169.386 5.07964 165.688 6.00512 162.421 7.13206C156.642 9.11612 151.877 11.9069 147.904 14.0421C145.122 15.5378 143.126 16.4849 142.825 17.7062C142.576 18.7172 142.276 19.961 141.28 21.2193C140.32 22.4326 138.469 23.5937 136.054 24.5223C132.913 25.7297 128.993 26.5486 124.772 26.9174C117.888 27.5191 110.458 26.9956 103.629 25.517C93.1569 23.2627 84.7686 21.4333 77.5331 22.3386C77.0582 22.3979 76.622 22.4852 76.2416 22.5814C75.093 22.8724 74.1421 23.206 73.4835 23.6198C71.6752 24.7566 73.0204 26.9929 75.7936 26.872C76.3953 26.8459 76.9067 26.796 77.3021 26.6646C79.6724 26.0225 79.4672 24.1886 75.5486 23.3868C72.192 22.7001 66.8068 22.6052 63.6533 24.2381C62.51 24.8285 61.7353 25.5247 61.196 26.3026C56.5983 32.9604 57.2 44.5158 1.8696 41.2407" stroke="url(#paint8_linear_6557_108969)" stroke-width="0.083538" stroke-miterlimit="10"/>
<path id="Vector_10" opacity="0.5" d="M223.502 15.1825C216.516 11.3583 205.838 6.39138 194.718 4.58C189.943 3.80202 185.667 3.6788 181.297 3.95537C178.879 4.11141 176.318 4.41136 173.589 4.84442C169.352 5.51672 165.699 6.46558 162.435 7.59836C156.683 9.58468 151.757 12.34 147.642 14.3303C144.761 15.7244 142.736 16.4817 142.638 17.5848C142.556 18.5125 142.418 19.7226 141.565 20.9751C140.741 22.1838 138.989 23.3634 136.649 24.3141C133.601 25.5516 129.751 26.406 125.579 26.8135C118.752 27.4804 111.295 27.0154 104.425 25.5318C93.7545 23.2411 85.2909 21.677 78.5079 22.6857C78.0587 22.7523 77.658 22.8471 77.3195 22.9497C76.2923 23.2595 75.4886 23.5869 74.931 23.9687C73.3881 25.0237 74.701 26.9906 77.0273 26.8108C77.5645 26.7694 78.0211 26.7222 78.3585 26.5895C80.4763 25.9433 80.0873 24.2138 76.1387 23.4947C72.7874 22.8845 67.4957 22.8449 64.3389 24.4831C63.2 25.0731 62.4135 25.7661 61.8526 26.5396C57.0777 33.1533 55.2909 44.3935 1.96111 40.5031" stroke="url(#paint9_linear_6557_108969)" stroke-width="0.083538" stroke-miterlimit="10"/>
<path id="Vector_11" opacity="0.5" d="M223.402 14.8584C216.28 11.0904 205.361 6.19728 194.219 4.57658C189.426 3.87955 185.236 3.8674 180.984 4.22851C178.63 4.43177 176.133 4.77265 173.459 5.23628C169.321 5.9531 165.712 6.9258 162.45 8.06443C156.725 10.053 151.637 12.7728 147.381 14.6183C144.402 15.9107 142.349 16.4747 142.453 17.4635C142.542 18.3054 142.562 19.4849 141.851 20.7306C141.163 21.9353 139.512 23.1333 137.245 24.1056C134.288 25.3737 130.509 26.2637 126.386 26.7093C119.615 27.441 112.134 27.0353 105.221 25.546C94.3513 23.2188 85.8061 21.9232 79.4819 23.0326C79.0585 23.1068 78.6921 23.2098 78.3956 23.3173C77.4877 23.6469 76.8355 23.9671 76.3767 24.3165C75.1002 25.2892 76.511 27.1478 78.2591 26.7484C78.7448 26.7318 79.1338 26.6477 79.4131 26.5133C81.2795 25.863 80.7078 24.2378 76.728 23.6019C73.3843 23.0677 68.1828 23.0839 65.025 24.7271C63.8904 25.3166 63.091 26.006 62.5097 26.775C57.5575 33.3446 53.3832 44.27 2.05192 39.7645" stroke="url(#paint10_linear_6557_108969)" stroke-width="0.083538" stroke-miterlimit="10"/>
<path id="Vector_12" opacity="0.5" d="M223.302 14.5349C216.045 10.8231 204.886 6.00419 193.721 4.57415C188.909 3.95806 184.805 4.05655 180.672 4.5022C178.382 4.75268 175.947 5.13447 173.33 5.62824C169.291 6.38957 165.725 7.3861 162.467 8.53058C156.77 10.5218 151.52 13.2056 147.123 14.9064C144.044 16.0976 141.964 16.4623 142.269 17.3419C142.53 18.0947 142.709 19.2464 142.139 20.4862C141.588 21.6869 140.035 22.9033 137.844 23.8972C134.979 25.1959 131.27 26.1218 127.196 26.6053C120.481 27.4026 112.973 27.0549 106.019 25.5606C94.95 23.1974 86.3189 22.1735 80.4588 23.3796C80.0601 23.4614 79.7292 23.5725 79.4756 23.6854C78.6859 24.0361 78.1852 24.3478 77.8263 24.6648C76.8185 25.5548 78.2368 27.166 79.495 26.6871C79.9205 26.6624 80.2503 26.5738 80.4706 26.438C82.0855 25.7837 81.3334 24.2619 77.3203 23.7097C73.9851 23.2505 68.8729 23.3229 65.7129 24.972C64.5815 25.5611 63.7713 26.2473 63.1685 27.0113C58.0391 33.5369 51.4763 44.1475 2.14561 39.0268" stroke="url(#paint11_linear_6557_108969)" stroke-width="0.083538" stroke-miterlimit="10"/>
<path id="Vector_13" opacity="0.5" d="M223.2 14.2114C215.808 10.5554 204.408 5.81105 193.22 4.57124C188.389 4.0361 184.371 4.24521 180.356 4.77585C178.131 5.07355 175.76 5.49627 173.197 6.02061C169.257 6.82647 165.735 7.84639 162.479 8.99716C156.809 10.9907 151.398 13.6394 146.86 15.1949C143.683 16.2845 141.572 16.4432 142.082 17.2212C142.514 17.88 142.851 19.0092 142.423 20.2423C142.009 21.4389 140.555 22.6738 138.438 23.6892C135.666 25.019 132.027 25.9804 128.002 26.5016C121.344 27.3646 113.811 27.075 106.814 25.5752C95.5458 23.1757 86.8211 22.4292 81.4316 23.727C81.0577 23.8169 80.7623 23.9365 80.5517 24.0539C79.8791 24.4276 79.532 24.7285 79.272 25.014C78.5349 25.8212 79.9596 27.1847 80.7268 26.6262C81.0921 26.5934 81.3629 26.5003 81.5251 26.3627C82.8875 25.7043 81.9581 24.2855 77.9085 23.8174C74.583 23.4329 69.5599 23.5624 66.3978 25.2168C65.2707 25.8055 64.4487 26.4886 63.8245 27.2477C58.5177 33.7291 49.5664 44.025 2.23636 38.2891" stroke="url(#paint12_linear_6557_108969)" stroke-width="0.083538" stroke-miterlimit="10"/>
<path id="Vector_14" opacity="0.5" d="M223.1 13.8877C215.573 10.2879 203.931 5.61825 192.721 4.56866C187.871 4.11447 183.938 4.43105 180.042 5.04983C177.88 5.39295 175.573 5.85794 173.066 6.41287C169.225 7.2628 165.745 8.30699 162.493 9.46361C156.85 11.4594 151.279 14.0726 146.598 15.4828C143.321 16.4708 140.849 16.4915 141.895 17.0995C142.198 17.698 142.994 18.771 142.707 19.9978C142.429 21.1904 141.074 22.4437 139.032 23.4807C136.353 24.841 132.783 25.8384 128.808 26.3974C122.205 27.326 114.647 27.0944 107.609 25.5897C96.1419 23.1542 87.3216 22.691 82.4049 24.0743C82.0546 24.1728 81.7957 24.3009 81.627 24.4223C81.0726 24.8203 80.8792 25.109 80.7169 25.3627C80.2528 26.0858 81.6807 27.2033 81.9579 26.5647C82.2642 26.5238 82.4748 26.4262 82.5779 26.2872C83.6889 25.6253 82.5833 24.3081 78.496 23.925C75.1824 23.6142 70.2452 23.8018 67.082 25.4611C65.9581 26.0493 65.1244 26.7293 64.4797 27.4834C58.9956 33.9208 47.6568 43.9019 2.32641 37.5508" stroke="url(#paint13_linear_6557_108969)" stroke-width="0.083538" stroke-miterlimit="10"/>
<path id="Vector_15" opacity="0.5" d="M222.999 13.5638C215.336 10.0202 203.452 5.4256 192.221 4.56533C187.352 4.19253 183.505 4.6193 179.728 5.32262C177.631 5.71296 175.386 6.21842 172.934 6.80392C169.192 7.69792 165.757 8.7664 162.508 9.92887C156.892 11.9269 151.159 14.5045 146.337 15.77C142.962 16.6568 140.429 16.4931 141.709 16.977C142.151 17.4946 143.14 18.532 142.993 19.7521C142.852 20.9406 141.597 22.2128 139.628 23.2709C137.042 24.6623 133.543 25.6952 129.615 26.292C123.07 27.2867 115.485 27.1127 108.404 25.6026C96.7379 23.1306 87.8231 22.9588 83.3781 24.4195C83.0515 24.5269 82.8312 24.6636 82.7033 24.7882C82.2693 25.2123 82.2284 25.4857 82.1629 25.7087C81.9748 26.3455 83.4039 27.2188 83.1901 26.5007C83.4361 26.4516 83.5865 26.3496 83.6327 26.2092C84.4923 25.5432 83.2105 24.3273 79.0845 24.0305C75.7838 23.793 70.9326 24.039 67.7662 25.7038C66.6466 26.2911 65.801 26.9683 65.1348 27.7175C59.4735 34.1109 45.7462 43.7767 2.41531 36.8109" stroke="url(#paint14_linear_6557_108969)" stroke-width="0.083538" stroke-miterlimit="10"/>
<path id="Vector_16" opacity="0.5" d="M222.899 13.2406C215.1 9.75278 202.974 5.23423 191.721 4.56328C186.832 4.27187 183.073 4.80926 179.414 5.59713C177.381 6.03469 175.199 6.58062 172.803 7.19715C169.16 8.13477 165.769 9.22798 162.522 10.3963C156.932 12.397 151.039 14.9387 146.076 16.0593C142.602 16.8445 140.007 16.4969 141.525 16.8571C142.105 17.2938 143.285 18.2961 143.28 19.5094C143.276 20.6944 142.119 21.9845 140.226 23.0643C137.732 24.4862 134.302 25.5556 130.424 26.1897C123.936 27.2509 116.325 27.134 109.203 25.619C97.3374 23.1106 88.3302 23.2374 84.3547 24.7686C84.0517 24.8851 83.8701 25.0303 83.782 25.1585C83.4725 25.6095 83.58 25.8654 83.6111 26.0592C83.6982 26.6065 85.1283 27.2392 84.4245 26.441C84.6104 26.3839 84.7017 26.2773 84.6888 26.1357C85.297 25.4656 83.8411 24.3495 79.6754 24.1399C76.3875 23.9744 71.6212 24.2798 68.4537 25.95C67.3374 26.5368 66.481 27.2109 65.7934 27.9556C59.9547 34.3049 43.8389 43.6559 2.50868 36.0749" stroke="url(#paint15_linear_6557_108969)" stroke-width="0.083538" stroke-miterlimit="10"/>
<path id="Vector_17" opacity="0.5" d="M222.799 12.9171C214.866 9.48545 202.496 5.04288 191.223 4.56036C186.314 4.35035 182.642 4.99792 179.102 5.87078C177.133 6.356 175.013 6.94196 172.673 7.58907C169.127 8.57031 165.78 9.68826 162.538 10.8624C156.975 12.8654 150.921 15.372 145.816 16.3474C142.243 17.0309 139.587 16.4989 141.34 16.7355C142.058 17.0912 143.431 18.058 143.567 19.2646C143.7 20.4455 142.642 21.7541 140.823 22.8554C138.422 24.3084 135.062 25.4137 131.232 26.0851C124.8 27.213 117.163 27.1531 110 25.6327C97.9357 23.0883 88.8436 23.5209 85.3301 25.1147C85.0519 25.241 84.91 25.3944 84.8606 25.5257C84.6812 26.0042 84.9294 26.2407 85.0594 26.4071C85.4139 26.8599 86.8527 27.2566 85.6589 26.3792C85.7846 26.314 85.8169 26.2029 85.746 26.0599C86.1016 25.3858 84.4727 24.3686 80.2673 24.2472C76.9934 24.1528 72.3109 24.5188 69.1412 26.1944C68.0292 26.7808 67.1599 27.4517 66.4519 28.1915C60.436 34.4967 41.9316 43.5329 2.60203 35.3367" stroke="url(#paint16_linear_6557_108969)" stroke-width="0.083538" stroke-miterlimit="10"/>
<path id="Vector_18" opacity="0.5" d="M222.699 12.5929C214.631 9.21748 202.018 4.85092 190.724 4.55727C185.797 4.42911 182.211 5.18685 178.788 6.1438C176.884 6.67625 174.826 7.30222 172.543 7.98082C169.095 9.00523 165.793 10.1479 162.553 11.3284C157.017 13.3336 150.801 15.8046 145.556 16.6352C141.884 17.2171 139.167 16.5012 141.155 16.6136C142.012 16.8884 143.578 17.8197 143.854 19.02C144.125 20.1968 143.165 21.5243 141.42 22.6468C139.112 24.1308 135.822 25.2726 132.041 25.9808C125.666 27.1757 118.003 27.1725 110.797 25.6467C98.5331 23.0659 89.3679 23.8119 86.3057 25.4614C86.0511 25.5981 85.9512 25.7591 85.9393 25.8931C85.8953 26.3991 86.2713 26.6149 86.5077 26.7548C87.1105 27.1114 88.5782 27.2737 86.8924 26.3168C86.9579 26.2435 86.9311 26.1279 86.8011 25.9835C86.9053 25.3054 85.1023 24.3858 80.8561 24.3538C77.5962 24.3295 72.9985 24.7572 69.8267 26.4382C68.7179 27.0241 67.8379 27.6919 67.1083 28.4267C60.9152 34.6879 40.0233 43.4093 2.69334 34.5979" stroke="url(#paint17_linear_6557_108969)" stroke-width="0.083538" stroke-miterlimit="10"/>
<path id="Vector_19" opacity="0.5" d="M222.597 12.2692C214.394 8.94953 201.539 4.66032 190.223 4.55419C185.275 4.50787 181.777 5.37579 178.472 6.41729C176.633 6.99695 174.637 7.66295 172.41 8.37257C169.06 9.44015 165.802 10.608 162.566 11.7943C157.057 13.8018 150.681 16.2373 145.293 16.9231C141.521 17.4038 138.744 16.5035 140.967 16.4923C141.963 16.6861 143.721 17.5819 144.138 18.7754C144.547 19.9487 143.685 21.2946 142.014 22.4382C139.799 23.9532 136.579 25.1314 132.846 25.8766C126.528 27.1384 118.839 27.1924 111.591 25.6612C99.1286 23.0439 89.9044 24.1093 87.2784 25.8087C87.0506 25.9562 86.9894 26.1239 87.0141 26.2615C87.1086 26.794 87.604 26.9923 87.9521 27.1033C88.7859 27.3691 90.2987 27.2922 88.1229 26.2552C88.1294 26.1734 88.0423 26.0538 87.8543 25.9081C87.7071 25.2259 85.7301 24.4025 81.4441 24.4618C78.1981 24.5068 73.6843 24.9965 70.5104 26.6829C69.4058 27.2684 68.514 27.933 67.763 28.6629C61.3925 34.88 38.1121 43.2866 2.78173 33.8596" stroke="url(#paint18_linear_6557_108969)" stroke-width="0.083538" stroke-miterlimit="10"/>
<path id="Vector_20" opacity="0.5" d="M222.497 11.9452C214.158 8.68171 201.06 4.4694 189.723 4.55125C184.756 4.58722 181.346 5.56441 178.159 6.6909C176.384 7.31778 174.451 8.02336 172.28 8.76491C169.027 9.87521 165.815 11.0687 162.58 12.2609C157.099 14.2705 150.562 16.6706 145.032 17.2116C141.162 17.5907 138.323 16.5064 140.782 16.3711C141.916 16.484 143.868 17.3442 144.424 18.5314C144.972 19.7006 144.208 21.065 142.611 22.2302C140.491 23.7762 137.339 24.9909 133.655 25.7729C127.395 27.1022 119.678 27.2124 112.388 25.6758C99.7267 23.0226 90.4605 24.4103 88.2536 26.1556C88.0526 26.3143 88.0322 26.4884 88.0924 26.6296C88.3298 27.1872 88.938 27.3725 89.4 27.4516C90.4637 27.6337 92.0238 27.31 89.357 26.1934C89.3033 26.1034 89.1572 25.9793 88.9101 25.8323C88.5104 25.146 86.3593 24.4175 82.0335 24.5691C78.8015 24.6824 74.3726 25.2355 71.1965 26.9273C70.0952 27.5123 69.1916 28.1738 68.4201 28.8987C61.8723 35.0722 36.2035 43.1631 2.87368 33.1214" stroke="url(#paint19_linear_6557_108969)" stroke-width="0.083538" stroke-miterlimit="10"/>
<path id="Vector_21" opacity="0.5" d="M222.397 11.6225C213.922 8.41526 200.583 4.28029 189.224 4.54921C184.237 4.66748 180.919 5.7571 177.845 6.96499C176.139 7.64088 174.263 8.38468 172.149 9.15726C168.993 10.3107 165.826 11.5294 162.595 12.7274C157.14 14.7398 150.442 17.1039 144.771 17.5C140.802 17.7775 137.889 16.0174 140.596 16.2503C141.844 16.3578 144.015 17.107 144.71 18.2875C145.397 19.4526 144.73 20.8359 143.207 22.0222C141.18 23.5997 138.099 24.8503 134.463 25.6692C128.261 27.066 120.517 27.2324 113.185 25.6908C100.324 23.0012 91.0353 24.7132 89.2281 26.5034C89.0561 26.6734 89.0744 26.8528 89.169 26.9985C89.5504 27.58 90.2735 27.7558 90.8462 27.8012C92.1484 27.9042 93.7462 27.3295 90.5894 26.1333C90.4755 26.0353 90.2703 25.9067 89.9651 25.7583C89.314 25.068 86.9867 24.4335 82.6233 24.6781C79.4032 24.8589 75.0602 25.4763 71.882 27.1735C70.7849 27.7581 69.8695 28.4164 69.0765 29.1364C62.3515 35.2658 34.2952 43.0419 2.96496 32.385" stroke="url(#paint20_linear_6557_108969)" stroke-width="0.083538" stroke-miterlimit="10"/>
<path id="Vector_22" opacity="0.5" d="M222.296 11.2981C213.686 8.14664 200.104 4.08992 188.724 4.54591C183.718 4.74648 180.488 5.94537 177.531 7.23825C175.889 7.96136 174.074 8.74473 172.017 9.54924C168.958 10.7454 165.836 11.9897 162.609 13.1936C157.181 15.2082 150.321 17.5372 144.509 17.7881C140.441 17.9644 137.397 16.3747 140.409 16.1288C141.799 16.0154 144.16 16.869 144.995 18.0431C145.82 19.2042 145.252 20.6064 143.801 21.8138C141.868 23.4224 138.856 24.7099 135.269 25.5652C129.126 27.0299 121.354 27.252 113.979 25.7051C100.919 22.979 91.6232 25.0148 90.2006 26.85C90.0598 27.0317 90.1136 27.216 90.2446 27.3658C90.7711 27.9697 91.6167 28.1159 92.2915 28.1487C93.8323 28.2234 95.0185 27.5425 91.8209 26.0707C91.6146 25.9753 91.3825 25.8314 91.0193 25.6817C90.1168 24.9873 87.6122 24.4455 83.2123 24.7845C80.0029 25.0319 75.747 25.714 72.5676 27.4166C71.4738 28.0008 70.5466 28.656 69.7332 29.371C62.8309 35.4563 32.386 42.9177 3.05644 31.6456" stroke="url(#paint21_linear_6557_108969)" stroke-width="0.083538" stroke-miterlimit="10"/>
<path id="Vector_23" opacity="0.5" d="M222.196 10.9747C213.451 7.87939 199.628 3.90092 188.226 4.54309C183.2 4.8264 180.057 6.13412 177.218 7.51199C175.64 8.28232 173.887 9.10527 171.886 9.94126C168.923 11.1797 165.849 12.4497 162.623 13.6598C157.223 15.6767 150.201 17.9701 144.248 18.0758C140.081 18.1505 136.968 16.4007 140.223 16.0068C141.741 15.8228 144.307 16.63 145.28 17.7979C146.245 18.955 145.775 20.376 144.397 21.6046C142.559 23.2442 139.617 24.5686 136.075 25.4603C129.992 26.9933 122.191 27.2708 114.775 25.7189C101.517 22.9568 92.2278 25.3128 91.1748 27.1966C91.0674 27.3895 91.1555 27.5793 91.322 27.7335C91.9936 28.359 92.9552 28.52 93.7385 28.4967C95.5425 28.4427 96.8512 27.5289 93.0541 26.0085C92.794 25.9046 92.4964 25.7566 92.0742 25.6056C90.9202 24.9076 88.2362 24.457 83.8008 24.8914C80.6021 25.2049 76.4343 25.9527 73.2528 27.6607C72.1633 28.2444 71.2242 28.8964 70.3894 29.607C63.3098 35.6482 30.4764 42.7948 3.14747 30.9075" stroke="url(#paint22_linear_6557_108969)" stroke-width="0.083538" stroke-miterlimit="10"/>
<path id="Vector_24" opacity="0.5" d="M222.095 10.6509C213.215 7.61189 199.15 3.71167 187.725 4.54046C182.682 4.90651 179.625 6.32306 176.903 7.78547C175.39 8.60302 173.697 9.46554 171.755 10.333C168.888 11.6142 165.861 12.9098 162.639 14.1258C157.265 16.1449 150.084 18.4028 143.988 18.3637C139.723 18.3367 136.551 16.4242 140.038 15.8854C141.692 15.63 144.454 16.3922 145.566 17.5538C146.67 18.7064 146.298 20.1467 144.994 21.3965C143.25 23.0671 140.378 24.4283 136.884 25.3565C130.859 26.9574 123.03 27.2906 115.572 25.7333C102.113 22.9349 92.8448 25.6079 92.1497 27.5438C92.0766 27.7475 92.198 27.9422 92.3989 28.1019C93.2145 28.7481 94.2975 28.9028 95.185 28.8457C97.2458 28.7126 98.6534 27.5195 94.2868 25.9474C93.973 25.8341 93.6099 25.683 93.1296 25.5301C91.7231 24.8281 88.8586 24.4683 84.391 24.9994C81.1998 25.3785 77.1223 26.1925 73.9386 27.9054C72.8524 28.4886 71.9025 29.1375 71.0462 29.8431C63.7893 35.8403 28.5684 42.6721 3.23803 30.1696" stroke="url(#paint23_linear_6557_108969)" stroke-width="0.083538" stroke-miterlimit="10"/>
<path id="Vector_25" opacity="0.5" d="M221.995 10.3275C212.98 7.34424 198.675 3.52317 187.226 4.53768C182.165 4.98648 179.194 6.5123 176.59 8.05926C175.143 8.92403 173.509 9.82612 171.625 10.7255C168.852 12.049 165.873 13.3706 162.653 14.5925C157.307 16.6143 149.964 18.8362 143.728 18.6523C139.363 18.5242 136.137 16.4448 139.853 15.7644C141.646 15.4365 144.602 16.1543 145.853 17.3095C147.096 18.4581 146.822 19.9173 145.591 21.1882C143.942 22.8903 141.139 24.2879 137.693 25.2525C131.728 26.9218 123.87 27.3103 116.37 25.7481C102.712 22.9137 93.4732 25.8974 93.1261 27.8909C93.0885 28.105 93.2411 28.3051 93.4785 28.4697C94.438 29.1357 95.6447 29.2845 96.6342 29.1937C98.954 28.981 100.44 27.5127 95.5222 25.8857C95.1526 25.7634 94.726 25.6087 94.1866 25.4544C92.5287 24.7484 89.4816 24.479 84.9817 25.1068C81.7981 25.5511 77.8108 26.4316 74.6261 28.1499C73.5441 28.7327 72.5814 29.3785 71.7046 30.0791C64.2704 36.0322 26.661 42.5488 3.33128 29.4316" stroke="url(#paint24_linear_6557_108969)" stroke-width="0.083538" stroke-miterlimit="10"/>
<path id="Vector_26" opacity="0.5" d="M221.893 10.0036C212.743 7.07656 198.198 3.33419 186.726 4.53488C181.646 5.06642 178.761 6.70107 176.275 8.33302C174.892 9.245 173.318 10.1867 171.492 11.1175C168.814 12.4833 165.883 13.831 162.667 15.0587C157.347 17.0828 149.843 19.2692 143.465 18.9405C139.002 18.7107 135.724 16.4626 139.666 15.6433C141.599 15.2413 144.748 15.9163 146.137 17.0657C147.52 18.2097 147.344 19.6879 146.185 20.9798C144.631 22.713 141.897 24.148 138.498 25.1485C132.594 26.8866 124.705 27.33 117.163 25.7624C103.307 22.8915 94.1022 26.1815 94.0979 28.238C94.0979 28.4624 94.2794 28.6679 94.5524 28.8379C95.6547 29.5236 96.986 29.6662 98.0777 29.5421C100.657 29.2489 102.207 27.5095 96.7518 25.824C96.3252 25.6922 95.8363 25.5348 95.2389 25.3788C93.3296 24.6687 90.0966 24.4888 85.5688 25.2142C82.3895 25.7237 78.4967 26.6703 75.3088 28.3944C74.2311 28.9768 73.2565 29.6194 72.3583 30.3151C64.7468 36.2241 24.7489 42.4259 3.4198 28.6935" stroke="url(#paint25_linear_6557_108969)" stroke-width="0.083538" stroke-miterlimit="10"/>
<path id="Vector_27" opacity="0.5" d="M221.793 9.67982C212.508 6.8085 197.723 3.14572 186.227 4.53168C181.128 5.14642 178.33 6.88945 175.961 8.60594C174.643 9.56515 173.129 10.5459 171.361 11.5092C168.777 12.9176 165.893 14.291 162.681 15.5245C157.388 17.5509 149.723 19.7022 143.204 19.2282C138.642 18.8968 135.314 16.4779 139.48 15.5214C141.555 15.0447 144.895 15.677 146.423 16.8206C147.946 17.9601 147.867 19.4576 146.781 20.7707C145.322 22.5349 142.659 24.0067 139.306 25.0442C133.463 26.8506 125.544 27.3493 117.961 25.7767C103.905 22.8694 94.7383 26.4603 95.0725 28.5846C95.109 28.8185 95.3207 29.0303 95.6301 29.2057C96.8744 29.9108 98.3313 30.0475 99.5251 29.8901C102.366 29.5164 103.968 27.5081 97.9854 25.7619C97.5019 25.6207 96.9507 25.4601 96.2942 25.3027C94.1323 24.5886 90.7113 24.4978 86.1577 25.3212C82.9827 25.8954 79.1834 26.9091 75.9944 28.6381C74.9199 29.2201 73.9346 29.8595 73.0149 30.5503C65.2261 36.4152 22.8397 42.3022 3.51123 27.9546" stroke="url(#paint26_linear_6557_108969)" stroke-width="0.083538" stroke-miterlimit="10"/>
<path id="Vector_28" opacity="0.5" d="M221.692 9.35653C212.272 6.54142 197.248 2.95779 185.727 4.52948C180.61 5.22741 177.898 7.07926 175.647 8.8803C174.394 9.88672 172.939 10.9071 171.23 11.9018C168.74 13.3525 165.905 14.7515 162.696 15.9914C157.43 18.0199 149.604 20.1358 142.943 19.517C138.282 19.0844 134.905 16.4923 139.294 15.4005C141.513 14.8487 145.043 15.4391 146.709 16.5769C148.371 17.7115 148.391 19.2287 147.377 20.563C146.014 22.3586 143.421 23.8674 140.113 24.9408C134.332 26.816 126.381 27.37 118.756 25.7916C104.501 22.8483 95.3734 26.7342 96.046 28.9323C96.1201 29.1756 96.3608 29.3937 96.7068 29.5745C98.0918 30.2985 99.6755 30.4293 100.971 30.2396C104.073 29.7845 105.723 27.5103 99.2178 25.7012C98.6774 25.551 98.0638 25.3869 97.3493 25.2281C94.9361 24.51 91.3248 24.5082 86.7476 25.4301C83.5737 26.0691 79.8721 27.1497 76.6799 28.8842C75.6098 29.4656 74.6116 30.1019 73.6714 30.7877C65.7054 36.6086 20.9315 42.1808 3.60153 27.2176" stroke="url(#paint27_linear_6557_108969)" stroke-width="0.083538" stroke-miterlimit="10"/>
<path id="Vector_29" opacity="0.5" d="M221.592 9.03315C212.036 6.27426 196.776 2.77021 185.227 4.52673C180.094 5.30786 177.466 7.26809 175.334 9.15412C174.145 10.2078 172.748 11.2677 171.099 12.2943C168.701 13.7873 165.917 15.2124 162.71 16.4581C157.471 18.4894 149.484 20.5692 142.682 19.8056C137.922 19.2714 134.497 16.5053 139.109 15.2799C141.472 14.6521 145.191 15.2012 146.996 16.3331C148.798 17.4632 148.921 19.0002 147.975 20.3552C146.714 22.1827 144.184 23.7279 140.922 24.8373C135.204 26.7813 127.221 27.3902 119.554 25.8064C105.1 22.8267 96.0116 27.0039 97.0226 29.2799C97.1344 29.5317 97.403 29.7565 97.7855 29.9427C99.3102 30.6856 101.023 30.8106 102.42 30.588C105.783 30.052 107.473 27.513 100.452 25.6396C99.8538 25.4799 99.1791 25.3126 98.4055 25.1525C95.7408 24.4303 91.9372 24.5176 87.3385 25.5375C84.1656 26.2413 80.5608 27.3884 77.3675 29.1283C76.3006 29.7089 75.2917 30.3425 74.33 31.0238C66.1867 36.8006 19.0243 42.058 3.69497 26.4796" stroke="url(#paint28_linear_6557_108969)" stroke-width="0.083538" stroke-miterlimit="10"/>
<path id="Vector_30" opacity="0.5" d="M221.491 8.70889C211.8 6.00576 196.309 2.58851 184.728 4.52356C179.58 5.39102 177.035 7.45648 175.019 9.42705C173.895 10.5279 172.556 11.6274 170.968 12.6856C168.662 14.2213 165.928 15.672 162.725 16.9235C157.513 18.957 149.365 21.0014 142.421 20.093C137.562 19.4571 134.087 16.5156 138.923 15.1575C141.431 14.4533 145.342 14.9606 147.282 16.088C149.226 17.2118 149.444 18.7695 148.57 20.146C147.403 22.0042 144.946 23.5871 141.729 24.7325C136.073 26.7458 128.06 27.4091 120.349 25.8203C105.696 22.8042 96.6434 27.2688 97.9962 29.6261C98.1455 29.8865 98.4432 30.1185 98.8622 30.3101C100.527 31.0719 102.368 31.1924 103.866 30.9356C107.492 30.3204 109.218 27.5161 101.685 25.5775C101.028 25.4084 100.292 25.238 99.4607 25.0765C96.5435 24.3502 92.5465 24.5261 87.9274 25.6445C84.7535 26.413 81.2475 27.6272 78.0531 29.3725C76.9905 29.9526 75.9697 30.5826 74.9866 31.2594C66.666 36.9921 17.1151 41.9343 3.78637 25.7412" stroke="url(#paint29_linear_6557_108969)" stroke-width="0.083538" stroke-miterlimit="10"/>
<path id="Vector_31" opacity="0.5" d="M221.392 8.38504C211.565 5.73812 195.835 2.39687 184.23 4.52034C179.064 5.4692 176.606 7.64484 174.707 9.7004C173.648 10.8485 172.364 11.9867 170.839 13.0772C168.621 14.6543 165.942 16.132 162.741 17.3893C157.555 19.4251 149.247 21.4343 142.162 20.3803C137.204 19.6428 133.681 16.525 138.739 15.0352C141.391 14.254 145.489 14.7213 147.569 15.8424C149.652 16.9621 149.968 18.5383 149.168 19.9364C148.095 21.8251 145.714 23.4472 142.539 24.6272C136.951 26.712 128.899 27.4275 121.148 25.8333C106.296 22.7812 97.277 27.5295 98.9736 29.9718C99.1606 30.2403 99.4861 30.4796 99.9417 30.677C101.746 31.4576 103.715 31.5714 105.315 31.2827C109.201 30.5843 110.964 27.5201 102.919 25.5145C102.204 25.3364 101.407 25.1623 100.517 24.9995C97.3479 24.2697 93.1543 24.5341 88.518 25.7505C85.3408 26.5838 81.937 27.865 78.7394 29.6157C77.6799 30.1953 76.6474 30.8222 75.6438 31.4941C67.1459 37.1832 15.2076 41.8101 3.87844 25.0018" stroke="url(#paint30_linear_6557_108969)" stroke-width="0.083538" stroke-miterlimit="10"/>
<path id="Vector_32" opacity="0.5" d="M221.291 8.06176C211.328 5.47105 195.359 2.2058 183.729 4.51815C178.545 5.54885 176.172 7.83466 174.392 9.97477C171.96 12.8969 168.164 15.7187 162.753 17.8566C157.596 19.8946 149.125 21.8684 141.898 20.6695C136.841 19.8308 133.269 16.5358 138.551 14.9151C141.348 14.0567 145.632 14.4843 147.853 15.5996C150.073 16.7148 150.486 18.3099 149.762 19.7296C147.049 25.0428 134.145 28.353 121.942 25.8491C105.246 22.4233 96.0109 28.9862 101.017 31.0462C108.116 33.9679 117.315 27.651 101.571 24.9254C95.0428 23.5241 84.9751 26.0865 76.2999 31.7316C67.6247 37.3766 13.2978 41.6888 3.96825 24.2652" stroke="url(#paint31_linear_6557_108969)" stroke-width="0.083538" stroke-miterlimit="10"/>
<path id="Vector_33" opacity="0.5" d="M220.993 7.80153C211.353 5.29447 195.883 2.37054 184.396 4.80026C179.349 5.86784 176.98 8.12171 175.193 10.2483C172.754 13.1502 168.977 15.9523 163.619 18.0848C158.497 20.1241 150.148 22.0911 142.977 20.9709C137.955 20.188 134.357 17.019 139.312 15.4581C140.436 15.1037 141.823 14.9773 143.204 15.034C145.045 15.1082 146.87 15.5062 148.041 16.1205C150.105 17.1966 150.402 18.7355 149.616 20.1079C146.678 25.2385 133.885 28.4876 121.766 26.1087C105.35 22.8862 96.1814 29.2885 100.863 31.3661C107.485 34.3053 116.275 28.2133 100.811 25.6154C94.2377 24.3045 84.3913 26.8588 75.5281 32.2713C66.4876 37.7914 12.9074 41.7298 3.84327 24.5091" stroke="url(#paint32_linear_6557_108969)" stroke-width="0.083538" stroke-miterlimit="10"/>
<path id="Vector_34" opacity="0.5" d="M220.694 7.54234C211.376 5.11847 196.408 2.53406 185.062 5.08384C180.154 6.18695 177.788 8.4107 175.992 10.5238C173.546 13.4055 169.789 16.1882 164.482 18.3144C159.396 20.3547 151.168 22.3149 144.053 21.2734C139.066 20.5462 135.442 17.5031 140.071 16.0025C141.119 15.6616 142.421 15.5411 143.715 15.596C145.442 15.6675 147.149 16.052 148.228 16.6429C150.129 17.6826 150.316 19.1616 149.468 20.4878C146.305 25.4349 133.628 28.6237 121.589 26.3698C105.458 23.3496 96.3459 29.5896 100.707 31.6875C106.848 34.6411 115.233 28.7766 100.05 26.3073C93.4309 25.0864 83.7887 27.633 74.7535 32.8126C65.3348 38.2121 12.5154 41.7724 3.71445 24.7549" stroke="url(#paint33_linear_6557_108969)" stroke-width="0.083538" stroke-miterlimit="10"/>
<path id="Vector_35" opacity="0.5" d="M220.396 7.28273C211.398 4.94251 196.937 2.69492 185.729 5.36657C180.958 6.50386 178.596 8.69883 176.793 10.7985C174.338 13.6599 170.601 16.4233 165.346 18.5431C160.297 20.5848 152.19 22.5382 145.13 21.575C140.178 20.9036 136.528 17.9864 140.83 16.546C141.801 16.2191 143.018 16.104 144.225 16.1575C145.84 16.2268 147.43 16.5969 148.416 17.1644C150.156 18.1663 150.232 19.5869 149.322 20.8667C145.935 25.6299 133.375 28.7594 121.412 26.63C105.572 23.8109 96.5053 29.8867 100.553 32.0084C106.208 34.9728 114.193 29.3399 99.2893 26.9983C92.6244 25.8678 83.1691 28.4059 73.9814 33.3535C64.1705 38.6365 12.1247 41.8141 3.58809 24.9999" stroke="url(#paint34_linear_6557_108969)" stroke-width="0.083538" stroke-miterlimit="10"/>
<path id="Vector_36" opacity="0.5" d="M220.097 7.02269C211.421 4.76611 197.467 2.85265 186.395 5.64932C181.761 6.81943 179.403 8.98697 177.594 11.0727C175.131 13.9139 171.413 16.6575 166.21 18.7719C161.197 20.8145 153.211 22.7616 146.206 21.8766C141.29 21.261 137.613 18.4697 141.59 17.0896C142.485 16.7762 143.615 16.6664 144.737 16.7186C146.24 16.7852 147.712 17.1413 148.604 17.6855C150.184 18.6496 150.148 20.0113 149.174 21.2453C145.566 25.8232 133.127 28.8942 121.235 26.8899C105.691 24.2699 96.6588 30.1798 100.397 32.3285C105.565 35.2992 113.151 29.9024 98.5273 27.689C91.8173 26.6488 82.5297 29.1775 73.2066 33.8934C62.9884 39.0632 11.7324 41.8553 3.459 25.244" stroke="url(#paint35_linear_6557_108969)" stroke-width="0.083538" stroke-miterlimit="10"/>
<path id="Vector_37" opacity="0.5" d="M219.799 6.76315C211.444 4.59021 197.998 3.00863 187.062 5.93211C182.566 7.1337 180.212 9.27471 178.395 11.3474C175.925 14.1679 172.225 16.8926 167.075 19.0008C162.1 21.0442 154.235 22.9851 147.286 22.1783C142.404 21.6184 138.71 18.9571 142.351 17.6328C143.172 17.3342 144.215 17.229 145.25 17.2798C146.64 17.3436 147.995 17.6854 148.795 18.207C150.214 19.1334 150.067 20.4362 149.031 21.6243C145.204 26.016 132.887 29.029 121.063 27.1497C105.82 24.7277 96.8143 30.4689 100.247 32.6486C104.928 35.6207 112.115 30.4649 97.7717 28.3796C91.0165 27.4294 81.8772 29.9468 72.4391 34.4339C61.7976 39.493 11.3463 41.8971 3.3373 25.489" stroke="url(#paint36_linear_6557_108969)" stroke-width="0.083538" stroke-miterlimit="10"/>
<path id="Vector_38" opacity="0.5" d="M219.5 6.50323C211.466 4.41394 198.531 3.16153 187.727 6.21497C183.369 7.44669 181.018 9.56297 179.193 11.6221C176.716 14.4224 173.036 17.1278 167.937 19.2297C162.997 21.2744 155.253 23.2086 148.361 22.4801C143.514 21.976 139.795 19.4415 143.109 18.1765C143.854 17.8918 144.811 17.7915 145.758 17.841C147.037 17.9021 148.274 18.23 148.98 18.7282C150.238 19.6164 149.981 20.8603 148.882 22.0029C144.838 26.2076 132.647 29.1635 120.884 27.4096C105.949 25.1832 96.9607 30.754 100.09 32.9688C104.283 35.9368 111.072 31.0275 97.0091 29.0699C90.2088 28.2101 81.1984 30.714 71.6636 34.974C60.5827 39.9247 10.9522 41.9385 3.20861 25.7332" stroke="url(#paint37_linear_6557_108969)" stroke-width="0.083538" stroke-miterlimit="10"/>
<path id="Vector_39" opacity="0.5" d="M219.201 6.24391C211.488 4.23827 199.062 3.31234 188.394 6.49799C184.172 7.75849 181.827 9.85138 179.995 11.8966C177.509 14.6766 173.849 17.3622 168.802 19.4583C163.898 21.5039 156.279 23.4255 149.438 22.782C144.628 22.3291 140.885 19.9259 143.868 18.7203C144.538 18.4496 145.408 18.3547 146.27 18.4028C147.436 18.4613 148.554 18.7747 149.168 19.2505C150.263 20.1004 149.898 21.2849 148.735 22.3826C144.476 26.3993 132.413 29.2985 120.707 27.6706C106.086 25.6375 97.1067 31.0353 99.9347 33.29C103.645 36.2481 110.03 31.5911 96.2482 29.7617C89.4028 28.9923 80.503 31.4796 70.8909 35.5151C59.3544 40.3588 10.5621 41.9809 3.08169 25.9784" stroke="url(#paint38_linear_6557_108969)" stroke-width="0.083538" stroke-miterlimit="10"/>
<path id="Vector_40" opacity="0.5" d="M218.902 5.98384C211.511 4.06184 199.594 3.46014 189.06 6.78071C184.974 8.06864 182.634 10.1395 180.795 12.1712C178.301 14.931 174.661 17.5973 169.667 19.6875C164.8 21.7345 157.301 23.6488 150.516 23.084C145.741 22.6865 141.974 20.4106 144.629 19.2638C145.223 19.0071 146.006 18.9176 146.782 18.9639C147.836 19.0197 148.835 19.3187 149.357 19.7716C150.29 20.5833 149.819 21.7079 148.589 22.7611C144.122 26.589 132.187 29.4315 120.532 27.9304C106.23 26.0884 97.2548 31.3108 99.782 33.6105C103.015 36.5529 108.991 32.154 95.4895 30.4523C88.599 29.7728 79.7905 32.2408 70.1193 36.0555C58.1101 40.7922 10.1719 42.0221 2.95585 26.2234" stroke="url(#paint39_linear_6557_108969)" stroke-width="0.083538" stroke-miterlimit="10"/>
<path id="Vector_41" opacity="0.5" d="M218.604 5.72418C211.534 3.88537 200.125 3.60521 189.726 7.06338C185.775 8.3774 183.442 10.4271 181.596 12.4458C179.095 15.1854 175.474 17.8323 170.531 19.9162C165.7 21.9641 158.323 23.8713 151.593 23.3856C146.852 23.0434 143.063 20.8947 145.388 19.8073C145.907 19.5645 146.604 19.48 147.293 19.5254C148.234 19.5789 149.115 19.8631 149.544 20.2935C150.314 21.0665 149.737 22.1318 148.442 23.1405C143.77 26.7786 131.963 29.5644 120.355 28.191C106.379 26.5375 97.4023 31.5822 99.6264 33.9314C102.392 36.8518 107.949 32.7172 94.7279 31.1438C87.7923 30.5547 79.058 32.9988 69.3459 36.5963C56.8478 41.226 9.78103 42.0642 2.8282 26.4683" stroke="url(#paint40_linear_6557_108969)" stroke-width="0.083538" stroke-miterlimit="10"/>
<path id="Vector_42" opacity="0.5" d="M218.306 5.46451C211.557 3.70935 200.655 3.74758 190.393 7.34605C186.575 8.68525 184.251 10.7152 182.397 12.7199C179.888 15.4388 176.287 18.0664 171.396 20.1444C166.602 22.1932 159.345 24.0937 152.671 23.6867C147.966 23.3998 144.154 21.3784 146.149 20.3504C146.593 20.1215 147.203 20.0423 147.806 20.0864C148.636 20.1372 149.396 20.4066 149.734 20.8145C150.34 21.5488 149.661 22.5544 148.297 23.519C143.423 26.9668 131.747 29.6955 120.181 28.4508C106.537 26.9825 97.5568 31.8482 99.4737 34.2514C101.782 37.1439 106.911 33.2796 93.9692 31.8338C86.9884 31.3351 78.3111 33.7514 68.5743 37.1362C55.5701 41.657 9.39087 42.1054 2.70343 26.7123" stroke="url(#paint41_linear_6557_108969)" stroke-width="0.083538" stroke-miterlimit="10"/>
<path id="Vector_43" opacity="0.5" d="M218.006 5.20533C211.579 3.5338 201.18 3.88771 191.059 7.62964C187.372 8.99267 185.057 11.0042 183.196 12.9954C180.678 15.6941 177.097 18.3023 172.258 20.3745C167.499 22.4247 160.363 24.3174 153.746 23.9896C149.075 23.7585 145.244 21.8639 146.906 20.8948C147.274 20.6798 147.798 20.6061 148.314 20.6484C149.031 20.6965 149.673 20.9506 149.919 21.3369C150.36 22.0316 149.58 22.9782 148.148 23.8988C143.079 27.1564 131.531 29.8262 120.001 28.7114C106.695 27.4249 97.7127 32.1107 99.3169 34.5723C101.18 37.4315 105.868 33.8429 93.2064 32.5253C86.1805 32.117 77.544 34.5008 67.7997 37.6775C54.2733 42.0868 8.99879 42.1479 2.57459 26.9576" stroke="url(#paint42_linear_6557_108969)" stroke-width="0.083538" stroke-miterlimit="10"/>
<path id="Vector_44" opacity="0.5" d="M217.708 4.9449C211.602 3.35702 201.704 4.02437 191.726 7.91155C188.169 9.29707 185.866 11.2915 183.997 13.2692C181.472 15.9476 177.91 18.5365 173.124 20.6025C168.401 22.6535 161.386 24.5395 154.825 24.2909C150.188 24.115 146.337 22.3473 147.667 21.438C147.961 21.237 148.397 21.1682 148.826 21.2095C149.431 21.255 149.952 21.4933 150.107 21.858C150.384 22.5123 149.504 23.4009 148.002 24.2774C142.743 27.3443 131.325 29.9544 119.826 28.9713C106.864 27.8633 97.8803 32.3683 99.1632 34.8925C100.598 37.7143 104.828 34.4055 92.4467 33.216C85.3757 32.8976 76.7661 35.2446 67.0272 38.2175C52.9614 42.5121 8.60763 42.1893 2.44775 27.2022" stroke="url(#paint43_linear_6557_108969)" stroke-width="0.083538" stroke-miterlimit="10"/>
<path id="Vector_45" opacity="0.5" d="M217.41 4.68538C211.626 3.18114 202.225 4.15878 192.392 8.19481C188.964 9.60192 186.673 11.5801 184.798 13.544C182.266 16.2021 178.722 18.7712 173.988 20.8313C169.302 22.8837 162.407 24.7626 155.902 24.5926C151.301 24.472 147.43 22.8302 148.427 21.9816C148.647 21.7941 148.995 21.7311 149.338 21.7707C149.83 21.8134 150.232 22.0356 150.295 22.3796C150.408 22.9925 149.43 23.8236 147.855 24.6564C142.413 27.5331 131.122 30.0807 119.649 29.2316C107.036 28.2981 98.0579 32.6233 99.0088 35.2135C100.03 37.994 103.788 34.9689 91.6864 33.9071C84.5702 33.6791 75.9735 35.9834 66.255 38.7585C51.6348 42.9335 8.21689 42.231 2.32133 27.4472" stroke="url(#paint44_linear_6557_108969)" stroke-width="0.083538" stroke-miterlimit="10"/>
<path id="Vector_46" opacity="0.5" d="M217.112 4.42544C211.649 3.00484 202.74 4.29053 193.059 8.4772C189.757 9.90499 187.481 11.8675 185.599 13.8183C183.059 16.4562 179.534 19.006 174.852 21.0602C170.203 23.1135 163.428 24.9856 156.979 24.8943C152.413 24.8295 148.527 23.3127 149.186 22.5248C149.332 22.3508 149.592 22.2937 149.849 22.3319C150.229 22.3719 150.512 22.577 150.483 22.9008C150.433 23.471 149.358 24.2463 147.709 25.0351C142.091 27.722 130.925 30.2043 119.474 29.4915C107.215 28.7284 98.2494 32.8755 98.8554 35.5337C99.4785 38.2701 102.748 35.531 90.928 34.5979C83.7667 34.4603 75.171 36.7168 65.4837 39.299C50.2929 43.3481 7.82811 42.2728 2.19578 27.6919" stroke="url(#paint45_linear_6557_108969)" stroke-width="0.083538" stroke-miterlimit="10"/>
<path id="Vector_47" opacity="0.5" d="M216.813 4.16638C211.672 2.82898 203.249 4.42091 193.725 8.76094C190.548 10.2085 188.29 12.1566 186.4 14.0939C183.851 16.7111 180.347 19.242 175.716 21.2899C171.104 23.3446 164.449 25.21 158.056 25.1969C153.524 25.1879 149.622 23.7943 149.946 23.0694C150.018 22.9084 150.19 22.8571 150.361 22.894C150.629 22.9318 150.794 23.1189 150.672 23.4229C150.46 23.9495 149.288 24.6699 147.562 25.4146C141.774 27.9126 130.731 30.3262 119.297 29.7523C107.397 29.1552 98.4549 33.1273 98.6999 35.8547C98.9427 38.5457 101.706 36.0944 90.1665 35.289C82.9601 35.2414 74.3548 37.4449 64.7104 39.8395C48.9362 43.7564 7.43626 42.3146 2.06932 27.9369" stroke="url(#paint46_linear_6557_108969)" stroke-width="0.083538" stroke-miterlimit="10"/>
<path id="Vector_48" opacity="0.5" d="M216.514 3.90603C211.694 2.65228 203.752 4.5473 194.391 9.04292C191.337 10.5094 189.096 12.444 187.198 14.3678C184.642 16.9648 181.157 19.4759 176.579 21.518C172.002 23.5735 165.469 25.4326 159.132 25.4978C154.634 25.5446 150.715 24.2719 150.704 23.6122C150.702 23.4638 150.787 23.4193 150.871 23.4548C151.025 23.4899 151.076 23.6585 150.858 23.9441C150.49 24.4266 149.217 25.0931 147.414 25.7932C141.463 28.1042 130.54 30.4436 119.119 30.0123C107.581 29.5765 98.6732 33.3783 98.5443 36.1749C98.4218 38.8205 100.665 36.657 89.4049 35.9798C82.1534 36.0225 73.5298 38.1675 63.9359 40.3801C47.5633 44.1562 7.04429 42.3565 1.9406 28.1816" stroke="url(#paint47_linear_6557_108969)" stroke-width="0.083538" stroke-miterlimit="10"/>
<path id="Vector_49" opacity="0.5" d="M216.216 3.64642C211.717 2.47631 204.25 4.67263 195.057 9.3261C192.124 10.811 189.904 12.7326 187.999 14.6424C185.435 17.2192 181.97 19.711 177.444 21.7467C172.903 23.8032 166.491 25.6555 160.209 25.7999C155.746 25.9024 151.803 24.7489 151.464 24.1558C151.387 24.0195 151.385 23.9822 151.383 24.0159C151.426 24.0483 151.362 24.1989 151.046 24.4651C150.527 24.9032 149.15 25.517 147.268 26.1718C141.159 28.2975 130.354 30.5572 118.945 30.2716C107.772 29.9924 98.9134 33.6291 98.3912 36.495C97.9174 39.0956 99.6258 37.2195 88.6459 36.6704C81.3492 36.8035 72.6998 38.8842 63.165 40.92C46.1832 44.5459 6.65483 42.3977 1.81546 28.4256" stroke="url(#paint48_linear_6557_108969)" stroke-width="0.083538" stroke-miterlimit="10"/>
<path id="Vector_50" opacity="0.5" d="M215.917 3.38648C211.739 2.30001 204.74 4.79538 195.723 9.60849C192.909 11.1109 190.711 13.0199 188.799 14.9167C186.227 17.4732 182.782 19.9457 178.307 21.9756C173.803 24.0334 167.511 25.879 161.286 26.1016C156.857 26.2599 152.88 25.2251 152.222 24.6994C152.067 24.5753 151.981 24.5447 151.892 24.5776C151.822 24.6072 151.649 24.7403 151.232 24.9872C150.567 25.3816 149.082 25.9419 147.119 26.5508C140.858 28.4935 130.168 30.6669 118.765 30.532C107.961 30.4043 99.1635 33.8831 98.233 36.8156C97.4217 39.3735 98.5811 37.7825 87.8816 37.3611C80.5398 37.5841 71.8593 39.5961 62.389 41.4605C44.7861 44.9259 6.26128 42.4391 1.68515 28.6707" stroke="url(#paint49_linear_6557_108969)" stroke-width="0.083538" stroke-miterlimit="10"/>
<path id="Vector_51" opacity="0.5" d="M215.618 3.12709C211.761 2.12427 205.222 4.91644 196.389 9.89189C193.691 11.4114 191.519 13.3087 189.6 15.192C187.02 17.7283 183.594 20.181 179.172 22.205C174.704 24.2638 168.533 26.1035 162.364 26.4039C157.97 26.6179 153.953 25.7046 152.984 25.2436C152.75 25.1321 152.581 25.1083 152.405 25.1393C152.223 25.1663 151.942 25.2828 151.423 25.509C150.614 25.8615 149.02 26.3679 146.976 26.93C140.568 28.6924 129.99 30.7722 118.593 30.7925C108.159 30.8109 99.4383 34.1404 98.0834 37.1363C96.9445 39.6542 97.5462 38.3456 87.1261 38.0524C79.7391 38.3658 71.0242 40.3027 61.6205 42.0016C43.388 45.2952 5.87426 42.4814 1.56245 28.9159" stroke="url(#paint50_linear_6557_108969)" stroke-width="0.083538" stroke-miterlimit="10"/>
<path id="Vector_52" opacity="0.5" d="M215.32 2.86782C211.785 1.94864 205.698 5.03626 197.056 10.1749C194.472 11.7111 192.328 13.5971 190.4 15.4665C187.813 17.9821 184.407 20.4159 180.036 22.4337C175.605 24.4938 169.553 26.3267 163.441 26.7054C159.081 26.9756 155.023 26.1864 153.743 25.7866C153.428 25.6886 153.178 25.6706 152.915 25.7003C152.621 25.7246 152.233 25.8258 151.61 26.0304C150.658 26.3429 148.957 26.7944 146.829 27.3089C140.276 28.8936 129.807 30.8714 118.415 31.0526C108.351 31.2127 99.7231 34.401 97.9277 37.4567C96.4707 39.9377 96.504 38.9083 86.3643 38.7428C78.9323 39.1467 70.1808 41.0039 60.8469 42.5414C41.9762 45.6502 5.48213 42.5226 1.43571 29.1598" stroke="url(#paint51_linear_6557_108969)" stroke-width="0.083538" stroke-miterlimit="10"/>
<path id="Vector_53" opacity="0.5" d="M215.022 2.60802C211.808 1.77249 206.164 5.15376 197.723 10.4579C195.251 12.0107 193.135 13.8855 191.201 15.7414C188.606 18.2368 185.218 20.6512 180.9 22.6632C176.504 24.7241 170.574 26.5512 164.518 27.0077C160.193 27.3337 156.096 26.6718 154.503 26.3309C154.109 26.2468 153.775 26.2338 153.427 26.2625C153.021 26.2841 152.526 26.3709 151.798 26.5526C150.703 26.8265 148.895 27.2226 146.682 27.6885C139.987 29.0988 129.623 30.9655 118.238 31.3135C108.544 31.6094 100.022 34.6669 97.7732 37.7779C96.0035 40.2256 95.4631 39.4719 85.6038 39.4346C78.1266 39.9288 69.3375 41.7011 60.0735 43.083C40.5603 45.9939 5.09124 42.5654 1.30806 29.4059" stroke="url(#paint52_linear_6557_108969)" stroke-width="0.083538" stroke-miterlimit="10"/>
<path id="Vector_54" opacity="0.5" d="M214.723 2.34799C211.831 1.59565 206.622 5.27012 198.389 10.7402C196.028 12.3092 193.943 14.1728 192.002 16.0156C189.398 18.4908 186.031 20.8854 181.764 22.8915C177.405 24.9538 171.596 26.7746 165.595 27.3093C161.304 27.6916 157.173 27.1569 155.262 26.8745C154.79 26.8048 154.372 26.7967 153.938 26.8237C153.419 26.843 152.815 26.9158 151.986 27.0741C150.745 27.3107 148.832 27.6511 146.535 28.0675C139.698 29.3064 129.437 31.0526 118.063 31.5734C108.734 32.0006 100.333 34.9371 97.619 38.0985C95.542 40.5174 94.4235 40.0349 84.8447 40.1257C77.3224 40.7098 68.4968 42.3926 59.3026 43.6234C39.1425 46.3221 4.70173 42.6071 1.18287 29.6505" stroke="url(#paint53_linear_6557_108969)" stroke-width="0.083538" stroke-miterlimit="10"/>
<path id="Vector_55" opacity="0.5" d="M214.424 2.08811C211.852 1.41941 207.069 5.38529 199.055 11.0227C196.801 12.6079 194.749 14.4606 192.801 16.2895C190.19 18.7444 186.842 21.1197 182.628 23.1195C178.306 25.1828 172.616 26.9977 166.672 27.6102C162.416 28.0487 158.254 27.6421 156.022 27.4168C155.473 27.3615 154.972 27.3584 154.45 27.384C153.82 27.4007 153.105 27.4605 152.175 27.5945C150.787 27.7946 148.771 28.0801 146.39 28.4453C139.41 29.516 129.248 31.1309 117.888 31.8324C108.922 32.386 100.654 35.2114 97.4653 38.4178C95.0843 40.812 93.3835 40.5966 84.0851 40.8151C76.5176 41.4897 67.6587 43.0784 58.5301 44.1627C37.7232 46.6342 4.31172 42.6472 1.05611 29.8938" stroke="url(#paint54_linear_6557_108969)" stroke-width="0.083538" stroke-miterlimit="10"/>
<path id="Vector_56" opacity="0.5" d="M214.125 1.82874C211.875 1.24368 207.509 5.50006 199.721 11.3061C197.573 12.907 195.557 14.7494 193.602 16.5649C190.983 18.9995 187.655 21.3555 183.492 23.3494C179.206 25.4136 173.638 27.2227 167.749 27.913C163.529 28.4076 159.336 28.1288 156.781 27.9615C156.155 27.9206 155.568 27.922 154.96 27.9462C154.216 27.9602 153.391 28.007 152.361 28.1171C150.822 28.2808 148.707 28.512 146.241 28.8254C139.116 29.7311 129.048 31.2043 117.71 32.0938C109.102 32.7692 100.979 35.494 97.3098 38.7394C94.6258 41.1134 92.3415 41.1606 83.3235 41.5073C75.7099 42.2722 66.823 43.7625 57.7567 44.7047C36.304 46.9334 3.91979 42.6905 0.929565 30.1403" stroke="url(#paint55_linear_6557_108969)" stroke-width="0.083538" stroke-miterlimit="10"/>
<path id="Vector_57" opacity="0.5" d="M213.827 1.56843C211.9 1.06702 207.938 5.61346 200.388 11.5881C198.344 13.2052 196.365 15.0369 194.402 16.8388C191.776 19.2528 188.467 21.5894 184.356 23.5775C180.105 25.643 174.659 27.4462 168.826 28.2139C164.64 28.7648 160.419 28.6137 157.541 28.5044C156.838 28.4779 156.165 28.4842 155.471 28.5071C154.615 28.5183 153.678 28.5525 152.549 28.6379C150.859 28.7657 148.643 28.9433 146.094 29.2037C138.821 29.9466 128.842 31.2673 117.533 32.3533C109.276 33.1462 101.311 35.7796 97.1548 39.0592C94.1667 41.417 91.3011 41.7228 82.5625 42.1972C74.9038 43.0521 65.9922 44.4403 56.9829 45.2439C34.8876 47.2145 3.52843 42.731 0.801447 30.3837" stroke="url(#paint56_linear_6557_108969)" stroke-width="0.083538" stroke-miterlimit="10"/>
<path id="Vector_58" opacity="0.5" d="M213.528 1.3092C211.922 0.89143 208.358 5.72747 201.054 11.8717C199.112 13.505 197.173 15.3254 195.202 17.1138C192.568 19.5075 189.279 21.8248 185.221 23.8066C181.007 25.873 175.682 27.6709 169.903 28.5159C165.753 29.123 161.503 29.0996 158.3 29.0479C157.521 29.0353 156.764 29.047 155.982 29.0681C155.014 29.0766 153.965 29.0982 152.736 29.1594C150.894 29.2511 148.578 29.3761 145.948 29.5825C138.522 30.1649 128.623 31.3229 117.358 32.6135C109.443 33.5201 101.647 36.0712 97.001 39.3796C93.7078 41.7253 90.2609 42.2851 81.8027 42.8882C74.0989 43.8334 65.1701 45.116 56.2112 45.7847C33.481 47.4809 3.13823 42.7731 0.675569 30.6285" stroke="url(#paint57_linear_6557_108969)" stroke-width="0.083538" stroke-miterlimit="10"/>
<path id="Vector_59" opacity="0.5" d="M213.229 1.04932C211.944 0.71519 208.768 5.84083 201.719 12.1541C199.878 13.8041 197.98 15.6132 196.002 17.3882C193.36 19.7617 190.09 22.0596 186.084 24.0351C181.906 26.1028 176.706 27.8985 170.979 28.8177C166.866 29.4841 162.588 29.5848 159.059 29.5916C158.203 29.5934 157.36 29.6096 156.493 29.6298C155.412 29.6357 154.249 29.6442 152.924 29.6811C150.926 29.7364 148.511 29.8101 145.8 29.9617C138.217 30.3853 128.388 31.3697 117.18 32.8739C109.596 33.8916 101.981 36.3672 96.8456 39.7008C93.245 42.0379 89.219 42.8487 81.0413 43.5799C73.2923 44.6155 64.3538 45.7888 55.4369 46.3262C32.0813 47.7328 2.74534 42.8158 0.546996 30.8746" stroke="url(#paint58_linear_6557_108969)" stroke-width="0.083538" stroke-miterlimit="10"/>
<path id="Vector_60" opacity="0.5" d="M212.932 0.790043C211.969 0.539112 209.171 5.95436 202.388 12.4376C200.644 14.1042 198.789 15.9021 196.805 17.6636C194.155 20.0168 190.905 22.295 186.95 24.2651C182.809 26.3337 177.73 28.1231 172.059 29.1205C167.981 29.8427 163.676 30.0707 159.821 30.1364C158.889 30.1521 157.96 30.1737 157.007 30.1921C155.814 30.1957 154.536 30.1908 153.114 30.2034C150.962 30.2223 148.445 30.2452 145.656 30.3414C137.91 30.6081 128.14 31.4095 117.006 33.1345C109.741 34.2601 102.319 36.6678 96.6929 40.0216C92.7818 42.3533 88.181 43.4119 80.2826 44.2708C72.4885 45.3964 63.55 46.4581 54.6664 46.8664C30.6984 47.9682 2.35734 42.857 0.422234 31.119" stroke="url(#paint59_linear_6557_108969)" stroke-width="0.083538" stroke-miterlimit="10"/>
<path id="Vector_61" opacity="0.5" d="M212.633 0.529685C211.991 0.362398 209.563 6.06771 203.054 12.7196C201.406 14.4033 199.597 16.1895 197.604 17.937C194.947 20.27 191.716 22.5289 187.812 24.4927C183.708 26.5626 178.749 28.3452 173.134 29.4209C169.091 30.1989 164.76 30.5569 160.579 30.6783C159.571 30.7089 158.556 30.7349 157.517 30.752C156.211 30.7529 154.819 30.7349 153.301 30.7237C150.993 30.7062 148.375 30.6792 145.508 30.7192C137.593 30.8298 127.866 31.4392 116.828 33.3935C109.87 34.6257 102.652 36.97 96.538 40.3409C92.3132 42.6703 87.1396 43.9736 79.5228 44.9606C71.6835 46.1766 62.7548 47.1237 53.8937 47.4061C29.3261 48.1886 1.96606 42.8979 0.296346 31.3627" stroke="url(#paint60_linear_6557_108969)" stroke-width="0.083538" stroke-miterlimit="10"/>
<path id="Vector_62" opacity="0.5" d="M212.335 0.270506C212.014 0.186862 209.945 6.18222 203.72 13.0032C202.167 14.7044 200.404 16.478 198.405 18.2125C195.739 20.5249 192.527 22.7648 188.677 24.7223C184.608 26.7932 179.772 28.5695 174.212 29.7234C170.204 30.5572 165.846 31.041 161.339 31.2227C160.255 31.2668 159.154 31.2983 158.027 31.314C156.61 31.3122 155.103 31.2812 153.488 31.2456C151.024 31.1917 148.302 31.1148 145.361 31.0986C137.271 31.0541 127.571 31.4628 116.651 33.6542C109.984 34.9921 102.982 37.2774 96.3823 40.6618C91.8395 42.9917 86.0976 44.5369 78.7612 45.6517C70.8768 46.9581 61.9684 47.7886 53.1203 47.9465C27.9703 48.3962 1.57513 42.9396 0.168663 31.6072" stroke="url(#paint61_linear_6557_108969)" stroke-width="0.083538" stroke-miterlimit="10"/>
<path id="Vector_63" opacity="0.5" d="M212.036 0.0107478C212.036 0.0107478 203.482 31.342 158.539 31.8758C144.427 31.8345 122.445 28.4123 96.2284 40.9831C70.0115 53.5544 1.92616 50.219 0.0415508 31.8533" stroke="url(#paint62_linear_6557_108969)" stroke-width="0.083538" stroke-miterlimit="10"/>
</g>
<defs>
<linearGradient id="paint0_linear_6557_108969" x1="74.9219" y1="15.2107" x2="98.3754" y2="71.0426" gradientUnits="userSpaceOnUse">
<stop stop-color="#1BA4E5" stop-opacity="0.5"/>
<stop offset="1" stop-color="#B40FE7"/>
</linearGradient>
<linearGradient id="paint1_linear_6557_108969" x1="75.6058" y1="15.1519" x2="98.847" y2="70.4784" gradientUnits="userSpaceOnUse">
<stop stop-color="#1BA4E5" stop-opacity="0.5"/>
<stop offset="1" stop-color="#B40FE7"/>
</linearGradient>
<linearGradient id="paint2_linear_6557_108969" x1="75.1927" y1="14.6258" x2="98.553" y2="70.2356" gradientUnits="userSpaceOnUse">
<stop stop-color="#1BA4E5" stop-opacity="0.5"/>
<stop offset="1" stop-color="#B40FE7"/>
</linearGradient>
<linearGradient id="paint3_linear_6557_108969" x1="74.7928" y1="14.0946" x2="98.272" y2="69.9877" gradientUnits="userSpaceOnUse">
<stop stop-color="#1BA4E5" stop-opacity="0.5"/>
<stop offset="1" stop-color="#B40FE7"/>
</linearGradient>
<linearGradient id="paint4_linear_6557_108969" x1="74.4125" y1="13.5551" x2="98.0108" y2="69.7316" gradientUnits="userSpaceOnUse">
<stop stop-color="#1BA4E5" stop-opacity="0.5"/>
<stop offset="1" stop-color="#B40FE7"/>
</linearGradient>
<linearGradient id="paint5_linear_6557_108969" x1="74.0404" y1="13.0114" x2="97.7577" y2="69.4712" gradientUnits="userSpaceOnUse">
<stop stop-color="#1BA4E5" stop-opacity="0.5"/>
<stop offset="1" stop-color="#B40FE7"/>
</linearGradient>
<linearGradient id="paint6_linear_6557_108969" x1="73.6828" y1="12.4624" x2="97.5191" y2="69.2054" gradientUnits="userSpaceOnUse">
<stop stop-color="#1BA4E5" stop-opacity="0.5"/>
<stop offset="1" stop-color="#B40FE7"/>
</linearGradient>
<linearGradient id="paint7_linear_6557_108969" x1="73.3381" y1="11.9078" x2="97.2934" y2="68.9341" gradientUnits="userSpaceOnUse">
<stop stop-color="#1BA4E5" stop-opacity="0.5"/>
<stop offset="1" stop-color="#B40FE7"/>
</linearGradient>
<linearGradient id="paint8_linear_6557_108969" x1="73.0058" y1="11.3481" x2="97.08" y2="68.6576" gradientUnits="userSpaceOnUse">
<stop stop-color="#1BA4E5" stop-opacity="0.5"/>
<stop offset="1" stop-color="#B40FE7"/>
</linearGradient>
<linearGradient id="paint9_linear_6557_108969" x1="72.6879" y1="10.7824" x2="96.8811" y2="68.375" gradientUnits="userSpaceOnUse">
<stop stop-color="#1BA4E5" stop-opacity="0.5"/>
<stop offset="1" stop-color="#B40FE7"/>
</linearGradient>
<linearGradient id="paint10_linear_6557_108969" x1="72.384" y1="10.2108" x2="96.6961" y2="68.0865" gradientUnits="userSpaceOnUse">
<stop stop-color="#1BA4E5" stop-opacity="0.5"/>
<stop offset="1" stop-color="#B40FE7"/>
</linearGradient>
<linearGradient id="paint11_linear_6557_108969" x1="72.0933" y1="9.63405" x2="96.5243" y2="67.7929" gradientUnits="userSpaceOnUse">
<stop stop-color="#1BA4E5" stop-opacity="0.5"/>
<stop offset="1" stop-color="#B40FE7"/>
</linearGradient>
<linearGradient id="paint12_linear_6557_108969" x1="71.8153" y1="9.05121" x2="96.3652" y2="67.493" gradientUnits="userSpaceOnUse">
<stop stop-color="#1BA4E5" stop-opacity="0.5"/>
<stop offset="1" stop-color="#B40FE7"/>
</linearGradient>
<linearGradient id="paint13_linear_6557_108969" x1="71.5512" y1="8.46305" x2="96.22" y2="67.1879" gradientUnits="userSpaceOnUse">
<stop stop-color="#1BA4E5" stop-opacity="0.5"/>
<stop offset="1" stop-color="#B40FE7"/>
</linearGradient>
<linearGradient id="paint14_linear_6557_108969" x1="71.3006" y1="7.86897" x2="96.0883" y2="66.8768" gradientUnits="userSpaceOnUse">
<stop stop-color="#1BA4E5" stop-opacity="0.5"/>
<stop offset="1" stop-color="#B40FE7"/>
</linearGradient>
<linearGradient id="paint15_linear_6557_108969" x1="71.0636" y1="7.27014" x2="95.9701" y2="66.5608" gradientUnits="userSpaceOnUse">
<stop stop-color="#1BA4E5" stop-opacity="0.5"/>
<stop offset="1" stop-color="#B40FE7"/>
</linearGradient>
<linearGradient id="paint16_linear_6557_108969" x1="70.8409" y1="6.66494" x2="95.8662" y2="66.2385" gradientUnits="userSpaceOnUse">
<stop stop-color="#1BA4E5" stop-opacity="0.5"/>
<stop offset="1" stop-color="#B40FE7"/>
</linearGradient>
<linearGradient id="paint17_linear_6557_108969" x1="70.6301" y1="6.05419" x2="95.7742" y2="65.9105" gradientUnits="userSpaceOnUse">
<stop stop-color="#1BA4E5" stop-opacity="0.5"/>
<stop offset="1" stop-color="#B40FE7"/>
</linearGradient>
<linearGradient id="paint18_linear_6557_108969" x1="70.4262" y1="5.44077" x2="95.6893" y2="65.5803" gradientUnits="userSpaceOnUse">
<stop stop-color="#1BA4E5" stop-opacity="0.5"/>
<stop offset="1" stop-color="#B40FE7"/>
</linearGradient>
<linearGradient id="paint19_linear_6557_108969" x1="70.2238" y1="4.82703" x2="95.6059" y2="65.2498" gradientUnits="userSpaceOnUse">
<stop stop-color="#1BA4E5" stop-opacity="0.5"/>
<stop offset="1" stop-color="#B40FE7"/>
</linearGradient>
<linearGradient id="paint20_linear_6557_108969" x1="70.0208" y1="4.21421" x2="95.5218" y2="64.9201" gradientUnits="userSpaceOnUse">
<stop stop-color="#1BA4E5" stop-opacity="0.5"/>
<stop offset="1" stop-color="#B40FE7"/>
</linearGradient>
<linearGradient id="paint21_linear_6557_108969" x1="69.8182" y1="3.60013" x2="95.4381" y2="64.5892" gradientUnits="userSpaceOnUse">
<stop stop-color="#1BA4E5" stop-opacity="0.5"/>
<stop offset="1" stop-color="#B40FE7"/>
</linearGradient>
<linearGradient id="paint22_linear_6557_108969" x1="69.6091" y1="2.98875" x2="95.3482" y2="64.2616" gradientUnits="userSpaceOnUse">
<stop stop-color="#1BA4E5" stop-opacity="0.5"/>
<stop offset="1" stop-color="#B40FE7"/>
</linearGradient>
<linearGradient id="paint23_linear_6557_108969" x1="69.3356" y1="2.40293" x2="95.1945" y2="63.9608" gradientUnits="userSpaceOnUse">
<stop stop-color="#1BA4E5" stop-opacity="0.5"/>
<stop offset="1" stop-color="#B40FE7"/>
</linearGradient>
<linearGradient id="paint24_linear_6557_108969" x1="68.995" y1="1.84493" x2="94.9736" y2="63.6878" gradientUnits="userSpaceOnUse">
<stop stop-color="#1BA4E5" stop-opacity="0.5"/>
<stop offset="1" stop-color="#B40FE7"/>
</linearGradient>
<linearGradient id="paint25_linear_6557_108969" x1="68.6006" y1="1.30934" x2="94.6989" y2="63.4372" gradientUnits="userSpaceOnUse">
<stop stop-color="#1BA4E5" stop-opacity="0.5"/>
<stop offset="1" stop-color="#B40FE7"/>
</linearGradient>
<linearGradient id="paint26_linear_6557_108969" x1="68.1634" y1="0.792115" x2="94.3814" y2="63.205" gradientUnits="userSpaceOnUse">
<stop stop-color="#1BA4E5" stop-opacity="0.5"/>
<stop offset="1" stop-color="#B40FE7"/>
</linearGradient>
<linearGradient id="paint27_linear_6557_108969" x1="67.6902" y1="0.290128" x2="94.0279" y2="62.9879" gradientUnits="userSpaceOnUse">
<stop stop-color="#1BA4E5" stop-opacity="0.5"/>
<stop offset="1" stop-color="#B40FE7"/>
</linearGradient>
<linearGradient id="paint28_linear_6557_108969" x1="67.1868" y1="-0.198825" x2="93.6442" y2="62.7839" gradientUnits="userSpaceOnUse">
<stop stop-color="#1BA4E5" stop-opacity="0.5"/>
<stop offset="1" stop-color="#B40FE7"/>
</linearGradient>
<linearGradient id="paint29_linear_6557_108969" x1="66.6581" y1="-0.677912" x2="93.2352" y2="62.5897" gradientUnits="userSpaceOnUse">
<stop stop-color="#1BA4E5" stop-opacity="0.5"/>
<stop offset="1" stop-color="#B40FE7"/>
</linearGradient>
<linearGradient id="paint30_linear_6557_108969" x1="66.1084" y1="-1.14742" x2="92.8051" y2="62.405" gradientUnits="userSpaceOnUse">
<stop stop-color="#1BA4E5" stop-opacity="0.5"/>
<stop offset="1" stop-color="#B40FE7"/>
</linearGradient>
<linearGradient id="paint31_linear_6557_108969" x1="65.5388" y1="-1.60892" x2="92.3552" y2="62.2283" gradientUnits="userSpaceOnUse">
<stop stop-color="#1BA4E5" stop-opacity="0.5"/>
<stop offset="1" stop-color="#B40FE7"/>
</linearGradient>
<linearGradient id="paint32_linear_6557_108969" x1="65.6572" y1="-1.46716" x2="92.2677" y2="61.8799" gradientUnits="userSpaceOnUse">
<stop stop-color="#1BA4E5" stop-opacity="0.5"/>
<stop offset="1" stop-color="#B40FE7"/>
</linearGradient>
<linearGradient id="paint33_linear_6557_108969" x1="65.7737" y1="-1.32425" x2="92.1783" y2="61.5326" gradientUnits="userSpaceOnUse">
<stop stop-color="#1BA4E5" stop-opacity="0.5"/>
<stop offset="1" stop-color="#B40FE7"/>
</linearGradient>
<linearGradient id="paint34_linear_6557_108969" x1="65.888" y1="-1.18072" x2="92.0867" y2="61.186" gradientUnits="userSpaceOnUse">
<stop stop-color="#1BA4E5" stop-opacity="0.5"/>
<stop offset="1" stop-color="#B40FE7"/>
</linearGradient>
<linearGradient id="paint35_linear_6557_108969" x1="66.0013" y1="-1.03698" x2="91.9941" y2="60.8396" gradientUnits="userSpaceOnUse">
<stop stop-color="#1BA4E5" stop-opacity="0.5"/>
<stop offset="1" stop-color="#B40FE7"/>
</linearGradient>
<linearGradient id="paint36_linear_6557_108969" x1="66.1139" y1="-0.892545" x2="91.9008" y2="60.4939" gradientUnits="userSpaceOnUse">
<stop stop-color="#1BA4E5" stop-opacity="0.5"/>
<stop offset="1" stop-color="#B40FE7"/>
</linearGradient>
<linearGradient id="paint37_linear_6557_108969" x1="66.2233" y1="-0.747339" x2="91.8043" y2="60.149" gradientUnits="userSpaceOnUse">
<stop stop-color="#1BA4E5" stop-opacity="0.5"/>
<stop offset="1" stop-color="#B40FE7"/>
</linearGradient>
<linearGradient id="paint38_linear_6557_108969" x1="66.3316" y1="-0.601244" x2="91.7067" y2="59.805" gradientUnits="userSpaceOnUse">
<stop stop-color="#1BA4E5" stop-opacity="0.5"/>
<stop offset="1" stop-color="#B40FE7"/>
</linearGradient>
<linearGradient id="paint39_linear_6557_108969" x1="66.4381" y1="-0.454687" x2="91.6073" y2="59.4614" gradientUnits="userSpaceOnUse">
<stop stop-color="#1BA4E5" stop-opacity="0.5"/>
<stop offset="1" stop-color="#B40FE7"/>
</linearGradient>
<linearGradient id="paint40_linear_6557_108969" x1="66.543" y1="-0.307379" x2="91.5063" y2="59.1186" gradientUnits="userSpaceOnUse">
<stop stop-color="#1BA4E5" stop-opacity="0.5"/>
<stop offset="1" stop-color="#B40FE7"/>
</linearGradient>
<linearGradient id="paint41_linear_6557_108969" x1="66.6467" y1="-0.158797" x2="91.4041" y2="58.777" gradientUnits="userSpaceOnUse">
<stop stop-color="#1BA4E5" stop-opacity="0.5"/>
<stop offset="1" stop-color="#B40FE7"/>
</linearGradient>
<linearGradient id="paint42_linear_6557_108969" x1="66.7464" y1="-0.00933422" x2="91.298" y2="58.4364" gradientUnits="userSpaceOnUse">
<stop stop-color="#1BA4E5" stop-opacity="0.5"/>
<stop offset="1" stop-color="#B40FE7"/>
</linearGradient>
<linearGradient id="paint43_linear_6557_108969" x1="66.845" y1="0.14023" x2="91.1906" y2="58.0958" gradientUnits="userSpaceOnUse">
<stop stop-color="#1BA4E5" stop-opacity="0.5"/>
<stop offset="1" stop-color="#B40FE7"/>
</linearGradient>
<linearGradient id="paint44_linear_6557_108969" x1="66.9418" y1="0.291157" x2="91.0815" y2="57.7566" gradientUnits="userSpaceOnUse">
<stop stop-color="#1BA4E5" stop-opacity="0.5"/>
<stop offset="1" stop-color="#B40FE7"/>
</linearGradient>
<linearGradient id="paint45_linear_6557_108969" x1="67.0362" y1="0.443051" x2="90.97" y2="57.4184" gradientUnits="userSpaceOnUse">
<stop stop-color="#1BA4E5" stop-opacity="0.5"/>
<stop offset="1" stop-color="#B40FE7"/>
</linearGradient>
<linearGradient id="paint46_linear_6557_108969" x1="67.1284" y1="0.596329" x2="90.8564" y2="57.0815" gradientUnits="userSpaceOnUse">
<stop stop-color="#1BA4E5" stop-opacity="0.5"/>
<stop offset="1" stop-color="#B40FE7"/>
</linearGradient>
<linearGradient id="paint47_linear_6557_108969" x1="67.2172" y1="0.749717" x2="91.0475" y2="57.4784" gradientUnits="userSpaceOnUse">
<stop stop-color="#1BA4E5" stop-opacity="0.5"/>
<stop offset="1" stop-color="#B40FE7"/>
</linearGradient>
<linearGradient id="paint48_linear_6557_108969" x1="67.3051" y1="0.904364" x2="91.2797" y2="57.9766" gradientUnits="userSpaceOnUse">
<stop stop-color="#1BA4E5" stop-opacity="0.5"/>
<stop offset="1" stop-color="#B40FE7"/>
</linearGradient>
<linearGradient id="paint49_linear_6557_108969" x1="67.3899" y1="1.06008" x2="91.509" y2="58.4764" gradientUnits="userSpaceOnUse">
<stop stop-color="#1BA4E5" stop-opacity="0.5"/>
<stop offset="1" stop-color="#B40FE7"/>
</linearGradient>
<linearGradient id="paint50_linear_6557_108969" x1="67.4724" y1="1.21687" x2="91.7363" y2="58.9778" gradientUnits="userSpaceOnUse">
<stop stop-color="#1BA4E5" stop-opacity="0.5"/>
<stop offset="1" stop-color="#B40FE7"/>
</linearGradient>
<linearGradient id="paint51_linear_6557_108969" x1="67.553" y1="1.37514" x2="91.9619" y2="59.4813" gradientUnits="userSpaceOnUse">
<stop stop-color="#1BA4E5" stop-opacity="0.5"/>
<stop offset="1" stop-color="#B40FE7"/>
</linearGradient>
<linearGradient id="paint52_linear_6557_108969" x1="67.6316" y1="1.53336" x2="92.1858" y2="59.9854" gradientUnits="userSpaceOnUse">
<stop stop-color="#1BA4E5" stop-opacity="0.5"/>
<stop offset="1" stop-color="#B40FE7"/>
</linearGradient>
<linearGradient id="paint53_linear_6557_108969" x1="67.7085" y1="1.69265" x2="92.4083" y2="60.4913" gradientUnits="userSpaceOnUse">
<stop stop-color="#1BA4E5" stop-opacity="0.5"/>
<stop offset="1" stop-color="#B40FE7"/>
</linearGradient>
<linearGradient id="paint54_linear_6557_108969" x1="67.7818" y1="1.8529" x2="92.6276" y2="60.9991" gradientUnits="userSpaceOnUse">
<stop stop-color="#1BA4E5" stop-opacity="0.5"/>
<stop offset="1" stop-color="#B40FE7"/>
</linearGradient>
<linearGradient id="paint55_linear_6557_108969" x1="67.8547" y1="2.01398" x2="92.8468" y2="61.5085" gradientUnits="userSpaceOnUse">
<stop stop-color="#1BA4E5" stop-opacity="0.5"/>
<stop offset="1" stop-color="#B40FE7"/>
</linearGradient>
<linearGradient id="paint56_linear_6557_108969" x1="67.9264" y1="2.17526" x2="93.0653" y2="62.0192" gradientUnits="userSpaceOnUse">
<stop stop-color="#1BA4E5" stop-opacity="0.5"/>
<stop offset="1" stop-color="#B40FE7"/>
</linearGradient>
<linearGradient id="paint57_linear_6557_108969" x1="67.9956" y1="2.33782" x2="93.2818" y2="62.5323" gradientUnits="userSpaceOnUse">
<stop stop-color="#1BA4E5" stop-opacity="0.5"/>
<stop offset="1" stop-color="#B40FE7"/>
</linearGradient>
<linearGradient id="paint58_linear_6557_108969" x1="68.0629" y1="2.50073" x2="93.4971" y2="63.0476" gradientUnits="userSpaceOnUse">
<stop stop-color="#1BA4E5" stop-opacity="0.5"/>
<stop offset="1" stop-color="#B40FE7"/>
</linearGradient>
<linearGradient id="paint59_linear_6557_108969" x1="68.1306" y1="2.66433" x2="93.7132" y2="63.5644" gradientUnits="userSpaceOnUse">
<stop stop-color="#1BA4E5" stop-opacity="0.5"/>
<stop offset="1" stop-color="#B40FE7"/>
</linearGradient>
<linearGradient id="paint60_linear_6557_108969" x1="68.1961" y1="2.82775" x2="93.9277" y2="64.0827" gradientUnits="userSpaceOnUse">
<stop stop-color="#1BA4E5" stop-opacity="0.5"/>
<stop offset="1" stop-color="#B40FE7"/>
</linearGradient>
<linearGradient id="paint61_linear_6557_108969" x1="68.2609" y1="2.99235" x2="94.1423" y2="64.6039" gradientUnits="userSpaceOnUse">
<stop stop-color="#FAD4B4"/>
<stop offset="1" stop-color="#338078"/>
</linearGradient>
<linearGradient id="paint62_linear_6557_108969" x1="68.3203" y1="3.15885" x2="94.3525" y2="65.1292" gradientUnits="userSpaceOnUse">
<stop stop-color="#1BA4E5" stop-opacity="0.5"/>
<stop offset="1" stop-color="#B40FE7"/>
</linearGradient>
</defs>
</svg>
