<svg preserveAspectRatio="none" width="100%" height="100%" overflow="visible" style="display: block;" viewBox="0 0 1.69875 1.69875" fill="none" xmlns="http://www.w3.org/2000/svg">
<g id="material-symbols:star-rounded" clip-path="url(#clip0_6557_109383)">
<path id="Vector" d="M0.848914 1.22338L0.555172 1.40033C0.542195 1.40859 0.528628 1.41213 0.514472 1.41095C0.500316 1.40977 0.487929 1.40505 0.477312 1.39679C0.466695 1.38853 0.458437 1.37822 0.452539 1.36586C0.44664 1.3535 0.44546 1.33962 0.448999 1.32424L0.526859 0.989799L0.266738 0.765068C0.254941 0.754451 0.247579 0.742347 0.244654 0.728757C0.241728 0.715167 0.242601 0.701908 0.247273 0.688978C0.251944 0.676049 0.259022 0.665432 0.268507 0.657127C0.277992 0.648822 0.290968 0.643513 0.307437 0.641201L0.650726 0.611119L0.783441 0.296142C0.78934 0.281986 0.798494 0.271368 0.810905 0.26429C0.823315 0.257212 0.835985 0.253673 0.848914 0.253673C0.861843 0.253673 0.874513 0.257212 0.886924 0.26429C0.899334 0.271368 0.908488 0.281986 0.914387 0.296142L1.0471 0.611119L1.39039 0.641201C1.40691 0.64356 1.41988 0.648869 1.42932 0.657127C1.43876 0.665385 1.44584 0.676002 1.45056 0.688978C1.45527 0.701955 1.45617 0.715238 1.45325 0.728828C1.45032 0.742418 1.44293 0.754498 1.43109 0.765068L1.17097 0.989799L1.24883 1.32424C1.25237 1.33958 1.25119 1.35345 1.24529 1.36586C1.23939 1.37827 1.23113 1.38858 1.22052 1.39679C1.2099 1.405 1.19751 1.40972 1.18336 1.41095C1.1692 1.41217 1.15563 1.40864 1.14266 1.40033L0.848914 1.22338Z" fill="var(--fill-0, #FFC633)"/>
</g>
<defs>
<clipPath id="clip0_6557_109383">
<rect width="1.69875" height="1.69875" fill="white"/>
</clipPath>
</defs>
</svg>
