<svg preserveAspectRatio="none" width="100%" height="100%" overflow="visible" style="display: block;" viewBox="0 0 3.39884 3.39884" fill="none" xmlns="http://www.w3.org/2000/svg">
<g id="Icon / 03" clip-path="url(#clip0_6557_109298)">
<path id="Subtract" fill-rule="evenodd" clip-rule="evenodd" d="M1.59508 0.481285C1.49119 0.436684 1.39376 0.413267 1.2904 0.430504C1.25702 0.436105 1.22347 0.445034 1.19176 0.456871C1.09365 0.493592 1.02114 0.562654 0.953483 0.65316C0.912142 0.708489 0.86965 0.77617 0.822605 0.855506C0.87644 0.841625 0.932885 0.834242 0.991055 0.834242H1.08543C1.09847 0.81463 1.11106 0.796638 1.1234 0.780113C1.17877 0.70606 1.22152 0.67281 1.26598 0.65609C1.28501 0.648987 1.30553 0.643826 1.32555 0.640465C1.37247 0.632674 1.42598 0.640068 1.5111 0.676597C1.58818 0.709688 1.68105 0.761627 1.80724 0.834242H2.23171L1.96618 0.68148C1.95718 0.676286 1.94829 0.67115 1.93951 0.666075C1.80235 0.58683 1.69078 0.522368 1.59508 0.481285Z" fill="var(--fill-0, #242220)" fill-opacity="0.56"/>
<path id="Union" fill-rule="evenodd" clip-rule="evenodd" d="M2.86721 2.39238H2.34029C2.08624 2.39238 1.87959 2.18641 1.87935 1.93242C1.87935 1.67822 2.08609 1.47148 2.34029 1.47148H2.86722C2.84897 1.23396 2.64985 1.04709 2.40765 1.04709H0.991631C0.73749 1.04712 0.531706 1.25291 0.53167 1.50705V2.35666C0.53167 2.61083 0.737467 2.81658 0.991631 2.81662H2.40765C2.64982 2.81662 2.84892 2.62985 2.86721 2.39238ZM3.07957 2.39238C3.06099 2.7473 2.76718 3.02951 2.40765 3.02951H0.991631C0.620147 3.02947 0.318779 2.72815 0.318779 2.35666V1.50705C0.318816 1.13559 0.620169 0.834233 0.991631 0.834196H2.40765C2.76721 0.834196 3.06103 1.11652 3.07957 1.47148H3.08052V2.39238H3.07957ZM2.34029 2.17949C2.20356 2.17949 2.09248 2.06909 2.09224 1.93242C2.09224 1.79554 2.20341 1.68437 2.34029 1.68437H2.86763V2.17949H2.34029Z" fill="var(--fill-0, #242220)" fill-opacity="0.56"/>
<circle id="Ellipse" cx="2.33702" cy="1.93224" r="0.106214" fill="var(--fill-0, #242220)" fill-opacity="0.56"/>
</g>
<defs>
<clipPath id="clip0_6557_109298">
<rect width="3.39884" height="3.39884" fill="white"/>
</clipPath>
</defs>
</svg>
