<svg preserveAspectRatio="none" width="100%" height="100%" overflow="visible" style="display: block;" viewBox="0 0 40.9505 46.8" fill="none" xmlns="http://www.w3.org/2000/svg">
<g id="Playstore">
<path id="path94" d="M19.1203 22.3502L0.175586 42.9115C0.177366 42.9151 0.177365 42.9206 0.179145 42.9242C0.76099 45.1568 2.75386 46.7999 5.12038 46.7999C6.06699 46.7999 6.95489 46.5379 7.71645 46.0793L7.77694 46.043L29.1006 33.4605L19.1203 22.3502Z" fill="var(--fill-0, #EA4335)"/>
<path id="path98" d="M38.2851 18.849L38.2673 18.8362L29.061 13.3793L18.6892 22.8175L29.0983 33.4584L38.2548 28.0561C39.8598 27.1681 40.9505 25.4377 40.9505 23.4434C40.9505 21.4601 39.8758 19.7387 38.2851 18.849Z" fill="var(--fill-0, #FBBC04)"/>
<path id="path102" d="M0.174767 3.88674C0.0608887 4.31616 0.000391006 4.76742 0.000391006 5.23323V41.5667C0.000391006 42.0325 0.0608887 42.4837 0.176546 42.9113L19.7707 22.8759L0.174767 3.88674Z" fill="var(--fill-0, #4285F4)"/>
<path id="path106" d="M19.2589 23.3999L29.0631 13.3758L7.76436 0.747918C6.99035 0.273007 6.08644 7.09701e-05 5.12026 7.09701e-05C2.75373 7.09701e-05 0.757306 1.64679 0.17546 3.88124C0.17546 3.88306 0.173682 3.88488 0.173682 3.8867L19.2589 23.3999Z" fill="var(--fill-0, #34A853)"/>
</g>
</svg>
