<svg preserveAspectRatio="none" width="100%" height="100%" overflow="visible" style="display: block;" viewBox="0 0 3.39884 3.39884" fill="none" xmlns="http://www.w3.org/2000/svg">
<g id="tabler:message-user" clip-path="url(#clip0_6557_109368)">
<path id="Vector" d="M1.84081 2.549L1.13272 2.97386V2.549H0.849478C0.7368 2.549 0.628736 2.50424 0.54906 2.42457C0.469384 2.34489 0.424623 2.23683 0.424623 2.12415V0.991201C0.424623 0.878522 0.469384 0.770459 0.54906 0.690783C0.628736 0.611107 0.7368 0.566345 0.849478 0.566345H2.5489C2.66158 0.566345 2.76964 0.611107 2.84932 0.690783C2.92899 0.770459 2.97376 0.878522 2.97376 0.991201V1.62848M3.11537 3.11548C3.11537 3.04036 3.08553 2.96832 3.03242 2.9152C2.9793 2.86208 2.90726 2.83224 2.83214 2.83224H2.5489C2.47378 2.83224 2.40174 2.86208 2.34862 2.9152C2.2955 2.96832 2.26566 3.04036 2.26566 3.11548M2.40728 2.40739C2.40728 2.4825 2.43712 2.55455 2.49024 2.60766C2.54336 2.66078 2.6154 2.69062 2.69052 2.69062C2.76564 2.69062 2.83768 2.66078 2.8908 2.60766C2.94391 2.55455 2.97376 2.4825 2.97376 2.40739C2.97376 2.33227 2.94391 2.26022 2.8908 2.20711C2.83768 2.15399 2.76564 2.12415 2.69052 2.12415C2.6154 2.12415 2.54336 2.15399 2.49024 2.20711C2.43712 2.26022 2.40728 2.33227 2.40728 2.40739Z" stroke="var(--stroke-0, white)" stroke-width="0.287528" stroke-linecap="round" stroke-linejoin="round"/>
</g>
<defs>
<clipPath id="clip0_6557_109368">
<rect width="3.39884" height="3.39884" fill="white"/>
</clipPath>
</defs>
</svg>
