<svg preserveAspectRatio="none" width="100%" height="100%" overflow="visible" style="display: block;" viewBox="0 0 2.50564 2.50564" fill="none" xmlns="http://www.w3.org/2000/svg">
<g id="material-symbols:star-rounded" clip-path="url(#clip0_6557_109095)">
<path id="Vector" d="M1.25124 1.80346L0.817975 2.06446C0.798835 2.07664 0.778825 2.08186 0.757944 2.08012C0.737064 2.07838 0.718793 2.07142 0.703133 2.05924C0.687473 2.04706 0.675293 2.03185 0.666593 2.01362C0.657892 1.99538 0.656152 1.97492 0.661372 1.95223L0.776214 1.45893L0.392538 1.12745C0.375137 1.11179 0.36428 1.09394 0.359964 1.0739C0.355649 1.05385 0.356937 1.03429 0.363827 1.01522C0.370718 0.996151 0.381158 0.980491 0.395148 0.968241C0.409138 0.955991 0.428278 0.948161 0.452569 0.944751L0.958918 0.90038L1.15467 0.435792C1.16337 0.414911 1.17687 0.399251 1.19518 0.388811C1.21348 0.378371 1.23217 0.373151 1.25124 0.373151C1.27031 0.373151 1.289 0.378371 1.30731 0.388811C1.32561 0.399251 1.33911 0.414911 1.34781 0.435792L1.54357 0.90038L2.04992 0.944751C2.07428 0.948231 2.09342 0.956061 2.10734 0.968241C2.12126 0.980421 2.1317 0.996082 2.13866 1.01522C2.14562 1.03436 2.14694 1.05396 2.14263 1.074C2.13831 1.09405 2.12742 1.11186 2.10995 1.12745L1.72627 1.45893L1.84111 1.95223C1.84633 1.97485 1.84459 1.99531 1.83589 2.01362C1.82719 2.03192 1.81501 2.04713 1.79935 2.05924C1.78369 2.07135 1.76542 2.07831 1.74454 2.08012C1.72366 2.08193 1.70365 2.07671 1.68451 2.06446L1.25124 1.80346Z" fill="var(--fill-0, #FFC633)"/>
</g>
<defs>
<clipPath id="clip0_6557_109095">
<rect width="2.50564" height="2.50564" fill="white"/>
</clipPath>
</defs>
</svg>
