<svg preserveAspectRatio="none" width="100%" height="100%" overflow="visible" style="display: block;" viewBox="0 0 2.54913 2.54913" fill="none" xmlns="http://www.w3.org/2000/svg">
<g id="Group">
<path id="Vector" d="M0.141618 2.12428C0.141618 1.97404 0.2013 1.82995 0.307535 1.72372C0.413769 1.61749 0.557854 1.5578 0.708092 1.5578H1.84104C1.99128 1.5578 2.13536 1.61749 2.2416 1.72372C2.34783 1.82995 2.40751 1.97404 2.40751 2.12428C2.40751 2.1994 2.37767 2.27144 2.32456 2.32456C2.27144 2.37767 2.1994 2.40751 2.12428 2.40751H0.424855C0.349736 2.40751 0.277694 2.37767 0.224577 2.32456C0.171459 2.27144 0.141618 2.1994 0.141618 2.12428Z" stroke="var(--stroke-0, white)" stroke-width="0.283237" stroke-linejoin="round"/>
<path id="Vector_2" d="M1.27457 0.991329C1.50921 0.991329 1.69942 0.801115 1.69942 0.566474C1.69942 0.331833 1.50921 0.141618 1.27457 0.141618C1.03993 0.141618 0.849711 0.331833 0.849711 0.566474C0.849711 0.801115 1.03993 0.991329 1.27457 0.991329Z" stroke="var(--stroke-0, white)" stroke-width="0.283237"/>
</g>
</svg>
