<svg preserveAspectRatio="none" width="100%" height="100%" overflow="visible" style="display: block;" viewBox="0 0 1.69875 1.69875" fill="none" xmlns="http://www.w3.org/2000/svg">
<g id="material-symbols:star-rounded" clip-path="url(#clip0_6557_109413)">
<path id="Vector" d="M0.848076 1.22338L0.554333 1.40033C0.541357 1.40859 0.52779 1.41213 0.513634 1.41095C0.499478 1.40977 0.487091 1.40505 0.476474 1.39679C0.465857 1.38853 0.457599 1.37822 0.4517 1.36586C0.445802 1.3535 0.444622 1.33962 0.448161 1.32424L0.526021 0.989799L0.265899 0.765068C0.254102 0.754451 0.246741 0.742347 0.243815 0.728757C0.24089 0.715167 0.241763 0.701908 0.246434 0.688978C0.251106 0.676049 0.258184 0.665432 0.267669 0.657127C0.277153 0.648822 0.29013 0.643513 0.306599 0.641201L0.649888 0.611119L0.782603 0.296142C0.788502 0.281986 0.797656 0.271368 0.810066 0.26429C0.822477 0.257212 0.835146 0.253673 0.848076 0.253673C0.861005 0.253673 0.873675 0.257212 0.886085 0.26429C0.898496 0.271368 0.90765 0.281986 0.913549 0.296142L1.04626 0.611119L1.38955 0.641201C1.40607 0.64356 1.41905 0.648869 1.42848 0.657127C1.43792 0.665385 1.445 0.676002 1.44972 0.688978C1.45444 0.701955 1.45533 0.715238 1.45241 0.728828C1.44948 0.742418 1.4421 0.754498 1.43025 0.765068L1.17013 0.989799L1.24799 1.32424C1.25153 1.33958 1.25035 1.35345 1.24445 1.36586C1.23855 1.37827 1.2303 1.38858 1.21968 1.39679C1.20906 1.405 1.19667 1.40972 1.18252 1.41095C1.16836 1.41217 1.15479 1.40864 1.14182 1.40033L0.848076 1.22338Z" fill="var(--fill-0, #FFC633)"/>
</g>
<defs>
<clipPath id="clip0_6557_109413">
<rect width="1.69875" height="1.69875" fill="white"/>
</clipPath>
</defs>
</svg>
