<svg preserveAspectRatio="none" width="100%" height="100%" overflow="visible" style="display: block;" viewBox="0 0 1.55172 1.55172" fill="none" xmlns="http://www.w3.org/2000/svg">
<g id="qlementine-icons:certified-filled-16" clip-path="url(#clip0_6557_109103)">
<path id="Vector" fill-rule="evenodd" clip-rule="evenodd" d="M0.630988 0.0689638L0.56533 0.117164C0.553762 0.126393 0.541507 0.134725 0.528671 0.142089C0.520026 0.146684 0.510967 0.150451 0.501613 0.153339C0.491041 0.156539 0.480082 0.158188 0.458067 0.161582L0.377572 0.173899C0.314048 0.183597 0.282237 0.188544 0.257313 0.203382C0.235007 0.216475 0.216483 0.235095 0.203293 0.257401C0.188455 0.282617 0.183606 0.314427 0.173811 0.37766L0.161494 0.458156C0.1581 0.480171 0.156451 0.491227 0.15325 0.501798C0.150341 0.511173 0.146591 0.52016 0.142 0.528759C0.136763 0.538457 0.130265 0.547477 0.117076 0.565419L0.0688754 0.631076C0.0308581 0.682865 0.0118495 0.708759 0.0044788 0.736787C-0.00187589 0.761832 -0.00187589 0.788068 0.0044788 0.813113C0.0117525 0.841432 0.0308581 0.867423 0.0688754 0.918824L0.117076 0.984481C0.130265 1.00242 0.13686 1.01144 0.142 1.02114C0.146526 1.0298 0.150276 1.03886 0.15325 1.0483C0.156451 1.05877 0.1581 1.06973 0.161494 1.09174L0.173811 1.17224C0.183509 1.23576 0.188455 1.26748 0.203293 1.2925C0.216386 1.3148 0.235007 1.33343 0.257313 1.34652C0.282528 1.36136 0.314339 1.36621 0.377572 1.376L0.458067 1.38832C0.480082 1.39171 0.491138 1.39346 0.501613 1.39666C0.510988 1.3995 0.520007 1.40325 0.528671 1.40791C0.538369 1.41305 0.547388 1.41955 0.56533 1.43283L0.630988 1.48103C0.682776 1.51905 0.708671 1.53806 0.736699 1.54543C0.76172 1.55193 0.788003 1.55193 0.813024 1.54543C0.841343 1.53806 0.867335 1.51905 0.918735 1.48103L0.984393 1.43283C1.00233 1.41964 1.01135 1.41305 1.02105 1.40791C1.02972 1.40325 1.03874 1.3995 1.04811 1.39666C1.05868 1.39346 1.06964 1.39181 1.09166 1.38832L1.17215 1.376C1.23568 1.3663 1.26739 1.36145 1.29241 1.34652C1.31472 1.33343 1.33334 1.3148 1.34643 1.2925C1.36127 1.26728 1.36612 1.23547 1.37591 1.17224L1.38823 1.09174C1.39162 1.06973 1.39327 1.05877 1.39647 1.0482C1.39938 1.03882 1.40313 1.0298 1.40772 1.02114C1.41296 1.01144 1.41946 1.00242 1.43265 0.984481L1.48085 0.918824C1.51886 0.867035 1.53787 0.841238 1.54524 0.813113C1.5516 0.788068 1.5516 0.761832 1.54524 0.736787C1.53797 0.708468 1.51886 0.682477 1.48085 0.631076L1.43265 0.565419C1.42342 0.55385 1.41509 0.541595 1.40772 0.528759C1.40313 0.520115 1.39936 0.511055 1.39647 0.501701C1.39262 0.487417 1.38987 0.472859 1.38823 0.458156L1.37591 0.37766C1.36621 0.314136 1.36127 0.282326 1.34643 0.257401C1.33321 0.235174 1.31464 0.216605 1.29241 0.203382C1.26719 0.188544 1.23538 0.183694 1.17215 0.173899L1.09166 0.161582C1.07695 0.159946 1.06239 0.15719 1.04811 0.153339C1.03874 0.150509 1.02967 0.14674 1.02105 0.142089C1.00822 0.134725 0.995961 0.126393 0.984393 0.117164L0.918735 0.0689638C0.866947 0.0309466 0.841052 0.0119379 0.813024 0.00456724C0.787979 -0.00178744 0.761744 -0.00178744 0.736699 0.00456724C0.70838 0.0119379 0.682388 0.0309466 0.630988 0.0689638ZM1.14791 0.593641C1.17157 0.564643 1.16672 0.522455 1.13724 0.499276C1.10775 0.476097 1.0646 0.48085 1.04103 0.50975L0.720018 0.903501L0.548358 0.771604C0.534336 0.760192 0.51641 0.754707 0.498403 0.756319C0.480395 0.757932 0.463729 0.766513 0.451957 0.780235C0.446206 0.786965 0.441862 0.79478 0.439182 0.803217C0.436502 0.811654 0.435541 0.820543 0.436355 0.829358C0.437168 0.838173 0.439741 0.846735 0.44392 0.854539C0.448099 0.862343 0.4538 0.86923 0.460686 0.874794L0.685686 1.05033C0.699894 1.06189 0.718097 1.06736 0.736322 1.06554C0.754547 1.06372 0.771313 1.05477 0.782959 1.04063L1.14761 0.592574L1.14791 0.593641Z" fill="var(--fill-0, #338078)"/>
</g>
<defs>
<clipPath id="clip0_6557_109103">
<rect width="1.55172" height="1.55172" fill="white"/>
</clipPath>
</defs>
</svg>
