<svg preserveAspectRatio="none" width="100%" height="100%" overflow="visible" style="display: block;" viewBox="0 0 15.5319 12.801" fill="none" xmlns="http://www.w3.org/2000/svg">
<g id="logos:google-meet" clip-path="url(#clip0_6557_109062)">
<path id="Vector" d="M8.78637 6.38966L10.3005 8.12035L12.3366 9.42138L12.6908 6.40058L12.3366 3.44791L10.2615 4.59084L8.78637 6.38966Z" fill="var(--fill-0, #00832D)"/>
<path id="Vector_2" d="M0.000272983 9.1405V11.7147C0.000272983 12.3024 0.47737 12.7796 1.06525 12.7796H3.63941L4.17244 10.8347L3.63941 9.1405L1.87335 8.60746L0.000272983 9.1405Z" fill="var(--fill-0, #0066DA)"/>
<path id="Vector_3" d="M3.63941 -0.000144295L0.000272983 3.63899L1.87347 4.17075L3.63941 3.63899L4.16273 1.96788L3.63941 -0.000144295Z" fill="var(--fill-0, #E94235)"/>
<path id="Vector_4" d="M0.000272983 9.14112H3.63935V3.63874H0.000272983V9.14112Z" fill="var(--fill-0, #2684FC)"/>
<path id="Vector_5" d="M14.6611 1.54071L12.3364 3.44788V9.42129L14.6707 11.3359C15.0202 11.6096 15.5313 11.3601 15.5313 10.9159V1.95216C15.5313 1.50303 15.008 1.25477 14.6611 1.54077" fill="var(--fill-0, #00AC47)"/>
<path id="Vector_6" d="M8.78615 6.38942V9.14001H3.63916V12.7791H11.2715C11.8594 12.7791 12.3364 12.3019 12.3364 11.7142V9.42114L8.78615 6.38942Z" fill="var(--fill-0, #00AC47)"/>
<path id="Vector_7" d="M11.2715 -0.000144295H3.63916V3.63899H8.78615V6.38958L12.3365 3.44776V1.06489C12.3365 0.477013 11.8594 -8.36263e-05 11.2715 -8.36263e-05" fill="var(--fill-0, #FFBA00)"/>
</g>
<defs>
<clipPath id="clip0_6557_109062">
<rect width="15.5319" height="12.801" fill="white"/>
</clipPath>
</defs>
</svg>
