<svg preserveAspectRatio="none" width="100%" height="100%" overflow="visible" style="display: block;" viewBox="0 0 2.30023 2.30023" fill="none" xmlns="http://www.w3.org/2000/svg">
<g id="si:copy-line" clip-path="url(#clip0_6557_109159)">
<path id="Vector" d="M0.575137 1.43836H0.517631C0.39016 1.43836 0.287609 1.33581 0.287609 1.20834V0.518273C0.287609 0.390802 0.39016 0.28825 0.517631 0.28825H1.2077C1.33517 0.28825 1.43772 0.390802 1.43772 0.518273V0.575779M1.09269 0.863307H1.78276C1.84376 0.863307 1.90227 0.887542 1.94541 0.930679C1.98854 0.973817 2.01278 1.03232 2.01278 1.09333V1.7834C2.01278 1.8444 1.98854 1.90291 1.94541 1.94605C1.90227 1.98919 1.84376 2.01342 1.78276 2.01342H1.09269C1.03168 2.01342 0.973175 1.98919 0.930038 1.94605C0.8869 1.90291 0.862665 1.8444 0.862665 1.7834V1.09333C0.862665 1.06312 0.868615 1.03321 0.880175 1.0053C0.891735 0.977396 0.908678 0.952039 0.930038 0.930679C0.951397 0.90932 0.976755 0.892376 1.00466 0.880816C1.03257 0.869257 1.06248 0.863307 1.09269 0.863307Z" stroke="var(--stroke-0, black)" stroke-width="0.143764" stroke-miterlimit="10" stroke-linecap="round" stroke-linejoin="round"/>
</g>
<defs>
<clipPath id="clip0_6557_109159">
<rect width="2.30023" height="2.30023" fill="white"/>
</clipPath>
</defs>
</svg>
