<svg preserveAspectRatio="none" width="100%" height="100%" overflow="visible" style="display: block;" viewBox="0 0 2.50564 2.50564" fill="none" xmlns="http://www.w3.org/2000/svg">
<g id="material-symbols:star-rounded" clip-path="url(#clip0_6557_109092)">
<path id="Vector" d="M1.2523 1.80346L0.81903 2.06446C0.799889 2.07664 0.779879 2.08186 0.758999 2.08012C0.738118 2.07838 0.719848 2.07142 0.704188 2.05924C0.688527 2.04706 0.676347 2.03185 0.667647 2.01362C0.658947 1.99538 0.657207 1.97492 0.662427 1.95223L0.777269 1.45893L0.393592 1.12745C0.376192 1.11179 0.365334 1.09394 0.361019 1.0739C0.356703 1.05385 0.357991 1.03429 0.364882 1.01522C0.371772 0.996151 0.382212 0.980491 0.396202 0.968241C0.410192 0.955991 0.429332 0.948161 0.453623 0.944751L0.959972 0.90038L1.15573 0.435792C1.16443 0.414911 1.17793 0.399251 1.19623 0.388811C1.21454 0.378371 1.23323 0.373151 1.2523 0.373151C1.27137 0.373151 1.29006 0.378371 1.30836 0.388811C1.32667 0.399251 1.34017 0.414911 1.34887 0.435792L1.54462 0.90038L2.05097 0.944751C2.07533 0.948231 2.09447 0.956061 2.10839 0.968241C2.12231 0.980421 2.13275 0.996082 2.13971 1.01522C2.14667 1.03436 2.148 1.05396 2.14368 1.074C2.13936 1.09405 2.12847 1.11186 2.111 1.12745L1.72733 1.45893L1.84217 1.95223C1.84739 1.97485 1.84565 1.99531 1.83695 2.01362C1.82825 2.03192 1.81607 2.04713 1.80041 2.05924C1.78475 2.07135 1.76648 2.07831 1.7456 2.08012C1.72472 2.08193 1.70471 2.07671 1.68556 2.06446L1.2523 1.80346Z" fill="var(--fill-0, #FFC633)"/>
</g>
<defs>
<clipPath id="clip0_6557_109092">
<rect width="2.50564" height="2.50564" fill="white"/>
</clipPath>
</defs>
</svg>
