<svg preserveAspectRatio="none" width="100%" height="100%" overflow="visible" style="display: block;" viewBox="0 0 1.69875 1.69875" fill="none" xmlns="http://www.w3.org/2000/svg">
<g id="material-symbols:star-rounded" clip-path="url(#clip0_6557_109162)">
<path id="Vector" d="M0.849246 1.22338L0.555504 1.40033C0.542527 1.40859 0.528961 1.41213 0.514804 1.41095C0.500648 1.40977 0.488261 1.40505 0.477644 1.39679C0.467027 1.38853 0.458769 1.37822 0.452871 1.36586C0.446972 1.3535 0.445793 1.33962 0.449332 1.32424L0.527191 0.989799L0.26707 0.765068C0.255273 0.754451 0.247912 0.742347 0.244986 0.728757C0.24206 0.715167 0.242933 0.701908 0.247605 0.688978C0.252276 0.676049 0.259355 0.665432 0.268839 0.657127C0.278324 0.648822 0.291301 0.643513 0.307769 0.641201L0.651059 0.611119L0.783774 0.296142C0.789672 0.281986 0.798826 0.271368 0.811237 0.26429C0.823647 0.257212 0.836317 0.253673 0.849246 0.253673C0.862176 0.253673 0.874846 0.257212 0.887256 0.26429C0.899666 0.271368 0.908821 0.281986 0.914719 0.296142L1.04743 0.611119L1.39072 0.641201C1.40724 0.64356 1.42022 0.648869 1.42965 0.657127C1.43909 0.665385 1.44617 0.676002 1.45089 0.688978C1.45561 0.701955 1.4565 0.715238 1.45358 0.728828C1.45065 0.742418 1.44327 0.754498 1.43142 0.765068L1.1713 0.989799L1.24916 1.32424C1.2527 1.33958 1.25152 1.35345 1.24562 1.36586C1.23972 1.37827 1.23147 1.38858 1.22085 1.39679C1.21023 1.405 1.19784 1.40972 1.18369 1.41095C1.16953 1.41217 1.15597 1.40864 1.14299 1.40033L0.849246 1.22338Z" fill="var(--fill-0, #FFC633)"/>
</g>
<defs>
<clipPath id="clip0_6557_109162">
<rect width="1.69875" height="1.69875" fill="white"/>
</clipPath>
</defs>
</svg>
