<svg preserveAspectRatio="none" width="100%" height="100%" overflow="visible" style="display: block;" viewBox="0 0 8.05618 8.05618" fill="none" xmlns="http://www.w3.org/2000/svg">
<g id="stash:location-light">
<path id="Vector" d="M4.86722 5.32244C4.86722 4.69238 5.40094 4.19558 6.04208 4.19558C6.68322 4.19558 7.21694 4.69238 7.21694 5.32244C7.21694 5.85885 6.93699 6.32745 6.67617 6.6507C6.53066 6.82959 6.36872 6.99446 6.19246 7.14314L6.15755 7.17133L6.14781 7.17905L6.14513 7.1814L6.14412 7.18207L6.04208 7.04881L5.94876 7.18845L5.94842 7.18812L5.94742 7.18745L5.94406 7.18543L5.93399 7.17872L5.89874 7.15287C5.71908 7.01716 5.55515 6.86178 5.41 6.68964C5.14482 6.37344 4.86722 5.90483 4.86722 5.32244ZM6.04208 7.04881L5.94876 7.18845L6.04845 7.25492L6.14379 7.18207L6.04208 7.04881ZM6.03637 6.83499L6.08571 6.79034C6.17568 6.70777 6.29551 6.58793 6.41468 6.4399C6.65737 6.13947 6.88126 5.74505 6.88126 5.32244C6.88126 4.89311 6.51336 4.53126 6.04208 4.53126C5.57079 4.53126 5.20289 4.89311 5.20289 5.32244C5.20289 5.7954 5.4288 6.18982 5.66713 6.47347C5.7783 6.60556 5.90195 6.72663 6.03637 6.83499ZM5.7064 5.37044C5.7064 5.28141 5.74177 5.19603 5.80472 5.13308C5.86767 5.07013 5.95305 5.03477 6.04208 5.03477C6.1311 5.03477 6.21648 5.07013 6.27944 5.13308C6.34239 5.19603 6.37775 5.28141 6.37775 5.37044C6.37775 5.45947 6.34239 5.54485 6.27944 5.6078C6.21648 5.67075 6.1311 5.70611 6.04208 5.70611C5.95305 5.70611 5.86767 5.67075 5.80472 5.6078C5.74177 5.54485 5.7064 5.45947 5.7064 5.37044ZM3.35668 1.17451C2.87432 1.17451 2.49064 1.55416 2.49064 2.0137C2.49064 2.47324 2.87466 2.85288 3.35668 2.85288C3.83871 2.85288 4.22239 2.47324 4.22239 2.0137C4.22239 1.55416 3.83871 1.17451 3.35635 1.17451M2.15497 2.0137C2.15497 1.36081 2.69708 0.838839 3.35668 0.838839C4.01595 0.838839 4.55806 1.36081 4.55806 2.0137C4.55806 2.66659 4.01595 3.18856 3.35635 3.18856C2.69742 3.18856 2.15564 2.66659 2.15564 2.0137M2.55375 3.94584C2.48057 3.89884 2.40941 3.88542 2.35738 3.89952C2.30815 3.91294 2.25903 3.92749 2.21002 3.94315L1.87972 4.04923C1.76162 4.08595 1.65297 4.14803 1.56136 4.23111C1.46975 4.3142 1.3974 4.41629 1.34935 4.53025L1.33995 4.56079L1.33962 4.56214L1.33861 4.56549L1.33559 4.57624L1.32149 4.63464L1.31881 4.64538L1.31813 4.64874V4.65008C1.31296 4.67547 1.30926 4.70114 1.30706 4.72695L1.18051 5.92296L1.18017 5.92598C1.14996 6.13947 1.26476 6.3204 1.45677 6.36504C1.825 6.4503 2.44029 6.5453 3.35736 6.5453C3.40187 6.5453 3.44456 6.56298 3.47603 6.59446C3.50751 6.62593 3.52519 6.66862 3.52519 6.71314C3.52519 6.75765 3.50751 6.80034 3.47603 6.83182C3.44456 6.86329 3.40187 6.88097 3.35736 6.88097C2.41747 6.88097 1.77633 6.78363 1.38091 6.69199C0.995887 6.6027 0.797839 6.24051 0.847184 5.88167L0.973061 4.69238C0.976754 4.6568 0.979103 4.63464 0.988167 4.58765C1.00083 4.52949 1.01606 4.47192 1.03382 4.41511V4.4141L1.03415 4.41343C1.10001 4.25175 1.20078 4.10662 1.32925 3.98841C1.45773 3.87021 1.61074 3.78185 1.77734 3.72967L2.10764 3.62359C2.1609 3.60658 2.21438 3.5907 2.26809 3.57593C2.44264 3.52793 2.61317 3.58465 2.73602 3.66421C2.86828 3.74947 3.0868 3.85521 3.35702 3.85521C3.62724 3.85521 3.8461 3.74947 3.97835 3.66387C4.10154 3.58465 4.27173 3.52793 4.44628 3.57593C4.49999 3.59092 4.55347 3.60681 4.60673 3.62359L4.93737 3.72967C4.95888 3.73595 4.97891 3.74647 4.99629 3.76062C5.01367 3.77476 5.02803 3.79225 5.03855 3.81204C5.04906 3.83182 5.0555 3.85352 5.05749 3.87583C5.05949 3.89815 5.05699 3.92064 5.05016 3.94198C5.04332 3.96332 5.03228 3.98307 5.01769 4.00008C5.0031 4.01708 4.98525 4.03099 4.9652 4.04098C4.94514 4.05098 4.92329 4.05686 4.90093 4.05827C4.87857 4.05969 4.85615 4.05661 4.83499 4.04923L4.50435 3.94349C4.45579 3.92782 4.40678 3.91328 4.35733 3.89985C4.30496 3.88542 4.23414 3.89851 4.16062 3.94584C3.99648 4.05225 3.71451 4.19088 3.35736 4.19088C2.99986 4.19088 2.7179 4.05225 2.55375 3.94584Z" fill="var(--fill-0, black)"/>
</g>
</svg>
