<svg preserveAspectRatio="none" width="100%" height="100%" overflow="visible" style="display: block;" viewBox="0 0 8.05301 8.05301" fill="none" xmlns="http://www.w3.org/2000/svg">
<g id="material-symbols:star-rounded">
<path id="Vector" d="M4.02714 5.79803L2.63464 6.63688C2.57312 6.67603 2.50881 6.6928 2.4417 6.68721C2.37459 6.68162 2.31587 6.65925 2.26554 6.6201C2.21521 6.58096 2.17606 6.53208 2.1481 6.47347C2.12014 6.41486 2.11455 6.3491 2.13132 6.27617L2.50042 4.69074L1.2673 3.62539C1.21138 3.57506 1.17648 3.51768 1.16262 3.45326C1.14875 3.38883 1.15288 3.32598 1.17503 3.26468C1.19718 3.20339 1.23073 3.15306 1.27569 3.11369C1.32066 3.07432 1.38217 3.04915 1.46024 3.03819L3.08762 2.89559L3.71676 1.40243C3.74472 1.33532 3.78812 1.28499 3.84695 1.25143C3.90578 1.21788 3.96584 1.2011 4.02714 1.2011C4.08843 1.2011 4.14849 1.21788 4.20732 1.25143C4.26615 1.28499 4.30955 1.33532 4.33751 1.40243L4.96665 2.89559L6.59403 3.03819C6.67233 3.04938 6.73384 3.07454 6.77858 3.11369C6.82332 3.15284 6.85687 3.20317 6.87924 3.26468C6.90161 3.3262 6.90586 3.38917 6.89199 3.45359C6.87812 3.51802 6.84312 3.57528 6.78697 3.62539L5.55385 4.69074L5.92295 6.27617C5.93973 6.34887 5.93413 6.41464 5.90617 6.47347C5.87821 6.5323 5.83906 6.58118 5.78873 6.6201C5.7384 6.65903 5.67968 6.6814 5.61257 6.68721C5.54546 6.69303 5.48115 6.67625 5.41964 6.63688L4.02714 5.79803Z" fill="var(--fill-0, #FFC633)"/>
</g>
</svg>
