<svg preserveAspectRatio="none" width="100%" height="100%" overflow="visible" style="display: block;" viewBox="0 0 2.83237 2.73796" fill="none" xmlns="http://www.w3.org/2000/svg">
<g id="More" clip-path="url(#clip0_6557_109322)">
<path id="Vector" d="M0.661041 1.13311C0.531224 1.13311 0.42501 1.23932 0.42501 1.36914C0.42501 1.49895 0.531224 1.60517 0.661041 1.60517C0.790858 1.60517 0.897072 1.49895 0.897072 1.36914C0.897072 1.23932 0.790858 1.13311 0.661041 1.13311ZM2.31326 1.13311C2.18344 1.13311 2.07723 1.23932 2.07723 1.36914C2.07723 1.49895 2.18344 1.60517 2.31326 1.60517C2.44307 1.60517 2.54929 1.49895 2.54929 1.36914C2.54929 1.23932 2.44307 1.13311 2.31326 1.13311ZM1.48715 1.13311C1.35733 1.13311 1.25112 1.23932 1.25112 1.36914C1.25112 1.49895 1.35733 1.60517 1.48715 1.60517C1.61697 1.60517 1.72318 1.49895 1.72318 1.36914C1.72318 1.23932 1.61697 1.13311 1.48715 1.13311Z" fill="var(--fill-0, #8E8E93)"/>
</g>
<defs>
<clipPath id="clip0_6557_109322">
<rect width="2.83237" height="2.73796" fill="white"/>
</clipPath>
</defs>
</svg>
