<svg preserveAspectRatio="none" width="100%" height="100%" overflow="visible" style="display: block;" viewBox="0 0 3.39884 3.39884" fill="none" xmlns="http://www.w3.org/2000/svg">
<g id="Icon / 02" clip-path="url(#clip0_6557_109236)">
<path id="Vector" d="M1.40102 0.940386H1.85788M1.40102 1.46252H2.24948M1.40102 1.98465H2.24948" stroke="var(--stroke-0, white)" stroke-width="0.169942" stroke-linecap="round" stroke-linejoin="round"/>
<path id="Union" fill-rule="evenodd" clip-rule="evenodd" d="M2.95583 2.09721C2.96734 1.98413 2.96734 1.84251 2.96733 1.66378L2.96734 1.29524C2.96736 1.15844 2.96738 1.07022 2.94358 0.986733C2.93054 0.94096 2.91226 0.896842 2.88912 0.85525C2.84691 0.779385 2.78452 0.717018 2.68777 0.620311L2.66742 0.599954C2.57071 0.503208 2.50834 0.440816 2.43248 0.398607C2.39089 0.375467 2.34677 0.357192 2.301 0.344145C2.2175 0.320346 2.12929 0.320364 1.99249 0.320392L1.82517 0.320394V0.320677C1.70308 0.321409 1.60031 0.324033 1.51359 0.333429C1.39021 0.346796 1.28776 0.374805 1.19966 0.43881C1.14702 0.477053 1.10073 0.523343 1.06249 0.57598C1.02173 0.63208 0.99557 0.694005 0.978491 0.763448L0.87147 0.792124C0.540705 0.880753 0.344414 1.22074 0.433042 1.5515L0.720209 2.62323C0.808838 2.95399 1.14882 3.15028 1.47959 3.06166L2.2361 2.85895C2.38058 2.82023 2.4994 2.73356 2.58003 2.62064C2.61968 2.60682 2.65677 2.58888 2.69177 2.56549C2.75948 2.52025 2.8176 2.46213 2.86284 2.39443C2.91938 2.30981 2.94405 2.21308 2.95583 2.09721ZM1.99406 0.516197L1.9781 0.516194C1.78209 0.516196 1.64256 0.516402 1.53468 0.528089C1.42796 0.539651 1.3639 0.561501 1.31475 0.597215C1.27873 0.623381 1.24706 0.655053 1.2209 0.691068C1.18518 0.740223 1.16333 0.804283 1.15177 0.911002C1.14001 1.01955 1.13987 1.16016 1.13987 1.35813V1.65836C1.13987 1.84372 1.13999 1.97538 1.15037 2.0774C1.16058 2.17778 1.17991 2.23857 1.21137 2.28565C1.24232 2.33197 1.28209 2.37174 1.32842 2.40269C1.3755 2.43415 1.43628 2.45348 1.53666 2.46369C1.63868 2.47407 1.77034 2.47419 1.9557 2.47419C2.14107 2.47419 2.27273 2.47407 2.37475 2.46369C2.47513 2.45348 2.53591 2.43415 2.58299 2.40269C2.62932 2.37174 2.66909 2.33197 2.70004 2.28565C2.7315 2.23857 2.75083 2.17778 2.76104 2.0774C2.77142 1.97538 2.77154 1.84372 2.77154 1.65836V1.33202C2.77154 1.26772 2.77133 1.22934 2.76763 1.20184C2.76593 1.18923 2.76394 1.18292 2.76277 1.18008C2.7625 1.17942 2.76229 1.17899 2.76215 1.17874L2.76198 1.17842L2.76166 1.17824C2.76141 1.17811 2.76097 1.1779 2.76031 1.17762C2.75747 1.17645 2.75116 1.17446 2.73855 1.17276C2.71105 1.16907 2.67267 1.16886 2.60837 1.16886L2.472 1.16886C2.4155 1.16886 2.3637 1.16887 2.32156 1.16321C2.27516 1.15697 2.22611 1.14229 2.18578 1.10195C2.14544 1.06161 2.13076 1.01257 2.12452 0.966167C2.11886 0.92403 2.11886 0.87223 2.11887 0.815734L2.11887 0.653253C2.11887 0.602126 2.11874 0.571645 2.11632 0.54938C2.11491 0.536283 2.1131 0.530917 2.11243 0.529362C2.11053 0.526803 2.10826 0.524536 2.1057 0.522634C2.10415 0.521964 2.09878 0.520159 2.08568 0.51874C2.06526 0.516527 2.03792 0.516231 1.99406 0.516197ZM2.18918 2.6688C2.12075 2.66999 2.04503 2.66999 1.96113 2.66999H1.95028C1.77155 2.66999 1.62993 2.66999 1.51685 2.65848C1.40098 2.6467 1.30425 2.62203 1.21964 2.56549C1.15193 2.52025 1.09381 2.46213 1.04857 2.39443C0.992032 2.30981 0.967364 2.21308 0.955577 2.09721C0.944073 1.98413 0.944074 1.84251 0.944075 1.66379V1.35232C0.944074 1.20336 0.944073 1.07854 0.950271 0.973716L0.922147 0.981252C0.695834 1.04189 0.561529 1.27451 0.62217 1.50083L0.909337 2.57255C0.969977 2.79886 1.2026 2.93317 1.42891 2.87253L2.18542 2.66982C2.18668 2.66948 2.18793 2.66914 2.18918 2.6688ZM2.71802 0.950444C2.72257 0.958627 2.72685 0.966952 2.73085 0.975405C2.69597 0.973049 2.6564 0.973053 2.61421 0.973058L2.47784 0.973058C2.41353 0.973058 2.37516 0.972851 2.34765 0.969152C2.33505 0.967458 2.32873 0.965462 2.32589 0.964292C2.32523 0.964021 2.3248 0.96381 2.32455 0.963678L2.32423 0.963498L2.32405 0.963181C2.32392 0.962929 2.32371 0.962496 2.32344 0.961837C2.32227 0.958994 2.32027 0.952682 2.31858 0.940078C2.31488 0.912571 2.31467 0.874194 2.31467 0.809893L2.31467 0.648646C2.31467 0.615774 2.31468 0.584877 2.31324 0.557315C2.32138 0.561186 2.3294 0.565319 2.33728 0.569708C2.38631 0.596983 2.42875 0.638192 2.53914 0.748585C2.64954 0.858978 2.69075 0.901421 2.71802 0.950444Z" fill="var(--fill-0, white)"/>
</g>
<defs>
<clipPath id="clip0_6557_109236">
<rect width="3.39884" height="3.39884" fill="white"/>
</clipPath>
</defs>
</svg>
