<svg preserveAspectRatio="none" width="100%" height="100%" overflow="visible" style="display: block;" viewBox="0 0 2.50564 2.50564" fill="none" xmlns="http://www.w3.org/2000/svg">
<g id="material-symbols:star-rounded" clip-path="url(#clip0_6557_109281)">
<path id="Vector" d="M1.25356 1.80346L0.820291 2.06446C0.801151 2.07664 0.781141 2.08186 0.76026 2.08012C0.73938 2.07838 0.72111 2.07142 0.705449 2.05924C0.689789 2.04706 0.677609 2.03185 0.668909 2.01362C0.660208 1.99538 0.658468 1.97492 0.663689 1.95223L0.778531 1.45893L0.394854 1.12745C0.377454 1.11179 0.366596 1.09394 0.36228 1.0739C0.357965 1.05385 0.359253 1.03429 0.366143 1.01522C0.373034 0.996151 0.383474 0.980491 0.397464 0.968241C0.411454 0.955991 0.430594 0.948161 0.454885 0.944751L0.961234 0.90038L1.15699 0.435792C1.16569 0.414911 1.17919 0.399251 1.1975 0.388811C1.2158 0.378371 1.23449 0.373151 1.25356 0.373151C1.27263 0.373151 1.29132 0.378371 1.30962 0.388811C1.32793 0.399251 1.34143 0.414911 1.35013 0.435792L1.54588 0.90038L2.05223 0.944751C2.07659 0.948231 2.09573 0.956061 2.10965 0.968241C2.12357 0.980421 2.13401 0.996082 2.14097 1.01522C2.14793 1.03436 2.14926 1.05396 2.14494 1.074C2.14063 1.09405 2.12973 1.11186 2.11226 1.12745L1.72859 1.45893L1.84343 1.95223C1.84865 1.97485 1.84691 1.99531 1.83821 2.01362C1.82951 2.03192 1.81733 2.04713 1.80167 2.05924C1.78601 2.07135 1.76774 2.07831 1.74686 2.08012C1.72598 2.08193 1.70597 2.07671 1.68683 2.06446L1.25356 1.80346Z" fill="var(--fill-0, #FFC633)"/>
</g>
<defs>
<clipPath id="clip0_6557_109281">
<rect width="2.50564" height="2.50564" fill="white"/>
</clipPath>
</defs>
</svg>
