<svg preserveAspectRatio="none" width="100%" height="100%" overflow="visible" style="display: block;" viewBox="0 0 39.0004 46.8001" fill="none" xmlns="http://www.w3.org/2000/svg">
<g id="Apple">
<path id="&#60;Path&#62;" d="M32.5742 24.8878C32.5978 23.094 33.0859 21.3352 33.9929 19.775C34.8999 18.2148 36.1964 16.904 37.7617 15.9644C36.7673 14.5779 35.4554 13.4368 33.9303 12.6318C32.4052 11.8268 30.7088 11.3801 28.9759 11.3272C25.2793 10.9484 21.6957 13.4868 19.8119 13.4868C17.8918 13.4868 14.9915 11.3648 11.8684 11.4276C9.8483 11.4913 7.87955 12.0648 6.15397 13.0922C4.4284 14.1196 3.00485 15.5659 2.02202 17.2902C-2.23525 24.4864 0.940301 35.0626 5.01849 40.8795C7.0589 43.7279 9.44354 46.9096 12.5638 46.7968C15.6172 46.6731 16.7576 44.8959 20.4433 44.8959C24.0948 44.8959 25.1647 46.7968 28.3483 46.7251C31.6247 46.6731 33.689 43.864 35.6578 40.9887C37.1239 38.9591 38.252 36.716 39.0004 34.3424C37.0969 33.5564 35.4725 32.2407 34.3297 30.5594C33.1869 28.8781 32.5764 26.9056 32.5742 24.8878Z" fill="var(--fill-0, white)"/>
<path id="&#60;Path&#62;_2" d="M26.5595 7.5019C28.346 5.40818 29.2261 2.71704 29.013 0C26.2837 0.279862 23.7626 1.55336 21.952 3.56676C21.0668 4.55035 20.3888 5.69464 19.9568 6.93421C19.5248 8.17378 19.3472 9.48432 19.4343 10.7909C20.7995 10.8046 22.15 10.5158 23.3842 9.94605C24.6184 9.37634 25.7041 8.54064 26.5595 7.5019Z" fill="var(--fill-0, white)"/>
</g>
</svg>
