<svg preserveAspectRatio="none" width="100%" height="100%" overflow="visible" style="display: block;" viewBox="0 0 2.76176 3.0448" fill="none" xmlns="http://www.w3.org/2000/svg">
<g id="Group">
<path id="Vector" d="M0.106412 0.106214H2.08907C2.35616 0.106214 2.48957 0.106214 2.57256 0.189203C2.65554 0.272191 2.65554 0.405596 2.65554 0.672688V1.5224C2.65554 1.78949 2.65554 1.9229 2.57256 2.00588C2.48957 2.08887 2.35616 2.08887 2.08907 2.08887H1.09774M1.23936 0.743497H2.08907M0.106412 2.23049V1.66402C0.106412 1.53047 0.106412 1.46377 0.147907 1.42227C0.189401 1.38078 0.256103 1.38078 0.389649 1.38078H0.672886M0.106412 2.23049H0.672886M0.106412 2.23049V2.93858M0.672886 1.38078V2.23049M0.672886 1.38078H1.5226M0.672886 2.23049V2.93858" stroke="var(--stroke-0, white)" stroke-width="0.212428" stroke-linecap="round" stroke-linejoin="round"/>
<path id="Vector_2" d="M0.672688 0.743432C0.672688 0.818551 0.642847 0.890594 0.58973 0.943711C0.536612 0.996828 0.46457 1.02667 0.389451 1.02667C0.314332 1.02667 0.242289 0.996828 0.189172 0.943711C0.136055 0.890594 0.106214 0.818551 0.106214 0.743432C0.106214 0.668313 0.136055 0.596271 0.189172 0.543153C0.242289 0.490036 0.314332 0.460195 0.389451 0.460195C0.46457 0.460195 0.536612 0.490036 0.58973 0.543153C0.642847 0.596271 0.672688 0.668313 0.672688 0.743432Z" stroke="var(--stroke-0, white)" stroke-width="0.212428" stroke-linecap="round" stroke-linejoin="round"/>
</g>
</svg>
