<svg preserveAspectRatio="none" width="100%" height="100%" overflow="visible" style="display: block;" viewBox="0 0 144.3 29.25" fill="none" xmlns="http://www.w3.org/2000/svg">
<path id="path90" d="M112.16 7.00118H115.337V28.4736H112.16V7.00118ZM140.768 20.739L137.127 11.4293H137.018L133.24 20.739H129.818L135.485 7.72775L132.256 0.489532H135.566L144.3 20.739H140.768ZM122.756 9.44025C121.714 9.44025 120.264 9.96414 120.264 11.2644C120.264 12.9202 122.07 13.5558 123.631 13.5558C125.027 13.5558 125.685 13.2517 126.533 12.8378C126.286 10.8487 124.589 9.44025 122.756 9.44025ZM123.139 21.2079C120.84 21.2079 118.457 20.1859 117.473 17.9203L120.291 16.7334C120.894 17.9203 122.016 18.3085 123.194 18.3085C124.836 18.3085 126.506 17.314 126.533 15.5448V15.3249C125.958 15.6565 124.727 16.1529 123.221 16.1529C120.182 16.1529 117.088 14.4678 117.088 11.3194C117.088 8.44573 119.58 6.59409 122.371 6.59409C124.508 6.59409 125.685 7.56113 126.424 8.69479H126.533V7.03725H129.599V15.27C129.599 19.0815 126.78 21.2079 123.139 21.2079M103.51 18.1247H98.9926V25.4849H103.51C105.885 25.4849 107.233 23.501 107.233 21.8057C107.233 20.1413 105.885 18.1247 103.51 18.1247ZM103.428 28.4736H95.8182V7.00118H98.9926V15.136H103.428C106.948 15.136 110.409 17.7091 110.409 21.8057C110.409 25.9023 106.948 28.4736 103.428 28.4736M61.9287 9.43681C59.7347 9.43681 57.898 11.2902 57.898 13.8357C57.898 16.4088 59.7347 18.2913 61.9287 18.2913C64.0955 18.2913 65.7942 16.4088 65.7942 13.8357C65.7942 11.2902 64.0955 9.43681 61.9287 9.43681ZM65.5764 19.5366H65.4657C64.7525 20.3938 63.3823 21.1684 61.6547 21.1684C58.0342 21.1684 54.7168 17.9598 54.7168 13.8357C54.7168 9.74084 58.0342 6.55802 61.6547 6.55802C63.3823 6.55802 64.7525 7.33268 65.4657 8.21899H65.5764V7.16607C65.5764 4.37144 64.0955 2.87708 61.7091 2.87708C59.7619 2.87708 58.5551 4.28899 58.0615 5.47933L55.2921 4.31648C56.087 2.37896 58.1993 0 61.7091 0C65.4385 0 68.5925 2.21406 68.5925 7.60923V20.727H65.5764V19.5366ZM70.7866 7.00118H73.9679V28.4753H70.7866V7.00118ZM78.6556 14.0848C78.5739 16.9069 80.8224 18.3463 82.4394 18.3463C83.7024 18.3463 84.7713 17.7108 85.1271 16.797L78.6556 14.0848ZM88.5279 16.5204C87.9254 18.1522 86.0871 21.1684 82.3305 21.1684C78.6011 21.1684 75.5032 18.2089 75.5032 13.8632C75.5032 9.76832 78.5739 6.55802 82.6862 6.55802C86.0054 6.55802 87.9254 8.60547 88.7203 9.79581L86.2522 11.4568C85.43 10.239 84.3049 9.43681 82.6862 9.43681C81.0692 9.43681 79.9168 10.184 79.1764 11.6492L88.8564 15.6908L88.5279 16.5204ZM11.4077 18.9269V15.8282H18.7558C18.5362 14.0848 17.9609 12.812 17.0843 11.9274C16.0137 10.847 14.3405 9.65667 11.4077 9.65667C6.88172 9.65667 3.34469 13.3376 3.34469 17.9032C3.34469 22.4704 6.88172 26.1496 11.4077 26.1496C13.8486 26.1496 15.6307 25.1809 16.9464 23.9356L19.1132 26.1221C17.2749 27.8931 14.8358 29.25 11.4077 29.25C5.21023 29.25 0 24.1571 0 17.9032C0 11.6492 5.21023 6.55802 11.4077 6.55802C14.7524 6.55802 17.2749 7.66591 19.2494 9.74084C21.2801 11.7883 21.9099 14.6654 21.9099 16.9911C21.9099 17.7108 21.8554 18.3738 21.7447 18.9269H11.4077ZM30.2656 9.43681C28.0716 9.43681 26.1788 11.2627 26.1788 13.8632C26.1788 16.493 28.0716 18.2913 30.2656 18.2913C32.458 18.2913 34.3507 16.493 34.3507 13.8632C34.3507 11.2627 32.458 9.43681 30.2656 9.43681ZM30.2656 21.1684C26.2605 21.1684 22.9975 18.0972 22.9975 13.8632C22.9975 9.65668 26.2605 6.55802 30.2656 6.55802C34.269 6.55802 37.532 9.65668 37.532 13.8632C37.532 18.0972 34.269 21.1684 30.2656 21.1684ZM46.1176 9.43681C43.9235 9.43681 42.0308 11.2627 42.0308 13.8632C42.0308 16.493 43.9235 18.2913 46.1176 18.2913C48.3116 18.2913 50.2027 16.493 50.2027 13.8632C50.2027 11.2627 48.3116 9.43681 46.1176 9.43681ZM46.1176 21.1684C42.1142 21.1684 38.8512 18.0972 38.8512 13.8632C38.8512 9.65668 42.1142 6.55802 46.1176 6.55802C50.121 6.55802 53.384 9.65668 53.384 13.8632C53.384 18.0972 50.121 21.1684 46.1176 21.1684Z" fill="var(--fill-0, white)"/>
</svg>
