<svg preserveAspectRatio="none" width="100%" height="100%" overflow="visible" style="display: block;" viewBox="0 0 3.07724 3.07724" fill="none" xmlns="http://www.w3.org/2000/svg">
<g id="Group">
<path id="Vector" d="M0.776057 2.8964V2.2211H0.340308C0.282524 2.2211 0.227107 2.19653 0.186248 2.1528C0.145388 2.10907 0.122434 2.04976 0.122434 1.98791V0.355619C0.122434 0.293774 0.145388 0.234463 0.186248 0.190732C0.227107 0.147001 0.282524 0.122434 0.340308 0.122434H2.73693C2.79471 0.122434 2.85013 0.147001 2.89099 0.190732C2.93185 0.234463 2.9548 0.293774 2.9548 0.355619V1.98791C2.9548 2.04976 2.93185 2.10907 2.89099 2.1528C2.85013 2.19653 2.79471 2.2211 2.73693 2.2211H1.53862L0.86909 2.93768C0.861472 2.94585 0.851758 2.95142 0.841179 2.95368C0.8306 2.95594 0.819633 2.95478 0.809668 2.95036C0.799704 2.94594 0.79119 2.93845 0.785206 2.92884C0.779222 2.91924 0.776038 2.90795 0.776057 2.8964Z" stroke="var(--stroke-0, black)" stroke-width="0.244867"/>
<path id="Vector_2" d="M0.776036 1.52164H2.30116M0.776036 0.82209H2.30116" stroke="var(--stroke-0, black)" stroke-width="0.244867" stroke-linecap="round"/>
</g>
</svg>
