<svg preserveAspectRatio="none" width="100%" height="100%" overflow="visible" style="display: block;" viewBox="0 0 1.76656 1.76656" fill="none" xmlns="http://www.w3.org/2000/svg">
<g id="fluent:chat-24-regular" clip-path="url(#clip0_6557_109371)">
<path id="Vector" d="M0.883176 0.147151C1.28971 0.147151 1.61924 0.476688 1.61924 0.883218C1.61924 1.28975 1.28971 1.61928 0.883176 1.61928C0.765699 1.61945 0.649903 1.59138 0.545542 1.53743L0.263922 1.61597C0.24821 1.62036 0.231615 1.62049 0.215837 1.61635C0.200059 1.61221 0.185665 1.60394 0.17413 1.59241C0.162596 1.58088 0.154335 1.56648 0.150195 1.5507C0.146054 1.53493 0.146183 1.51833 0.150568 1.50262L0.22918 1.22122C0.175105 1.11677 0.146956 1.00084 0.147108 0.883218C0.147108 0.476688 0.476646 0.147151 0.883176 0.147151ZM0.883176 0.257561C0.717241 0.257561 0.558103 0.323478 0.440769 0.440811C0.323436 0.558145 0.257519 0.717283 0.257519 0.883218C0.257519 0.99142 0.284974 1.09543 0.336499 1.18773L0.34754 1.2076L0.265689 1.50085L0.559159 1.419L0.579033 1.43004C0.662531 1.47647 0.755551 1.50315 0.850961 1.50805C0.946371 1.51295 1.04164 1.49594 1.12945 1.45831C1.21727 1.42069 1.2953 1.36346 1.35757 1.291C1.41983 1.21854 1.46468 1.13279 1.48867 1.04031C1.51266 0.947839 1.51515 0.851099 1.49595 0.757511C1.47676 0.663924 1.43639 0.575975 1.37793 0.500409C1.31948 0.424843 1.2445 0.363666 1.15874 0.321571C1.07297 0.279475 0.978711 0.257579 0.883176 0.257561ZM0.643954 0.956824H0.975037C0.989024 0.956829 1.00249 0.962142 1.01271 0.971691C1.02293 0.98124 1.02914 0.994312 1.0301 1.00827C1.03105 1.02222 1.02667 1.03602 1.01784 1.04687C1.00902 1.05772 0.996401 1.06481 0.982545 1.06672L0.975037 1.06723H0.643954C0.629967 1.06723 0.616503 1.06192 0.606283 1.05237C0.596062 1.04282 0.589847 1.02975 0.588894 1.01579C0.587941 1.00184 0.59232 0.988042 0.601147 0.977192C0.609973 0.966341 0.622589 0.959246 0.636446 0.95734L0.643954 0.956824ZM0.643954 0.699201H1.12277C1.13675 0.699224 1.1502 0.70455 1.1604 0.714105C1.17061 0.72366 1.17681 0.736731 1.17775 0.75068C1.1787 0.764629 1.17431 0.778416 1.16549 0.789258C1.15666 0.800101 1.14405 0.80719 1.1302 0.809096L1.12277 0.809611H0.643954C0.629967 0.809607 0.616503 0.804293 0.606283 0.794745C0.596062 0.785196 0.589847 0.772123 0.588894 0.758169C0.587941 0.744214 0.59232 0.730418 0.601147 0.719568C0.609973 0.708718 0.622589 0.701623 0.636446 0.699716L0.643954 0.699201Z" fill="var(--fill-0, #338078)"/>
</g>
<defs>
<clipPath id="clip0_6557_109371">
<rect width="1.76656" height="1.76656" fill="white"/>
</clipPath>
</defs>
</svg>
