<svg preserveAspectRatio="none" width="100%" height="100%" overflow="visible" style="display: block;" viewBox="0 0 2.79527 2.79527" fill="none" xmlns="http://www.w3.org/2000/svg">
<g id="logos:facebook" clip-path="url(#clip0_6557_109140)">
<path id="Vector" d="M2.79546 1.3975C2.79546 0.625613 2.16971 -0.00013348 1.39782 -0.00013348C0.625937 -0.00013348 0.000190629 0.625613 0.000190629 1.3975C0.000190629 2.09509 0.511288 2.67331 1.17944 2.77815V1.8015H0.824576V1.3975H1.17944V1.08958C1.17944 0.739302 1.38811 0.545817 1.70736 0.545817C1.86027 0.545817 2.02021 0.573115 2.02021 0.573115V0.917063H1.84397C1.67035 0.917063 1.6162 1.0248 1.6162 1.13533V1.3975H2.00383L1.94186 1.8015H1.6162V2.77815C2.28436 2.67331 2.79546 2.0951 2.79546 1.3975Z" fill="var(--fill-0, #1877F2)"/>
<path id="Vector_2" d="M1.94167 1.801L2.00364 1.39699H1.61601V1.13483C1.61601 1.02428 1.67016 0.916557 1.84378 0.916557H2.02002V0.572608C2.02002 0.572608 1.86008 0.545311 1.70715 0.545311C1.38792 0.545311 1.17925 0.738795 1.17925 1.08908V1.39699H0.824386V1.801H1.17925V2.77765C1.2515 2.78897 1.32451 2.79464 1.39763 2.79463C1.47076 2.79464 1.54377 2.78897 1.61601 2.77765V1.801H1.94167Z" fill="var(--fill-0, white)"/>
</g>
<defs>
<clipPath id="clip0_6557_109140">
<rect width="2.79527" height="2.79527" fill="white"/>
</clipPath>
</defs>
</svg>
