<svg preserveAspectRatio="none" width="100%" height="100%" overflow="visible" style="display: block;" viewBox="0 0 1.69875 1.69875" fill="none" xmlns="http://www.w3.org/2000/svg">
<g id="material-symbols:star-rounded" clip-path="url(#clip0_6557_109169)">
<path id="Vector" d="M0.849809 1.22338L0.556066 1.40033C0.543089 1.40859 0.529523 1.41213 0.515367 1.41095C0.50121 1.40977 0.488824 1.40505 0.478206 1.39679C0.467589 1.38853 0.459331 1.37822 0.453433 1.36586C0.447535 1.3535 0.446355 1.33962 0.449894 1.32424L0.527753 0.989799L0.267632 0.765068C0.255835 0.754451 0.248474 0.742347 0.245548 0.728757C0.242623 0.715167 0.243496 0.701908 0.248167 0.688978C0.252839 0.676049 0.259917 0.665432 0.269402 0.657127C0.278886 0.648822 0.291863 0.643513 0.308331 0.641201L0.651621 0.611119L0.784336 0.296142C0.790234 0.281986 0.799389 0.271368 0.811799 0.26429C0.824209 0.257212 0.836879 0.253673 0.849809 0.253673C0.862738 0.253673 0.875408 0.257212 0.887818 0.26429C0.900228 0.271368 0.909383 0.281986 0.915281 0.296142L1.048 0.611119L1.39129 0.641201C1.4078 0.64356 1.42078 0.648869 1.43022 0.657127C1.43965 0.665385 1.44673 0.676002 1.45145 0.688978C1.45617 0.701955 1.45707 0.715238 1.45414 0.728828C1.45121 0.742418 1.44383 0.754498 1.43199 0.765068L1.17186 0.989799L1.24972 1.32424C1.25326 1.33958 1.25208 1.35345 1.24618 1.36586C1.24029 1.37827 1.23203 1.38858 1.22141 1.39679C1.21079 1.405 1.19841 1.40972 1.18425 1.41095C1.17009 1.41217 1.15653 1.40864 1.14355 1.40033L0.849809 1.22338Z" fill="var(--fill-0, #FFC633)"/>
</g>
<defs>
<clipPath id="clip0_6557_109169">
<rect width="1.69875" height="1.69875" fill="white"/>
</clipPath>
</defs>
</svg>
