<svg preserveAspectRatio="none" width="100%" height="100%" overflow="visible" style="display: block;" viewBox="0 0 2.50564 2.50564" fill="none" xmlns="http://www.w3.org/2000/svg">
<g id="material-symbols:star-rounded" clip-path="url(#clip0_6557_109106)">
<path id="Vector" d="M1.2525 1.80346L0.819237 2.06446C0.800097 2.07664 0.780086 2.08186 0.759206 2.08012C0.738326 2.07838 0.720055 2.07142 0.704395 2.05924C0.688735 2.04706 0.676554 2.03185 0.667854 2.01362C0.659154 1.99538 0.657414 1.97492 0.662634 1.95223L0.777476 1.45893L0.393799 1.12745C0.376399 1.11179 0.365541 1.09394 0.361226 1.0739C0.356911 1.05385 0.358198 1.03429 0.365089 1.01522C0.37198 0.996151 0.38242 0.980491 0.39641 0.968241C0.410399 0.955991 0.42954 0.948161 0.453831 0.944751L0.960179 0.90038L1.15593 0.435792C1.16463 0.414911 1.17814 0.399251 1.19644 0.388811C1.21475 0.378371 1.23343 0.373151 1.2525 0.373151C1.27158 0.373151 1.29026 0.378371 1.30857 0.388811C1.32687 0.399251 1.34038 0.414911 1.34908 0.435792L1.54483 0.90038L2.05118 0.944751C2.07554 0.948231 2.09468 0.956061 2.1086 0.968241C2.12252 0.980421 2.13296 0.996082 2.13992 1.01522C2.14688 1.03436 2.1482 1.05396 2.14389 1.074C2.13957 1.09405 2.12868 1.11186 2.11121 1.12745L1.72753 1.45893L1.84237 1.95223C1.8476 1.97485 1.84586 1.99531 1.83715 2.01362C1.82845 2.03192 1.81627 2.04713 1.80061 2.05924C1.78495 2.07135 1.76668 2.07831 1.7458 2.08012C1.72492 2.08193 1.70491 2.07671 1.68577 2.06446L1.2525 1.80346Z" fill="var(--fill-0, #FFC633)"/>
</g>
<defs>
<clipPath id="clip0_6557_109106">
<rect width="2.50564" height="2.50564" fill="white"/>
</clipPath>
</defs>
</svg>
