<svg preserveAspectRatio="none" width="100%" height="100%" overflow="visible" style="display: block;" viewBox="0 0 1.69875 1.69875" fill="none" xmlns="http://www.w3.org/2000/svg">
<g id="material-symbols:star-rounded" clip-path="url(#clip0_6557_108808)">
<path id="Vector" d="M0.849182 1.22338L0.555439 1.40033C0.542463 1.40859 0.528896 1.41213 0.51474 1.41095C0.500584 1.40977 0.488197 1.40505 0.47758 1.39679C0.466962 1.38853 0.458705 1.37822 0.452806 1.36586C0.446908 1.3535 0.445728 1.33962 0.449267 1.32424L0.527127 0.989799L0.267005 0.765068C0.255208 0.754451 0.247847 0.742347 0.244921 0.728757C0.241996 0.715167 0.242869 0.701908 0.24754 0.688978C0.252212 0.676049 0.25929 0.665432 0.268775 0.657127C0.278259 0.648822 0.291236 0.643513 0.307704 0.641201L0.650994 0.611119L0.783709 0.296142C0.789607 0.281986 0.798762 0.271368 0.811172 0.26429C0.823582 0.257212 0.836252 0.253673 0.849182 0.253673C0.862111 0.253673 0.874781 0.257212 0.887191 0.26429C0.899602 0.271368 0.908756 0.281986 0.914654 0.296142L1.04737 0.611119L1.39066 0.641201C1.40717 0.64356 1.42015 0.648869 1.42959 0.657127C1.43903 0.665385 1.4461 0.676002 1.45082 0.688978C1.45554 0.701955 1.45644 0.715238 1.45351 0.728828C1.45059 0.742418 1.4432 0.754498 1.43136 0.765068L1.17124 0.989799L1.2491 1.32424C1.25264 1.33958 1.25146 1.35345 1.24556 1.36586C1.23966 1.37827 1.2314 1.38858 1.22078 1.39679C1.21017 1.405 1.19778 1.40972 1.18362 1.41095C1.16947 1.41217 1.1559 1.40864 1.14292 1.40033L0.849182 1.22338Z" fill="var(--fill-0, #FFC633)"/>
</g>
<defs>
<clipPath id="clip0_6557_108808">
<rect width="1.69875" height="1.69875" fill="white"/>
</clipPath>
</defs>
</svg>
