<svg preserveAspectRatio="none" width="100%" height="100%" overflow="visible" style="display: block;" viewBox="0 0 1.69942 1.69942" fill="none" xmlns="http://www.w3.org/2000/svg">
<g id="stash:location-light" clip-path="url(#clip0_6557_109034)">
<path id="Vector" d="M1.02727 1.12286C1.02727 0.989951 1.13985 0.885154 1.2751 0.885154C1.41035 0.885154 1.52293 0.989951 1.52293 1.12286C1.52293 1.23601 1.46388 1.33486 1.40886 1.40305C1.37817 1.44079 1.344 1.47557 1.30682 1.50693L1.29946 1.51288L1.29741 1.51451L1.29684 1.515L1.29663 1.51514L1.2751 1.48703L1.25542 1.51649L1.25534 1.51642L1.25513 1.51628L1.25442 1.51585L1.2523 1.51444L1.24486 1.50898C1.20696 1.48035 1.17238 1.44758 1.14177 1.41127C1.08583 1.34456 1.02727 1.24571 1.02727 1.12286ZM1.2751 1.48703L1.25542 1.51649L1.27645 1.53051L1.29656 1.51514L1.2751 1.48703ZM1.2739 1.44193L1.28431 1.43251C1.30328 1.41509 1.32856 1.38981 1.3537 1.35858C1.40489 1.29521 1.45212 1.21201 1.45212 1.12286C1.45212 1.0323 1.37452 0.955963 1.2751 0.955963C1.17568 0.955963 1.09808 1.0323 1.09808 1.12286C1.09808 1.22263 1.14573 1.30583 1.19601 1.36567C1.21946 1.39353 1.24554 1.41907 1.2739 1.44193ZM1.20429 1.13299C1.20429 1.11421 1.21175 1.0962 1.22503 1.08292C1.23831 1.06964 1.25632 1.06218 1.2751 1.06218C1.29388 1.06218 1.31189 1.06964 1.32517 1.08292C1.33845 1.0962 1.34591 1.11421 1.34591 1.13299C1.34591 1.15177 1.33845 1.16978 1.32517 1.18306C1.31189 1.19634 1.29388 1.2038 1.2751 1.2038C1.25632 1.2038 1.23831 1.19634 1.22503 1.18306C1.21175 1.16978 1.20429 1.15177 1.20429 1.13299ZM0.708626 0.247871C0.606874 0.247871 0.525939 0.327956 0.525939 0.424894C0.525939 0.521831 0.606944 0.601917 0.708626 0.601917C0.810308 0.601917 0.891243 0.521831 0.891243 0.424894C0.891243 0.327956 0.810308 0.247871 0.708556 0.247871M0.455129 0.424894C0.455129 0.28717 0.569486 0.177061 0.708626 0.177061C0.847696 0.177061 0.962053 0.28717 0.962053 0.424894C0.962053 0.562618 0.847696 0.672726 0.708556 0.672726C0.569557 0.672726 0.455271 0.562618 0.455271 0.424894M0.539251 0.832472C0.523814 0.822558 0.508803 0.819726 0.497827 0.8227C0.487442 0.825532 0.47708 0.828601 0.466742 0.831905L0.397066 0.854281C0.372154 0.862028 0.349235 0.875122 0.32991 0.892649C0.310586 0.910175 0.295322 0.931711 0.285187 0.95575L0.283204 0.962194L0.283134 0.962477L0.282921 0.963185L0.282284 0.965451L0.27931 0.977772L0.278743 0.980038L0.278602 0.980746V0.981029C0.277511 0.986385 0.276731 0.991799 0.276265 0.997245L0.24957 1.24954L0.249499 1.25018C0.243126 1.29521 0.267343 1.33338 0.307846 1.34279C0.385524 1.36078 0.515317 1.38082 0.708768 1.38082C0.718158 1.38082 0.727163 1.38455 0.733803 1.39119C0.740443 1.39783 0.744173 1.40683 0.744173 1.41622C0.744173 1.42561 0.740443 1.43462 0.733803 1.44126C0.727163 1.4479 0.718158 1.45163 0.708768 1.45163C0.510502 1.45163 0.375256 1.43109 0.291843 1.41176C0.210625 1.39293 0.168848 1.31652 0.179257 1.24083L0.20581 0.989951C0.206589 0.982446 0.207085 0.977772 0.208996 0.967859C0.211667 0.955591 0.21488 0.943447 0.218626 0.931463V0.93125L0.218697 0.931109C0.232589 0.897002 0.253846 0.866387 0.280948 0.841452C0.308049 0.816517 0.340326 0.797879 0.375469 0.78687L0.445145 0.764495C0.45638 0.760907 0.467663 0.757555 0.478992 0.75444C0.515813 0.744314 0.551784 0.756281 0.5777 0.773063C0.605599 0.791048 0.651696 0.813353 0.708697 0.813353C0.765699 0.813353 0.811866 0.791048 0.839765 0.772992C0.865752 0.756281 0.901652 0.744314 0.938473 0.75444C0.949803 0.757603 0.961085 0.760954 0.97232 0.764495L1.04207 0.78687C1.0466 0.788196 1.05083 0.790416 1.0545 0.7934C1.05816 0.796384 1.06119 0.800072 1.06341 0.804246C1.06563 0.80842 1.06699 0.812996 1.06741 0.817704C1.06783 0.822412 1.0673 0.827156 1.06586 0.831658C1.06442 0.836159 1.06209 0.840326 1.05901 0.843912C1.05593 0.847499 1.05217 0.850434 1.04794 0.852542C1.04371 0.854651 1.0391 0.855891 1.03438 0.856189C1.02966 0.856488 1.02493 0.855839 1.02047 0.854281L0.950723 0.831976C0.940479 0.828671 0.930141 0.825603 0.919709 0.822771C0.908662 0.819726 0.893722 0.822487 0.878215 0.832472C0.843589 0.854918 0.784109 0.884162 0.708768 0.884162C0.633356 0.884162 0.573876 0.854918 0.539251 0.832472Z" fill="var(--fill-0, black)"/>
</g>
<defs>
<clipPath id="clip0_6557_109034">
<rect width="1.69942" height="1.69942" fill="white"/>
</clipPath>
</defs>
</svg>
