<svg preserveAspectRatio="none" width="100%" height="100%" overflow="visible" style="display: block;" viewBox="0 0 1.76656 1.76656" fill="none" xmlns="http://www.w3.org/2000/svg">
<g id="fluent:chat-24-regular" clip-path="url(#clip0_6557_109197)">
<path id="Vector" d="M0.884014 0.147151C1.29054 0.147151 1.62008 0.476688 1.62008 0.883218C1.62008 1.28975 1.29054 1.61928 0.884014 1.61928C0.766537 1.61945 0.650741 1.59138 0.54638 1.53743L0.264761 1.61597C0.249049 1.62036 0.232453 1.62049 0.216675 1.61635C0.200897 1.61221 0.186503 1.60394 0.174968 1.59241C0.163434 1.58088 0.155173 1.56648 0.151033 1.5507C0.146893 1.53493 0.147021 1.51833 0.151406 1.50262L0.230018 1.22122C0.175943 1.11677 0.147794 1.00084 0.147947 0.883218C0.147947 0.476688 0.477484 0.147151 0.884014 0.147151ZM0.884014 0.257561C0.718079 0.257561 0.558941 0.323478 0.441608 0.440811C0.324274 0.558145 0.258357 0.717283 0.258357 0.883218C0.258357 0.99142 0.285812 1.09543 0.337337 1.18773L0.348378 1.2076L0.266527 1.50085L0.559997 1.419L0.579871 1.43004C0.663369 1.47647 0.75639 1.50315 0.8518 1.50805C0.94721 1.51295 1.04247 1.49594 1.13029 1.45831C1.21811 1.42069 1.29614 1.36346 1.35841 1.291C1.42067 1.21854 1.46552 1.13279 1.48951 1.04031C1.5135 0.947839 1.51599 0.851099 1.49679 0.757511C1.4776 0.663924 1.43723 0.575975 1.37877 0.500409C1.32032 0.424843 1.24534 0.363666 1.15957 0.321571C1.07381 0.279475 0.97955 0.257579 0.884014 0.257561ZM0.644792 0.956824H0.975875C0.989862 0.956829 1.00333 0.962142 1.01355 0.971691C1.02377 0.98124 1.02998 0.994312 1.03093 1.00827C1.03189 1.02222 1.02751 1.03602 1.01868 1.04687C1.00986 1.05772 0.997239 1.06481 0.983383 1.06672L0.975875 1.06723H0.644792C0.630805 1.06723 0.617341 1.06192 0.607121 1.05237C0.5969 1.04282 0.590686 1.02975 0.589732 1.01579C0.588779 1.00184 0.593158 0.988042 0.601985 0.977192C0.610811 0.966341 0.623428 0.959246 0.637284 0.95734L0.644792 0.956824ZM0.644792 0.699201H1.1236C1.13758 0.699224 1.15104 0.70455 1.16124 0.714105C1.17145 0.72366 1.17765 0.736731 1.17859 0.75068C1.17954 0.764629 1.17515 0.778416 1.16633 0.789258C1.1575 0.800101 1.14489 0.80719 1.13104 0.809096L1.1236 0.809611H0.644792C0.630805 0.809607 0.617341 0.804293 0.607121 0.794745C0.5969 0.785196 0.590686 0.772123 0.589732 0.758169C0.588779 0.744214 0.593158 0.730418 0.601985 0.719568C0.610811 0.708718 0.623428 0.701623 0.637284 0.699716L0.644792 0.699201Z" fill="var(--fill-0, #338078)"/>
</g>
<defs>
<clipPath id="clip0_6557_109197">
<rect width="1.76656" height="1.76656" fill="white"/>
</clipPath>
</defs>
</svg>
