<svg preserveAspectRatio="none" width="100%" height="100%" overflow="visible" style="display: block;" viewBox="0 0 1.69942 1.69942" fill="none" xmlns="http://www.w3.org/2000/svg">
<g id="stash:location-light" clip-path="url(#clip0_6557_109172)">
<path id="Vector" d="M1.02643 1.12286C1.02643 0.989951 1.13902 0.885154 1.27426 0.885154C1.40951 0.885154 1.52209 0.989951 1.52209 1.12286C1.52209 1.23601 1.46304 1.33486 1.40802 1.40305C1.37733 1.44079 1.34317 1.47557 1.30598 1.50693L1.29862 1.51288L1.29657 1.51451L1.296 1.515L1.29579 1.51514L1.27426 1.48703L1.25458 1.51649L1.25451 1.51642L1.25429 1.51628L1.25359 1.51585L1.25146 1.51444L1.24403 1.50898C1.20613 1.48035 1.17155 1.44758 1.14093 1.41127C1.08499 1.34456 1.02643 1.24571 1.02643 1.12286ZM1.27426 1.48703L1.25458 1.51649L1.27561 1.53051L1.29572 1.51514L1.27426 1.48703ZM1.27306 1.44193L1.28347 1.43251C1.30244 1.41509 1.32772 1.38981 1.35286 1.35858C1.40406 1.29521 1.45129 1.21201 1.45129 1.12286C1.45129 1.0323 1.37368 0.955963 1.27426 0.955963C1.17485 0.955963 1.09724 1.0323 1.09724 1.12286C1.09724 1.22263 1.14489 1.30583 1.19517 1.36567C1.21862 1.39353 1.2447 1.41907 1.27306 1.44193ZM1.20345 1.13299C1.20345 1.11421 1.21091 1.0962 1.22419 1.08292C1.23747 1.06964 1.25548 1.06218 1.27426 1.06218C1.29304 1.06218 1.31105 1.06964 1.32433 1.08292C1.33761 1.0962 1.34507 1.11421 1.34507 1.13299C1.34507 1.15177 1.33761 1.16978 1.32433 1.18306C1.31105 1.19634 1.29304 1.2038 1.27426 1.2038C1.25548 1.2038 1.23747 1.19634 1.22419 1.18306C1.21091 1.16978 1.20345 1.15177 1.20345 1.13299ZM0.707788 0.247871C0.606035 0.247871 0.5251 0.327956 0.5251 0.424894C0.5251 0.521831 0.606106 0.601917 0.707788 0.601917C0.80947 0.601917 0.890405 0.521831 0.890405 0.424894C0.890405 0.327956 0.80947 0.247871 0.707717 0.247871M0.454291 0.424894C0.454291 0.28717 0.568648 0.177061 0.707788 0.177061C0.846857 0.177061 0.961214 0.28717 0.961214 0.424894C0.961214 0.562618 0.846857 0.672726 0.707717 0.672726C0.568719 0.672726 0.454433 0.562618 0.454433 0.424894M0.538412 0.832472C0.522976 0.822558 0.507964 0.819726 0.496989 0.8227C0.486604 0.825532 0.476242 0.828601 0.465904 0.831905L0.396227 0.854281C0.371316 0.862028 0.348396 0.875122 0.329072 0.892649C0.309747 0.910175 0.294484 0.931711 0.284349 0.95575L0.282366 0.962194L0.282295 0.962477L0.282083 0.963185L0.281446 0.965451L0.278472 0.977772L0.277905 0.980038L0.277764 0.980746V0.981029C0.276672 0.986385 0.275892 0.991799 0.275427 0.997245L0.248732 1.24954L0.248661 1.25018C0.242288 1.29521 0.266505 1.33338 0.307008 1.34279C0.384686 1.36078 0.514479 1.38082 0.70793 1.38082C0.71732 1.38082 0.726325 1.38455 0.732965 1.39119C0.739604 1.39783 0.743334 1.40683 0.743334 1.41622C0.743334 1.42561 0.739604 1.43462 0.732965 1.44126C0.726325 1.4479 0.71732 1.45163 0.70793 1.45163C0.509664 1.45163 0.374418 1.43109 0.291005 1.41176C0.209787 1.39293 0.168009 1.31652 0.178418 1.24083L0.204972 0.989951C0.205751 0.982446 0.206246 0.977772 0.208158 0.967859C0.210829 0.955591 0.214042 0.943447 0.217788 0.931463V0.93125L0.217859 0.931109C0.231751 0.897002 0.253008 0.866387 0.280109 0.841452C0.307211 0.816517 0.339487 0.797879 0.374631 0.78687L0.444307 0.764495C0.455542 0.760907 0.466824 0.757555 0.478154 0.75444C0.514975 0.744314 0.550946 0.756281 0.576862 0.773063C0.604761 0.791048 0.650858 0.813353 0.707859 0.813353C0.76486 0.813353 0.811028 0.791048 0.838927 0.772992C0.864914 0.756281 0.900814 0.744314 0.937635 0.75444C0.948964 0.757603 0.960247 0.760954 0.971482 0.764495L1.04123 0.78687C1.04577 0.788196 1.04999 0.790416 1.05366 0.7934C1.05732 0.796384 1.06035 0.800072 1.06257 0.804246C1.06479 0.80842 1.06615 0.812996 1.06657 0.817704C1.06699 0.822412 1.06646 0.827156 1.06502 0.831658C1.06358 0.836159 1.06125 0.840326 1.05817 0.843912C1.05509 0.847499 1.05133 0.850434 1.0471 0.852542C1.04287 0.854651 1.03826 0.855891 1.03354 0.856189C1.02882 0.856488 1.02409 0.855839 1.01963 0.854281L0.949885 0.831976C0.939641 0.828671 0.929303 0.825603 0.91887 0.822771C0.907824 0.819726 0.892883 0.822487 0.877376 0.832472C0.842751 0.854918 0.783271 0.884162 0.70793 0.884162C0.632518 0.884162 0.573038 0.854918 0.538412 0.832472Z" fill="var(--fill-0, black)"/>
</g>
<defs>
<clipPath id="clip0_6557_109172">
<rect width="1.69942" height="1.69942" fill="white"/>
</clipPath>
</defs>
</svg>
