<svg preserveAspectRatio="none" width="100%" height="100%" overflow="visible" style="display: block;" viewBox="0 0 1.69875 1.69875" fill="none" xmlns="http://www.w3.org/2000/svg">
<g id="material-symbols:star-rounded" clip-path="url(#clip0_6557_109080)">
<path id="Vector" d="M0.84967 1.22338L0.555928 1.40033C0.542951 1.40859 0.529385 1.41213 0.515228 1.41095C0.501072 1.40977 0.488685 1.40505 0.478068 1.39679C0.467451 1.38853 0.459193 1.37822 0.453295 1.36586C0.447396 1.3535 0.446217 1.33962 0.449756 1.32424L0.527615 0.989799L0.267494 0.765068C0.255697 0.754451 0.248336 0.742347 0.24541 0.728757C0.242484 0.715167 0.243357 0.701908 0.248029 0.688978C0.2527 0.676049 0.259779 0.665432 0.269263 0.657127C0.278748 0.648822 0.291724 0.643513 0.308193 0.641201L0.651482 0.611119L0.784197 0.296142C0.790096 0.281986 0.79925 0.271368 0.811661 0.26429C0.824071 0.257212 0.836741 0.253673 0.84967 0.253673C0.8626 0.253673 0.875269 0.257212 0.88768 0.26429C0.90009 0.271368 0.909245 0.281986 0.915143 0.296142L1.04786 0.611119L1.39115 0.641201C1.40766 0.64356 1.42064 0.648869 1.43008 0.657127C1.43951 0.665385 1.44659 0.676002 1.45131 0.688978C1.45603 0.701955 1.45693 0.715238 1.454 0.728828C1.45108 0.742418 1.44369 0.754498 1.43185 0.765068L1.17173 0.989799L1.24958 1.32424C1.25312 1.33958 1.25194 1.35345 1.24605 1.36586C1.24015 1.37827 1.23189 1.38858 1.22127 1.39679C1.21066 1.405 1.19827 1.40972 1.18411 1.41095C1.16996 1.41217 1.15639 1.40864 1.14341 1.40033L0.84967 1.22338Z" fill="var(--fill-0, #FFC633)"/>
</g>
<defs>
<clipPath id="clip0_6557_109080">
<rect width="1.69875" height="1.69875" fill="white"/>
</clipPath>
</defs>
</svg>
