<svg preserveAspectRatio="none" width="100%" height="100%" overflow="visible" style="display: block;" viewBox="0 0 8.37446 8.37446" fill="none" xmlns="http://www.w3.org/2000/svg">
<g id="fluent:chat-24-regular">
<path id="Vector" d="M4.18671 0.698008C6.11388 0.698008 7.67607 2.26019 7.67607 4.18737C7.67607 6.11454 6.11388 7.67672 4.18671 7.67672C3.62981 7.67749 3.08087 7.54442 2.58614 7.28871L1.25111 7.66102C1.17663 7.68181 1.09796 7.68242 1.02316 7.66279C0.948365 7.64316 0.880131 7.604 0.825451 7.54932C0.77077 7.49464 0.73161 7.42641 0.711983 7.35161C0.692355 7.27681 0.692966 7.19814 0.713753 7.12366L1.08642 5.78968C0.830071 5.29452 0.696628 4.74495 0.697353 4.18737C0.697353 2.26019 2.25954 0.698008 4.18671 0.698008ZM4.18671 1.22141C3.40009 1.22141 2.64569 1.53389 2.08946 2.09012C1.53324 2.64634 1.22076 3.40075 1.22076 4.18737C1.22076 4.7003 1.35091 5.19335 1.59516 5.63091L1.6475 5.72512L1.25949 7.11529L2.6507 6.72727L2.74491 6.77961C3.14073 6.99968 3.5817 7.12618 4.034 7.14941C4.48629 7.17265 4.9379 7.09199 5.35419 6.91363C5.77048 6.73528 6.1404 6.46395 6.43558 6.12047C6.73076 5.77699 6.94336 5.37047 7.05708 4.93209C7.17079 4.49371 7.18261 4.0351 7.09161 3.59145C7.00062 3.14779 6.80923 2.73087 6.53213 2.37264C6.25503 2.01442 5.89957 1.72441 5.49301 1.52485C5.08646 1.3253 4.6396 1.2215 4.18671 1.22141ZM3.05267 4.5363H4.62218C4.68849 4.53632 4.75231 4.56151 4.80076 4.60678C4.84921 4.65204 4.87868 4.71401 4.8832 4.78017C4.88771 4.84632 4.86696 4.91172 4.82511 4.96315C4.78327 5.01459 4.72346 5.04822 4.65777 5.05726L4.62218 5.0597H3.05267C2.98636 5.05968 2.92254 5.0345 2.87409 4.98923C2.82564 4.94396 2.79618 4.88199 2.79166 4.81584C2.78714 4.74969 2.8079 4.68429 2.84974 4.63285C2.89158 4.58142 2.95139 4.54778 3.01708 4.53874L3.05267 4.5363ZM3.05267 3.31503H5.3225C5.38877 3.31513 5.45254 3.34038 5.50092 3.38568C5.54931 3.43097 5.5787 3.49294 5.58317 3.55906C5.58765 3.62519 5.56687 3.69055 5.52502 3.74195C5.48318 3.79335 5.4234 3.82695 5.35774 3.83599L5.3225 3.83843H3.05267C2.98636 3.83841 2.92254 3.81322 2.87409 3.76795C2.82564 3.72269 2.79618 3.66072 2.79166 3.59457C2.78714 3.52841 2.8079 3.46301 2.84974 3.41158C2.89158 3.36014 2.95139 3.32651 3.01708 3.31747L3.05267 3.31503Z" fill="var(--fill-0, #338078)"/>
</g>
</svg>
