<svg preserveAspectRatio="none" width="100%" height="100%" overflow="visible" style="display: block;" viewBox="0 0 27.0001 19.5481" fill="none" xmlns="http://www.w3.org/2000/svg">
<path id="Icon" d="M25.4255 19.3665C25.8775 19.6838 26.5012 19.5745 26.8185 19.1225C27.1358 18.6704 27.0266 18.0468 26.5745 17.7295L26 18.548L25.4255 19.3665ZM26 18.548L26.5745 17.7295L19.2469 12.5861L18.6724 13.4046L18.0979 14.2231L25.4255 19.3665L26 18.548ZM21.6897 8.26123H20.6897C20.6897 9.85173 19.7726 11.3928 18.0852 12.5772C16.4008 13.7595 14.0209 14.5225 11.3448 14.5225V15.5225V16.5225C14.3821 16.5225 17.1745 15.6599 19.2342 14.2142C21.291 12.7705 22.6897 10.681 22.6897 8.26123H21.6897ZM11.3448 15.5225V14.5225C8.66878 14.5225 6.28883 13.7595 4.60445 12.5772C2.91709 11.3928 2 9.85173 2 8.26123H1H0C0 10.681 1.39868 12.7705 3.45541 14.2142C5.51512 15.6599 8.30758 16.5225 11.3448 16.5225V15.5225ZM1 8.26123H2C2 6.67073 2.91709 5.12965 4.60445 3.94526C6.28883 2.76296 8.66878 2 11.3448 2V1V0C8.30758 0 5.51512 0.862522 3.45541 2.30827C1.39868 3.75193 0 5.84146 0 8.26123H1ZM11.3448 1V2C14.0209 2 16.4008 2.76296 18.0852 3.94526C19.7726 5.12965 20.6897 6.67073 20.6897 8.26123H21.6897H22.6897C22.6897 5.84146 21.291 3.75193 19.2342 2.30827C17.1745 0.862522 14.3821 0 11.3448 0V1Z" fill="var(--stroke-0, white)"/>
</svg>
